<svg xmlns="http://www.w3.org/2000/svg" viewBox="0 0 117.56 403.48"><defs><style>.cls-1{fill:#567f08;}.cls-2{fill:#355400;}.cls-3{fill:#564f27;}.cls-4{fill:#6d5a23;}.cls-5{fill:#274f16;}.cls-6{fill:#26442a;}.cls-7{fill:#296313;}.cls-8{fill:#1e3d10;}.cls-9{fill:#f9e4c0;}.cls-10{fill:#515d2b;}</style></defs><title>drevesa_zgoraj_desno_2</title><g id="Layer_2" data-name="Layer 2"><g id="RASTLINE"><g id="_4_TOPOL" data-name="4 TOPOL"><path class="cls-1" d="M56.28,43c.51-4,1-7.92,1.53-11.88.16-1.26,1.61-1.34,2-2.34.17-.24.34-.48.5-.73a.73.73,0,0,0-1.07.19,2.42,2.42,0,0,1,.57-4.06c1.13-.67,2.34-1.18,3.62-1.82-.27-.22-.38-.39-.49-.38-3.95.09-3.92.09-3.21-3.79A65.5,65.5,0,0,1,63.37,4.47C64.18,2.54,65-.11,67.46,0S71,2.52,71.83,4.67c3.06,8.12,4.1,16.68,5.41,25.18,3.75,24.46,7.25,49,10.07,73.55,1.48,12.92,2.79,25.85,3.35,38.85-1.85-2-3.41-1.06-5,.43-1.1,1-2.22,2.21-3.85,2.22-1.88,0-3.64-.15-3.67,2.6,0,.84-1.17,1.31-2,1.63s-1.71.19-1.54,1.39c.14,1,1,.8,1.68.92,3,.55,6,1.06,8.93,1.69.92.19,2.12.5,2.11,1.71s-1.29,1.1-2,1.31c-4.77,1.3-9.57,2.5-14.35,3.73-.9.24-1.52.11-1.87-.91a8.72,8.72,0,0,1-.47-2.9c0-.64-.3-1.67-.89-1.25-2.74,1.94-4.86-.49-7.25-.85-1.24-.19-1.58-.25-1.37,1.2s-.39,2.44-2.16,1.58a9.05,9.05,0,0,0-6.3-.33c-1.88.51-3.7-3-5.28.13l-1-.83c.1-2.16.19-4.32.29-6.48a161.1,161.1,0,0,1,22.29,1.2c2.24.32,2.32-.45,2.28-2.17-.17-8.17-.44-16.34-.33-24.51.06-4,.26-8,.31-12,0-1.65-.46-2-2.09-1.4A35.79,35.79,0,0,1,47.56,112c.26-7.8,1.46-15.51,2.38-23.24,1.41-11.91,3.11-23.78,4.7-35.67a6,6,0,0,1,.3-1c6.2-3.23,9.77-9,13.61-14.4a3.8,3.8,0,0,0,.62-2.3c0-2.42,0-4.84,0-7.26,0-.58.26-1.44-.57-1.59s-1,.67-1.23,1.21a139.24,139.24,0,0,1-8,12.84C58.61,41.7,57.87,43,56.28,43Z"/><path class="cls-2" d="M44.33,155.72l1,.83c1.58-3.13,3.4.38,5.28-.13a9.05,9.05,0,0,1,6.3.33c1.77.86,2.38-.09,2.16-1.58s.13-1.39,1.37-1.2c2.39.36,4.51,2.79,7.25.85.59-.42.9.61.89,1.25a8.72,8.72,0,0,0,.47,2.9c.35,1,1,1.15,1.87.91,4.78-1.23,9.58-2.43,14.35-3.73.76-.21,2-.11,2-1.31s-1.19-1.52-2.11-1.71c-3-.63-5.95-1.14-8.93-1.69-.67-.12-1.54.08-1.68-.92-.17-1.2.81-1.11,1.54-1.39s2-.79,2-1.63c0-2.75,1.79-2.58,3.67-2.6,1.63,0,2.75-1.18,3.85-2.22,1.57-1.49,3.13-2.43,5-.43l.42,4.29c-.35,0-.7.16-.67.58s.39.48.74.53c1.11,14.26,2.16,28.54,3.38,42.8.17,2-1.36,2.4-2.34,3.37.72.68,1.49-.07,2.37.47-4.27,2.78-9,2.55-13.91,3a5.59,5.59,0,0,0,3.66,1.83,35.46,35.46,0,0,0,5.31.8c5.57.35,5.56.31,5.9,5.92.11,1.88.35,3.75.45,5.63.25,4.51-1.88,8-5.14,10.75a35.81,35.81,0,0,1-9.39,5.72c-4.11,0-8,2.14-12.2,1.19-1.39,0-3.07.56-4.13,0-2.89-1.59-6.07-.76-9-1.58-5.29-2.35-10.31-5-12.84-10.68a10.57,10.57,0,0,1-1.05-4.68q.81-25.92,1.66-51.84a5.24,5.24,0,0,1,.15-.79c1-.36,1-.73,0-1.12Zm45.9,38.67a12.78,12.78,0,0,0,1.33.14c.06,0,.12-.24.18-.37a2.63,2.63,0,0,0-.67-.12A3.66,3.66,0,0,0,90.23,194.39Z"/><path class="cls-2" d="M47.56,112a35.79,35.79,0,0,0,19.52-1.69c1.63-.62,2.11-.25,2.09,1.4,0,4-.25,8-.31,12-.11,8.17.16,16.34.33,24.51,0,1.72,0,2.49-2.28,2.17a161.1,161.1,0,0,0-22.29-1.2l.51-8.05c6.71-1.68,13.66-2.23,20.54-4.15a2.79,2.79,0,0,0-2.47-.72,65.31,65.31,0,0,1-13.28-1.52,2.49,2.49,0,0,1-2.34-2.64c-.27-3.66,1.35-5.43,5.45-5.53,3.77-.1,7.38-1.22,11.11-1.56.83-.08,1.94.3,2.61-.7a2.22,2.22,0,0,0-2.15-.43c-4.63,1-9.31.21-13.95.54-2.21.16-3.81-.17-4.06-2.73A55.59,55.59,0,0,1,47.56,112Z"/><path class="cls-3" d="M69.24,229.11c4.2.95,8.09-1.19,12.2-1.19a31.66,31.66,0,0,1-6.78,3.76,3.37,3.37,0,0,0-2.27,3.67c.4,16.14.7,32.29,1,48.43.08,4.27,0,4.28-4.27,4,0-.63,0-1.26,0-1.89Q69.22,257.52,69.24,229.11Z"/><path class="cls-4" d="M69.24,229.11q0,28.39-.07,56.8c0,.63,0,1.26,0,1.89a14.79,14.79,0,0,0-1.88.09c-1.58.25-1.88-.44-1.85-1.93.17-12,.26-24.07.38-36.1,0-5,0-10.06.17-15.09a2.39,2.39,0,0,0-1.46-2.49c-2.83-1.52-5.58-3.17-8.37-4.77,2.93.82,6.11,0,9,1.58C66.17,229.67,67.85,229.13,69.24,229.11Z"/><path class="cls-5" d="M56.28,43c1.59,0,2.33-1.31,3-2.38a139.24,139.24,0,0,0,8-12.84c.28-.54.49-1.34,1.23-1.21s.56,1,.57,1.59c0,2.42,0,4.84,0,7.26a3.8,3.8,0,0,1-.62,2.3c-3.84,5.45-7.41,11.17-13.61,14.4A61,61,0,0,1,56.28,43Z"/><path class="cls-1" d="M46.59,121.75c.25,2.56,1.85,2.89,4.06,2.73,4.64-.33,9.32.43,13.95-.54a2.22,2.22,0,0,1,2.15.43c-.67,1-1.78.62-2.61.7-3.73.34-7.34,1.46-11.11,1.56-4.1.1-5.72,1.87-5.45,5.53a2.49,2.49,0,0,0,2.34,2.64,65.31,65.31,0,0,0,13.28,1.52,2.79,2.79,0,0,1,2.47.72c-6.88,1.92-13.83,2.47-20.54,4.15C45.51,134.7,45.76,128.2,46.59,121.75Z"/><path class="cls-6" d="M44.05,158.4c1,.39,1,.76,0,1.12C44,159.15,44.05,158.77,44.05,158.4Z"/><path class="cls-6" d="M91.15,147.65c-.35-.05-.72-.12-.74-.53s.32-.54.67-.58Z"/></g><g id="_2_PODRAST" data-name="2 PODRAST"><path class="cls-7" d="M82.73,237.09c-1,.61-2,.8-3,1.77-1.43,1.47-.54-1-1.27-1.14-1.45,4.51-.33,9.29-1.23,13.89a11.79,11.79,0,0,1-.47,2.87c.92,1.26.63,2.78.35,4-.79,3.47-.58,7-.71,10.49-.28,7.19-1.81,14.31-1.19,21.55a8.49,8.49,0,0,1-.46,2.38,5.76,5.76,0,0,0,2.94-.87c.72-3.17,1.46-6.33,2.31-9.47.46-1.7,1.31-3.71.06-5.47-1.69-2.38-.59-4.29.74-6.28,1.18-1.77,3-3.19,3.25-5.53-.55,9,1.87,18.28-2.92,26.77,3.38,1.48,3.38,1.48,4.44-1.87,0-.07.07-.14.1-.22.5-3.23,1-6.46,1.5-9.69a3.13,3.13,0,0,1,.63-1.56c3.51-3.86,4.44-8.74,5.07-13.6.59-4.44,1.33-8.95.23-13.45a23.64,23.64,0,0,0-8.73-13C83.76,238.18,83.34,237.55,82.73,237.09Z"/><path class="cls-7" d="M61.83,271.15c-1.33-1.34-2.3-1.92-2.74.73a4.15,4.15,0,0,1-1.1,2.27,10.47,10.47,0,0,0-.49,4.55,12.66,12.66,0,0,1,4.1.36c1,.27,1.38.68,1.17,1.68a41.53,41.53,0,0,0-.9,9.74c-2.12-1.05-3.19,1.09-4.83,1.4-.45,2.87.52,5.75-.08,8.61l1.07.21c.12-.23.23-.47.35-.7,4-.94,2.55-4.71,3.54-7.25.7,1.66.48,3.3.47,4.9,0,1.41.14,2.31,2,2.3s2.15-.7,2-2.22a8.18,8.18,0,0,1,.09-2.21c1.78-9.49,1.88-19.13,2.38-28.74-1.07-2.34-1.61-2.58-3.2-.56-.94,1.18-1.15-.27-1.67,0-.1,4.07,0,8.16-1,12.5C61.45,276.07,62.15,273.54,61.83,271.15Z"/><path class="cls-8" d="M36.16,275.47c.08-5.07.37-10.15-.74-15.18-.27,5.22-.88,10.43-.69,15.67,0,2.3.1,4.6,0,6.9-.15,2.84-.47,5.68-.78,8.51,0,.51-.13,1.27-.9,1.28s-.66-.75-.86-1.26a11.43,11.43,0,0,1-.42-3.39c-.23-3,.5-6-.42-9,0,1.13,0,2.27,0,3.4.18,3.52-.83,7-.52,10.51.13,1.42-1.06,1.55-2,1.69-1.16.18-1-.85-1-1.53.29-3.61-.83-7.15-.47-10.75a173.48,173.48,0,0,0-2.11-24.51c.5,4.72-.2,9.47.34,14.18a17.27,17.27,0,0,1-.16,7.05,49,49,0,0,1,.87,12.2c-.25,3.15.6,6.23.54,9.36H37.12c-.53-2.7,1.07-5.14,4.51-6.87-.38-.87-2.07.3-2-1.64.06-3.66.85-7.25.89-10.9,0-3.89.93-7.72.7-11.62a3.6,3.6,0,0,0-.56,2.37c-.64,4.6-1.27,9.21-1.94,13.8-.31,2.14-.63,4.31-3,6.25,0-4.35-.06-8.16,0-12C35.77,278.51,35.26,276.92,36.16,275.47Z"/><path class="cls-9" d="M77.7,292.35a5.86,5.86,0,0,1-2.94.87l-1.89,1.62c-.53,1.58-1,3.17,0,4.71.62.89-.13,1.11-.61,1.49A80.7,80.7,0,0,0,89,300.43c3.42-.45,5-2.36,4.51-5.42-.55-3.43-3.3-5.62-6.37-5.06-.48.09-1,.22-1.43.33a1.47,1.47,0,0,0-.1.22c-1.06,3.34-1.06,3.34-4.44,1.87Z"/><path class="cls-7" d="M72.31,300.75c.48-.38,1.23-.6.61-1.49-1.08-1.53-.58-3.13,0-4.71-.87-.71-.52-1.58-.38-2.48.63-3.93,1.05-7.9,1.86-11.79.48-2.3-1-4.38-.46-6.48,1.26-4.77.92-9.71,1.79-14.51a2.34,2.34,0,0,0-3.31,1.45c-.39,1.12-.83,1-1.57.59-.78.74-.55,1.72-.47,2.57.34,3.42-.11,6.86-.29,10.23-.24,4.47-.78,8.95-.7,13.45a23.83,23.83,0,0,1-1,6.77,14.07,14.07,0,0,0-.5,6,.37.37,0,0,1,0,.34h1.56a.5.5,0,0,1,.85,0Z"/><path class="cls-9" d="M8.52,290.22l-3,0c-2.19,1.25-4.41,2.37-4,5.61s2,4.87,5.18,4.85l12.28-.07c1.15-2.08,1.61-4.1-.46-5.93l-.69-.45-2.73,0c-.61.37-.94.06-1-.52a5.77,5.77,0,0,0-2-3l-1.92-.41Z"/><path class="cls-8" d="M57,300.78c.6-2.87-.37-5.75.08-8.61q.23-6.6.46-13.19a10.44,10.44,0,0,1,.49-4.54c-.22-13.5.69-27,1-40.94-1.39,6.73-3.32,12.9-2.83,19.32A159.45,159.45,0,0,1,56,271.5q0,3.69,0,7.4l.33,6.8c-.47,3.43.31,6.9-.37,10.31a15.15,15.15,0,0,0-.42,4.83A1.63,1.63,0,0,0,57,300.78Z"/><path class="cls-8" d="M67.82,300.62a14.06,14.06,0,0,1,.5-6,23.88,23.88,0,0,0,1-6.77c-.08-4.51.46-9,.7-13.46.18-3.36.63-6.81.29-10.23-.08-.85-.31-1.83.47-2.56V251.28c-1.32,3.37-1,7-1.48,10.42-.27,1.77.23,3.63-.49,5.37-.5,9.6-.6,19.24-2.38,28.74a8.18,8.18,0,0,0-.09,2.21c.13,1.52-.31,2.21-2,2.22s-2-.9-2-2.31c0-1.6.23-3.23-.47-4.9-1,2.54.49,6.32-3.54,7.26,0,.22.07.44.11.67l4,0a1.66,1.66,0,0,1,1.88-.06h1.55c.16-.25.31-.23.44,0h1Z"/><path class="cls-7" d="M55.53,300.56a15.12,15.12,0,0,1,.42-4.83c.68-3.41-.1-6.89.37-10.31-.94.09-1.79.94-2.81.39-1.36-.72-1.85.3-2.43,1.17.18,4.47.69,8.92.44,13.4l.45.26h1.59a.58.58,0,0,1,.89,0Z"/><path class="cls-9" d="M41.63,293.75c-3.44,1.73-5,4.17-4.51,6.87,3.48,1.32,7,.61,10.55.3-.77-.26-.91-.65-.5-1.42a4.39,4.39,0,0,0-.61-5.11l-1-.48Z"/><path class="cls-7" d="M18.47,294.73c2.07,1.83,1.61,3.85.46,5.93l7.91-.05c.06-3.13-.79-6.21-.54-9.36-1.67-.9-1.67-.9-3.37.46-.19.2-.39.39-.59.59-.31,1.2-1.05,1.18-1.8.5-.48-.44-.83-1-1.55-1.1C18.68,292.69,19.33,293.84,18.47,294.73Z"/><path class="cls-8" d="M51.52,300.67c.25-4.48-.26-8.94-.44-13.4L51,278.9c-.87-1.74-.35-3.6-.47-5.41l-.48-4.4,0-1.59v-7.29h-.58v10.27l0,8.46-.06,8.81c-.11,4.28.57,8.57-.4,12.82a.25.25,0,0,1,0,.29l2.39.09A.2.2,0,0,1,51.52,300.67Z"/><path class="cls-7" d="M49.09,300.57c1-4.25.29-8.54.4-12.82-1.14-.23-1.85.81-2.85,1,0,1.88-.06,3.76-.08,5.64a4.39,4.39,0,0,1,.61,5.11c-.41.77-.27,1.16.5,1.42l.85,0Z"/><path class="cls-9" d="M64.34,300.92a1.66,1.66,0,0,0-1.88.06A2.25,2.25,0,0,0,64.34,300.92Z"/><path class="cls-9" d="M58.49,301c0-.23-.08-.45-.11-.67L58,301Z"/><path class="cls-9" d="M70.24,301a.5.5,0,0,0-.85,0Z"/><path class="cls-9" d="M54.45,300.91a.58.58,0,0,0-.89,0A.74.74,0,0,0,54.45,300.91Z"/><path class="cls-9" d="M67.82,300.62l-.44.33h.45A.35.35,0,0,0,67.82,300.62Z"/><path class="cls-9" d="M66.33,301c-.13-.26-.28-.28-.44,0l.21.12Z"/><path class="cls-9" d="M51.52,300.67a.2.2,0,0,0,0,.28l.23.09.21-.12Z"/><path class="cls-9" d="M49.09,300.57l-.57.31a.38.38,0,0,0,.62,0A.25.25,0,0,0,49.09,300.57Z"/><path class="cls-7" d="M49.55,278.94l0-8.46c-1.42.09-2.35,2.48-3.63,1.37-.71-.63-.23-2.64-.25-4,0-1.22,0-2.44,0-3.82-.77.56-.47,1.15-.51,1.65-.09,1.13.42,2.57-1.78,2.13-.41-.08-2.21.27-2.16,1.8.23,3.9-.66,7.73-.7,11.62,0,3.65-.83,7.24-.89,10.9,0,1.94,1.66.77,2,1.64l3.89.16c-.38-6.45-.88-12.9.61-19.32V279Z"/><path class="cls-8" d="M75.68,259.57c-.87,4.8-.53,9.74-1.79,14.52-.55,2.09.94,4.17.46,6.47-.81,3.89-1.23,7.87-1.86,11.8-.14.89-.49,1.76.38,2.48l1.89-1.62a8.56,8.56,0,0,0,.46-2.39c-.62-7.23.91-14.35,1.19-21.54.13-3.46-.08-7,.71-10.5.28-1.24.57-2.76-.35-4C76.41,256.37,76,258,75.68,259.57Z"/><path class="cls-7" d="M36.16,275.47c-.9,1.45-.39,3-.42,4.56-.09,3.82,0,7.63,0,12,2.34-1.94,2.66-4.11,3-6.25.67-4.59,1.3-9.2,1.94-13.8-1.87-.45-3.36-.47-3,2.22C37.75,275,37,275.45,36.16,275.47Z"/><path class="cls-7" d="M31.33,279c.92,3,.19,6,.42,9a11.43,11.43,0,0,0,.42,3.39c.2.51,0,1.27.86,1.26s.85-.77.9-1.28c.31-2.83.63-5.67.78-8.51.12-2.3,0-4.6,0-6.9-2.34,1.23-2.45-.41-2.47-2,0-4.59,0-9.17-.25-13.77C31.68,266.47,31,272.72,31.33,279Z"/><path class="cls-8" d="M12,290.7a5.77,5.77,0,0,1,2,3c.08.58.41.89,1,.52l-4.44-30.5-.74.07C11.5,272.71,10.93,281.76,12,290.7Z"/><path class="cls-8" d="M22.34,292.3c.2-.2.4-.39.59-.59-.15-3.26-.86-6.48-.57-9.76-.88-2.61-.77-5.38-.86-8-.16-5.08-1.08-10.08-1.25-15.47-1.56,6.24-.45,12.2-.16,18.13.18,3.67,1,7.3,1.18,11A23.25,23.25,0,0,0,22.34,292.3Z"/><path class="cls-7" d="M27.36,282.33c-.36,3.6.76,7.14.47,10.75,0,.68-.18,1.71,1,1.53.89-.14,2.08-.27,2-1.69-.31-3.53.7-7,.52-10.51-.65-1.47-1.32-2.71-2.6-.41C28.41,282.48,27.85,282.4,27.36,282.33Z"/><path class="cls-7" d="M22.36,282c-.29,3.28.42,6.5.57,9.76,1.7-1.36,1.7-1.36,3.37-.46a49,49,0,0,0-.87-12.2c-1.21-.23-2.17-.13-2.06,1.49C23.42,281.27,23.19,281.84,22.36,282Z"/><path class="cls-7" d="M50.55,273.49c.12,1.81-.4,3.67.47,5.41h5q0-3.7,0-7.4C55,271,54.2,270.1,53,270,53.92,272.39,52.42,273.08,50.55,273.49Z"/><path class="cls-8" d="M18.47,294.73c.86-.89.21-2,.52-3-1.43-10.12-2.26-20.29-3.34-30.9-.55,5.71.15,10.95.51,16.17.26,3.76.15,7.53.62,11.29.25,2,1,4,1,6Z"/><path class="cls-8" d="M61.83,271.43c.32,2.4-.38,4.93,1.15,7.57,1-4.34.88-8.43,1-12.5a28.21,28.21,0,0,0,.21-8.36C62.67,262.44,62.37,267,61.83,271.43Z"/><path class="cls-8" d="M8.52,290.22l1.58.07a10.84,10.84,0,0,0-.57-3.88c-1.14-5.3-2-10.69-3.82-15.83C6.54,277.15,6.63,283.81,8.52,290.22Z"/><path class="cls-7" d="M49.94,234.57a72.65,72.65,0,0,0,0,22.08Z"/><path class="cls-8" d="M45,236.89c-2,7.49-.43,14.31,0,21.14Z"/><path class="cls-7" d="M65,248.74c1.06-5.38,2.16-10.69.64-16.42-.55,3-.14,5.65-.55,8.32S65,246,65,248.74Z"/><path class="cls-7" d="M50.55,273.49c1.87-.41,3.37-1.1,2.47-3.49a1,1,0,0,0-.5-.95l-2.45,0Z"/><path class="cls-7" d="M37.48,252.12a25.12,25.12,0,0,0-.58-9.3C36.27,246,37.17,249,37.48,252.12Z"/><path class="cls-7" d="M37.8,254.14c-.27,5.12-.27,5.12,1.26,6.48C38.43,258.35,39,256.19,37.8,254.14Z"/><path class="cls-10" d="M50.07,269.09l2.45,0c-.26-1.37-1.59-1.07-2.43-1.55C50.09,268,50.08,268.56,50.07,269.09Z"/><path class="cls-10" d="M45.19,262.26l.13.44a2,2,0,0,0,.22-.32c0-.06,0-.16,0-.23Z"/><path class="cls-8" d="M77.7,292.35l3.44,0c4.79-8.5,2.37-17.78,2.92-26.78-.29,2.35-2.07,3.77-3.25,5.54-1.33,2-2.43,3.89-.74,6.28,1.25,1.75.4,3.77-.06,5.47C79.16,286,78.42,289.18,77.7,292.35Z"/><path class="cls-7" d="M57.5,278.7q-.24,6.58-.46,13.18c1.64-.31,2.71-2.45,4.83-1.4a41.53,41.53,0,0,1,.9-9.74c.21-1-.14-1.41-1.17-1.68A12.66,12.66,0,0,0,57.5,278.7Z"/><path class="cls-7" d="M56,278.61H51l.06,8.37c.58-.87,1.07-1.89,2.43-1.17,1,.55,1.87-.3,2.81-.39Z"/><path class="cls-8" d="M46.13,279v-4.39c-1.49,6.42-1,12.87-.61,19.32l1,.48c0-1.88,0-3.76.08-5.64A66.43,66.43,0,0,0,46.13,279Z"/><path class="cls-7" d="M46.13,279a66.43,66.43,0,0,1,.51,9.77c1-.19,1.71-1.23,2.85-1l.06-8.81Z"/><path class="cls-9" d="M70.15,297.84l-1.89,0a2.26,2.26,0,0,0,0,4.52l1.89.05a2.28,2.28,0,0,0,2.26-2.26,2.31,2.31,0,0,0-2.26-2.26Z"/><path class="cls-9" d="M63.8,302.35c2.91,0,2.91-4.52,0-4.52s-2.91,4.52,0,4.52Z"/><path class="cls-9" d="M58.71,302.4c2.91,0,2.91-4.52,0-4.52s-2.92,4.52,0,4.52Z"/><path class="cls-9" d="M50.2,301.89l.19.09a1.61,1.61,0,0,0,.84.27,2,2,0,0,0,1.67-.44,1.73,1.73,0,0,0,.59-.64l.22-.54a2.22,2.22,0,0,0,0-1.2l-.22-.54a2.25,2.25,0,0,0-.81-.81l-.2-.1a1.69,1.69,0,0,0-.84-.26,1.62,1.62,0,0,0-.9,0,1.73,1.73,0,0,0-.77.4,1.76,1.76,0,0,0-.58.63l-.23.54a2.48,2.48,0,0,0,0,1.21l.23.54a2.33,2.33,0,0,0,.81.81Z"/></g><g id="_3_TOPOL" data-name="3 TOPOL"><path class="cls-1" d="M16.88,98.27q.93-7.12,1.84-14.27c.19-1.5,1.94-1.6,2.44-2.8l.6-.87a.87.87,0,0,0-1.29.22c-1.6-1.39-1.32-3.7.69-4.88,1.35-.8,2.81-1.42,4.34-2.18-.32-.26-.46-.47-.58-.46-4.75.1-4.71.11-3.86-4.55,1-5.61,2.13-11.21,4.34-16.49,1-2.32,1.93-5.49,4.91-5.36s4.28,3,5.25,5.6c3.67,9.75,4.92,20,6.49,30.23,4.51,29.38,8.71,58.8,12.1,88.33,1.77,15.51,3.35,31,4,46.65-2.22-2.41-4.09-1.27-6,.52-1.32,1.25-2.66,2.65-4.63,2.66-2.26,0-4.37-.18-4.4,3.13,0,1-1.4,1.57-2.39,1.95s-2.05.23-1.85,1.67c.17,1.21,1.21,1,2,1.11,3.58.66,7.16,1.27,10.71,2,1.12.24,2.55.6,2.55,2.06s-1.56,1.32-2.47,1.57c-5.73,1.56-11.48,3-17.23,4.49-1.08.28-1.83.12-2.25-1.1A10.38,10.38,0,0,1,31.7,234c0-.77-.37-2-1.08-1.51-3.29,2.34-5.84-.59-8.7-1-1.5-.23-1.9-.29-1.65,1.44s-.47,2.94-2.59,1.9a10.89,10.89,0,0,0-7.56-.39c-2.26.61-4.45-3.61-6.34.15l-1.24-1c.11-2.6.23-5.19.34-7.79a196.19,196.19,0,0,1,26.77,1.44c2.69.39,2.79-.53,2.74-2.6-.21-9.81-.54-19.62-.39-29.43.07-4.8.3-9.61.36-14.43,0-2-.55-2.42-2.51-1.67a43,43,0,0,1-23.44,2c.31-9.36,1.75-18.62,2.86-27.9C11,139,13,124.7,14.91,110.42a7.54,7.54,0,0,1,.37-1.2C22.73,105.35,27,98.48,31.62,91.93a4.52,4.52,0,0,0,.74-2.76c0-2.91,0-5.82,0-8.72,0-.7.31-1.72-.68-1.91s-1.15.81-1.49,1.46a166.15,166.15,0,0,1-9.63,15.42C19.68,96.7,18.8,98.22,16.88,98.27Z"/><path class="cls-2" d="M2.54,233.62l1.24,1c1.89-3.76,4.08.46,6.34-.15a10.89,10.89,0,0,1,7.56.39c2.12,1,2.86-.11,2.59-1.9s.15-1.67,1.65-1.44c2.86.43,5.41,3.36,8.7,1,.71-.5,1.08.74,1.08,1.51a10.38,10.38,0,0,0,.55,3.48c.42,1.22,1.17,1.38,2.25,1.1,5.75-1.49,11.5-2.93,17.23-4.49.91-.25,2.46-.13,2.47-1.57s-1.43-1.82-2.55-2.06c-3.55-.75-7.13-1.36-10.71-2-.81-.14-1.85.1-2-1.11-.2-1.44,1-1.33,1.85-1.67s2.38-.94,2.39-1.95c0-3.31,2.14-3.1,4.4-3.13,2,0,3.31-1.41,4.63-2.66,1.89-1.79,3.76-2.93,6-.52l.51,5.15c-.43.06-.85.2-.82.7s.48.58.89.63c1.33,17.14,2.6,34.28,4.07,51.4.2,2.44-1.64,2.88-2.81,4.05.86.81,1.79-.09,2.85.56C57.72,283.27,52,283,46.15,283.51c1.21,1.55,2.85,1.87,4.39,2.2a44.46,44.46,0,0,0,6.38,1c6.69.42,6.68.37,7.08,7.11.14,2.26.42,4.5.55,6.76.3,5.42-2.27,9.54-6.18,12.91a42.92,42.92,0,0,1-11.28,6.86c-4.92,0-9.6,2.57-14.64,1.43-1.67,0-3.68.68-5,0-3.47-1.91-7.29-.91-10.81-1.9C10.33,317,4.3,313.79,1.26,307A12.75,12.75,0,0,1,0,301.38q1-31.12,2-62.25a5.16,5.16,0,0,1,.19-.95c1.17-.43,1.2-.87,0-1.34Zm55.12,46.43c.79.1,1.19.17,1.59.18.07,0,.14-.3.21-.46a3.73,3.73,0,0,0-.8-.14A4.73,4.73,0,0,0,57.66,280.05Z"/><path class="cls-2" d="M6.41,181.16a43,43,0,0,0,23.44-2c2-.75,2.54-.3,2.51,1.67-.06,4.82-.29,9.63-.36,14.43-.15,9.81.18,19.62.39,29.43,0,2.07,0,3-2.74,2.6a196.19,196.19,0,0,0-26.77-1.44q.3-4.83.62-9.67c8.05-2,16.4-2.67,24.65-5-1-1.08-2-.85-3-.87A79.33,79.33,0,0,1,9.25,208.5c-2-.46-2.68-1.35-2.82-3.17-.32-4.4,1.63-6.52,6.56-6.65,4.52-.11,8.86-1.46,13.33-1.87,1-.09,2.33.36,3.14-.84a2.67,2.67,0,0,0-2.59-.51c-5.55,1.16-11.18.25-16.74.64-2.66.19-4.58-.2-4.88-3.27A68.28,68.28,0,0,1,6.41,181.16Z"/><path class="cls-3" d="M32.45,321.74c5,1.14,9.72-1.42,14.64-1.43-2.43,2-5.33,3.2-8.13,4.52a4.06,4.06,0,0,0-2.73,4.41q.72,29.07,1.2,58.15c.09,5.14,0,5.14-5.12,4.83,0-.76,0-1.51,0-2.26Z"/><path class="cls-4" d="M32.45,321.74,32.36,390c0,.75,0,1.5,0,2.26a18.8,18.8,0,0,0-2.26.11c-1.9.3-2.26-.53-2.23-2.32.21-14.45.32-28.9.46-43.35.06-6,.07-12.08.2-18.12a2.87,2.87,0,0,0-1.75-3c-3.39-1.83-6.7-3.81-10-5.73,3.52,1,7.34,0,10.81,1.9C28.77,322.42,30.78,321.77,32.45,321.74Z"/><path class="cls-5" d="M16.88,98.27c1.92,0,2.8-1.57,3.66-2.85A166.15,166.15,0,0,0,30.17,80c.34-.65.6-1.62,1.49-1.46s.67,1.21.68,1.91c0,2.9,0,5.81,0,8.72a4.52,4.52,0,0,1-.74,2.76c-4.61,6.55-8.89,13.42-16.34,17.29A72.27,72.27,0,0,1,16.88,98.27Z"/><path class="cls-1" d="M5.25,192.83c.3,3.07,2.22,3.46,4.88,3.27,5.56-.39,11.19.52,16.74-.64a2.67,2.67,0,0,1,2.59.51c-.81,1.2-2.14.75-3.14.84-4.47.41-8.81,1.76-13.33,1.87-4.93.13-6.88,2.25-6.56,6.65.14,1.82.77,2.71,2.82,3.17a79.33,79.33,0,0,0,15.94,1.82c.93,0,1.94-.21,3,.87-8.25,2.3-16.6,3-24.65,5C4,208.38,4.25,200.58,5.25,192.83Z"/><path class="cls-6" d="M2.2,236.84c1.18.47,1.15.91,0,1.34C2.19,237.73,2.19,237.29,2.2,236.84Z"/><path class="cls-6" d="M58.75,223.92c-.41,0-.86-.14-.89-.63s.39-.64.82-.7Z"/></g><g id="_1_PODRAST" data-name="1 PODRAST"><path class="cls-7" d="M19.47,325.15c1.17.74,2.47,1,3.6,2.14,1.73,1.77.66-1.24,1.54-1.38,1.75,5.45.4,11.21,1.49,16.76.22,1.14,0,2.36.56,3.46-1.11,1.53-.77,3.36-.42,4.86,1,4.2.69,8.49.86,12.67.34,8.67,2.18,17.26,1.42,26a10.63,10.63,0,0,0,.56,2.88,7.1,7.1,0,0,1-3.55-1c-.86-3.82-1.75-7.64-2.78-11.43-.56-2.05-1.58-4.48-.08-6.6,2-2.87.72-5.17-.88-7.57-1.42-2.14-3.57-3.85-3.92-6.68.66,10.86-2.26,22.06,3.51,32.31-4.07,1.78-4.07,1.78-5.35-2.26a1.59,1.59,0,0,0-.12-.27c-.6-3.9-1.18-7.8-1.82-11.69a3.73,3.73,0,0,0-.75-1.89C9.1,370.75,8,364.86,7.22,359c-.71-5.36-1.6-10.8-.28-16.23,1.59-6.53,5.41-11.6,10.54-15.69C18.23,326.47,18.73,325.7,19.47,325.15Z"/><path class="cls-7" d="M44.69,366.24c1.6-1.61,2.76-2.3,3.3.89a5,5,0,0,0,1.32,2.74,12.6,12.6,0,0,1,.6,5.48,15.64,15.64,0,0,0-4.95.44c-1.24.33-1.66.82-1.41,2a50.53,50.53,0,0,1,1.09,11.75c2.56-1.27,3.85,1.31,5.82,1.69.55,3.46-.62,6.93.1,10.39l-1.29.25-.42-.84c-4.87-1.13-3.08-5.69-4.27-8.75-.85,2-.58,4-.57,5.91,0,1.7-.16,2.79-2.35,2.78s-2.6-.85-2.44-2.68a10.29,10.29,0,0,0-.1-2.66C37,384.2,36.84,372.57,36.23,361c1.3-2.83,2-3.12,3.87-.69,1.13,1.43,1.39-.32,2,0,.12,4.91,0,9.84,1.18,15.08C45.14,372.19,44.3,369.13,44.69,366.24Z"/><path class="cls-8" d="M75.65,371.47c-.09-6.12-.44-12.26.9-18.33.32,6.3,1.06,12.58.84,18.91,0,2.78-.13,5.56,0,8.32.18,3.44.56,6.86.94,10.28.06.61.16,1.53,1.09,1.54s.79-.91,1-1.52a13.79,13.79,0,0,0,.51-4.09c.27-3.61-.6-7.28.51-10.85l.06,4.11c-.22,4.24,1,8.42.62,12.67-.16,1.71,1.28,1.88,2.36,2,1.4.22,1.24-1,1.17-1.84-.34-4.35,1-8.62.58-13a209.48,209.48,0,0,1,2.53-29.58c-.6,5.7.25,11.43-.4,17.11-.33,2.84-.65,5.69.19,8.51a59.57,59.57,0,0,0-1,14.72c.31,3.79-.72,7.51-.65,11.29l-12.41,0c.65-3.26-1.28-6.2-5.43-8.29.45-1.06,2.5.36,2.46-2-.07-4.42-1-8.75-1.08-13.15,0-4.69-1.12-9.32-.84-14a4.26,4.26,0,0,1,.67,2.86c.78,5.56,1.53,11.11,2.34,16.66.38,2.58.76,5.19,3.59,7.54,0-5.25.07-9.85,0-14.46C76.12,375.13,76.75,373.21,75.65,371.47Z"/><path class="cls-9" d="M25.53,391.83a7.1,7.1,0,0,0,3.55,1.05l2.29,1.95c.64,1.9,1.24,3.83-.06,5.68-.75,1.07.15,1.34.73,1.8a97.21,97.21,0,0,1-20.1-.74c-4.12-.54-6-2.85-5.44-6.54.67-4.13,4-6.77,7.68-6.1.58.11,1.15.26,1.73.4a1.23,1.23,0,0,1,.12.26c1.28,4,1.28,4,5.35,2.26Z"/><path class="cls-7" d="M32,402c-.58-.45-1.48-.72-.73-1.79,1.3-1.86.7-3.78.06-5.68,1.05-.87.63-1.92.45-3-.75-4.74-1.26-9.54-2.24-14.23-.58-2.77,1.22-5.28.56-7.81C28.62,363.69,29,357.73,28,351.94a2.83,2.83,0,0,1,4,1.75c.47,1.35,1,1.16,1.89.71.94.89.67,2.07.56,3.1-.41,4.12.14,8.28.36,12.34.28,5.4.94,10.8.85,16.23a28.86,28.86,0,0,0,1.22,8.17,16.8,16.8,0,0,1,.61,7.22.44.44,0,0,0,0,.4l-1.88,0a.6.6,0,0,0-1,0Z"/><path class="cls-9" d="M109,389.26l3.61.06c2.65,1.51,5.33,2.86,4.89,6.77s-2.41,5.87-6.25,5.85l-14.81-.09c-1.39-2.5-1.94-5,.55-7.15l.83-.55,3.29,0c.75.44,1.14.07,1.24-.63.25-1.6,1.39-2.57,2.42-3.63l2.32-.5Z"/><path class="cls-8" d="M50.56,402c-.72-3.45.45-6.93-.1-10.38q-.27-8-.55-15.91a12.63,12.63,0,0,0-.6-5.49c.28-16.28-.82-32.53-1.16-49.39,1.67,8.12,4,15.56,3.42,23.32-.57,7.53-.13,15,.19,22.53l0,8.92-.39,8.21c.56,4.14-.38,8.33.44,12.45a18.43,18.43,0,0,1,.51,5.82A2,2,0,0,1,50.56,402Z"/><path class="cls-8" d="M37.46,401.8a16.76,16.76,0,0,0-.61-7.21,29,29,0,0,1-1.22-8.17c.09-5.44-.57-10.84-.85-16.24-.22-4.06-.77-8.21-.36-12.34.11-1,.38-2.2-.56-3.09V342.28c1.59,4.06,1.16,8.39,1.79,12.57.33,2.14-.28,4.37.58,6.47.61,11.59.73,23.22,2.89,34.68a10.38,10.38,0,0,1,.1,2.67c-.16,1.83.37,2.66,2.44,2.67S44,400.26,44,398.56c0-1.93-.28-3.9.57-5.91,1.19,3.07-.6,7.62,4.27,8.76,0,.26-.08.53-.13.8l-4.79,0a2,2,0,0,0-2.28-.07H39.79c-.2-.29-.37-.26-.53,0H38Z"/><path class="cls-7" d="M52.29,401.73a18.5,18.5,0,0,0-.51-5.83c-.82-4.11.12-8.3-.45-12.44,1.14.12,2.16,1.14,3.4.48,1.63-.87,2.23.36,2.93,1.41-.22,5.39-.83,10.76-.54,16.17l-.54.31H54.67a.7.7,0,0,0-1.08,0Z"/><path class="cls-9" d="M69.06,393.52c4.15,2.09,6.08,5,5.43,8.29-4.19,1.58-8.46.73-12.72.36.93-.32,1.1-.78.6-1.71a5.28,5.28,0,0,1,.75-6.17l1.24-.57Z"/><path class="cls-7" d="M97,394.7c-2.49,2.2-1.94,4.65-.55,7.15l-9.54-.06c-.08-3.78,1-7.5.64-11.29,2-1.09,2-1.09,4.06.55l.72.72c.38,1.45,1.27,1.42,2.17.6.58-.53,1-1.22,1.88-1.33C96.74,392.23,96,393.62,97,394.7Z"/><path class="cls-8" d="M57.12,401.86c-.29-5.4.32-10.78.54-16.17l.06-10.09c1.06-2.1.44-4.35.58-6.53l.57-5.31,0-1.91v-8.8h.7v12.39c0,3.4,0,6.8,0,10.21s0,7.08.07,10.63c.14,5.16-.68,10.34.48,15.47a.3.3,0,0,0,0,.35l-2.88.1A.25.25,0,0,0,57.12,401.86Z"/><path class="cls-7" d="M60.05,401.75c-1.16-5.13-.34-10.31-.48-15.47,1.38-.28,2.23,1,3.44,1.2q0,3.4.11,6.81a5.28,5.28,0,0,0-.75,6.17c.5.93.33,1.39-.6,1.71l-1-.05Z"/><path class="cls-9" d="M41.65,402.17a2,2,0,0,1,2.28.07A2.75,2.75,0,0,1,41.65,402.17Z"/><path class="cls-9" d="M48.72,402.21c.05-.27.09-.54.13-.8l.42.83Z"/><path class="cls-9" d="M34.54,402.23a.61.61,0,0,1,1,0Z"/><path class="cls-9" d="M53.59,402.16a.7.7,0,0,1,1.08,0A.9.9,0,0,1,53.59,402.16Z"/><path class="cls-9" d="M37.46,401.8l.53.4h-.55A.46.46,0,0,1,37.46,401.8Z"/><path class="cls-9" d="M39.26,402.21c.16-.3.33-.33.53,0l-.26.15Z"/><path class="cls-9" d="M57.12,401.86a.25.25,0,0,1,0,.34l-.28.11-.26-.14Z"/><path class="cls-9" d="M60.05,401.75l.7.37a.47.47,0,0,1-.75,0A.3.3,0,0,1,60.05,401.75Z"/><path class="cls-7" d="M59.5,375.65c0-3.41,0-6.81,0-10.21,1.71.11,2.83,3,4.38,1.65.86-.75.27-3.18.3-4.85,0-1.47,0-2.94,0-4.61.93.68.57,1.39.62,2,.11,1.36-.51,3.09,2.15,2.57.49-.1,2.66.33,2.6,2.16-.28,4.71.8,9.34.84,14,0,4.4,1,8.73,1.08,13.15,0,2.34-2,.92-2.46,2l-4.7.19c.46-7.78,1.06-15.57-.73-23.32v5.31Z"/><path class="cls-8" d="M28,352.28c1,5.79.64,11.75,2.16,17.51.66,2.53-1.14,5-.56,7.81,1,4.7,1.49,9.49,2.24,14.24.18,1.08.6,2.13-.45,3l-2.29-1.95a10.78,10.78,0,0,1-.56-2.89c.76-8.72-1.08-17.31-1.42-26-.17-4.18.1-8.47-.86-12.66-.35-1.51-.69-3.33.42-4.86Z"/><path class="cls-7" d="M75.65,371.47c1.1,1.74.47,3.66.51,5.49.11,4.61,0,9.21,0,14.46-2.83-2.35-3.21-5-3.59-7.54-.81-5.55-1.56-11.1-2.34-16.66,2.26-.54,4-.56,3.61,2.68C73.74,370.92,74.63,371.43,75.65,371.47Z"/><path class="cls-7" d="M81.49,375.73c-1.11,3.57-.24,7.24-.51,10.85a13.79,13.79,0,0,1-.51,4.09c-.24.61,0,1.54-1,1.52s-1-.93-1.09-1.54c-.38-3.42-.76-6.84-.94-10.28-.15-2.76,0-5.54,0-8.32,2.81,1.48,3-.49,3-2.39,0-5.53,0-11.07.3-16.61C81.06,360.61,81.87,368.14,81.49,375.73Z"/><path class="cls-8" d="M104.78,389.84c-1,1.06-2.17,2-2.42,3.63-.1.7-.49,1.07-1.24.63q2.68-18.41,5.36-36.8l.89.08C105.42,368.13,106.09,379.05,104.78,389.84Z"/><path class="cls-8" d="M92.33,391.77l-.71-.71c.18-3.93,1-7.82.69-11.78,1.06-3.15.92-6.49,1-9.69.2-6.13,1.3-12.17,1.52-18.67,1.87,7.54.54,14.72.19,21.88-.22,4.43-1.16,8.81-1.42,13.24A28.57,28.57,0,0,1,92.33,391.77Z"/><path class="cls-7" d="M86.28,379.74c.42,4.35-.92,8.62-.58,13,.07.81.23,2.06-1.17,1.84-1.08-.16-2.52-.33-2.36-2,.38-4.25-.84-8.43-.62-12.67.78-1.78,1.58-3.28,3.13-.5C85,379.92,85.69,379.82,86.28,379.74Z"/><path class="cls-7" d="M92.31,379.28c.35,4-.51,7.85-.69,11.78-2.05-1.65-2.05-1.65-4.07-.56a59.57,59.57,0,0,1,1-14.72c1.46-.28,2.62-.15,2.49,1.8C91,378.46,91.3,379.14,92.31,379.28Z"/><path class="cls-7" d="M58.3,369.07c-.14,2.18.48,4.43-.58,6.53h-6l0-8.92c1.16-.64,2.13-1.68,3.55-1.8C54.23,367.74,56,368.57,58.3,369.07Z"/><path class="cls-8" d="M97,394.7c-1-1.08-.26-2.47-.62-3.66,1.72-12.2,2.72-24.48,4-37.28.65,6.89-.18,13.22-.62,19.51-.32,4.54-.18,9.09-.75,13.63-.3,2.45-1.26,4.77-1.21,7.25Z"/><path class="cls-8" d="M44.69,366.59c-.39,2.89.45,5.94-1.39,9.12-1.18-5.23-1.06-10.17-1.18-15.08a34,34,0,0,1-.26-10.07C43.67,355.74,44,361.19,44.69,366.59Z"/><path class="cls-8" d="M109,389.26l-1.91.08c-.25-1.62.36-3.15.69-4.68,1.37-6.4,2.37-12.89,4.6-19.1C111.4,373.49,111.29,381.53,109,389.26Z"/><path class="cls-7" d="M59,322.11a87.48,87.48,0,0,1,0,26.64Z"/><path class="cls-8" d="M65,324.92c2.38,9,.53,17.26,0,25.5Z"/><path class="cls-7" d="M40.92,339.21c-1.28-6.49-2.61-12.9-.78-19.81.68,3.56.18,6.82.68,10S40.92,336,40.92,339.21Z"/><path class="cls-7" d="M58.3,369.07c-2.26-.5-4.07-1.33-3-4.2a1.23,1.23,0,0,1,.6-1.16l3,.05Z"/><path class="cls-7" d="M74.06,343.29c-.26-3.69-.45-7.42.7-11.23C75.52,335.94,74.44,339.58,74.06,343.29Z"/><path class="cls-7" d="M73.67,345.72c.33,6.18.33,6.18-1.51,7.82C72.91,350.8,72.19,348.2,73.67,345.72Z"/><path class="cls-10" d="M58.87,363.76l-3-.05c.33-1.65,1.93-1.29,2.93-1.86Z"/><path class="cls-10" d="M64.77,355.52l-.16.53a2,2,0,0,1-.27-.39c0-.07,0-.18.06-.28Z"/><path class="cls-8" d="M25.53,391.83l-4.15,0c-5.77-10.25-2.85-21.45-3.51-32.31.35,2.83,2.5,4.55,3.92,6.68,1.6,2.4,2.92,4.7.88,7.58-1.5,2.12-.48,4.55.08,6.6C23.78,384.19,24.67,388,25.53,391.83Z"/><path class="cls-7" d="M49.91,375.35q.29,8,.55,15.91c-2-.38-3.26-3-5.82-1.69a50.53,50.53,0,0,0-1.09-11.75c-.25-1.21.17-1.7,1.41-2A15.64,15.64,0,0,1,49.91,375.35Z"/><path class="cls-7" d="M51.73,375.25h6l-.06,10.1c-.7-1.05-1.3-2.28-2.93-1.41-1.24.66-2.26-.36-3.4-.48C51.47,380.72,51.6,378,51.73,375.25Z"/><path class="cls-8" d="M63.63,375.7v-5.31c1.79,7.75,1.19,15.54.73,23.32l-1.24.58q-.06-3.41-.11-6.81A79.9,79.9,0,0,1,63.63,375.7Z"/><path class="cls-7" d="M63.63,375.7A79.9,79.9,0,0,0,63,387.48c-1.21-.23-2.06-1.48-3.44-1.2,0-3.55,0-7.09-.07-10.63Z"/><path class="cls-9" d="M34.65,403.44l2.28-.06a2.26,2.26,0,1,0,0-4.52l-2.28.06a2.26,2.26,0,0,0,0,4.52Z"/><path class="cls-9" d="M42.31,403.43c2.91,0,2.91-4.52,0-4.52s-2.91,4.52,0,4.52Z"/><path class="cls-9" d="M48.45,403.48c2.91,0,2.92-4.52,0-4.52s-2.91,4.52,0,4.52Z"/><path class="cls-9" d="M56.2,399l-.23.12a1.63,1.63,0,0,0-.64.58,1.68,1.68,0,0,0-.4.77,1.62,1.62,0,0,0,0,.9,1.61,1.61,0,0,0,.27.84l.35.46a2.24,2.24,0,0,0,1,.58l.6.08a2.32,2.32,0,0,0,1.14-.31l.23-.12a2.57,2.57,0,0,0,1-1.35,1.72,1.72,0,0,0,0-.9,1.61,1.61,0,0,0-.27-.84l-.35-.46a2.3,2.3,0,0,0-1-.58l-.6-.08a2.17,2.17,0,0,0-1.14.31Z"/></g></g></g></svg>