<svg xmlns="http://www.w3.org/2000/svg" viewBox="0 0 132.16 328.68"><defs><style>.cls-1{fill:#79825c;}.cls-2{fill:#2f4417;}.cls-3{fill:#476120;}.cls-4{fill:#819f31;}.cls-5{fill:#a2bf39;}.cls-6{fill:#637f29;}.cls-7{fill:#564f27;}.cls-8{fill:#52694f;}.cls-9{fill:#253b23;}.cls-10{fill:#566430;}</style></defs><title>drevesa_spodaj_desno</title><g id="Layer_2" data-name="Layer 2"><g id="RASTLINE"><g id="_1_SMREKA" data-name="1 SMREKA"><path class="cls-1" d="M56.74,159.12l-.56-.31-.06.47ZM55.68,62.17v.09h.14Z"/><path class="cls-2" d="M46.11,277.56c-13.55-1.51-26.61-5.29-39.84-8.33-5-1.16-7.59-2.26-5.58-8.43C3.45,252.33,5,243.46,7,234.75c.89,5.24,4.15,6,8.83,5.2,8.8-1.44,16.5-5.76,24.69-8.79a5.08,5.08,0,0,1,1.16.17,3.16,3.16,0,0,0,1.63,3.34l-.08-.09,1.81,1.78C48.43,250,46.42,263.81,46.11,277.56Z"/><path class="cls-3" d="M93.79,243.3c-1.3,6.46,3.07,12.38,1.79,18.84-1.62,4.23-5.85,4.14-9.18,5.3-10.57,3.69-21.94,2.82-32.69,5.53-3.22-10.89-1.32-22-1.66-33.07,12.67,4.5,25.34,9,38.88,10.21-12.61-5.22-25-11.15-38.9-12-.06-1.77-.12-3.54-.17-5.31,12.39,6.39,27,5.71,39.36,12.41C91.61,245.42,92.91,244,93.79,243.3ZM60.67,260.75c-1.59.24-3.39.19-3.91,2.22,0,.21.62.86,1,.88,2.16.1,2.71-1.39,2.88-3.17.66-.38,2.35.89,1.94-1.2Z"/><path class="cls-4" d="M23.29,185c12.47,2.1,18-.05,23.59-9.18,3.49,10.22.78,20.74,1.52,31.1a298.12,298.12,0,0,1-38.09,6.89l5-20.83c4.49-.68,10.15-.17,7.91-7.73Z"/><path class="cls-5" d="M48.4,206.89c-.74-10.36,2-20.88-1.52-31.1l-.25-.46,3.82-1.63c2.49,1.44,3.41,4.85,6.68,5.31C61,188.79,72,190.47,78.23,197.58c2.14,2.46,7.3,2.65,6.55,7.07-.78,4.66-5.61,4-8.93,5.12-2.7.91-5.49,1.53-8.24,2.27L54,214.23C52.22,211.74,47.37,211.57,48.4,206.89Z"/><path class="cls-6" d="M48.4,206.89c-1,4.68,3.82,4.85,5.64,7.34-1,2.29-4.63-.21-5.19,2.87L45.47,219c-2.84,1.74-6.63.94-9.17,3.46-1.39,0-2.68.27-3.47,1.6l-1.71.15c-7.8,1.7-14.92,6.07-23.18,5.93.85-5.45-.13-11.18,2.37-16.4A298.12,298.12,0,0,0,48.4,206.89Z"/><path class="cls-6" d="M93.79,243.3c-.88.67-2.18,2.12-2.57,1.91-12.33-6.7-27-6-39.36-12.4-1.44-5.15-1.18-9.79,4-12.93,2.69.45,5.39.88,8.1,1.32,4.54,1.6,9,4.29,13.65,4.58C89,226.48,94.07,232.19,93.79,243.3ZM75,232.59c-6.14-3.64-12.8-4.16-19.58-4.06C61.81,230.7,67.79,234.77,75,232.59Z"/><path class="cls-2" d="M55.81,219.87c-5.13,3.15-5.39,7.79-4,12.94,0,1.76.11,3.53.17,5.3,0,.59,0,1.19,0,1.79.34,11-1.56,22.18,1.66,33.07-1,1.51-1.76,3,.55,4-1.42,14.68-.26,29.35.23,44,.22,6.46-1.3,9.42-8.1,6.56,4.07-2.26,2.32-6.16,2.35-9.32.24-29.9.27-59.81.44-89.71,0-3.33-1-7,2.15-9.68l-.23-.06a5.18,5.18,0,0,0,4.47,1.8A.48.48,0,0,1,55.81,219.87Z"/><path class="cls-6" d="M7.94,230.18c8.26.14,15.38-4.23,23.18-5.93.69,1.26,1.24,1.05,1.71-.15.79-1.33,2.08-1.57,3.47-1.6.81,2.24-4.42,6.32,2.08,6.84l2.15,1.82c-8.19,3-15.89,7.35-24.69,8.79-4.68.77-7.94,0-8.83-5.2A5.22,5.22,0,0,1,7.94,230.18Z"/><path class="cls-7" d="M40.53,231.16l-2.15-1.82c8.19-2.17,8.19-2.17,7.09-10.3l3.38-1.94c1,.3,2.32.26,2.48,1.78-3.11,2.69-2.14,6.35-2.15,9.68-.17,29.9-.2,59.81-.44,89.71,0,3.16,1.72,7.06-2.35,9.32q-.15-25-.28-50c.31-13.75,2.32-27.55-1.06-41.2l-1.81-1.78.08.09c-.55-1.11-1.09-2.23-1.63-3.34A5.08,5.08,0,0,0,40.53,231.16Z"/><path class="cls-2" d="M55.25,57.14c-2.54-1.26-4.58-5.39-8-2s-2.11,6.58,1.05,9.41c-3.92,1.34-8.07,4.1-6-4.24,2.63-10.47,4-21.26,7.58-31.88Q51,35,52.12,41.63c-1.78.19-3.39.59-3.27,2.9.1,1.81,1.47,2.15,2.88,2.42a1.81,1.81,0,0,1,.4,1.24l.45,2.09C53.68,52.48,55.51,54.41,55.25,57.14Z"/><path class="cls-2" d="M54.26,277c-2.31-1.06-1.52-2.54-.55-4,10.75-2.71,22.12-1.84,32.69-5.53,3.33-1.16,7.56-1.07,9.18-5.3,4.63,4.85.22,6.59-3.14,7.16C79.62,271.46,67.38,276.44,54.26,277Z"/><path class="cls-2" d="M57.13,179c-3.27-.46-4.19-3.87-6.68-5.31-.62-2.3-1.25-4.6-1.87-6.89.58-1.11.19-3.63,2.05-3,6.68,2.31,13.95,3.71,18.51,10C62.57,169.63,61.82,178.89,57.13,179Z"/><path class="cls-2" d="M51.33,218.88c-.16-1.52-1.44-1.48-2.48-1.78.56-3.08,4.2-.58,5.19-2.87L67.61,212c1.06,4-3.64,5.63-3.7,9.16-2.71-.44-5.41-.87-8.1-1.32a.47.47,0,0,0-.24.74c-.5-3.07-2.24-3-4.47-1.8Z"/><path class="cls-2" d="M46.7,132.11c.14,4.78-4.35,3.79-6.75,4.73C34.54,139,29,140.51,25.89,146c-1.34-2.94-3.41-5.9.11-8.77C33.3,137.22,39.08,130.86,46.7,132.11Z"/><path class="cls-4" d="M78.83,176.87c-3.72,1.39-6.94-.45-9.69-3-4.56-6.3-11.83-7.71-18.51-10-1.86-.64-1.48,1.88-2.05,3-.44,2.89-6.75,4.45-1.95,8.52l.26.47c-5.6,9.12-11.13,11.28-23.59,9.19,2.56-2.35,6.77-2.21,9.15-5.6-5.08-1.67-9.31-.44-13.5,1.22.42-11.92,3.13-23.37,6.94-34.61,3.13-5.48,8.65-7,14.06-9.15,2.4-.94,6.89,0,6.75-4.73-7.62-1.25-13.4,5.11-20.7,5.11,3.55-7.32,11.46-5.84,17.29-8.55,3.18.48,5.6.08,5.62-4,0-2.89-.63-5.19-3.81-5.5-2.94-.29-6.07-2-8.82.68-1.11.26-2.23.54-3.36.82-1.16-.28-2.35-.56-3.51-.82,3-11.92,3.6-24.39,8.12-36,2.45-1.58,2.25-4,2.11-6.44a4.64,4.64,0,0,1,3.25-2.85c2.59.19,3.81-1,3.7-3.62.56-.71,1.12-1.42,1.67-2.14a.77.77,0,0,1,.13-1.11c.24-.14.68-.31.68-.38a7.89,7.89,0,0,0-.46-1.19,3.64,3.64,0,0,1-.29-1.56c-3.17-2.84-4.39-6.13-1.06-9.41s5.46.73,8,2a8.12,8.12,0,0,1,.42,1.23c0,.21-.14.45-.23.68-.76.73-2.17,1.46-2.17,2.19,0,1.48,1.41,1.06,2.42,1,.41,7.31-3,15.48,4.85,21.07.73,3.46,2.49,6.71,2,10.42-2.64.89-4.87-2.92-8-.54l9.8,9.26c1.53.78,1.56,2.14,1.42,3.58-2.1,1.72-2,3.43.07,5.1a3.76,3.76,0,0,1,.2,1.53c0,2-.63,4.36,2.1,5.34l-.28-.09c.72,5.5-2.57,11.6,2.44,16.48,3.27,9.25,6.07,18.63,6.49,28.54-6,2.06-11.42-3.6-19.54-1.42,8.51,4,15.27,7.15,22.06,10.31C79.84,173.62,81.44,175.92,78.83,176.87Z"/><path class="cls-3" d="M79.25,171.84,57.19,161.52c8.13-2.16,13.54,3.48,19.54,1.43Z"/><path class="cls-2" d="M19,180.6c4.19-1.65,8.41-2.88,13.5-1.23-2.38,3.4-6.6,3.25-9.15,5.61a1,1,0,0,0-.09.24l-7.53,2.94C14.85,184.81,19.28,183.73,19,180.6Z"/><path class="cls-2" d="M60.53,83.32c-7.94-5.59-4.39-13.83-4.85-21.14C59.48,68.73,58.36,76.4,60.53,83.32Z"/><path class="cls-2" d="M48.91,124.63c0,4.12-2.44,4.52-5.62,4,1.23-5.78-4-6.42-7-8.86,2.75-2.71,5.88-1,8.82-.68C48.28,119.44,48.94,121.74,48.91,124.63Z"/><path class="cls-2" d="M15.68,188.16l7.53-2.94c2.23,7.56-3.43,7.05-7.92,7.73C14.12,191.25,15.34,189.74,15.68,188.16Z"/><path class="cls-3" d="M64.28,102.47,54.5,93.21c3.14-2.39,5.37,1.43,8,.54C64.3,96.41,64.57,99.38,64.28,102.47Z"/><path class="cls-2" d="M70.23,134.4c-5-4.87-1.71-11-2.42-16.47A24.58,24.58,0,0,1,70.23,134.4Z"/><path class="cls-2" d="M51.73,47c-1.41-.27-2.78-.61-2.88-2.42-.12-2.31,1.49-2.71,3.27-2.9C53.27,43.5,52.31,45.21,51.73,47Z"/><path class="cls-2" d="M29.4,119.8l3.52.83c-.27,1.18-.75,2.35-2.19,2S29.35,121,29.4,119.8Z"/><path class="cls-2" d="M68.09,118c-2.74-1-2.11-3.29-2.12-5.35C68.26,113.83,67.81,116.07,68.09,118Z"/><path class="cls-2" d="M55.81,62.25c-1,0-2.54.55-2.55-1,0-.73,1.41-1.47,2.18-2.2C55.56,60.12,55.69,61.19,55.81,62.25Z"/><path class="cls-2" d="M65.79,111.14c-2.14-1.66-2.18-3.36-.08-5.1C65.74,107.74,65.76,109.44,65.79,111.14Z"/><path class="cls-2" d="M39.64,77.41c.14,2.42.34,4.86-2.11,6.43C37.31,81.4,37.59,79.11,39.64,77.41Z"/><path class="cls-2" d="M46.59,70.94c.1,2.57-1.1,3.81-3.7,3.61Z"/><path class="cls-8" d="M48.27,68.8l-1.82,2.32Z"/><path class="cls-2" d="M48.6,66.12a6.69,6.69,0,0,1,.47,1.19c0,.07-.44.25-.68.37A1.26,1.26,0,0,1,48.6,66.12Z"/><path class="cls-2" d="M52.58,50.28l-.45-2.09C53.05,48.72,54.35,49.17,52.58,50.28Z"/><path class="cls-2" d="M48.58,166.81c.62,2.29,1.25,4.59,1.87,6.89l-3.82,1.63C41.84,171.25,48.14,169.7,48.58,166.81Z"/><polygon class="cls-9" points="56.74 159.12 56.12 159.28 56.18 158.81 56.74 159.12"/><path class="cls-10" d="M41.69,231.33c.54,1.11,1.08,2.23,1.63,3.34A3.16,3.16,0,0,1,41.69,231.33Z"/><path class="cls-10" d="M43.24,234.58l1.81,1.78Z"/><path class="cls-10" d="M52.05,239.9c0-.6,0-1.2,0-1.79,13.91.85,26.29,6.78,38.9,12C77.39,248.93,64.72,244.4,52.05,239.9Z"/><path class="cls-2" d="M60.62,260.68c-.17,1.78-.72,3.27-2.88,3.17-.36,0-1-.67-1-.88.52-2,2.32-2,3.91-2.22Z"/><path class="cls-2" d="M60.67,260.75l1.89-1.27c.41,2.09-1.28.82-1.94,1.2Z"/><path class="cls-2" d="M45.47,219c1.1,8.13,1.1,8.13-7.09,10.3-6.5-.52-1.27-4.6-2.08-6.84C38.84,220,42.63,220.78,45.47,219Z"/><path class="cls-2" d="M32.83,224.1c-.47,1.2-1,1.41-1.71.15Z"/><path class="cls-2" d="M75,232.59c-7.21,2.18-13.19-1.89-19.58-4.06C62.2,228.43,68.86,229,75,232.59Z"/><path class="cls-10" d="M51.1,218.82c2.23-1.24,4-1.27,4.47,1.8A5.18,5.18,0,0,1,51.1,218.82Z"/></g><g id="_2_SMREKA" data-name="2 SMREKA"><path class="cls-1" d="M99.08,105.85l-.45-.25,0,.38Zm-.86-78.52v.07h.12Z"/><path class="cls-2" d="M90.47,201.78c-11-1.22-21.55-4.28-32.26-6.74-4.09-.94-6.15-1.84-4.52-6.83,2.24-6.86,3.46-14.05,5.11-21.1.73,4.24,3.37,4.83,7.16,4.21,7.12-1.17,13.36-4.67,20-7.12a4.27,4.27,0,0,1,.94.14,2.57,2.57,0,0,0,1.32,2.7l-.06-.07,1.47,1.44C92.35,179.47,90.72,190.64,90.47,201.78Z"/><path class="cls-3" d="M129.09,174c-1.05,5.23,2.49,10,1.45,15.26-1.31,3.43-4.73,3.35-7.44,4.3-8.55,3-17.76,2.28-26.47,4.47-2.61-8.82-1.07-17.84-1.35-26.78,10.27,3.65,20.53,7.31,31.5,8.27-10.22-4.23-20.24-9-31.51-9.72,0-1.44-.09-2.87-.14-4.3,10,5.17,21.89,4.62,31.88,10.05C127.33,175.75,128.38,174.58,129.09,174Zm-26.82,14.14c-1.29.19-2.75.15-3.17,1.79,0,.17.5.7.79.71,1.76.08,2.2-1.12,2.34-2.56.53-.31,1.9.72,1.57-1Z"/><path class="cls-4" d="M72,126.79c10.1,1.7,14.58-.05,19.11-7.44,2.82,8.28.63,16.8,1.23,25.19a244.63,244.63,0,0,1-30.86,5.59q2-8.44,4-16.88c3.63-.55,8.22-.13,6.41-6.26Z"/><path class="cls-5" d="M92.33,144.54c-.6-8.39,1.59-16.91-1.23-25.19l-.21-.37,3.1-1.32c2,1.17,2.76,3.93,5.41,4.3,3.14,7.92,12.06,9.28,17.09,15,1.73,2,5.91,2.14,5.31,5.73-.63,3.77-4.55,3.23-7.24,4.14-2.18.74-4.44,1.24-6.67,1.85l-11,1.76C95.42,148.47,91.5,148.33,92.33,144.54Z"/><path class="cls-6" d="M92.33,144.54c-.83,3.79,3.09,3.93,4.57,5.94-.81,1.86-3.76-.16-4.21,2.33L90,154.38c-2.29,1.41-5.37.76-7.42,2.81a3,3,0,0,0-2.82,1.29l-1.38.13c-6.31,1.37-12.08,4.91-18.78,4.8.7-4.42-.1-9.06,1.92-13.28A244.63,244.63,0,0,0,92.33,144.54Z"/><path class="cls-6" d="M129.09,174c-.71.55-1.76,1.72-2.08,1.55-10-5.43-21.84-4.88-31.88-10.05-1.16-4.17-.95-7.92,3.2-10.47l6.56,1.07c3.68,1.3,7.31,3.48,11.06,3.71C125.24,160.41,129.32,165,129.09,174Zm-15.22-8.67c-5-3-10.37-3.37-15.85-3.29C103.19,163.83,108,167.12,113.87,165.36Z"/><path class="cls-2" d="M98.33,155.06c-4.15,2.55-4.36,6.3-3.2,10.47.05,1.43.09,2.86.14,4.3,0,.48,0,1,0,1.45.28,8.94-1.26,18,1.35,26.78-.79,1.23-1.42,2.43.45,3.29-1.16,11.88-.21,23.77.18,35.64.18,5.23-1.05,7.63-6.56,5.31,3.3-1.83,1.88-5,1.9-7.54.2-24.22.23-48.45.36-72.67,0-2.7-.78-5.66,1.74-7.83l-.18-.06a4.18,4.18,0,0,0,3.61,1.46A.38.38,0,0,1,98.33,155.06Z"/><path class="cls-6" d="M59.55,163.41c6.7.11,12.47-3.43,18.78-4.81.56,1,1,.85,1.38-.12a3,3,0,0,1,2.82-1.3c.65,1.82-3.58,5.13,1.68,5.54L86,164.2c-6.63,2.45-12.87,6-20,7.12-3.79.62-6.43,0-7.16-4.21A4.23,4.23,0,0,1,59.55,163.41Z"/><path class="cls-7" d="M86,164.2l-1.74-1.47C90.85,161,90.85,161,90,154.38l2.74-1.57c.84.24,1.88.21,2,1.45-2.52,2.17-1.73,5.13-1.74,7.83-.13,24.22-.16,48.45-.36,72.67,0,2.55,1.4,5.71-1.9,7.54q-.12-20.27-.23-40.52c.25-11.14,1.88-22.31-.85-33.37L88.15,167l.06.07-1.32-2.7A4.27,4.27,0,0,0,86,164.2Z"/><path class="cls-2" d="M97.88,23.25c-2.06-1-3.71-4.36-6.48-1.62s-1.7,5.33.86,7.62c-3.18,1.09-6.54,3.33-4.84-3.43C89.55,17.34,90.67,8.6,93.56,0q.89,5.34,1.78,10.69c-1.44.15-2.74.48-2.64,2.34.07,1.48,1.19,1.75,2.33,2a1.46,1.46,0,0,1,.32,1l.36,1.68C96.61,19.48,98.09,21,97.88,23.25Z"/><path class="cls-2" d="M97.08,201.35c-1.87-.86-1.24-2.06-.45-3.29,8.71-2.19,17.92-1.49,26.47-4.47,2.71-1,6.13-.87,7.44-4.3,3.75,3.93.18,5.34-2.54,5.8C117.62,196.84,107.7,200.88,97.08,201.35Z"/><path class="cls-2" d="M99.4,122c-2.65-.37-3.4-3.13-5.41-4.3-.51-1.86-1-3.72-1.52-5.58.47-.9.16-2.94,1.66-2.42,5.42,1.87,11.3,3,15,8.1C103.81,114.36,103.2,121.86,99.4,122Z"/><path class="cls-2" d="M94.7,154.26c-.13-1.24-1.17-1.21-2-1.45.45-2.49,3.4-.47,4.21-2.33l11-1.76c.86,3.22-3,4.55-3,7.41l-6.56-1.07a.38.38,0,0,0-.2.6c-.4-2.48-1.81-2.46-3.61-1.46Z"/><path class="cls-2" d="M91,84c.11,3.88-3.52,3.07-5.47,3.84-4.38,1.7-8.84,3-11.38,7.41-1.09-2.38-2.76-4.78.08-7.1C80.1,88.12,84.78,83,91,84Z"/><path class="cls-4" d="M117,120.23c-3,1.13-5.63-.37-7.85-2.47-3.69-5.1-9.58-6.24-15-8.1-1.51-.52-1.2,1.52-1.67,2.41-.35,2.34-5.46,3.61-1.57,6.9l.21.38c-4.54,7.39-9,9.14-19.11,7.44,2.07-1.9,5.48-1.78,7.41-4.53-4.11-1.36-7.54-.35-10.93,1a97.26,97.26,0,0,1,5.62-28c2.54-4.44,7-5.71,11.38-7.41,2-.77,5.58,0,5.47-3.84-6.17-1-10.85,4.15-16.77,4.15,2.88-5.94,9.29-4.74,14-6.94,2.58.4,4.54.07,4.55-3.27,0-2.34-.51-4.2-3.08-4.45-2.39-.24-4.92-1.65-7.15.55l-2.72.66L77,74c2.42-9.65,2.91-19.75,6.58-29.12,2-1.29,1.81-3.26,1.7-5.22a3.76,3.76,0,0,1,2.64-2.31c2.1.16,3.08-.84,3-2.93l1.35-1.73a.62.62,0,0,1,.1-.91c.2-.11.55-.25.55-.31a5.83,5.83,0,0,0-.37-.95,3.09,3.09,0,0,1-.24-1.27c-2.56-2.3-3.55-5-.86-7.62s4.43.59,6.47,1.62a6.21,6.21,0,0,1,.34,1c0,.17-.11.36-.18.55-.62.59-1.77,1.18-1.77,1.77,0,1.2,1.15.86,2,.82.34,5.92-2.46,12.54,3.93,17.06.6,2.81,2,5.44,1.61,8.44-2.14.72-4-2.36-6.5-.43L105.2,60c1.24.64,1.27,1.74,1.15,2.9-1.7,1.4-1.66,2.78.06,4.13a3.07,3.07,0,0,1,.15,1.24c0,1.67-.5,3.54,1.71,4.33l-.23-.07c.58,4.45-2.08,9.4,2,13.34,2.65,7.5,4.91,15.09,5.25,23.13-4.86,1.66-9.24-2.92-15.82-1.16l17.87,8.36C117.79,117.59,119.09,119.45,117,120.23Z"/><path class="cls-3" d="M117.32,116.16,99.45,107.8c6.58-1.76,11,2.81,15.82,1.15C116,111.35,116.63,113.76,117.32,116.16Z"/><path class="cls-2" d="M68.47,123.25c3.4-1.34,6.82-2.34,10.94-1-1.93,2.76-5.34,2.64-7.41,4.54a1.67,1.67,0,0,0-.08.2l-6.09,2.38C65.16,126.66,68.74,125.78,68.47,123.25Z"/><path class="cls-2" d="M102.15,44.46c-6.43-4.53-3.56-11.2-3.93-17.13C101.3,32.64,100.4,38.85,102.15,44.46Z"/><path class="cls-2" d="M92.74,77.91c0,3.34-2,3.67-4.55,3.27,1-4.68-3.26-5.2-5.68-7.17,2.23-2.2,4.76-.79,7.15-.55C92.23,73.71,92.77,75.57,92.74,77.91Z"/><path class="cls-2" d="M65.83,129.37,71.92,127c1.81,6.13-2.78,5.71-6.41,6.26C64.56,131.87,65.55,130.65,65.83,129.37Z"/><path class="cls-3" d="M105.19,60l-7.92-7.5c2.54-1.94,4.35,1.15,6.48.43A10.33,10.33,0,0,1,105.19,60Z"/><path class="cls-2" d="M110,85.83c-4.06-4-1.39-8.88-2-13.34A19.92,19.92,0,0,1,110,85.83Z"/><path class="cls-2" d="M95,15c-1.14-.22-2.26-.49-2.33-2-.1-1.86,1.2-2.19,2.64-2.34C96.27,12.2,95.49,13.59,95,15Z"/><path class="cls-2" d="M76.94,74l2.85.66c-.22,1-.61,1.91-1.78,1.62S76.9,75,76.94,74Z"/><path class="cls-2" d="M108.28,72.56c-2.22-.79-1.71-2.66-1.72-4.33C108.42,69.16,108.05,71,108.28,72.56Z"/><path class="cls-2" d="M98.33,27.39c-.83,0-2.06.45-2.06-.81,0-.59,1.14-1.19,1.76-1.78Z"/><path class="cls-2" d="M106.41,67c-1.73-1.35-1.76-2.73-.06-4.13Z"/><path class="cls-2" d="M85.24,39.67c.1,2,.27,3.94-1.72,5.21C83.35,42.9,83.57,41.05,85.24,39.67Z"/><path class="cls-2" d="M90.86,34.43c.09,2.08-.89,3.08-3,2.92Z"/><path class="cls-8" d="M92.22,32.69l-1.47,1.88Z"/><path class="cls-2" d="M92.49,30.52a5.27,5.27,0,0,1,.38,1c0,.05-.36.2-.55.3A1,1,0,0,1,92.49,30.52Z"/><path class="cls-2" d="M95.71,17.69,95.35,16C96.1,16.43,97.15,16.79,95.71,17.69Z"/><path class="cls-2" d="M92.47,112.08c.51,1.86,1,3.72,1.52,5.58L90.89,119C87,115.67,92.12,114.42,92.47,112.08Z"/><polygon class="cls-9" points="99.08 105.85 98.58 105.98 98.63 105.6 99.08 105.85"/><path class="cls-10" d="M86.89,164.34l1.32,2.7A2.57,2.57,0,0,1,86.89,164.34Z"/><path class="cls-10" d="M88.15,167l1.47,1.44Z"/><path class="cls-10" d="M95.28,171.28c0-.49,0-1,0-1.45,11.27.69,21.29,5.49,31.51,9.72C115.81,178.59,105.55,174.93,95.28,171.28Z"/><path class="cls-2" d="M102.23,188.11c-.14,1.44-.58,2.64-2.34,2.56-.29,0-.83-.54-.79-.71.42-1.64,1.88-1.6,3.17-1.79Z"/><path class="cls-2" d="M102.27,188.17l1.53-1c.33,1.7-1,.67-1.57,1Z"/><path class="cls-2" d="M90,154.38c.9,6.58.9,6.58-5.74,8.35-5.26-.42-1-3.73-1.68-5.55C84.58,155.14,87.66,155.79,90,154.38Z"/><path class="cls-2" d="M79.71,158.48c-.37,1-.82,1.14-1.38.12Z"/><path class="cls-2" d="M113.87,165.36c-5.83,1.76-10.68-1.53-15.85-3.29C103.5,162,108.9,162.41,113.87,165.36Z"/><path class="cls-10" d="M94.52,154.2c1.8-1,3.21-1,3.61,1.46A4.18,4.18,0,0,1,94.52,154.2Z"/></g></g></g></svg>