<svg xmlns="http://www.w3.org/2000/svg" viewBox="0 0 76.86 257.07"><defs><style>.cls-1{fill:#567f08;}.cls-2{fill:#355400;}.cls-3{fill:#564f27;}.cls-4{fill:#6d5a23;}.cls-5{fill:#274f16;}.cls-6{fill:#26442a;}</style></defs><title>drevesa_sredina_levo</title><g id="Layer_2" data-name="Layer 2"><g id="RASTLINE"><g id="_1_TOPOL" data-name="1 TOPOL"><path class="cls-1" d="M64.3,38.4c-.45-3.54-.92-7.07-1.36-10.61-.14-1.12-1.44-1.19-1.81-2.09l-.46-.64a.65.65,0,0,1,1,.16,2.17,2.17,0,0,0-.51-3.63C60.12,21,59,20.54,57.9,20c.24-.2.34-.35.43-.35,3.53.08,3.5.09,2.87-3.38A58.75,58.75,0,0,0,58,4c-.72-1.73-1.43-4.09-3.65-4s-3.18,2.25-3.9,4.17c-2.73,7.24-3.66,14.89-4.83,22.48-3.35,21.84-6.47,43.71-9,65.67-1.32,11.53-2.49,23.07-3,34.68,1.65-1.79,3-1,4.45.39,1,.92,2,2,3.43,2,1.68,0,3.26-.13,3.28,2.33,0,.75,1,1.17,1.77,1.45s1.53.17,1.38,1.24c-.13.9-.9.72-1.5.83-2.66.48-5.32.94-8,1.5-.82.17-1.89.45-1.89,1.53s1.16,1,1.84,1.17c4.25,1.16,8.53,2.23,12.8,3.33.81.21,1.36.09,1.68-.82a7.58,7.58,0,0,0,.41-2.58c0-.57.27-1.5.8-1.12,2.45,1.73,4.34-.44,6.47-.76,1.11-.17,1.41-.22,1.22,1.07s.36,2.18,1.93,1.41a8.06,8.06,0,0,1,5.62-.29c1.69.46,3.31-2.68,4.72.11L75,139q-.14-2.88-.25-5.78a143.83,143.83,0,0,0-19.91,1.07c-2,.28-2.07-.4-2-1.94.16-7.29.4-14.58.3-21.88,0-3.57-.23-7.15-.27-10.72,0-1.47.41-1.81,1.86-1.25A32,32,0,0,0,72.09,100c-.23-7-1.3-13.85-2.12-20.75-1.27-10.63-2.78-21.23-4.2-31.85a6,6,0,0,0-.27-.89c-5.54-2.88-8.72-8-12.15-12.86a3.43,3.43,0,0,1-.56-2.05c0-2.16,0-4.32,0-6.48,0-.52-.23-1.28.51-1.42s.85.6,1.1,1.08a125.62,125.62,0,0,0,7.16,11.47C62.22,37.23,62.88,38.36,64.3,38.4Z"/><path class="cls-2" d="M75.22,141.42c-.88.35-.85.68,0,1a5.42,5.42,0,0,1,.14.7q.74,23.15,1.47,46.28a9.32,9.32,0,0,1-.93,4.18c-2.26,5-6.74,7.44-11.47,9.53-2.61.74-5.45,0-8,1.41-1,.52-2.45,0-3.69,0-3.75.85-7.22-1.06-10.89-1.06a32.21,32.21,0,0,1-8.38-5.1c-2.91-2.5-4.82-5.57-4.59-9.6.09-1.68.3-3.35.4-5,.3-5,.3-5,5.27-5.28a33.06,33.06,0,0,0,4.74-.71,5,5,0,0,0,3.26-1.64c-4.33-.39-8.6-.18-12.42-2.66.79-.49,1.48.18,2.12-.42-.87-.87-2.24-1.2-2.09-3,1.09-12.73,2-25.48,3-38.21.31,0,.64-.11.67-.47s-.29-.48-.61-.52c.13-1.28.25-2.56.38-3.83,1.65-1.79,3-1,4.45.39,1,.92,2,2,3.43,2,1.68,0,3.26-.13,3.28,2.33,0,.75,1,1.17,1.77,1.45s1.53.17,1.38,1.24c-.13.9-.9.72-1.5.83-2.66.48-5.32.94-8,1.5-.82.17-1.89.45-1.89,1.53s1.16,1,1.84,1.17c4.25,1.16,8.53,2.23,12.8,3.33.81.21,1.36.09,1.68-.82a7.58,7.58,0,0,0,.41-2.58c0-.57.27-1.5.8-1.12,2.45,1.73,4.34-.44,6.47-.76,1.11-.17,1.41-.22,1.22,1.07s.36,2.18,1.93,1.41a8.06,8.06,0,0,1,5.62-.29c1.69.46,3.31-2.68,4.72.11L75,139Zm-42,31.82a2.09,2.09,0,0,0-.59.1c.05.12.1.34.16.34.29,0,.59-.06,1.18-.14A3.28,3.28,0,0,0,33.24,173.24Z"/><path class="cls-2" d="M72.09,100a32,32,0,0,1-17.43-1.51c-1.45-.56-1.88-.22-1.86,1.25,0,3.57.22,7.15.27,10.72.1,7.3-.14,14.59-.3,21.88,0,1.54,0,2.22,2,1.94a143.83,143.83,0,0,1,19.91-1.07q-.24-3.6-.46-7.19c-6-1.5-12.2-2-18.34-3.7a2.49,2.49,0,0,1,2.21-.65A58.49,58.49,0,0,0,70,120.35,2.23,2.23,0,0,0,72.07,118c.24-3.27-1.21-4.84-4.87-4.94-3.37-.08-6.59-1.08-9.92-1.39-.74-.07-1.72.27-2.33-.63a2,2,0,0,1,1.93-.38c4.13.87,8.31.19,12.45.48,2,.14,3.4-.15,3.63-2.43A50.36,50.36,0,0,0,72.09,100Z"/><path class="cls-3" d="M52.73,204.54c-3.75.85-7.22-1.06-10.89-1.06a28.2,28.2,0,0,0,6,3.36,3,3,0,0,1,2,3.28q-.53,21.62-.89,43.23c-.07,3.82,0,3.82,3.81,3.59,0-.56,0-1.12,0-1.68Q52.76,229.9,52.73,204.54Z"/><path class="cls-4" d="M52.73,204.54q0,25.36.07,50.72c0,.56,0,1.12,0,1.68a13.16,13.16,0,0,1,1.67.08c1.42.23,1.68-.39,1.66-1.72-.16-10.74-.24-21.49-.34-32.23,0-4.49,0-9-.15-13.47a2.13,2.13,0,0,1,1.3-2.22c2.53-1.36,5-2.84,7.47-4.27-2.61.74-5.45,0-8,1.41C55.47,205,54,204.57,52.73,204.54Z"/><path class="cls-5" d="M64.3,38.4c-1.42,0-2.08-1.17-2.72-2.12a125.62,125.62,0,0,1-7.16-11.47c-.25-.48-.44-1.2-1.1-1.08s-.5.9-.51,1.42c0,2.16,0,4.32,0,6.48a3.43,3.43,0,0,0,.56,2.05c3.43,4.87,6.61,10,12.15,12.86A54.35,54.35,0,0,0,64.3,38.4Z"/><path class="cls-1" d="M73,108.7c-.23,2.28-1.66,2.57-3.63,2.43-4.14-.29-8.32.39-12.45-.48A2,2,0,0,0,55,111c.61.9,1.59.56,2.33.63,3.33.31,6.55,1.31,9.92,1.39,3.66.1,5.11,1.67,4.87,4.94A2.23,2.23,0,0,1,70,120.35a58.49,58.49,0,0,1-11.85,1.35,2.49,2.49,0,0,0-2.21.65c6.14,1.71,12.35,2.2,18.34,3.7C73.92,120.26,73.7,114.46,73,108.7Z"/><path class="cls-6" d="M75.22,141.42c-.88.35-.85.68,0,1C75.23,142.08,75.23,141.75,75.22,141.42Z"/><path class="cls-6" d="M33.17,131.82c.31,0,.64-.11.67-.47s-.29-.48-.61-.52Z"/></g><g id="_2_TOPOL" data-name="2 TOPOL"><path class="cls-1" d="M9.67,33.77c.36-2.73.72-5.45,1.06-8.18.1-.86,1.11-.91,1.39-1.6l.35-.5a.5.5,0,0,0-.74.12,1.67,1.67,0,0,1,.39-2.79c.78-.46,1.62-.82,2.49-1.25-.18-.15-.26-.27-.33-.27-2.72.07-2.7.07-2.21-2.6a46,46,0,0,1,2.48-9.45c.56-1.33,1.11-3.15,2.82-3.07s2.45,1.73,3,3.21c2.1,5.58,2.82,11.48,3.71,17.32,2.59,16.83,5,33.69,6.94,50.61,1,8.89,1.92,17.79,2.3,26.73-1.27-1.38-2.34-.73-3.43.3a4,4,0,0,1-2.65,1.53c-1.29,0-2.5-.11-2.52,1.79,0,.58-.8.9-1.37,1.12s-1.17.13-1.06.95.69.56,1.16.64c2.05.37,4.1.73,6.14,1.16.64.13,1.46.34,1.46,1.18s-.9.75-1.42.9c-3.28.89-6.58,1.72-9.87,2.57-.62.16-1.05.07-1.29-.63a5.94,5.94,0,0,1-.32-2c0-.44-.21-1.15-.61-.86-1.89,1.34-3.35-.34-5-.59-.86-.13-1.09-.16-.94.83s-.28,1.68-1.49,1.09a6.2,6.2,0,0,0-4.33-.23c-1.3.36-2.55-2.06-3.64.09l-.7-.57c.06-1.48.12-3,.19-4.46a110.67,110.67,0,0,1,15.34.83c1.54.22,1.6-.31,1.57-1.49-.12-5.62-.31-11.25-.23-16.87,0-2.75.18-5.51.21-8.26,0-1.14-.31-1.39-1.44-1A24.59,24.59,0,0,1,3.67,81.27c.18-5.37,1-10.67,1.64-16,1-8.2,2.14-16.37,3.23-24.55A6,6,0,0,1,8.75,40c4.27-2.22,6.73-6.15,9.37-9.9a2.64,2.64,0,0,0,.42-1.59c0-1.66,0-3.33,0-5,0-.4.18-1-.39-1.09s-.66.45-.85.83a93.76,93.76,0,0,1-5.52,8.83C11.28,32.87,10.77,33.74,9.67,33.77Z"/><path class="cls-2" d="M1.46,111.32l.7.57c1.09-2.15,2.34.27,3.64-.09a6.2,6.2,0,0,1,4.33.23c1.21.59,1.64-.06,1.49-1.09s.08-1,.94-.83c1.64.25,3.1,1.93,5,.59.4-.29.62.42.61.86a5.94,5.94,0,0,0,.32,2c.24.7.67.79,1.29.63,3.29-.85,6.59-1.68,9.87-2.57.52-.15,1.41-.08,1.42-.9s-.82-1-1.46-1.18c-2-.43-4.09-.79-6.14-1.16-.47-.08-1.06.06-1.16-.64s.56-.76,1.06-.95,1.37-.54,1.37-1.12c0-1.9,1.23-1.78,2.52-1.79a4,4,0,0,0,2.65-1.53c1.09-1,2.16-1.68,3.43-.3.1,1,.2,2,.29,3-.24,0-.48.11-.46.39s.27.34.51.37c.76,9.81,1.48,19.64,2.32,29.45.12,1.4-.93,1.65-1.6,2.32.49.46,1,0,1.63.32-3,1.92-6.23,1.75-9.57,2A3.81,3.81,0,0,0,29,141.17a25.13,25.13,0,0,0,3.65.55c3.84.24,3.83.21,4.06,4.08.08,1.29.24,2.58.32,3.87.17,3.1-1.3,5.47-3.54,7.4A25,25,0,0,1,27,161c-2.82,0-5.5,1.47-8.38.82-1,0-2.12.38-2.85,0-2-1.09-4.17-.52-6.19-1.08-3.64-1.62-7.1-3.46-8.84-7.35A7.35,7.35,0,0,1,0,150.15q.55-17.84,1.14-35.67a3.45,3.45,0,0,1,.11-.54c.67-.25.69-.5,0-.77ZM33,137.93c.45,0,.68.1.91.1,0,0,.08-.17.12-.26a1.85,1.85,0,0,0-.46-.08A3,3,0,0,0,33,137.93Z"/><path class="cls-2" d="M3.67,81.27A24.59,24.59,0,0,0,17.1,80.1c1.13-.42,1.46-.17,1.44,1,0,2.75-.17,5.51-.21,8.26-.08,5.62.11,11.25.23,16.87,0,1.18,0,1.71-1.57,1.49a110.67,110.67,0,0,0-15.34-.83c.12-1.84.24-3.69.35-5.54,4.62-1.15,9.4-1.53,14.13-2.85a1.93,1.93,0,0,0-1.7-.5,44.68,44.68,0,0,1-9.13-1,1.71,1.71,0,0,1-1.61-1.82c-.19-2.52.93-3.73,3.75-3.8,2.6-.07,5.08-.84,7.64-1.08.58,0,1.34.21,1.8-.48a1.5,1.5,0,0,0-1.48-.29c-3.19.66-6.41.14-9.6.37C4.28,89.93,3.18,89.71,3,88A38.38,38.38,0,0,1,3.67,81.27Z"/><path class="cls-3" d="M18.6,161.82c2.88.65,5.56-.82,8.38-.82a21.66,21.66,0,0,1-4.66,2.59,2.33,2.33,0,0,0-1.56,2.53c.27,11.1.48,22.21.69,33.32.05,2.94,0,2.94-2.94,2.76,0-.43,0-.86,0-1.29Z"/><path class="cls-4" d="M18.6,161.82l-.06,39.09c0,.43,0,.86,0,1.29-.43,0-.87,0-1.29.06-1.09.18-1.29-.3-1.28-1.32.12-8.28.18-16.56.26-24.84,0-3.46,0-6.93.12-10.39a1.65,1.65,0,0,0-1-1.71c-2-1.05-3.85-2.18-5.76-3.28,2,.56,4.2,0,6.19,1.08C16.48,162.2,17.64,161.84,18.6,161.82Z"/><path class="cls-5" d="M9.67,33.77c1.1,0,1.61-.9,2.1-1.64a93.76,93.76,0,0,0,5.52-8.83c.19-.38.34-.93.85-.83s.39.69.39,1.09c0,1.66,0,3.33,0,5a2.64,2.64,0,0,1-.42,1.59C15.48,33.89,13,37.82,8.75,40A42.69,42.69,0,0,1,9.67,33.77Z"/><path class="cls-1" d="M3,88c.17,1.76,1.27,2,2.79,1.88,3.19-.23,6.41.29,9.6-.37a1.5,1.5,0,0,1,1.48.29c-.46.69-1.22.43-1.8.48-2.56.24-5,1-7.64,1.08-2.82.07-3.94,1.28-3.75,3.8A1.71,1.71,0,0,0,5.3,96.93a44.68,44.68,0,0,0,9.13,1,1.93,1.93,0,0,1,1.7.5c-4.73,1.32-9.51,1.7-14.13,2.85C2.26,96.86,2.43,92.39,3,88Z"/><path class="cls-6" d="M1.26,113.17c.68.27.66.52,0,.77C1.25,113.68,1.26,113.42,1.26,113.17Z"/><path class="cls-6" d="M33.67,105.77c-.24,0-.5-.08-.51-.37s.22-.36.46-.39Z"/></g></g></g></svg>