<svg xmlns="http://www.w3.org/2000/svg" viewBox="0 0 58.6 195.05"><defs><style>.cls-1{fill:#1e3d10;}.cls-2{fill:#78805c;}.cls-3{fill:#352107;}.cls-4{fill:#722e16;}.cls-5{fill:#296313;}.cls-6{fill:#274f16;}.cls-7{fill:#515d2b;}.cls-8{fill:#516147;}.cls-9{fill:#5b7251;}</style></defs><title>trava_spodaj_levo</title><g id="Layer_2" data-name="Layer 2"><g id="RASTLINE"><g id="_1LOKVANI" data-name="1LOKVANI"><path class="cls-1" d="M45.88,169.8c-1.74,6.4-.73,12.93-.9,19.4,0,.58,0,1.17,0,1.75,0,.77-.52.72-1,.74s-1.11-.06-1.16-.89a7.74,7.74,0,0,0-.6-3.67,13.24,13.24,0,0,0-.67,2.35c-.17,1.62-.79,2.37-2.6,2.26-1.33-.08-1.71-.48-1.83-1.75-.67-7.5-1.59-15-2.1-22.48-.9-13.24-3.38-26.22-6-39.18-.31-1.53-.66-3-.86-4.59,7.64,15.36,10.73,31.74,10.9,48.83a15.44,15.44,0,0,0,1.56-7.7c-.46-6.71-1-13.41-1.38-20.12C38.41,131.83,37.7,118.91,37,106c-.06-1-.14-2-.22-3.31a87.25,87.25,0,0,1,2.56,13c.64,4.4,1.27,8.81,1.81,13.24s1,8.71,1.43,13.07.78,8.83,1.19,13.56A15.49,15.49,0,0,0,45.55,150c1.26-.42,1.54-1.45,1.66-2.6,3.35-5.22,2.73-11.35,3.87-17.08.66-3.33,1-6.73,2-10-1.07,22-2.23,44.06-4.25,66a8.34,8.34,0,0,1-.81-3.54c-.13-5.72-.3-11.43-.46-17.15-.11-2.43,1-4.83.26-7.56-.77,2.69-.59,5.17-.84,7.61C46.59,167.09,45.74,168.31,45.88,169.8Z"/><path class="cls-2" d="M47.21,147.42c-.12,1.15-.4,2.18-1.66,2.6q-1.2-24.32-2.42-48.64c-.34-6.64-.79-13.28-1.16-19.92A4.92,4.92,0,0,0,41,78.39c.46-.25.93.4,1.38,0l.67,0c-.3,4.6.32,9.17.55,13.75.8,16.16,1.72,32.32,2.59,48.47.1,1.82.16,3.64.26,5.46C46.51,146.58,46.4,147.25,47.21,147.42Z"/><path class="cls-3" d="M42.41,78.37c-.45.42-.92-.23-1.38,0a3.41,3.41,0,0,1-1.32-3c-.19-4.42-.36-8.84-.59-13.26-.09-1.6.32-2.85,1.85-3.56.58.4.47,1,.5,1.58Q41.94,69.25,42.41,78.37Z"/><path class="cls-4" d="M42.41,78.37q-.48-9.14-.94-18.26c0-.58.08-1.18-.5-1.58,0-.33.05-1,.46-.66,1.16,1,2.48,1.9,2.53,3.8.1,4.6.38,9.2.58,13.8.05,1.22-.12,2.35-1.46,2.88Z"/><path class="cls-1" d="M27.4,171.32c-1.74,6.4-.73,12.92-.9,19.4,0,.58,0,1.17,0,1.75,0,.77-.52.72-1,.74s-1.11-.06-1.15-.9a7.86,7.86,0,0,0-.61-3.66A13.24,13.24,0,0,0,23,191c-.16,1.62-.79,2.37-2.6,2.26-1.33-.08-1.71-.48-1.83-1.75-.67-7.5-1.59-15-2.1-22.48-.9-13.24-3.38-26.22-6-39.18-.31-1.53-.66-3-.86-4.59,7.64,15.36,10.73,31.74,10.9,48.83a15.44,15.44,0,0,0,1.56-7.7c-.46-6.71-1-13.41-1.38-20.13-.77-12.91-1.47-25.83-2.21-38.75-.06-1-.14-2-.22-3.3a87.37,87.37,0,0,1,2.56,13c.64,4.41,1.27,8.82,1.81,13.24s1,8.72,1.43,13.08.78,8.83,1.19,13.56a15.72,15.72,0,0,0,1.82-5.58c1.25-.42,1.53-1.45,1.65-2.6,3.35-5.22,2.73-11.35,3.87-17.08.66-3.33,1-6.73,2-10-1.07,22-2.23,44.06-4.25,66a8.26,8.26,0,0,1-.81-3.53c-.13-5.72-.3-11.43-.46-17.15-.11-2.43,1-4.83.26-7.56-.77,2.69-.59,5.17-.84,7.61C28.11,168.61,27.26,169.83,27.4,171.32Z"/><path class="cls-2" d="M28.73,148.94c-.12,1.15-.4,2.18-1.65,2.6-.81-16.22-1.59-32.43-2.43-48.64-.34-6.64-.79-13.28-1.16-19.92a4.86,4.86,0,0,0-.94-3.07c.46-.26.93.4,1.38,0l.67,0c-.3,4.6.32,9.17.55,13.74.8,16.17,1.72,32.32,2.59,48.48.1,1.82.16,3.64.26,5.46C28,148.1,27.92,148.77,28.73,148.94Z"/><path class="cls-3" d="M23.93,79.89c-.45.42-.92-.24-1.38,0a3.43,3.43,0,0,1-1.32-3c-.19-4.41-.36-8.83-.59-13.25C20.55,62,21,60.76,22.49,60c.58.4.47,1,.5,1.59Q23.46,70.75,23.93,79.89Z"/><path class="cls-4" d="M23.93,79.89q-.48-9.14-.94-18.26c0-.58.08-1.19-.5-1.59,0-.32.05-1,.46-.65,1.16,1,2.48,1.9,2.53,3.8.1,4.6.38,9.2.58,13.79.05,1.23-.12,2.36-1.46,2.89Z"/><path class="cls-1" d="M32.21,160.68c-1.74,6.4-.73,12.93-.9,19.41,0,.58,0,1.17,0,1.75,0,.77-.52.72-1,.74s-1.11-.06-1.16-.9a7.78,7.78,0,0,0-.6-3.67,13.73,13.73,0,0,0-.67,2.35c-.17,1.63-.79,2.38-2.6,2.27-1.33-.08-1.71-.48-1.83-1.75-.67-7.5-1.59-15-2.1-22.48-.9-13.24-3.38-26.22-6-39.18-.31-1.53-.66-3-.86-4.59,7.64,15.36,10.73,31.73,10.9,48.83a15.44,15.44,0,0,0,1.56-7.7c-.46-6.71-1-13.42-1.38-20.13C24.74,122.72,24,109.8,23.3,96.88c-.06-1-.14-2-.22-3.3a87.13,87.13,0,0,1,2.56,13c.64,4.41,1.27,8.82,1.81,13.24s1,8.72,1.43,13.08.78,8.82,1.19,13.56a15.49,15.49,0,0,0,1.81-5.58c1.26-.42,1.54-1.46,1.66-2.6,3.35-5.22,2.73-11.35,3.87-17.08.66-3.33,1-6.73,2-10-1.07,22-2.23,44.07-4.25,66a8.26,8.26,0,0,1-.81-3.53c-.13-5.72-.3-11.44-.46-17.15-.11-2.43,1-4.83.26-7.56-.77,2.68-.59,5.17-.84,7.61C32.92,158,32.07,159.2,32.21,160.68Z"/><path class="cls-2" d="M33.54,138.31c-.12,1.14-.4,2.18-1.66,2.6q-1.2-24.33-2.42-48.64c-.34-6.65-.79-13.28-1.16-19.92a4.92,4.92,0,0,0-.94-3.07c.46-.26.93.4,1.38,0l.67,0c-.3,4.6.32,9.17.55,13.74.8,16.17,1.72,32.32,2.59,48.48.1,1.82.16,3.64.26,5.46C32.84,137.47,32.73,138.14,33.54,138.31Z"/><path class="cls-3" d="M28.74,69.26c-.45.42-.92-.24-1.38,0a3.43,3.43,0,0,1-1.32-3c-.19-4.42-.36-8.84-.59-13.25-.09-1.6.32-2.85,1.85-3.57.58.4.47,1,.5,1.58Q28.27,60.13,28.74,69.26Z"/><path class="cls-4" d="M28.74,69.26Q28.26,60.13,27.8,51c0-.57.08-1.18-.5-1.58,0-.32.05-1,.46-.65,1.16,1,2.48,1.9,2.53,3.8.1,4.6.38,9.19.58,13.79.05,1.23-.12,2.36-1.46,2.89Z"/><path class="cls-1" d="M23.83,126.35l0-.54c.14-.68.32-1.36-.25-2-.19-1.56,0-3.18-.67-5.14-.87,4.68-1.65,8.89-2.42,13.11-.07.36-.09.73-.17,1.09-.14.71-.47,1.21-1.32,1.09s-.71-.79-.67-1.34c.19-2.68.39-5.37.64-8a8.71,8.71,0,0,0-.1-3.74c-.69,4.28-1.38,8.06-1.86,11.86-.17,1.34-.91,1.23-1.8,1.27s-1.33-.21-1.33-1.21c0-7.67-.65-15.32-.44-23a1.84,1.84,0,0,0-.14-2.67,20.49,20.49,0,0,1-.13-4.76c.67-.27,2.39.65,1.57-1.33-.17-.4-.58-.77-.12-1.1s.88.11,1.17.54a5.47,5.47,0,0,0,4.23,2.3l.24.49-.14.82q-.46,6.28-.91,12.57l.61.06q.71-5.89,1.4-11.77l.18-1.77.18-.6c.25-1.54.5-3.08.74-4.62,1.23-1.42,1.3-3.3.15-4-.31-7.91-.37-15.83.06-23.74a.21.21,0,0,0,0-.34c-.14-7.53.29-15,.69-22.56.42-8,1.06-15.9,2.07-23.81,0-.34.09-.68.13-1l.53,0c0,6.12,0,12.23,0,18.35.07,10.31.19,20.62.28,30.93,0,.8,0,1.61-.06,2.41,0,3.3-1.31,6.41-1.33,9.7a1.48,1.48,0,0,0,0,2.09c.86-.81-.08-1.44,0-2.1.33-.24.89-.74,1-.68,1.27,1.13,1.68,0,2-.9,1.19.73-.51,1.91.68,2.5-.23,1.45-.45,2.91-.67,4.36-.06,0-.16.09-.15.11a1.63,1.63,0,0,0,.11.31q-.42,2.64-.82,5.28a1.28,1.28,0,0,0-.18,1.57L26.6,98c-.52.41-.6.84-.07,1.3l-.08,1.31c-1.25,1.14-1.09,2.72-1.16,4.16-.35,7-.61,14-.9,20.92,0,.52,0,1-.51,1.36h0C23.86,126.77,23.85,126.56,23.83,126.35ZM23.5,91.61c-.38,0-.39.35-.39.63s0,.62.38.62.4-.33.4-.61S23.88,91.67,23.5,91.61Zm.67-4.71a1.26,1.26,0,0,0,0,1.5A1.44,1.44,0,0,0,24.17,86.9Zm-.44,3.71c.07-.13.17-.24.17-.35s-.12-.22-.18-.33c-.06.11-.17.22-.17.33S23.66,90.48,23.73,90.61Z"/><path class="cls-5" d="M13,83c-.21-8.25.26-16.5.42-24.75.14-7.37.4-14.74.62-22.11,0-.41-.13-.88.44-1.32a90.38,90.38,0,0,1,3.12,14.39,248.48,248.48,0,0,1,2.86,34c0,.51-.07,1-.1,1.53a3.23,3.23,0,0,1-1.7-3.18,2.72,2.72,0,0,0-1.76-2.91c0,1.85,0,3.43,0,5,0,.42.15,1-.28,1.21-.6.36-.84-.33-1.25-.55C14.58,83.92,14.13,82.87,13,83Z"/><path class="cls-6" d="M13,83c1.12-.15,1.57.9,2.37,1.34.41.22.65.91,1.25.55.43-.26.28-.79.28-1.21,0-1.58,0-3.16,0-5a2.72,2.72,0,0,1,1.76,2.91,3.23,3.23,0,0,0,1.7,3.18v16.68L20,102.78a5.47,5.47,0,0,1-4.23-2.3c-.29-.43-.57-1-1.17-.54s-.05.7.12,1.1c.82,2-.9,1.06-1.57,1.33Q13,96,12.92,89.6c.2,0,.52.09.52-.27,0-.06-.32-.11-.49-.16Zm6.38,2.52c-.12-.05-.27-.17-.36-.13s-.11.22-.16.34c.12,0,.27.17.35.13S19.33,85.66,19.39,85.54Z"/><path class="cls-1" d="M29.23,111.57l.18-1.3c.56-.14.86-.38.29-.89l.1-.86A1.69,1.69,0,0,0,31.59,107c.09-2.19,1.22-1.56,2.38-1.12-.28,2-.57,4.09-.86,6.14,0,0-.16.09-.16.12a2.19,2.19,0,0,0,.12.33c-.7,6.68-2.4,13.19-3.54,19.79-.17,1-.32,2-1.85,1.78s-1-1.42-1-2.17a108.85,108.85,0,0,1,1.82-17.18c.58-.15.83-.41.28-.9l.16-1.3C29.53,112.32,29.81,112.07,29.23,111.57Z"/><path class="cls-5" d="M24.82,83.9c0-3.29,1.36-6.4,1.33-9.7,1.36-1.33.64-3.2,1.2-4.73,1.51-1.93,1.15-4.4,1.89-6.55a136,136,0,0,1,4-14.58h.7Q31.21,66.59,28.5,84.81c-1.19-.59.51-1.77-.68-2.5-.36.91-.77,2-2,.9-.07-.06-.63.44-1,.68Z"/><path class="cls-1" d="M7.22,115a16.33,16.33,0,0,1-.31-4.78c.37,0,.81,0,1-.37.28-.74-.92-1.92.73-2.28s1,1.39,1.82,1.7c.14,0,.29.07.43.11.61,7.67,0,15.34-.27,23,0,.73,0,1.64-1.24,1.61s-1.16-.81-1.2-1.63c-.16-3.29-.32-6.57-.49-9.86.57-.34.49-.65-.06-.92-.47-1.73-.22-3.5-.32-5.24C7.84,115.92,7.83,115.47,7.22,115Z"/><path class="cls-6" d="M10.85,109.42c-.14,0-.29-.06-.43-.11-.83-.31-.31-2-1.82-1.7s-.45,1.54-.73,2.28c-.15.39-.59.35-1,.37-.68-7-.71-14.05-.8-21.08,2,.52,2.23-1.52,3.38-2.23a129.51,129.51,0,0,1,1.23,15.48C10.82,104.75,11.22,107.08,10.85,109.42Z"/><path class="cls-2" d="M29.24,62.92c-.74,2.15-.38,4.62-1.89,6.55-.2-5.78.44-11.52.69-17.28.45-10.21,1.07-20.42,1.62-30.63l.88,0-1.23,26c-.22,4.58-.45,9.17-.64,13.76C28.65,61.84,28.3,62.63,29.24,62.92Z"/><path class="cls-5" d="M9.49,87c-1.15.71-1.42,2.75-3.38,2.23L6,81.69c.34-.88.66-1.76,0-2.63a63.23,63.23,0,0,1-.3-9.63L7,69.87A105.77,105.77,0,0,1,9.49,87Z"/><path class="cls-3" d="M30.54,21.54l-.88,0a3.23,3.23,0,0,1-1.76-3.43c.28-4.78.52-9.57.76-14.35.07-1.52.56-2.7,2.22-3a74.13,74.13,0,0,1-.14,11.92c-.17,3-.32,5.91-.2,8.88Z"/><path class="cls-4" d="M30.54,21.54c-.12-3,0-5.92.2-8.88A74.13,74.13,0,0,0,30.88.74c0-.36.23-1,.51-.65,1,1.09,2.2,2.06,2.09,3.82-.3,5-.49,10-.76,15A2.54,2.54,0,0,1,30.54,21.54Z"/><path class="cls-6" d="M34,105.86c-1.16-.44-2.29-1.07-2.38,1.12a1.69,1.69,0,0,1-1.79,1.54,58.69,58.69,0,0,1,6-16.93c-.26,2.38-.49,4.76-.79,7.12S34.33,103.48,34,105.86Z"/><path class="cls-6" d="M23.88,127c.5-.33.49-.84.51-1.36.29-7,.55-14,.9-20.92.07-1.44-.09-3,1.16-4.16-.14,5.74-.11,11.48-.61,17.21a12.89,12.89,0,0,0-.12,8.3v1.3c-1.38.21-.76,1.33-.93,2.09-.27,1.21.6,2.64-.68,3.68C24,131.09,24,129.05,23.88,127Z"/><path class="cls-6" d="M24.1,133.14c1.28-1,.41-2.47.68-3.68.17-.76-.45-1.88.93-2.09,0,1.81,0,3.62,0,5.44,0,.38.23.94-.36,1.09S24.16,134,24.1,133.14Z"/><path class="cls-2" d="M7,69.87l-1.36-.44V64.38A19.86,19.86,0,0,1,7,69.87Z"/><path class="cls-6" d="M25.72,126.07a12.89,12.89,0,0,1,.12-8.3c0,.43,0,.86,0,1.29,0,.06-.11.12-.1.17a1.86,1.86,0,0,0,.1.39c0,1.06,0,2.13,0,3.2l0,.79Z"/><path class="cls-7" d="M22.44,94c1.15.69,1.08,2.57-.15,4Z"/><path class="cls-2" d="M33.92,48.35h-.7A8.9,8.9,0,0,1,34.3,45,8.21,8.21,0,0,1,33.92,48.35Z"/><path class="cls-8" d="M13.27,107.13a1.84,1.84,0,0,1,.14,2.67A3.23,3.23,0,0,1,13.27,107.13Z"/><path class="cls-2" d="M5.94,79.06c.67.87.35,1.75,0,2.63A4.08,4.08,0,0,1,5.94,79.06Z"/><path class="cls-9" d="M26.53,99.25c-.53-.46-.45-.89.07-1.3A1.24,1.24,0,0,1,26.53,99.25Z"/><path class="cls-8" d="M7.22,115c.61.43.62.88,0,1.35A1.29,1.29,0,0,1,7.22,115Z"/><path class="cls-8" d="M7.59,121.63c.55.27.63.58.06.92A.83.83,0,0,1,7.59,121.63Z"/><path class="cls-9" d="M23.55,123.86c.57.59.39,1.27.25,2C23.27,125.22,23.57,124.52,23.55,123.86Z"/><path class="cls-8" d="M29.23,111.57c.58.5.3.75-.27.9A.87.87,0,0,1,29.23,111.57Z"/><path class="cls-8" d="M28.8,113.77c.55.49.3.75-.28.9Z"/><path class="cls-8" d="M29.7,109.38c.57.51.27.75-.29.89A.83.83,0,0,1,29.7,109.38Z"/><path class="cls-9" d="M26.79,96.44A1.28,1.28,0,0,1,27,94.87,1.89,1.89,0,0,1,26.79,96.44Z"/><path class="cls-9" d="M13,89.17c.17,0,.49.1.49.16,0,.36-.32.22-.52.27Z"/><path class="cls-7" d="M22.5,69.89a.21.21,0,0,1,0,.34l-.11-.17Z"/><path class="cls-7" d="M27.79,89.59a1.63,1.63,0,0,1-.11-.31s.09-.07.15-.11Z"/><path class="cls-8" d="M33.07,112.45a2.19,2.19,0,0,1-.12-.33s.11-.08.16-.12Z"/><path class="cls-9" d="M25.82,119.62a1.86,1.86,0,0,1-.1-.39s.07-.11.1-.17a1.76,1.76,0,0,1,.12.39S25.86,119.56,25.82,119.62Z"/><path class="cls-9" d="M25.84,123.61l0-.79A.47.47,0,0,1,25.84,123.61Z"/><path class="cls-9" d="M23.83,126.35c0,.21,0,.42.05.64A.37.37,0,0,1,23.83,126.35Z"/><path class="cls-7" d="M23.5,91.61c.38.06.4.36.39.64s0,.61-.4.61-.38-.34-.38-.62S23.12,91.66,23.5,91.61Z"/><path class="cls-7" d="M24.82,83.89c-.12.66.82,1.29,0,2.1a1.48,1.48,0,0,1,0-2.09Z"/><path class="cls-7" d="M24.17,86.9a1.44,1.44,0,0,1,0,1.5A1.26,1.26,0,0,1,24.17,86.9Z"/><path class="cls-7" d="M23.73,90.61c-.07-.13-.18-.24-.18-.35s.11-.22.17-.33c.06.11.17.22.18.33S23.8,90.48,23.73,90.61Z"/><path class="cls-9" d="M19.39,85.54c-.06.12-.08.31-.17.34s-.23-.08-.35-.13c.05-.12.08-.31.16-.34S19.27,85.49,19.39,85.54Z"/><path class="cls-1" d="M17.78,173.09c-1.74,6.4-.73,12.93-.9,19.4,0,.58,0,1.17,0,1.75,0,.77-.52.72-1,.74s-1.11-.06-1.15-.89a7.88,7.88,0,0,0-.61-3.67,13.24,13.24,0,0,0-.67,2.35c-.16,1.62-.79,2.37-2.6,2.26-1.33-.08-1.71-.48-1.83-1.75-.66-7.5-1.59-15-2.1-22.48-.9-13.24-3.38-26.21-6-39.18-.31-1.53-.66-3-.86-4.59,7.64,15.36,10.74,31.74,10.9,48.83a15.33,15.33,0,0,0,1.56-7.7c-.46-6.7-1-13.41-1.38-20.12-.77-12.92-1.47-25.84-2.21-38.75-.06-1-.14-2-.22-3.31a87.25,87.25,0,0,1,2.56,13c.64,4.4,1.27,8.82,1.81,13.24s1,8.71,1.43,13.07.78,8.83,1.19,13.57a15.83,15.83,0,0,0,1.82-5.59c1.25-.42,1.53-1.45,1.65-2.59,3.35-5.23,2.73-11.36,3.87-17.09.66-3.33,1-6.73,2-10-1.07,22-2.23,44.07-4.25,66a8.34,8.34,0,0,1-.81-3.54c-.13-5.72-.3-11.43-.46-17.15-.11-2.43,1-4.83.26-7.56-.77,2.69-.59,5.17-.84,7.62C18.49,170.38,17.64,171.6,17.78,173.09Z"/><path class="cls-1" d="M46.61,187.36c0-.18,0-.36,0-.54.13-.68.31-1.37-.26-1.95a20.62,20.62,0,0,0-.67-5.14c-.86,4.67-1.64,8.89-2.42,13.11-.06.36-.09.73-.16,1.08-.15.72-.47,1.22-1.33,1.1s-.7-.79-.67-1.34c.2-2.68.4-5.37.65-8.06a9,9,0,0,0-.1-3.73c-.69,4.28-1.38,8.06-1.87,11.86-.17,1.33-.9,1.23-1.8,1.27s-1.33-.21-1.33-1.21c0-7.67-.65-15.32-.44-23a1.85,1.85,0,0,0-.13-2.67,20,20,0,0,1-.14-4.76c.68-.27,2.39.64,1.57-1.33-.17-.4-.57-.77-.11-1.11s.87.12,1.16.55a5.49,5.49,0,0,0,4.23,2.3l.24.49-.14.82q-.45,6.28-.91,12.57l.62.06Q43.27,171.84,44,166l.18-1.77.18-.6.75-4.62c1.22-1.42,1.29-3.3.15-4-.31-7.92-.37-15.83.05-23.74.13-.11.13-.22,0-.34-.14-7.53.29-15.05.69-22.56.42-8,1.06-15.9,2.07-23.81.05-.34.09-.69.14-1l.53,0c0,6.11,0,12.23,0,18.35.07,10.31.2,20.62.29,30.93,0,.8,0,1.61-.07,2.41,0,3.3-1.31,6.4-1.33,9.69a1.5,1.5,0,0,0,0,2.1c.86-.82-.08-1.44,0-2.1.33-.24.89-.74,1-.68,1.27,1.13,1.69,0,2-.9,1.2.72-.51,1.91.68,2.5-.22,1.45-.45,2.91-.67,4.36,0,0-.15.08-.15.11a1.63,1.63,0,0,0,.11.31c-.27,1.76-.55,3.52-.82,5.28a1.3,1.3,0,0,0-.18,1.56L49.38,159c-.52.41-.6.85-.07,1.31l-.08,1.3c-1.25,1.15-1.09,2.73-1.16,4.17-.35,7-.61,14-.89,20.92,0,.52,0,1-.52,1.36h0C46.65,187.78,46.63,187.57,46.61,187.36Zm-.32-34.74c-.39,0-.4.35-.4.63s0,.62.39.62.4-.33.4-.61S46.67,152.68,46.29,152.62Zm.66-4.71a1.28,1.28,0,0,0,0,1.49A1.42,1.42,0,0,0,47,147.91Zm-.43,3.7c.06-.12.16-.24.16-.35s-.11-.21-.18-.32c-.06.11-.16.22-.16.33S46.45,151.49,46.52,151.61Z"/><path class="cls-5" d="M35.79,144c-.2-8.26.27-16.5.42-24.75.14-7.37.4-14.74.62-22.11,0-.41-.13-.89.44-1.33a90.74,90.74,0,0,1,3.12,14.4,246.91,246.91,0,0,1,2.86,34c0,.5-.06,1-.1,1.52a3.2,3.2,0,0,1-1.69-3.17,2.73,2.73,0,0,0-1.76-2.91c0,1.85,0,3.43,0,5,0,.42.15.95-.27,1.21-.6.36-.85-.33-1.26-.56C37.36,144.93,36.91,143.88,35.79,144Z"/><path class="cls-6" d="M35.79,144c1.12-.15,1.57.9,2.37,1.33.41.23.66.92,1.26.56.42-.26.27-.79.27-1.21,0-1.58,0-3.16,0-5a2.73,2.73,0,0,1,1.76,2.91,3.2,3.2,0,0,0,1.69,3.17l0,16.69-.4,1.32a5.49,5.49,0,0,1-4.23-2.3c-.29-.43-.57-1-1.16-.55s-.06.71.11,1.11c.82,2-.89,1.06-1.57,1.33q-.11-6.39-.22-12.77c.2-.05.52.09.52-.27,0-.06-.31-.11-.48-.17Q35.75,147.11,35.79,144Zm6.38,2.52c-.12-.05-.27-.17-.35-.14s-.12.23-.17.34c.12.06.27.17.35.14S42.12,146.67,42.17,146.55Z"/><path class="cls-1" d="M52,172.58l.19-1.3c.56-.14.85-.38.28-.89l.1-.87A1.68,1.68,0,0,0,54.37,168c.09-2.18,1.22-1.55,2.39-1.11-.29,2-.58,4.09-.86,6.14-.06,0-.17.09-.16.11a1.93,1.93,0,0,0,.11.34c-.7,6.68-2.4,13.19-3.54,19.79-.17,1-.32,2-1.85,1.78s-1-1.43-1-2.17a108.85,108.85,0,0,1,1.82-17.18c.58-.15.83-.41.27-.91l.16-1.29C52.31,173.32,52.59,173.08,52,172.58Z"/><path class="cls-5" d="M47.6,144.9c0-3.29,1.36-6.39,1.33-9.69,1.36-1.34.64-3.2,1.2-4.74,1.52-1.92,1.15-4.4,1.89-6.55a138.82,138.82,0,0,1,4-14.57h.7q-2.7,18.23-5.42,36.46c-1.19-.59.52-1.78-.68-2.5-.35.91-.77,2-2,.9-.07-.06-.63.44-1,.68Z"/><path class="cls-2" d="M19.11,150.72c-.12,1.14-.4,2.17-1.65,2.59-.81-16.21-1.59-32.43-2.43-48.64-.34-6.64-.79-13.28-1.16-19.92a4.86,4.86,0,0,0-.94-3.07c.46-.25.93.4,1.38,0H15c-.3,4.59.32,9.16.55,13.74.8,16.16,1.72,32.32,2.59,48.48.1,1.81.16,3.64.26,5.45C18.41,149.88,18.31,150.54,19.11,150.72Z"/><path class="cls-1" d="M30,176.05a16.72,16.72,0,0,1-.3-4.79c.36,0,.8,0,.95-.36.29-.74-.92-1.92.74-2.28,1.5-.33,1,1.39,1.82,1.7.13.05.28.07.42.11.62,7.67,0,15.34-.27,23,0,.74,0,1.65-1.23,1.62s-1.17-.81-1.21-1.63c-.15-3.29-.32-6.57-.48-9.86.56-.35.48-.65-.07-.92-.47-1.73-.22-3.5-.31-5.25C30.63,176.92,30.61,176.48,30,176.05Z"/><path class="cls-6" d="M33.63,170.43c-.14,0-.29-.06-.42-.11-.84-.31-.32-2-1.82-1.7-1.66.36-.45,1.54-.74,2.28-.15.39-.59.35-.95.36-.68-7-.72-14-.81-21.07,2,.52,2.23-1.53,3.38-2.23a127.47,127.47,0,0,1,1.23,15.48C33.6,165.76,34,168.09,33.63,170.43Z"/><path class="cls-2" d="M52,123.92c-.74,2.15-.37,4.63-1.89,6.55-.19-5.77.45-11.51.7-17.27.44-10.21,1.06-20.42,1.61-30.63l.88,0-1.23,26c-.22,4.59-.45,9.18-.63,13.77C51.43,122.85,51.09,123.64,52,123.92Z"/><path class="cls-5" d="M32.27,148c-1.15.7-1.41,2.75-3.38,2.23l-.15-7.49c.33-.88.65-1.76,0-2.63a66,66,0,0,1-.3-9.64l1.36.45A105.77,105.77,0,0,1,32.27,148Z"/><path class="cls-3" d="M53.32,82.55l-.88,0a3.21,3.21,0,0,1-1.75-3.43c.27-4.78.51-9.57.75-14.35.08-1.52.57-2.7,2.22-3a72.87,72.87,0,0,1-.14,11.91c-.16,3-.32,5.92-.2,8.89Z"/><path class="cls-3" d="M14.31,81.66c-.45.42-.92-.23-1.38,0a3.41,3.41,0,0,1-1.32-3c-.19-4.42-.36-8.84-.59-13.26-.09-1.6.32-2.85,1.85-3.56.58.4.47,1,.5,1.58Q13.84,72.54,14.31,81.66Z"/><path class="cls-4" d="M53.32,82.55c-.12-3,0-5.92.2-8.89a72.87,72.87,0,0,0,.14-11.91c0-.36.23-1,.51-.65,1,1.09,2.2,2.06,2.09,3.82-.29,5-.48,10-.76,15A2.53,2.53,0,0,1,53.32,82.55Z"/><path class="cls-4" d="M14.31,81.66q-.47-9.12-.94-18.26c0-.58.08-1.18-.5-1.58,0-.33.05-1,.46-.66,1.16,1,2.48,1.9,2.53,3.8.1,4.6.38,9.2.58,13.8,0,1.22-.12,2.35-1.45,2.88Z"/><path class="cls-6" d="M56.76,166.87c-1.17-.44-2.3-1.07-2.39,1.11a1.68,1.68,0,0,1-1.79,1.54,59.33,59.33,0,0,1,6-16.92c-.26,2.37-.48,4.75-.79,7.12S57.11,164.49,56.76,166.87Z"/><path class="cls-8" d="M17.78,173.09c-.14-1.49.71-2.71,1.1-4.05l.58-.06c.16,5.72.33,11.43.46,17.15a8.34,8.34,0,0,0,.81,3.54c0,1.31-.05,2.63,0,3.94,0,.86-.25,1.38-1.23,1.41-1.32,0-.86-.93-.88-1.54-.15-6.29.46-12.58.06-18.87C18.61,174,19.13,173,17.78,173.09Z"/><path class="cls-6" d="M46.66,188c.51-.33.49-.84.52-1.36.28-7,.54-14,.89-20.92.07-1.44-.09-3,1.16-4.17-.13,5.74-.11,11.49-.6,17.22a12.83,12.83,0,0,0-.13,8.3v1.29c-1.39.22-.76,1.33-.94,2.1-.27,1.21.6,2.64-.67,3.67C46.81,192.1,46.74,190.05,46.66,188Z"/><path class="cls-6" d="M46.89,194.14c1.27-1,.4-2.46.67-3.67.18-.77-.45-1.88.94-2.1,0,1.82,0,3.63,0,5.45,0,.38.23.94-.35,1.09S46.94,195,46.89,194.14Z"/><path class="cls-2" d="M29.78,130.88l-1.36-.45v-5A19.43,19.43,0,0,1,29.78,130.88Z"/><path class="cls-6" d="M48.5,187.08a12.83,12.83,0,0,1,.13-8.3c0,.43,0,.86,0,1.29,0,.06-.12.12-.11.17s.07.26.1.39c0,1.06,0,2.13,0,3.2l0,.79Z"/><path class="cls-7" d="M45.23,155c1.14.69,1.07,2.57-.15,4Z"/><path class="cls-2" d="M56.7,109.36H56A9.08,9.08,0,0,1,57.08,106,8.21,8.21,0,0,1,56.7,109.36Z"/><path class="cls-8" d="M36.06,168.14a1.85,1.85,0,0,1,.13,2.67A3.23,3.23,0,0,1,36.06,168.14Z"/><path class="cls-2" d="M28.72,140.07c.67.87.35,1.75,0,2.63A4.08,4.08,0,0,1,28.72,140.07Z"/><path class="cls-9" d="M49.31,160.26c-.53-.46-.45-.9.07-1.31A1.24,1.24,0,0,1,49.31,160.26Z"/><path class="cls-8" d="M30,176.05c.61.43.63.87.06,1.34A1.27,1.27,0,0,1,30,176.05Z"/><path class="cls-8" d="M30.37,182.64c.55.27.63.57.07.92A.82.82,0,0,1,30.37,182.64Z"/><path class="cls-9" d="M46.33,184.87c.57.58.39,1.27.26,1.95C46.05,186.23,46.35,185.53,46.33,184.87Z"/><path class="cls-8" d="M52,172.58c.58.5.3.74-.27.9A.87.87,0,0,1,52,172.58Z"/><path class="cls-8" d="M51.58,174.77c.56.5.31.76-.27.91Z"/><path class="cls-8" d="M52.48,170.39c.57.51.28.75-.28.89A.82.82,0,0,1,52.48,170.39Z"/><path class="cls-9" d="M49.57,157.44a1.3,1.3,0,0,1,.18-1.56A1.82,1.82,0,0,1,49.57,157.44Z"/><path class="cls-9" d="M35.74,150.17c.17.06.48.11.48.17,0,.36-.32.22-.52.27Z"/><path class="cls-7" d="M45.28,130.9c.13.12.13.23,0,.34l-.11-.17Z"/><path class="cls-7" d="M50.57,150.6a1.63,1.63,0,0,1-.11-.31s.1-.07.15-.11Z"/><path class="cls-8" d="M55.85,173.46a1.93,1.93,0,0,1-.11-.34s.1-.07.16-.11Z"/><path class="cls-9" d="M48.6,180.63c0-.13-.08-.26-.1-.39s.07-.11.11-.17a1.82,1.82,0,0,1,.11.38C48.73,180.51,48.65,180.57,48.6,180.63Z"/><path class="cls-9" d="M48.62,184.62l0-.79A.47.47,0,0,1,48.62,184.62Z"/><path class="cls-9" d="M46.61,187.36c0,.21,0,.42,0,.64A.38.38,0,0,1,46.61,187.36Z"/><path class="cls-7" d="M46.29,152.62c.38.06.39.36.39.64s0,.61-.4.61-.39-.35-.39-.62S45.9,152.67,46.29,152.62Z"/><path class="cls-7" d="M47.6,144.9c-.12.66.82,1.28,0,2.1a1.5,1.5,0,0,1,0-2.1Z"/><path class="cls-7" d="M47,147.91a1.42,1.42,0,0,1,0,1.49A1.28,1.28,0,0,1,47,147.91Z"/><path class="cls-7" d="M46.52,151.61c-.07-.12-.18-.23-.18-.34s.1-.22.16-.33c.07.11.18.21.18.32S46.58,151.49,46.52,151.61Z"/><path class="cls-9" d="M42.17,146.55c-.05.12-.08.31-.17.34s-.23-.08-.35-.14c.05-.11.08-.3.17-.34S42.05,146.5,42.17,146.55Z"/></g></g></g></svg>