<svg xmlns="http://www.w3.org/2000/svg" viewBox="0 0 84.56 206.2"><defs><style>.cls-1{fill:#1e3d10;}.cls-2{fill:#296313;}.cls-3{fill:#274f16;}.cls-4{fill:#78805c;}.cls-5{fill:#515d2b;}.cls-6{fill:#516147;}.cls-7{fill:#5b7251;}.cls-8{fill:#352107;}.cls-9{fill:#722e16;}</style></defs><title>trava_zgoraj_levo</title><g id="Layer_2" data-name="Layer 2"><g id="RASTLINE"><g id="_2_LOKVANI" data-name="2 LOKVANI"><path class="cls-1" d="M49.74,167.22c0-.2,0-.4,0-.6.14-.74.34-1.49-.29-2.13-.2-1.72,0-3.49-.73-5.64-1,5.13-1.8,9.75-2.66,14.38-.07.4-.1.8-.18,1.19-.16.78-.51,1.33-1.45,1.21s-.78-.88-.73-1.47c.21-2.95.43-5.9.7-8.84a9.59,9.59,0,0,0-.11-4.1c-.76,4.69-1.51,8.84-2.05,13-.18,1.46-1,1.35-2,1.39s-1.46-.22-1.46-1.32c0-8.42-.71-16.82-.48-25.23.68-1,.84-2-.15-2.93a22.33,22.33,0,0,1-.15-5.23c.75-.29,2.62.71,1.73-1.45-.19-.45-.63-.85-.13-1.22s1,.12,1.28.6a6,6,0,0,0,4.64,2.52l.26.54-.16.9-1,13.79.67.06,1.53-12.91.2-1.94.2-.66c.27-1.69.55-3.38.82-5.07,1.34-1.55,1.42-3.62.16-4.38-.34-8.68-.41-17.36.06-26,.14-.12.14-.24,0-.37-.15-8.26.32-16.51.76-24.75.46-8.73,1.16-17.44,2.27-26.12l.15-1.13.58,0c0,6.71,0,13.42,0,20.13.07,11.31.21,22.62.31,33.93,0,.89,0,1.77-.08,2.65,0,3.61-1.43,7-1.45,10.63a1.63,1.63,0,0,0,0,2.3c.95-.89-.08-1.58,0-2.3.37-.26,1-.81,1.06-.75,1.39,1.24,1.85,0,2.24-1,1.31.79-.56,2.09.74,2.74-.24,1.59-.49,3.19-.73,4.78-.06,0-.17.09-.16.12a1.57,1.57,0,0,0,.11.35l-.9,5.79A1.4,1.4,0,0,0,53,134.4l-.21,1.66c-.57.45-.66.92-.08,1.43l-.08,1.43c-1.38,1.25-1.2,3-1.28,4.57-.38,7.65-.67,15.3-1,22.95,0,.57,0,1.13-.56,1.49h0Zm-.35-38.11c-.43,0-.44.38-.44.68s0,.69.42.69.44-.37.44-.68S49.8,129.17,49.39,129.11Zm.72-5.17a1.41,1.41,0,0,0,0,1.64A1.55,1.55,0,0,0,50.11,123.94ZM49.64,128c.07-.14.18-.27.18-.39s-.13-.24-.2-.36c-.06.13-.18.25-.18.37S49.56,127.87,49.64,128Z"/><path class="cls-2" d="M37.87,119.68c-.22-9.05.29-18.1.46-27.14.15-8.09.44-16.18.68-24.26,0-.46-.14-1,.48-1.46a100.15,100.15,0,0,1,3.43,15.8,272.55,272.55,0,0,1,3.14,37.31c0,.56-.08,1.12-.12,1.68a3.56,3.56,0,0,1-1.86-3.48,3,3,0,0,0-1.92-3.2c0,2,0,3.77,0,5.5,0,.46.17,1-.3,1.32-.66.4-.93-.36-1.38-.6C39.6,120.67,39.1,119.52,37.87,119.68Z"/><path class="cls-3" d="M37.87,119.68c1.23-.16,1.73,1,2.6,1.47.45.24.72,1,1.38.6.47-.28.3-.86.3-1.32,0-1.73,0-3.46,0-5.5a3,3,0,0,1,1.92,3.2,3.56,3.56,0,0,0,1.86,3.48l0,18.3-.43,1.45a6,6,0,0,1-4.64-2.52c-.32-.48-.63-1.07-1.28-.6s-.06.77.13,1.22c.89,2.16-1,1.16-1.73,1.45l-.24-14c.22-.06.57.1.58-.3,0-.06-.35-.12-.54-.18Zm7,2.77c-.13-.06-.3-.19-.39-.15s-.12.24-.18.37c.13.06.29.19.39.15S44.81,122.58,44.87,122.45Z"/><path class="cls-1" d="M55.66,151l.21-1.42c.61-.16.93-.42.31-1l.11-.95a1.84,1.84,0,0,0,2-1.69c.1-2.4,1.34-1.7,2.62-1.22q-.48,3.38-.94,6.73c-.07.05-.18.1-.18.13a1.63,1.63,0,0,0,.13.37c-.77,7.33-2.63,14.47-3.88,21.71-.19,1.08-.35,2.18-2,1.95s-1.09-1.56-1.07-2.38a119.37,119.37,0,0,1,2-18.85c.64-.16.91-.44.31-1l.17-1.42C56,151.82,56.3,151.55,55.66,151Z"/><path class="cls-2" d="M50.83,120.64c0-3.61,1.49-7,1.45-10.63,1.5-1.47.71-3.51,1.32-5.2,1.66-2.11,1.26-4.82,2.08-7.18a147.62,147.62,0,0,1,4.37-16h.76q-3,20-6,40c-1.3-.65.57-2-.74-2.74-.39,1-.85,2.22-2.24,1-.08-.06-.69.49-1.06.75Z"/><path class="cls-1" d="M31.52,154.81a17.79,17.79,0,0,1-.33-5.25c.39,0,.88,0,1-.4.31-.81-1-2.1.81-2.5,1.65-.36,1.08,1.52,2,1.86a3.59,3.59,0,0,0,.47.12c.68,8.42,0,16.83-.29,25.24,0,.81,0,1.81-1.36,1.78s-1.28-.9-1.32-1.8c-.17-3.6-.36-7.2-.54-10.81.63-.38.54-.71-.06-1-.52-1.89-.25-3.83-.35-5.75C32.21,155.77,32.19,155.28,31.52,154.81Z"/><path class="cls-3" d="M35.5,148.64a3.59,3.59,0,0,1-.47-.12c-.91-.34-.34-2.22-2-1.86-1.82.4-.5,1.69-.81,2.5-.16.43-.65.38-1,.4-.75-7.69-.79-15.41-.89-23.12,2.16.57,2.45-1.67,3.71-2.45a142.14,142.14,0,0,1,1.35,17C35.46,143.53,35.91,146.08,35.5,148.64Z"/><path class="cls-2" d="M34,124c-1.26.78-1.55,3-3.71,2.45l-.17-8.21c.37-1,.72-1.93,0-2.89a73.18,73.18,0,0,1-.33-10.57l1.49.49A115.11,115.11,0,0,1,34,124Z"/><path class="cls-3" d="M60.87,144.74c-1.28-.48-2.52-1.18-2.62,1.22a1.84,1.84,0,0,1-2,1.69,64.38,64.38,0,0,1,6.61-18.56c-.29,2.6-.54,5.21-.87,7.81S61.26,142.13,60.87,144.74Z"/><path class="cls-3" d="M49.8,167.93c.55-.36.54-.92.56-1.49.31-7.65.6-15.3,1-22.95.08-1.58-.1-3.32,1.28-4.57-.15,6.3-.13,12.6-.67,18.88a14.1,14.1,0,0,0-.13,9.12v1.41c-1.52.24-.84,1.46-1,2.3-.31,1.33.65,2.9-.75,4Z"/><path class="cls-3" d="M50,174.66c1.4-1.13.44-2.7.75-4,.18-.84-.5-2.06,1-2.3,0,2,0,4,0,6,0,.43.26,1-.39,1.21S50.1,175.56,50,174.66Z"/><path class="cls-4" d="M31.27,105.26l-1.49-.49V99.24A21.21,21.21,0,0,1,31.27,105.26Z"/><path class="cls-3" d="M51.82,166.92A14.1,14.1,0,0,1,52,157.8c0,.47,0,.95,0,1.42,0,.06-.12.13-.12.19a3.31,3.31,0,0,0,.12.42c0,1.17,0,2.34,0,3.51l0,.87Z"/><path class="cls-5" d="M48.22,131.69c1.26.76,1.18,2.83-.16,4.38C48.11,134.61,48.17,133.15,48.22,131.69Z"/><path class="cls-4" d="M60.81,81.65h-.76A9.68,9.68,0,0,1,61.23,78,9.08,9.08,0,0,1,60.81,81.65Z"/><path class="cls-6" d="M38.16,146.14c1,.93.83,1.91.15,2.93A3.53,3.53,0,0,1,38.16,146.14Z"/><path class="cls-4" d="M30.11,115.34c.74,1,.39,1.92,0,2.89A4.54,4.54,0,0,1,30.11,115.34Z"/><path class="cls-7" d="M52.7,137.49c-.58-.51-.49-1,.08-1.43A1.37,1.37,0,0,1,52.7,137.49Z"/><path class="cls-6" d="M31.52,154.81c.67.47.69,1,.06,1.48A1.41,1.41,0,0,1,31.52,154.81Z"/><path class="cls-6" d="M31.93,162c.6.3.69.63.06,1A.91.91,0,0,1,31.93,162Z"/><path class="cls-7" d="M49.43,164.49c.63.64.43,1.39.29,2.13C49.12,166,49.46,165.21,49.43,164.49Z"/><path class="cls-6" d="M55.66,151c.64.55.34.82-.29,1A1,1,0,0,1,55.66,151Z"/><path class="cls-6" d="M55.2,153.41c.6.55.33.83-.31,1Z"/><path class="cls-6" d="M56.18,148.6c.62.56.3.82-.31,1A.92.92,0,0,1,56.18,148.6Z"/><path class="cls-7" d="M53,134.4a1.4,1.4,0,0,1,.19-1.71A2,2,0,0,1,53,134.4Z"/><path class="cls-7" d="M37.81,126.42c.19.06.54.12.54.18,0,.4-.36.24-.58.3Z"/><path class="cls-5" d="M48.28,105.28c.14.13.14.25,0,.37l-.12-.18Z"/><path class="cls-5" d="M54.08,126.9a1.57,1.57,0,0,1-.11-.35s.1-.08.16-.12Z"/><path class="cls-6" d="M59.88,152a1.63,1.63,0,0,1-.13-.37s.11-.08.18-.13Z"/><path class="cls-7" d="M51.93,159.83a3.31,3.31,0,0,1-.12-.42c0-.06.08-.13.12-.19a2.25,2.25,0,0,1,.13.42C52.07,159.7,52,159.77,51.93,159.83Z"/><path class="cls-7" d="M52,164.21l0-.87A.53.53,0,0,1,52,164.21Z"/><path class="cls-7" d="M49.74,167.22l.06.7A.41.41,0,0,1,49.74,167.22Z"/><path class="cls-5" d="M49.38,129.11c.42.06.44.39.43.69s0,.68-.44.68-.42-.38-.42-.69S49,129.16,49.38,129.11Z"/><path class="cls-5" d="M50.82,120.64c-.12.72.91,1.41,0,2.3a1.63,1.63,0,0,1,0-2.3Z"/><path class="cls-5" d="M50.11,123.94a1.55,1.55,0,0,1,0,1.64A1.41,1.41,0,0,1,50.11,123.94Z"/><path class="cls-5" d="M49.64,128c-.08-.14-.2-.26-.2-.38s.12-.24.18-.37c.07.12.19.24.2.36S49.71,127.87,49.64,128Z"/><path class="cls-7" d="M44.87,122.45c-.06.13-.09.33-.18.37s-.26-.09-.39-.15c.06-.13.09-.33.18-.37S44.74,122.39,44.87,122.45Z"/><path class="cls-4" d="M55.68,97.63c-.82,2.36-.42,5.07-2.08,7.18-.21-6.33.49-12.63.77-19,.48-11.2,1.16-22.4,1.76-33.6l1,0L55.75,80.72c-.24,5-.49,10.07-.69,15.1C55,96.45,54.65,97.31,55.68,97.63Z"/><path class="cls-8" d="M57.1,52.24l-1,0a3.56,3.56,0,0,1-1.92-3.77c.31-5.24.57-10.49.83-15.74.08-1.66.62-3,2.44-3.34a81.59,81.59,0,0,1-.16,13.08c-.18,3.25-.35,6.49-.22,9.75Z"/><path class="cls-9" d="M57.1,52.24c-.13-3.26,0-6.5.22-9.75a81.59,81.59,0,0,0,.16-13.08c0-.38.24-1.06.55-.71,1.07,1.2,2.41,2.26,2.3,4.2-.32,5.49-.54,11-.84,16.49A2.78,2.78,0,0,1,57.1,52.24Z"/><path class="cls-1" d="M63.35,183.33l0-.6c.15-.74.34-1.49-.28-2.14-.2-1.71,0-3.48-.74-5.63-.94,5.12-1.8,9.75-2.65,14.38-.07.39-.1.8-.18,1.19-.16.78-.51,1.33-1.45,1.2s-.78-.87-.73-1.47c.21-2.94.43-5.89.7-8.84a9.76,9.76,0,0,0-.11-4.1c-.76,4.7-1.51,8.85-2.05,13-.19,1.46-1,1.35-2,1.39s-1.46-.23-1.46-1.33c0-8.41-.71-16.81-.48-25.23a2,2,0,0,0-.15-2.92,22.33,22.33,0,0,1-.15-5.23c.74-.3,2.62.71,1.72-1.46-.18-.44-.63-.84-.12-1.21s1,.12,1.27.6a6.06,6.06,0,0,0,4.64,2.52l.27.53-.16.91-1,13.78.67.07,1.53-12.91.2-1.94.2-.66c.27-1.69.54-3.38.82-5.07,1.34-1.56,1.42-3.62.16-4.38-.34-8.68-.41-17.36.06-26,.14-.12.14-.24,0-.37-.15-8.26.32-16.51.76-24.75.46-8.73,1.16-17.45,2.27-26.12l.15-1.13.58,0c0,6.71,0,13.42,0,20.13.08,11.31.22,22.62.32,33.93,0,.88,0,1.76-.08,2.65,0,3.61-1.43,7-1.45,10.63a1.63,1.63,0,0,0,0,2.3c.94-.89-.09-1.58,0-2.3.37-.27,1-.82,1-.75,1.4,1.24,1.86,0,2.25-1,1.31.79-.57,2.09.74,2.73-.25,1.6-.49,3.19-.74,4.79,0,0-.16.09-.16.12a2,2,0,0,0,.12.34l-.9,5.79a1.42,1.42,0,0,0-.19,1.72l-.21,1.65c-.58.45-.66.93-.08,1.44L66.23,155c-1.38,1.25-1.2,3-1.28,4.57-.38,7.65-.67,15.3-1,23,0,.56,0,1.13-.56,1.49v0ZM63,145.22c-.42.05-.43.38-.43.68s0,.68.42.69.44-.37.44-.68S63.41,145.28,63,145.22Zm.73-5.17a1.4,1.4,0,0,0,0,1.64A1.55,1.55,0,0,0,63.72,140.05Zm-.48,4.06c.07-.14.19-.26.18-.38s-.12-.24-.19-.36c-.07.12-.18.25-.18.37S63.17,144,63.24,144.11Z"/><path class="cls-2" d="M51.48,135.79c-.22-9.06.29-18.1.46-27.15.15-8.08.44-16.17.68-24.25,0-.46-.14-1,.48-1.46a99.13,99.13,0,0,1,3.42,15.79A269.57,269.57,0,0,1,59.66,136a15.79,15.79,0,0,1-.11,1.68,3.56,3.56,0,0,1-1.86-3.48,3,3,0,0,0-1.93-3.2c0,2,0,3.77,0,5.5,0,.46.16,1-.3,1.32-.66.4-.93-.36-1.38-.61C53.2,136.78,52.71,135.62,51.48,135.79Z"/><path class="cls-3" d="M51.48,135.79c1.23-.17,1.72,1,2.6,1.46.45.25.72,1,1.38.61.46-.28.29-.86.3-1.32,0-1.73,0-3.47,0-5.5a3,3,0,0,1,1.93,3.2,3.56,3.56,0,0,0,1.86,3.48l0,18.3-.44,1.45A6.06,6.06,0,0,1,54.49,155c-.31-.48-.62-1.08-1.27-.6s-.06.77.12,1.21c.9,2.17-1,1.16-1.72,1.46l-.24-14c.22-.06.57.1.57-.3,0-.06-.35-.12-.53-.18Zm7,2.76c-.14-.05-.3-.18-.39-.14s-.12.24-.18.37c.13.06.29.19.38.15S58.42,138.69,58.48,138.55Z"/><path class="cls-1" d="M69.27,167.11c.07-.47.14-1,.2-1.42.62-.16.94-.42.32-1l.11-1a1.84,1.84,0,0,0,2-1.69c.1-2.4,1.34-1.7,2.62-1.22-.32,2.25-.63,4.49-1,6.73-.06,0-.17.1-.17.13a1.74,1.74,0,0,0,.13.36c-.77,7.34-2.64,14.47-3.89,21.72-.18,1.08-.35,2.18-2,2s-1.1-1.56-1.07-2.38a119.25,119.25,0,0,1,2-18.85c.64-.17.91-.44.3-1L69,168.1C69.6,167.93,69.91,167.66,69.27,167.11Z"/><path class="cls-2" d="M64.44,136.75c0-3.61,1.48-7,1.45-10.63,1.5-1.47.7-3.51,1.32-5.2,1.66-2.12,1.26-4.83,2.07-7.19a149.94,149.94,0,0,1,4.37-16l.77,0q-3,20-6,40c-1.31-.64.57-1.94-.74-2.73-.39,1-.85,2.22-2.25,1-.07-.07-.68.48-1,.75Z"/><path class="cls-1" d="M45.13,170.92a18.13,18.13,0,0,1-.34-5.25c.4,0,.88,0,1.05-.4.31-.81-1-2.1.81-2.5,1.65-.36,1.07,1.52,2,1.86a3.59,3.59,0,0,0,.47.12c.68,8.42,0,16.83-.3,25.24,0,.81,0,1.81-1.35,1.77s-1.28-.89-1.32-1.79c-.17-3.6-.36-7.21-.54-10.81.63-.38.54-.71-.06-1-.52-1.9-.25-3.84-.35-5.76Q46.12,171.63,45.13,170.92Z"/><path class="cls-3" d="M49.11,164.75a3.59,3.59,0,0,1-.47-.12c-.92-.34-.34-2.22-2-1.86-1.82.4-.5,1.69-.81,2.5-.17.42-.65.38-1.05.4-.74-7.69-.78-15.41-.88-23.12,2.15.57,2.45-1.67,3.71-2.45a142.14,142.14,0,0,1,1.35,17C49.07,159.63,49.51,162.19,49.11,164.75Z"/><path class="cls-4" d="M69.28,113.73c-.81,2.36-.41,5.07-2.07,7.19-.21-6.34.49-12.64.76-19,.49-11.21,1.17-22.4,1.77-33.61h1L69.36,96.83c-.24,5-.49,10.06-.69,15.1C68.64,112.56,68.26,113.42,69.28,113.73Z"/><path class="cls-2" d="M47.62,140.1c-1.26.78-1.56,3-3.71,2.45l-.17-8.22c.37-1,.72-1.93,0-2.88a70.43,70.43,0,0,1-.33-10.57l1.49.49A115.88,115.88,0,0,1,47.62,140.1Z"/><path class="cls-8" d="M70.71,68.35h-1a3.51,3.51,0,0,1-1.92-3.76q.45-7.86.83-15.74c.08-1.67.62-3,2.44-3.34a81.61,81.61,0,0,1-.16,13.08c-.18,3.25-.35,6.49-.22,9.74Z"/><path class="cls-9" d="M70.71,68.34c-.13-3.25,0-6.49.22-9.74a81.61,81.61,0,0,0,.16-13.08c0-.39.24-1.06.55-.71,1.06,1.2,2.41,2.26,2.3,4.2-.33,5.49-.54,11-.84,16.48A2.78,2.78,0,0,1,70.71,68.34Z"/><path class="cls-3" d="M74.48,160.85c-1.28-.48-2.52-1.18-2.62,1.22a1.84,1.84,0,0,1-2,1.69,64.82,64.82,0,0,1,6.6-18.57c-.28,2.61-.53,5.22-.87,7.82S74.87,158.24,74.48,160.85Z"/><path class="cls-3" d="M63.41,184c.55-.36.53-.93.56-1.49.31-7.65.6-15.3,1-23,.08-1.58-.1-3.32,1.28-4.57-.16,6.29-.13,12.6-.67,18.88a14.08,14.08,0,0,0-.13,9.11v1.42c-1.53.24-.84,1.46-1,2.29-.3,1.34.66,2.91-.74,4Z"/><path class="cls-3" d="M63.65,190.77c1.4-1.13.44-2.7.74-4,.19-.83-.5-2,1-2.29,0,2,0,4,0,6,0,.42.26,1-.39,1.2S63.71,191.67,63.65,190.77Z"/><path class="cls-4" d="M44.88,121.37l-1.49-.49v-5.54A21.35,21.35,0,0,1,44.88,121.37Z"/><path class="cls-3" d="M65.43,183a14.08,14.08,0,0,1,.13-9.11c0,.47,0,.94,0,1.42,0,.06-.12.13-.12.19a3.25,3.25,0,0,0,.11.42c0,1.17,0,2.34,0,3.51l0,.87Z"/><path class="cls-5" d="M61.83,147.8c1.26.76,1.18,2.82-.16,4.38C61.72,150.72,61.78,149.26,61.83,147.8Z"/><path class="cls-4" d="M74.42,97.76l-.77,0a9.89,9.89,0,0,1,1.19-3.66A9.08,9.08,0,0,1,74.42,97.76Z"/><path class="cls-6" d="M51.77,162.25a2,2,0,0,1,.15,2.92A3.51,3.51,0,0,1,51.77,162.25Z"/><path class="cls-4" d="M43.72,131.45c.74,1,.39,1.92,0,2.88A4.51,4.51,0,0,1,43.72,131.45Z"/><path class="cls-7" d="M66.31,153.6c-.58-.51-.5-1,.08-1.44A1.4,1.4,0,0,1,66.31,153.6Z"/><path class="cls-6" d="M45.13,170.92q1,.71.06,1.47A1.39,1.39,0,0,1,45.13,170.92Z"/><path class="cls-6" d="M45.54,178.15c.6.3.69.63.06,1A.91.91,0,0,1,45.54,178.15Z"/><path class="cls-7" d="M63,180.59c.62.65.43,1.4.28,2.14C62.73,182.08,63.07,181.32,63,180.59Z"/><path class="cls-6" d="M69.27,167.11c.64.55.33.82-.3,1A1,1,0,0,1,69.27,167.11Z"/><path class="cls-6" d="M68.8,169.52c.61.55.34.82-.3,1Z"/><path class="cls-6" d="M69.79,164.71c.62.56.3.82-.32,1A.94.94,0,0,1,69.79,164.71Z"/><path class="cls-7" d="M66.6,150.51a1.42,1.42,0,0,1,.19-1.72A2,2,0,0,1,66.6,150.51Z"/><path class="cls-7" d="M51.42,142.53c.18.06.53.12.53.18,0,.4-.35.24-.57.3Z"/><path class="cls-5" d="M61.89,121.39c.14.13.14.25,0,.37l-.12-.19Z"/><path class="cls-5" d="M67.69,143a2,2,0,0,1-.12-.34s.11-.08.16-.12Z"/><path class="cls-6" d="M73.49,168.07a1.74,1.74,0,0,1-.13-.36s.11-.09.17-.13Z"/><path class="cls-7" d="M65.53,175.94a3.25,3.25,0,0,1-.11-.42c0-.06.08-.13.12-.19a3.38,3.38,0,0,1,.13.42C65.67,175.81,65.58,175.88,65.53,175.94Z"/><path class="cls-7" d="M65.55,180.32l0-.87A.52.52,0,0,1,65.55,180.32Z"/><path class="cls-7" d="M63.35,183.33l.06.69A.4.4,0,0,1,63.35,183.33Z"/><path class="cls-5" d="M63,145.22c.42.06.43.39.43.69s0,.68-.44.68-.42-.38-.42-.69S62.57,145.27,63,145.22Z"/><path class="cls-5" d="M64.43,136.75c-.13.72.9,1.41,0,2.3a1.63,1.63,0,0,1,0-2.3Z"/><path class="cls-5" d="M63.72,140.05a1.55,1.55,0,0,1,0,1.64A1.4,1.4,0,0,1,63.72,140.05Z"/><path class="cls-5" d="M63.24,144.11c-.07-.13-.19-.25-.19-.37s.11-.25.18-.37c.07.12.19.24.19.36S63.31,144,63.24,144.11Z"/><path class="cls-7" d="M58.48,138.56c-.06.13-.09.33-.19.37s-.25-.09-.38-.15c.06-.13.08-.33.18-.37S58.34,138.5,58.48,138.56Z"/><path class="cls-1" d="M52.27,182.11c-1.91,7-.8,14.18-1,21.29,0,.64,0,1.28,0,1.92,0,.84-.57.79-1.14.81s-1.22-.06-1.27-1a8.67,8.67,0,0,0-.66-4,16.15,16.15,0,0,0-.74,2.58c-.18,1.78-.86,2.61-2.84,2.49-1.46-.09-1.89-.53-2-1.93-.74-8.22-1.75-16.42-2.31-24.65-1-14.53-3.7-28.77-6.58-43-.34-1.68-.72-3.34-1-5,8.39,16.85,11.78,34.82,12,53.57a17,17,0,0,0,1.71-8.44c-.51-7.36-1.08-14.72-1.52-22.08-.84-14.17-1.62-28.34-2.42-42.51-.07-1.12-.15-2.23-.25-3.63a93.28,93.28,0,0,1,2.81,14.3c.71,4.84,1.39,9.68,2,14.53s1.09,9.56,1.56,14.34.86,9.68,1.31,14.88a17,17,0,0,0,2-6.13c1.38-.45,1.69-1.59,1.81-2.84,3.69-5.73,3-12.46,4.25-18.74.73-3.66,1.12-7.39,2.2-11C59,152,57.73,176.2,55.5,200.3a9.1,9.1,0,0,1-.88-3.88c-.15-6.27-.33-12.54-.5-18.81-.13-2.67,1.05-5.3.28-8.3-.85,2.95-.65,5.68-.93,8.36C53.05,179.14,52.12,180.48,52.27,182.11Z"/><path class="cls-4" d="M53.72,157.57c-.12,1.25-.43,2.39-1.81,2.84q-1.32-26.67-2.65-53.36c-.38-7.28-.88-14.56-1.28-21.85a5.39,5.39,0,0,0-1-3.37c.5-.28,1,.44,1.51,0l.74,0c-.33,5,.35,10.06.6,15.08.88,17.73,1.89,35.46,2.84,53.18.11,2,.17,4,.29,6C53,156.65,52.85,157.38,53.72,157.57Z"/><path class="cls-9" d="M48.46,81.81q-.51-10-1-20c0-.63.09-1.29-.54-1.73,0-.35,0-1.1.49-.72,1.28,1.11,2.73,2.09,2.78,4.17.12,5.05.42,10.09.64,15.13.06,1.35-.13,2.59-1.6,3.17Z"/><path class="cls-2" d="M45.92,91.08c-.22-9.06.29-18.1.47-27.15.15-8.09.44-16.17.67-24.26,0-.45-.13-1,.49-1.45A98.9,98.9,0,0,1,51,54a271.13,271.13,0,0,1,3.14,37.32c0,.56-.07,1.11-.11,1.67a3.51,3.51,0,0,1-1.86-3.48,3,3,0,0,0-1.93-3.19c0,2,0,3.76,0,5.5,0,.46.17,1-.3,1.32-.66.4-.93-.36-1.38-.61C47.65,92.06,47.16,90.91,45.92,91.08Z"/><path class="cls-3" d="M45.92,91.08c1.24-.17,1.73,1,2.6,1.46.45.25.72,1,1.38.61.47-.28.3-.86.3-1.32,0-1.74,0-3.47,0-5.5a3,3,0,0,1,1.93,3.19A3.51,3.51,0,0,0,54,93l0,18.3-.44,1.46a6,6,0,0,1-4.64-2.52c-.31-.48-.62-1.08-1.28-.6-.5.36,0,.77.13,1.21.9,2.16-1,1.16-1.73,1.46q-.12-7-.23-14c.22-.05.57.11.57-.29,0-.06-.35-.12-.54-.18Zm7,2.76c-.13,0-.29-.18-.39-.14s-.12.24-.18.37c.14.05.3.18.39.15S52.86,94,52.92,93.84Z"/><path class="cls-1" d="M63.72,122.4c.07-.48.13-1,.2-1.42.62-.16.94-.42.32-1l.11-1a1.84,1.84,0,0,0,2-1.69c.11-2.4,1.35-1.71,2.62-1.22-.31,2.24-.63,4.49-.94,6.73-.06,0-.18.1-.17.13a2.53,2.53,0,0,0,.12.36c-.77,7.33-2.63,14.47-3.88,21.72-.19,1.08-.35,2.18-2,1.94s-1.1-1.55-1.07-2.37a119.25,119.25,0,0,1,2-18.85c.63-.17.9-.45.3-1l.17-1.42C64.05,123.22,64.35,123,63.72,122.4Z"/><path class="cls-2" d="M58.88,92c0-3.61,1.49-7,1.46-10.64,1.49-1.46.7-3.51,1.32-5.19,1.66-2.12,1.25-4.83,2.07-7.19A149.94,149.94,0,0,1,68.1,53l.77,0q-3,20-6,40c-1.3-.64.57-2-.74-2.74-.39,1-.84,2.22-2.24,1-.07-.07-.69.48-1,.74Z"/><path class="cls-1" d="M39.58,126.21a17.83,17.83,0,0,1-.34-5.25c.4,0,.88,0,1-.4.32-.82-1-2.11.81-2.5,1.66-.37,1.08,1.52,2,1.86.15,0,.31.08.46.12.68,8.42,0,16.83-.29,25.24,0,.81,0,1.8-1.36,1.77s-1.27-.89-1.32-1.79q-.26-5.41-.53-10.81c.62-.38.53-.72-.07-1-.51-1.89-.25-3.83-.35-5.75C40.26,127.17,40.24,126.67,39.58,126.21Z"/><path class="cls-3" d="M43.55,120c-.15,0-.31-.07-.46-.12-.92-.34-.34-2.23-2-1.86-1.81.39-.49,1.68-.81,2.5-.16.42-.64.38-1,.4-.75-7.69-.79-15.41-.88-23.13,2.15.58,2.44-1.67,3.71-2.44a142,142,0,0,1,1.35,17C43.52,114.92,44,117.48,43.55,120Z"/><path class="cls-4" d="M63.73,69c-.82,2.36-.41,5.07-2.07,7.19-.22-6.34.48-12.64.76-18.95.49-11.21,1.17-22.41,1.77-33.61l1,0q-.68,14.25-1.34,28.49c-.24,5-.5,10.06-.7,15.09C63.09,67.85,62.71,68.71,63.73,69Z"/><path class="cls-2" d="M42.07,95.39c-1.27.77-1.56,3-3.71,2.44l-.18-8.21c.37-1,.72-1.93,0-2.89a70.35,70.35,0,0,1-.33-10.57l1.49.49A117.29,117.29,0,0,1,42.07,95.39Z"/><path class="cls-8" d="M65.15,23.63l-1,0a3.51,3.51,0,0,1-1.92-3.76c.3-5.25.56-10.49.82-15.74.08-1.67.62-3,2.44-3.34a80.34,80.34,0,0,1-.16,13.07c-.17,3.25-.34,6.5-.22,9.75Z"/><path class="cls-9" d="M65.15,23.63c-.12-3.25,0-6.5.22-9.75A80.34,80.34,0,0,0,65.53.81c0-.39.25-1.06.56-.71,1.06,1.2,2.41,2.26,2.29,4.19-.32,5.5-.53,11-.83,16.49A2.78,2.78,0,0,1,65.15,23.63Z"/><path class="cls-3" d="M68.92,116.14c-1.27-.49-2.51-1.18-2.62,1.22a1.84,1.84,0,0,1-2,1.69A64.72,64.72,0,0,1,71,100.48c-.29,2.61-.53,5.22-.87,7.81S69.31,113.52,68.92,116.14Z"/><path class="cls-3" d="M57.85,139.33c.55-.36.54-.93.56-1.5.32-7.65.6-15.3,1-22.94.08-1.59-.09-3.32,1.28-4.57-.15,6.29-.12,12.59-.66,18.88a14.08,14.08,0,0,0-.14,9.11v1.42c-1.52.24-.83,1.46-1,2.29-.3,1.34.65,2.9-.74,4Q58,142.69,57.85,139.33Z"/><path class="cls-3" d="M58.1,146.06c1.39-1.14.44-2.7.74-4,.19-.83-.5-2.05,1-2.29,0,2,0,4,0,6,0,.42.25,1-.4,1.2S58.16,147,58.1,146.06Z"/><path class="cls-4" d="M39.33,76.65l-1.49-.49V70.63A21.21,21.21,0,0,1,39.33,76.65Z"/><path class="cls-3" d="M59.87,138.31A14.08,14.08,0,0,1,60,129.2l0,1.41c0,.07-.12.14-.11.19a2.09,2.09,0,0,0,.11.43c0,1.17,0,2.34,0,3.51l0,.87Z"/><path class="cls-5" d="M56.28,103.09c1.25.76,1.18,2.82-.17,4.38C56.17,106,56.22,104.55,56.28,103.09Z"/><path class="cls-4" d="M68.87,53.05l-.77,0a9.69,9.69,0,0,1,1.18-3.66A9.3,9.3,0,0,1,68.87,53.05Z"/><path class="cls-6" d="M46.22,117.53c1,.93.82,1.92.14,2.93A3.57,3.57,0,0,1,46.22,117.53Z"/><path class="cls-4" d="M38.17,86.73c.73,1,.38,1.93,0,2.89A4.61,4.61,0,0,1,38.17,86.73Z"/><path class="cls-7" d="M60.76,108.89c-.58-.51-.5-1,.07-1.44A1.38,1.38,0,0,1,60.76,108.89Z"/><path class="cls-6" d="M39.58,126.21c.66.46.68,1,.05,1.47A1.39,1.39,0,0,1,39.58,126.21Z"/><path class="cls-6" d="M40,133.43c.6.3.69.64.07,1A.91.91,0,0,1,40,133.43Z"/><path class="cls-7" d="M57.49,135.88c.62.64.43,1.39.28,2.14C57.18,137.37,57.51,136.6,57.49,135.88Z"/><path class="cls-6" d="M63.72,122.4c.63.55.33.82-.3,1A1,1,0,0,1,63.72,122.4Z"/><path class="cls-6" d="M63.25,124.81c.6.54.33.82-.3,1Z"/><path class="cls-6" d="M64.24,120c.62.56.3.82-.32,1A.9.9,0,0,1,64.24,120Z"/><path class="cls-7" d="M61,105.8a1.43,1.43,0,0,1,.2-1.72A2,2,0,0,1,61,105.8Z"/><path class="cls-7" d="M45.86,97.82c.19.06.54.12.54.18,0,.4-.35.24-.57.29Z"/><path class="cls-5" d="M56.34,76.68a.22.22,0,0,1,0,.37l-.11-.19Z"/><path class="cls-5" d="M62.14,98.29A2,2,0,0,1,62,98s.1-.08.16-.12Z"/><path class="cls-6" d="M67.93,123.36a2.53,2.53,0,0,1-.12-.36s.11-.09.17-.13Z"/><path class="cls-7" d="M60,131.23a2.09,2.09,0,0,1-.11-.43c0-.05.07-.12.11-.19a2.35,2.35,0,0,1,.13.43C60.12,131.09,60,131.16,60,131.23Z"/><path class="cls-7" d="M60,135.61l0-.87A.52.52,0,0,1,60,135.61Z"/><path class="cls-7" d="M57.79,138.61l.06.7A.41.41,0,0,1,57.79,138.61Z"/><path class="cls-5" d="M57.44,100.5c.42.06.43.39.43.7s0,.68-.44.67-.43-.38-.43-.68S57,100.56,57.44,100.5Z"/><path class="cls-5" d="M58.88,92c-.13.73.9,1.41,0,2.31a1.62,1.62,0,0,1,0-2.3Z"/><path class="cls-5" d="M58.17,95.34a1.55,1.55,0,0,1,0,1.64A1.38,1.38,0,0,1,58.17,95.34Z"/><path class="cls-5" d="M57.69,99.4c-.08-.14-.2-.25-.2-.38s.12-.24.18-.36c.07.12.2.23.2.36S57.76,99.26,57.69,99.4Z"/><path class="cls-7" d="M52.92,93.84c-.06.13-.08.34-.18.38s-.25-.1-.39-.15c.06-.13.09-.34.18-.37S52.79,93.79,52.92,93.84Z"/><path class="cls-1" d="M71.4,154.72c0-.2,0-.4,0-.59.14-.75.34-1.5-.29-2.14-.2-1.71,0-3.49-.73-5.64-1,5.13-1.8,9.76-2.65,14.39-.08.39-.1.79-.18,1.18-.16.79-.52,1.33-1.46,1.21s-.77-.87-.73-1.47c.21-2.95.43-5.9.7-8.84a9.6,9.6,0,0,0-.11-4.1c-.75,4.7-1.51,8.84-2,13-.19,1.46-1,1.34-2,1.39s-1.47-.23-1.47-1.33c0-8.41-.71-16.81-.48-25.23.68-1,.85-2-.15-2.93a22.33,22.33,0,0,1-.15-5.23c.75-.29,2.63.71,1.73-1.45-.19-.45-.63-.85-.13-1.22.66-.47,1,.13,1.28.6a6,6,0,0,0,4.64,2.52l.26.54-.15.9q-.51,6.9-1,13.79l.68.06,1.53-12.91.19-1.93.2-.67c.28-1.69.55-3.38.82-5.07,1.34-1.55,1.42-3.61.16-4.37-.34-8.69-.4-17.36.06-26a.22.22,0,0,0,0-.37c-.16-8.27.31-16.52.75-24.76.46-8.73,1.17-17.44,2.27-26.12l.15-1.13.58,0c0,6.71,0,13.42,0,20.13.08,11.31.21,22.63.31,33.94,0,.88,0,1.76-.08,2.64,0,3.62-1.43,7-1.45,10.64a1.62,1.62,0,0,0,0,2.3c.94-.9-.09-1.58,0-2.31.36-.26,1-.81,1.05-.75,1.4,1.24,1.85,0,2.24-1,1.31.79-.56,2.09.74,2.74-.24,1.59-.49,3.19-.73,4.78-.06,0-.17.1-.16.13a1.74,1.74,0,0,0,.12.34l-.9,5.79a1.41,1.41,0,0,0-.2,1.71l-.21,1.66c-.57.45-.65.92-.07,1.43l-.09,1.43c-1.38,1.26-1.2,3-1.28,4.57-.38,7.65-.66,15.3-1,22.95,0,.57,0,1.13-.56,1.49h0Zm-.35-38.11c-.43,0-.44.38-.44.69s0,.68.43.68.43-.37.44-.67S71.46,116.67,71.05,116.61Zm.73-5.17a1.38,1.38,0,0,0,0,1.64A1.58,1.58,0,0,0,71.78,111.44Zm-.48,4.07c.07-.14.18-.27.18-.39s-.13-.24-.2-.35c-.06.12-.18.24-.18.36S71.22,115.37,71.3,115.51Z"/><path class="cls-2" d="M59.53,107.18c-.22-9.05.29-18.09.46-27.14.16-8.09.45-16.17.68-24.26,0-.46-.14-1,.49-1.46a99.25,99.25,0,0,1,3.42,15.8,271.13,271.13,0,0,1,3.14,37.32c0,.55-.08,1.11-.12,1.67a3.52,3.52,0,0,1-1.85-3.48,3,3,0,0,0-1.93-3.2c0,2,0,3.77,0,5.51,0,.45.17,1-.3,1.32-.66.4-.93-.36-1.38-.61C61.26,108.17,60.76,107,59.53,107.18Z"/><path class="cls-3" d="M59.53,107.18c1.23-.16,1.73,1,2.6,1.47.45.25.72,1,1.38.61.47-.28.3-.87.3-1.32,0-1.74,0-3.47,0-5.51a3,3,0,0,1,1.93,3.2,3.52,3.52,0,0,0,1.85,3.48l0,18.3-.43,1.45a6,6,0,0,1-4.64-2.52c-.32-.47-.62-1.07-1.28-.6-.5.37-.06.77.13,1.22.9,2.16-1,1.16-1.73,1.45q-.12-7-.23-14c.22-.05.57.1.57-.29,0-.06-.35-.12-.54-.18Zm7,2.77c-.13-.06-.29-.18-.39-.15s-.12.24-.18.38c.13,0,.29.18.39.14S66.47,110.08,66.53,110Z"/><path class="cls-1" d="M77.33,138.51c.06-.48.13-.95.2-1.42.62-.17.94-.42.32-1l.1-1a1.85,1.85,0,0,0,2-1.69c.11-2.4,1.35-1.71,2.62-1.22-.31,2.24-.63,4.48-.94,6.73-.06,0-.18.09-.18.13s.09.24.13.36c-.77,7.33-2.63,14.47-3.88,21.72-.19,1.08-.35,2.17-2,1.94s-1.1-1.56-1.07-2.38a120.67,120.67,0,0,1,2-18.85c.64-.16.91-.44.31-1l.17-1.43C77.66,139.33,78,139.06,77.33,138.51Z"/><path class="cls-2" d="M72.49,108.15c0-3.61,1.49-7,1.45-10.64,1.5-1.46.71-3.51,1.33-5.2,1.66-2.11,1.25-4.82,2.07-7.18a149.94,149.94,0,0,1,4.37-16h.77q-3,20-6,40c-1.3-.65.57-2-.74-2.74-.39,1-.84,2.22-2.24,1-.07-.06-.69.49-1.05.75Z"/><path class="cls-1" d="M53.18,142.32a17.87,17.87,0,0,1-.33-5.26c.39,0,.88,0,1-.4.32-.81-1-2.1.81-2.5,1.65-.36,1.08,1.53,2,1.87a3.84,3.84,0,0,0,.46.11c.68,8.43,0,16.83-.29,25.25,0,.8,0,1.8-1.36,1.77s-1.27-.89-1.32-1.79c-.17-3.61-.35-7.21-.53-10.82.62-.38.53-.71-.07-1-.52-1.89-.25-3.83-.35-5.75Q54.18,143,53.18,142.32Z"/><path class="cls-3" d="M57.16,136.14a3.84,3.84,0,0,1-.46-.11c-.92-.34-.35-2.23-2-1.87-1.82.4-.49,1.69-.81,2.5-.16.43-.65.39-1,.4-.75-7.69-.79-15.4-.88-23.12,2.15.58,2.44-1.67,3.7-2.44a142,142,0,0,1,1.35,17C57.13,131,57.57,133.58,57.16,136.14Z"/><path class="cls-4" d="M77.34,85.13c-.82,2.36-.41,5.07-2.07,7.18-.22-6.33.48-12.63.76-19,.49-11.2,1.17-22.4,1.77-33.6l1,0L77.41,68.22c-.23,5-.49,10.07-.69,15.1C76.69,84,76.31,84.81,77.34,85.13Z"/><path class="cls-2" d="M55.67,111.5c-1.26.77-1.55,3-3.7,2.44l-.18-8.21c.37-1,.72-1.93,0-2.89a70.39,70.39,0,0,1-.33-10.57l1.49.49A116.15,116.15,0,0,1,55.67,111.5Z"/><path class="cls-8" d="M78.76,39.74l-1,0A3.53,3.53,0,0,1,75.87,36c.31-5.25.57-10.5.83-15.75.08-1.66.62-3,2.44-3.33A81.48,81.48,0,0,1,79,30c-.18,3.25-.35,6.49-.22,9.75Z"/><path class="cls-9" d="M78.76,39.74c-.13-3.26,0-6.5.22-9.75a81.48,81.48,0,0,0,.16-13.07c0-.39.25-1.06.55-.72,1.07,1.21,2.42,2.26,2.3,4.2-.32,5.5-.53,11-.84,16.49A2.78,2.78,0,0,1,78.76,39.74Z"/><path class="cls-3" d="M82.53,132.25c-1.27-.49-2.51-1.18-2.62,1.22a1.85,1.85,0,0,1-2,1.69,64.74,64.74,0,0,1,6.61-18.57c-.29,2.6-.53,5.21-.87,7.81S82.92,129.63,82.53,132.25Z"/><path class="cls-3" d="M71.46,155.43c.55-.36.54-.92.56-1.49.32-7.65.6-15.3,1-22.95.08-1.58-.1-3.31,1.28-4.57-.15,6.3-.13,12.6-.67,18.88a14.17,14.17,0,0,0-.13,9.12v1.41c-1.52.24-.83,1.46-1,2.3-.3,1.33.65,2.9-.75,4Z"/><path class="cls-3" d="M71.7,162.16c1.4-1.13.45-2.7.75-4,.19-.84-.5-2.06,1-2.3,0,2,0,4,0,6,0,.43.26,1-.39,1.21S71.77,163.06,71.7,162.16Z"/><path class="cls-4" d="M52.94,92.76l-1.49-.49V86.74A21.55,21.55,0,0,1,52.94,92.76Z"/><path class="cls-3" d="M73.48,154.42a14.17,14.17,0,0,1,.13-9.12c0,.48,0,.95,0,1.42,0,.07-.12.13-.11.19a2.17,2.17,0,0,0,.11.42c0,1.17,0,2.35,0,3.52l0,.87Z"/><path class="cls-5" d="M69.88,119.2c1.26.76,1.18,2.82-.16,4.37C69.77,122.11,69.83,120.65,69.88,119.2Z"/><path class="cls-4" d="M82.48,69.15h-.77a9.73,9.73,0,0,1,1.18-3.67A9.26,9.26,0,0,1,82.48,69.15Z"/><path class="cls-6" d="M59.82,133.64c1,.93.83,1.92.15,2.93A3.61,3.61,0,0,1,59.82,133.64Z"/><path class="cls-4" d="M51.78,102.84c.73,1,.38,1.92,0,2.89A4.47,4.47,0,0,1,51.78,102.84Z"/><path class="cls-7" d="M74.37,125c-.58-.51-.5-1,.07-1.43A1.36,1.36,0,0,1,74.37,125Z"/><path class="cls-6" d="M53.18,142.32q1,.69.06,1.47A1.39,1.39,0,0,1,53.18,142.32Z"/><path class="cls-6" d="M53.59,149.54c.6.3.69.63.07,1A.89.89,0,0,1,53.59,149.54Z"/><path class="cls-7" d="M71.09,152c.63.64.43,1.39.29,2.14C70.78,153.48,71.12,152.71,71.09,152Z"/><path class="cls-6" d="M77.33,138.51c.63.55.33.82-.3,1C76.88,139.09,77.1,138.8,77.33,138.51Z"/><path class="cls-6" d="M76.86,140.92c.6.54.33.82-.31,1Z"/><path class="cls-6" d="M77.85,136.11c.62.56.3.81-.32,1A.9.9,0,0,1,77.85,136.11Z"/><path class="cls-7" d="M74.65,121.9a1.41,1.41,0,0,1,.2-1.71A2,2,0,0,1,74.65,121.9Z"/><path class="cls-7" d="M59.47,113.93c.19.06.54.12.54.18,0,.39-.35.24-.57.29Z"/><path class="cls-5" d="M70,92.79a.22.22,0,0,1,0,.37L69.83,93Z"/><path class="cls-5" d="M75.75,114.4a1.74,1.74,0,0,1-.12-.34s.1-.08.16-.13Z"/><path class="cls-6" d="M81.54,139.47c0-.12-.1-.24-.13-.36s.12-.09.18-.13Z"/><path class="cls-7" d="M73.59,147.33a2.17,2.17,0,0,1-.11-.42c0-.06.07-.12.11-.19a2.13,2.13,0,0,1,.13.43S73.63,147.27,73.59,147.33Z"/><path class="cls-7" d="M73.61,151.72l0-.87A.52.52,0,0,1,73.61,151.72Z"/><path class="cls-7" d="M71.4,154.72l.06.7A.41.41,0,0,1,71.4,154.72Z"/><path class="cls-5" d="M71.05,116.61c.41.06.43.39.43.7s0,.68-.44.67-.43-.38-.43-.68S70.62,116.66,71.05,116.61Z"/><path class="cls-5" d="M72.49,108.14c-.13.73.9,1.41,0,2.31a1.62,1.62,0,0,1,0-2.3Z"/><path class="cls-5" d="M71.78,111.44a1.58,1.58,0,0,1,0,1.64A1.38,1.38,0,0,1,71.78,111.44Z"/><path class="cls-5" d="M71.3,115.51c-.08-.14-.2-.26-.2-.38s.12-.24.18-.36c.07.11.19.23.2.35S71.37,115.37,71.3,115.51Z"/><path class="cls-7" d="M66.53,110c-.06.13-.09.34-.18.37s-.26-.09-.39-.14c.06-.14.09-.34.18-.38S66.4,109.89,66.53,110Z"/><path class="cls-1" d="M20,144.44l0-.59c.15-.74.34-1.49-.28-2.14-.2-1.71,0-3.48-.74-5.63-.95,5.12-1.8,9.75-2.65,14.38-.07.39-.1.8-.18,1.19-.16.78-.52,1.33-1.46,1.2s-.77-.87-.73-1.47c.21-2.94.43-5.89.7-8.84a9.73,9.73,0,0,0-.1-4.1c-.76,4.7-1.52,8.85-2.05,13-.19,1.46-1,1.35-2,1.39s-1.46-.23-1.46-1.33c0-8.41-.71-16.81-.49-25.23.68-1,.85-2-.14-2.93a21.7,21.7,0,0,1-.16-5.22c.75-.3,2.63.71,1.73-1.46-.18-.44-.63-.85-.12-1.21s1,.12,1.27.6a6.06,6.06,0,0,0,4.64,2.52l.27.53-.16.9q-.49,6.9-1,13.79l.68.07L17.13,121l.19-1.94.21-.66.81-5.07c1.35-1.56,1.42-3.62.17-4.38-.34-8.68-.41-17.36,0-26a.22.22,0,0,0,0-.37c-.16-8.26.32-16.51.75-24.75.47-8.73,1.17-17.45,2.28-26.12,0-.38.09-.76.14-1.13l.58,0c0,6.71,0,13.42,0,20.13.08,11.31.21,22.62.31,33.93,0,.88-.05,1.76-.07,2.64,0,3.62-1.43,7-1.46,10.64a1.63,1.63,0,0,0,0,2.3c.94-.89-.09-1.58,0-2.3.36-.27,1-.82,1.05-.75,1.4,1.24,1.85,0,2.25-1,1.3.8-.57,2.1.74,2.74-.25,1.6-.49,3.19-.74,4.79-.06,0-.17.09-.16.12a2,2,0,0,0,.12.34l-.9,5.79a1.43,1.43,0,0,0-.2,1.72l-.21,1.65c-.57.45-.65.93-.07,1.44l-.09,1.43c-1.37,1.25-1.2,3-1.28,4.57-.38,7.64-.66,15.3-1,22.95,0,.56,0,1.13-.56,1.49v0C20.06,144.91,20,144.68,20,144.44Zm-.36-38.1c-.42,0-.44.38-.44.68s0,.68.43.69.44-.37.44-.68S20.09,106.4,19.67,106.34Zm.73-5.17a1.38,1.38,0,0,0,0,1.64A1.55,1.55,0,0,0,20.4,101.17Zm-.48,4.06c.07-.14.18-.26.18-.38s-.12-.24-.19-.36c-.07.12-.19.24-.19.37A1,1,0,0,0,19.92,105.23Z"/><path class="cls-2" d="M8.15,96.91c-.22-9.06.29-18.1.47-27.15.15-8.08.44-16.17.67-24.25,0-.46-.13-1,.49-1.46A98.9,98.9,0,0,1,13.2,59.84a271.13,271.13,0,0,1,3.14,37.32c0,.56-.07,1.12-.11,1.68a3.53,3.53,0,0,1-1.86-3.49,3,3,0,0,0-1.93-3.19c0,2,0,3.77,0,5.5,0,.46.17,1-.3,1.32-.66.4-.93-.36-1.38-.61C9.88,97.9,9.39,96.74,8.15,96.91Z"/><path class="cls-3" d="M8.15,96.91c1.24-.17,1.73,1,2.6,1.46.45.25.72,1,1.38.61.47-.28.3-.86.3-1.32,0-1.73,0-3.47,0-5.5a3,3,0,0,1,1.93,3.19,3.53,3.53,0,0,0,1.86,3.49l0,18.3-.44,1.45a6.06,6.06,0,0,1-4.64-2.52c-.31-.48-.62-1.08-1.27-.6s-.06.77.12,1.21c.9,2.17-1,1.16-1.73,1.46q-.1-7-.23-14c.22-.06.57.1.57-.3,0-.06-.35-.12-.54-.18Zm7,2.76c-.13,0-.29-.18-.39-.14s-.12.24-.18.37c.14.06.3.19.39.15S15.09,99.81,15.15,99.67Z"/><path class="cls-1" d="M26,128.23c.07-.47.13-.95.2-1.42.62-.16.94-.42.32-1l.11-1a1.85,1.85,0,0,0,2-1.69c.1-2.4,1.34-1.7,2.61-1.22-.31,2.24-.63,4.49-.94,6.73-.06,0-.18.1-.17.13a2.53,2.53,0,0,0,.12.36c-.76,7.34-2.63,14.47-3.88,21.72-.19,1.08-.35,2.18-2,2s-1.1-1.56-1.07-2.38a119.25,119.25,0,0,1,2-18.85c.63-.17.91-.44.3-1l.17-1.42C26.28,129.05,26.58,128.78,26,128.23Z"/><path class="cls-2" d="M21.11,97.87c0-3.61,1.49-7,1.46-10.64,1.49-1.46.7-3.5,1.32-5.19,1.66-2.12,1.26-4.83,2.07-7.19a149.94,149.94,0,0,1,4.37-16l.77,0q-3,20-6,40c-1.31-.64.56-1.94-.74-2.74-.4,1-.85,2.23-2.25,1-.07-.07-.69.48-1.05.75Z"/><path class="cls-1" d="M1.81,132a17.79,17.79,0,0,1-.34-5.25c.4,0,.88,0,1-.4.32-.81-1-2.1.81-2.5s1.08,1.52,2,1.86a3.9,3.9,0,0,0,.46.12c.68,8.42,0,16.83-.29,25.24,0,.81,0,1.81-1.36,1.77s-1.27-.89-1.31-1.79l-.54-10.81c.62-.38.53-.71-.07-1-.51-1.9-.24-3.84-.35-5.76C2.49,133,2.47,132.51,1.81,132Z"/><path class="cls-3" d="M5.78,125.87a3.9,3.9,0,0,1-.46-.12c-.92-.34-.34-2.22-2-1.86s-.49,1.69-.81,2.5c-.16.42-.64.38-1,.4C.72,119.1.68,111.38.59,103.67c2.15.57,2.44-1.67,3.71-2.45a142.14,142.14,0,0,1,1.35,17C5.75,120.75,6.19,123.31,5.78,125.87Z"/><path class="cls-4" d="M26,74.85c-.81,2.36-.41,5.07-2.07,7.19-.22-6.34.48-12.64.76-19,.49-11.21,1.17-22.41,1.77-33.61h1Q26.71,43.71,26,58c-.24,5-.49,10.06-.7,15.1C25.32,73.68,24.94,74.54,26,74.85Z"/><path class="cls-2" d="M4.3,101.22c-1.27.78-1.56,3-3.71,2.45L.41,95.45c.38-1,.72-1.93,0-2.88A70.43,70.43,0,0,1,.07,82l1.49.49A117,117,0,0,1,4.3,101.22Z"/><path class="cls-8" d="M27.38,29.47h-1a3.51,3.51,0,0,1-1.92-3.76c.3-5.24.56-10.49.82-15.74.08-1.67.62-3,2.44-3.34a81.6,81.6,0,0,1-.15,13.08c-.18,3.25-.35,6.49-.23,9.74Z"/><path class="cls-9" d="M27.38,29.46c-.12-3.25.05-6.49.23-9.74a81.6,81.6,0,0,0,.15-13.08c0-.39.25-1.06.56-.71,1.06,1.2,2.41,2.26,2.29,4.2-.32,5.49-.53,11-.83,16.48A2.78,2.78,0,0,1,27.38,29.46Z"/><path class="cls-3" d="M31.15,122c-1.27-.48-2.51-1.18-2.61,1.22a1.85,1.85,0,0,1-2,1.69,64.82,64.82,0,0,1,6.6-18.57c-.29,2.61-.53,5.22-.87,7.82S31.54,119.36,31.15,122Z"/><path class="cls-3" d="M20.08,145.16c.55-.36.54-.93.56-1.49.32-7.65.6-15.31,1-22.95.08-1.58-.09-3.32,1.28-4.57-.15,6.29-.12,12.6-.66,18.88a14.14,14.14,0,0,0-.14,9.11v1.42c-1.52.24-.83,1.46-1,2.29-.3,1.34.65,2.91-.74,4C20.25,149.65,20.16,147.4,20.08,145.16Z"/><path class="cls-3" d="M20.33,151.89c1.39-1.13.44-2.7.74-4,.19-.83-.5-2,1-2.29,0,2,0,4,0,6,0,.42.25,1-.39,1.2S20.39,152.79,20.33,151.89Z"/><path class="cls-4" d="M1.56,82.49.07,82V76.46A21.27,21.27,0,0,1,1.56,82.49Z"/><path class="cls-3" d="M22.1,144.14a14.14,14.14,0,0,1,.14-9.11l0,1.42c0,.06-.12.13-.11.19a2.17,2.17,0,0,0,.11.42c0,1.17,0,2.34,0,3.51l0,.87Z"/><path class="cls-5" d="M18.51,108.92c1.25.76,1.18,2.82-.17,4.38C18.4,111.84,18.45,110.38,18.51,108.92Z"/><path class="cls-4" d="M31.1,58.88l-.77,0a9.69,9.69,0,0,1,1.18-3.66A9.26,9.26,0,0,1,31.1,58.88Z"/><path class="cls-6" d="M8.45,123.36c1,.93.82,1.92.14,2.93A3.57,3.57,0,0,1,8.45,123.36Z"/><path class="cls-4" d="M.4,92.57c.73,1,.39,1.92,0,2.88A4.58,4.58,0,0,1,.4,92.57Z"/><path class="cls-7" d="M23,114.72c-.58-.51-.5-1,.07-1.44A1.38,1.38,0,0,1,23,114.72Z"/><path class="cls-6" d="M1.81,132c.66.47.68,1,.05,1.47A1.39,1.39,0,0,1,1.81,132Z"/><path class="cls-6" d="M2.21,139.27c.6.3.69.63.07,1A.89.89,0,0,1,2.21,139.27Z"/><path class="cls-7" d="M19.72,141.71c.62.65.43,1.4.28,2.14C19.41,143.2,19.74,142.43,19.72,141.71Z"/><path class="cls-6" d="M26,128.23c.63.55.33.82-.3,1A1,1,0,0,1,26,128.23Z"/><path class="cls-6" d="M25.48,130.64c.61.55.33.82-.3,1Z"/><path class="cls-6" d="M26.47,125.83c.62.56.3.82-.32,1A.9.9,0,0,1,26.47,125.83Z"/><path class="cls-7" d="M23.27,111.63a1.43,1.43,0,0,1,.2-1.72A2,2,0,0,1,23.27,111.63Z"/><path class="cls-7" d="M8.09,103.65c.19.06.54.12.54.18,0,.4-.35.24-.57.3Z"/><path class="cls-5" d="M18.57,82.51a.22.22,0,0,1,0,.37l-.11-.19Z"/><path class="cls-5" d="M24.37,104.12a2,2,0,0,1-.12-.34s.1-.08.16-.12Z"/><path class="cls-6" d="M30.16,129.19a2.53,2.53,0,0,1-.12-.36s.11-.09.17-.13Z"/><path class="cls-7" d="M22.21,137.06a2.17,2.17,0,0,1-.11-.42c0-.06.07-.13.11-.19a2.25,2.25,0,0,1,.13.42C22.35,136.93,22.26,137,22.21,137.06Z"/><path class="cls-7" d="M22.23,141.44l0-.87A.52.52,0,0,1,22.23,141.44Z"/><path class="cls-7" d="M20,144.44c0,.24,0,.47,0,.7A.41.41,0,0,1,20,144.44Z"/><path class="cls-5" d="M19.67,106.34c.42.06.43.39.43.69s0,.68-.44.68-.43-.38-.43-.69S19.25,106.39,19.67,106.34Z"/><path class="cls-5" d="M21.11,97.87c-.13.72.9,1.41,0,2.3a1.63,1.63,0,0,1,0-2.3Z"/><path class="cls-5" d="M20.4,101.17a1.55,1.55,0,0,1,0,1.64A1.38,1.38,0,0,1,20.4,101.17Z"/><path class="cls-5" d="M19.92,105.23a1,1,0,0,1-.2-.37c0-.13.12-.25.19-.37.07.12.19.24.19.36S20,105.09,19.92,105.23Z"/><path class="cls-7" d="M15.15,99.68c-.06.13-.08.33-.18.37s-.25-.09-.39-.15c.06-.13.09-.34.18-.37S15,99.62,15.15,99.68Z"/><path class="cls-1" d="M33.63,160.55c0-.2,0-.39,0-.59.15-.75.34-1.5-.29-2.14-.2-1.71,0-3.48-.73-5.63-1,5.12-1.8,9.75-2.65,14.38-.08.39-.1.79-.18,1.19-.16.78-.52,1.33-1.46,1.2s-.77-.87-.73-1.47c.21-3,.43-5.9.7-8.84a9.6,9.6,0,0,0-.11-4.1c-.75,4.7-1.51,8.84-2,13-.19,1.46-1,1.35-2,1.39s-1.46-.23-1.47-1.33c0-8.41-.71-16.81-.48-25.23.68-1,.85-2-.15-2.93a22.24,22.24,0,0,1-.15-5.22c.75-.3,2.63.7,1.73-1.46-.19-.44-.63-.85-.13-1.21.66-.48,1,.12,1.28.6a6,6,0,0,0,4.64,2.51l.27.54-.16.9q-.51,6.9-1,13.79l.68.07,1.53-12.92.19-1.93.2-.67c.28-1.68.55-3.37.82-5.06,1.34-1.56,1.42-3.62.17-4.38-.34-8.68-.41-17.36.05-26a.22.22,0,0,0,0-.37c-.16-8.27.31-16.51.75-24.76.46-8.72,1.17-17.44,2.27-26.12l.15-1.13.58,0c0,6.71,0,13.42,0,20.14.08,11.31.21,22.62.31,33.93,0,.88,0,1.76-.07,2.64,0,3.62-1.43,7-1.46,10.64a1.62,1.62,0,0,0,0,2.3c.94-.9-.09-1.58,0-2.31.36-.26,1-.81,1.05-.74,1.4,1.23,1.85,0,2.24-1,1.31.79-.56,2.09.74,2.74-.24,1.6-.49,3.19-.73,4.79-.06,0-.17.09-.16.12a1.38,1.38,0,0,0,.12.34l-.9,5.79a1.41,1.41,0,0,0-.2,1.71l-.21,1.66c-.57.45-.65.93-.07,1.44l-.09,1.43c-1.37,1.25-1.2,3-1.28,4.57-.38,7.64-.66,15.29-1,22.94,0,.57,0,1.14-.56,1.5v0Zm-.35-38.11c-.42.06-.44.38-.44.69s0,.68.43.68.44-.36.44-.67S33.69,122.5,33.28,122.44Zm.73-5.17a1.38,1.38,0,0,0,0,1.64A1.58,1.58,0,0,0,34,117.27Zm-.48,4.07c.07-.14.18-.26.18-.38s-.13-.24-.2-.36c-.06.12-.18.24-.18.36S33.45,121.2,33.53,121.34Z"/><path class="cls-2" d="M21.76,113c-.22-9.06.29-18.1.46-27.15.16-8.09.45-16.17.68-24.26,0-.45-.14-1,.49-1.45A98.9,98.9,0,0,1,26.81,76,271.13,271.13,0,0,1,30,113.27c0,.56-.08,1.11-.12,1.67A3.52,3.52,0,0,1,28,111.46a3,3,0,0,0-1.93-3.19c0,2,0,3.76,0,5.5,0,.46.17,1-.3,1.32-.66.4-.93-.36-1.38-.61C23.49,114,23,112.85,21.76,113Z"/><path class="cls-3" d="M21.76,113c1.23-.17,1.73,1,2.6,1.46.45.25.72,1,1.38.61.47-.28.3-.86.3-1.32,0-1.74,0-3.47,0-5.5A3,3,0,0,1,28,111.46a3.52,3.52,0,0,0,1.85,3.48l0,18.3-.43,1.45a6,6,0,0,1-4.64-2.51c-.32-.48-.62-1.08-1.28-.6-.5.36-.06.77.13,1.21.9,2.16-1,1.16-1.73,1.46q-.12-7-.23-14c.22,0,.57.11.57-.29,0-.06-.35-.12-.54-.18Zm7,2.76c-.13,0-.29-.18-.39-.15s-.12.25-.18.38c.13,0,.3.18.39.15S28.7,115.91,28.76,115.78Z"/><path class="cls-1" d="M39.56,144.34c.06-.48.13-1,.2-1.42.62-.16.94-.42.32-1l.11-.95a1.84,1.84,0,0,0,2-1.69c.11-2.4,1.35-1.71,2.62-1.22-.31,2.24-.63,4.49-.94,6.73-.06,0-.18.1-.18.13s.09.24.13.36c-.77,7.33-2.63,14.47-3.88,21.72-.19,1.08-.35,2.17-2,1.94s-1.1-1.55-1.07-2.37a120.42,120.42,0,0,1,2-18.85c.64-.17.91-.45.31-1l.17-1.42C39.89,145.16,40.19,144.89,39.56,144.34Z"/><path class="cls-2" d="M34.72,114c0-3.61,1.49-7,1.46-10.64,1.49-1.46.7-3.51,1.32-5.19C39.16,96,38.75,93.32,39.57,91a149.94,149.94,0,0,1,4.37-16l.77,0q-3,20-6,40c-1.3-.65.57-2-.74-2.74-.39,1-.84,2.22-2.24,1-.07-.07-.69.48-1.05.74Z"/><path class="cls-1" d="M15.41,148.15a18.17,18.17,0,0,1-.33-5.25c.39,0,.88,0,1-.41.32-.81-1-2.1.81-2.49,1.65-.37,1.08,1.52,2,1.86.15,0,.31.08.46.12.68,8.42,0,16.83-.29,25.24,0,.81,0,1.8-1.36,1.77s-1.27-.89-1.32-1.79q-.26-5.41-.53-10.81c.62-.38.53-.72-.07-1-.52-1.89-.25-3.83-.35-5.75C16.1,149.11,16.08,148.61,15.41,148.15Z"/><path class="cls-3" d="M19.39,142c-.15,0-.31-.07-.46-.12-.92-.34-.35-2.23-2-1.86-1.82.39-.49,1.68-.81,2.49-.16.43-.65.39-1,.41-.75-7.69-.79-15.41-.88-23.13,2.15.58,2.44-1.67,3.7-2.44a139.93,139.93,0,0,1,1.35,17C19.36,136.86,19.8,139.42,19.39,142Z"/><path class="cls-4" d="M39.57,91c-.82,2.36-.41,5.07-2.07,7.19-.22-6.34.48-12.64.76-19C38.75,68,39.43,56.79,40,45.59l1,0L39.64,74.06c-.23,5-.49,10.06-.69,15.09C38.92,89.79,38.54,90.65,39.57,91Z"/><path class="cls-2" d="M17.9,117.33c-1.26.77-1.55,3-3.7,2.44L14,111.56c.37-1,.72-1.93,0-2.89a70.35,70.35,0,0,1-.33-10.57l1.49.49A116.15,116.15,0,0,1,17.9,117.33Z"/><path class="cls-8" d="M41,45.57l-1,0a3.53,3.53,0,0,1-1.93-3.76c.31-5.25.57-10.49.83-15.74.08-1.67.62-3,2.44-3.34a81.48,81.48,0,0,1-.16,13.07c-.18,3.25-.35,6.5-.22,9.75Z"/><path class="cls-9" d="M41,45.57c-.13-3.25,0-6.5.22-9.75a81.48,81.48,0,0,0,.16-13.07c0-.39.25-1.06.55-.71,1.07,1.2,2.42,2.26,2.3,4.19-.32,5.5-.53,11-.84,16.49A2.78,2.78,0,0,1,41,45.57Z"/><path class="cls-3" d="M44.76,138.08c-1.27-.49-2.51-1.18-2.62,1.22a1.84,1.84,0,0,1-2,1.69,64.42,64.42,0,0,1,6.6-18.57c-.29,2.61-.53,5.22-.87,7.81S45.15,135.46,44.76,138.08Z"/><path class="cls-3" d="M33.69,161.27c.55-.36.54-.93.56-1.5.32-7.65.6-15.3,1-22.94.08-1.59-.09-3.32,1.28-4.57-.15,6.29-.13,12.59-.67,18.88a14.14,14.14,0,0,0-.13,9.11v1.42c-1.52.24-.83,1.46-1,2.29-.3,1.34.65,2.9-.74,4Q33.81,164.63,33.69,161.27Z"/><path class="cls-3" d="M33.94,168c1.39-1.14.44-2.7.74-4,.19-.83-.5-2.05,1-2.29,0,2,0,4,0,6,0,.42.26,1-.39,1.2S34,168.9,33.94,168Z"/><path class="cls-4" d="M15.17,98.59l-1.49-.49V92.57A21.55,21.55,0,0,1,15.17,98.59Z"/><path class="cls-3" d="M35.71,160.25a14.14,14.14,0,0,1,.13-9.11c0,.47,0,.94,0,1.41,0,.07-.12.14-.11.19a2.09,2.09,0,0,0,.11.43c0,1.17,0,2.34,0,3.51l0,.87Z"/><path class="cls-5" d="M32.12,125c1.25.76,1.17,2.82-.17,4.38C32,128,32.06,126.49,32.12,125Z"/><path class="cls-4" d="M44.71,75l-.77,0a9.69,9.69,0,0,1,1.18-3.66A9.3,9.3,0,0,1,44.71,75Z"/><path class="cls-6" d="M22.05,139.47c1,.93.83,1.92.15,2.93A3.61,3.61,0,0,1,22.05,139.47Z"/><path class="cls-4" d="M14,108.67c.73,1,.38,1.93,0,2.89A4.47,4.47,0,0,1,14,108.67Z"/><path class="cls-7" d="M36.6,130.83c-.58-.51-.5-1,.07-1.44A1.38,1.38,0,0,1,36.6,130.83Z"/><path class="cls-6" d="M15.41,148.15c.67.46.69,1,.06,1.47A1.41,1.41,0,0,1,15.41,148.15Z"/><path class="cls-6" d="M15.82,155.37c.6.3.69.64.07,1A.91.91,0,0,1,15.82,155.37Z"/><path class="cls-7" d="M33.32,157.82c.63.64.44,1.39.29,2.14C33,159.31,33.35,158.54,33.32,157.82Z"/><path class="cls-6" d="M39.56,144.34c.63.55.33.82-.3,1A1,1,0,0,1,39.56,144.34Z"/><path class="cls-6" d="M39.09,146.75c.6.54.33.82-.31,1Z"/><path class="cls-6" d="M40.08,141.94c.62.56.3.82-.32,1A.9.9,0,0,1,40.08,141.94Z"/><path class="cls-7" d="M36.88,127.73a1.41,1.41,0,0,1,.2-1.71A2,2,0,0,1,36.88,127.73Z"/><path class="cls-7" d="M21.7,119.76c.19.06.54.12.54.18,0,.4-.35.24-.57.29Z"/><path class="cls-5" d="M32.18,98.62a.22.22,0,0,1,0,.37l-.11-.19Z"/><path class="cls-5" d="M38,120.23a1.38,1.38,0,0,1-.12-.34s.1-.08.16-.12Z"/><path class="cls-6" d="M43.77,145.3c0-.12-.1-.24-.13-.36s.12-.09.18-.13Z"/><path class="cls-7" d="M35.82,153.17a2.09,2.09,0,0,1-.11-.43c0-.05.07-.12.11-.19A2.35,2.35,0,0,1,36,153C36,153,35.86,153.1,35.82,153.17Z"/><path class="cls-7" d="M35.84,157.55l0-.87A.52.52,0,0,1,35.84,157.55Z"/><path class="cls-7" d="M33.63,160.55l.06.7A.41.41,0,0,1,33.63,160.55Z"/><path class="cls-5" d="M33.28,122.44c.41.06.43.39.43.7s0,.68-.44.67-.43-.38-.43-.68S32.86,122.5,33.28,122.44Z"/><path class="cls-5" d="M34.72,114c-.13.73.9,1.41,0,2.31a1.62,1.62,0,0,1,0-2.3Z"/><path class="cls-5" d="M34,117.27a1.58,1.58,0,0,1,0,1.64A1.38,1.38,0,0,1,34,117.27Z"/><path class="cls-5" d="M33.53,121.34c-.08-.14-.2-.26-.2-.38s.12-.24.18-.36c.07.12.19.23.2.36S33.6,121.2,33.53,121.34Z"/><path class="cls-7" d="M28.76,115.78c-.06.13-.09.34-.18.38s-.26-.1-.39-.15c.06-.13.09-.34.18-.38S28.63,115.73,28.76,115.78Z"/><path class="cls-1" d="M22.56,159.34c-1.92,7-.81,14.18-1,21.28,0,.64,0,1.29,0,1.93,0,.84-.57.79-1.15.81s-1.22-.07-1.26-1a8.55,8.55,0,0,0-.67-4,15.58,15.58,0,0,0-.74,2.58c-.17,1.78-.86,2.6-2.84,2.48-1.46-.09-1.88-.52-2-1.92-.73-8.22-1.75-16.42-2.31-24.66-1-14.52-3.7-28.76-6.58-43-.33-1.68-.72-3.34-.94-5,8.38,16.85,11.78,34.82,12,53.57a16.91,16.91,0,0,0,1.71-8.44c-.5-7.36-1.07-14.72-1.51-22.09-.85-14.16-1.62-28.34-2.43-42.51-.06-1.11-.15-2.23-.24-3.62A95.5,95.5,0,0,1,15.35,100c.7,4.83,1.39,9.67,2,14.52s1.1,9.56,1.57,14.35.85,9.68,1.31,14.88a17.3,17.3,0,0,0,2-6.13c1.38-.46,1.68-1.59,1.81-2.85,3.68-5.73,3-12.45,4.25-18.73.72-3.66,1.11-7.39,2.19-11-1.17,24.18-2.44,48.34-4.66,72.45a9.13,9.13,0,0,1-.88-3.88c-.15-6.27-.34-12.55-.51-18.82-.12-2.66,1.05-5.29.28-8.29-.84,3-.65,5.67-.92,8.35C23.34,156.37,22.4,157.71,22.56,159.34Z"/><path class="cls-4" d="M24,134.79c-.13,1.26-.43,2.39-1.81,2.85Q20.88,111,19.54,84.28c-.37-7.29-.87-14.57-1.28-21.85a5.44,5.44,0,0,0-1-3.37c.5-.28,1,.44,1.51,0l.74,0c-.33,5,.35,10,.6,15.08C21,91.83,22,109.55,22.93,127.28c.1,2,.17,4,.29,6C23.25,133.87,23.13,134.61,24,134.79Z"/><path class="cls-8" d="M18.75,59c-.5.46-1-.26-1.51,0-1.21-.8-1.4-2-1.45-3.34-.21-4.85-.4-9.7-.66-14.54-.09-1.75.36-3.13,2-3.91.63.44.51,1.1.54,1.73Q18.22,49,18.75,59Z"/><path class="cls-9" d="M18.75,59q-.53-10-1-20c0-.63.09-1.29-.54-1.73,0-.36.06-1.1.5-.72,1.28,1.11,2.73,2.09,2.77,4.17.12,5.05.42,10.09.64,15.13.06,1.35-.12,2.59-1.59,3.17Z"/><path class="cls-1" d="M52.83,158.51c-1.92,7-.8,14.18-1,21.28,0,.64,0,1.28,0,1.93,0,.84-.57.78-1.15.8s-1.22-.06-1.26-1a8.52,8.52,0,0,0-.67-4A15.58,15.58,0,0,0,48,180.1c-.17,1.78-.86,2.6-2.84,2.48-1.46-.09-1.88-.53-2-1.92-.73-8.23-1.75-16.43-2.31-24.66-1-14.52-3.7-28.76-6.57-43-.34-1.67-.73-3.34-1-5,8.38,16.85,11.78,34.82,12,53.57A16.84,16.84,0,0,0,47,153.1c-.5-7.36-1.07-14.71-1.51-22.08-.85-14.17-1.62-28.34-2.43-42.51-.06-1.12-.15-2.23-.24-3.62a95.26,95.26,0,0,1,2.81,14.3c.7,4.83,1.39,9.67,2,14.52s1.09,9.56,1.56,14.35.86,9.68,1.31,14.88a17.3,17.3,0,0,0,2-6.13c1.38-.46,1.69-1.6,1.81-2.85,3.68-5.73,3-12.45,4.25-18.74.72-3.66,1.12-7.38,2.19-11-1.17,24.18-2.44,48.35-4.66,72.45a9.07,9.07,0,0,1-.88-3.88c-.15-6.27-.34-12.54-.51-18.81-.12-2.66,1-5.3.28-8.29-.84,2.94-.64,5.67-.92,8.35C53.61,155.54,52.67,156.87,52.83,158.51Z"/><path class="cls-4" d="M54.28,134c-.12,1.25-.43,2.39-1.81,2.85q-1.32-26.68-2.66-53.36c-.37-7.29-.87-14.57-1.28-21.86a5.35,5.35,0,0,0-1-3.36c.5-.28,1,.44,1.51,0l.74,0c-.33,5,.35,10,.6,15.07.87,17.73,1.88,35.46,2.84,53.19.1,2,.17,4,.29,6C53.52,133,53.4,133.77,54.28,134Z"/><path class="cls-8" d="M49,58.21c-.5.46-1-.26-1.51,0-1.21-.8-1.39-2-1.45-3.34-.21-4.85-.4-9.7-.65-14.54-.1-1.76.35-3.13,2-3.92.63.44.51,1.11.54,1.74Q48.49,48.19,49,58.21Z"/><path class="cls-9" d="M49,58.21q-.52-10-1-20c0-.63.09-1.3-.54-1.74,0-.35.06-1.1.5-.71,1.28,1.1,2.73,2.08,2.77,4.17.12,5,.43,10.08.65,15.13,0,1.34-.13,2.58-1.6,3.17Z"/></g></g></g></svg>