<svg xmlns="http://www.w3.org/2000/svg" viewBox="0 0 78.33 81.78"><defs><style>.cls-1{fill:#efefef;}.cls-2{fill:#878787;}.cls-3{fill:#dbdbdb;}.cls-4{fill:#b5b5b5;}</style></defs><title>Asset 4</title><g id="Layer_2" data-name="Layer 2"><g id="LEVELI"><g id="_4._KAMENA_DOBA" data-name="4. KAMENA DOBA"><path class="cls-1" d="M76.68,32.63c-4.83-7.89-9.57-15.86-14.35-23.8a5.14,5.14,0,0,0-2.94-2.45q-10-3-20-6.1A5,5,0,0,0,35,.77L28.32,5c-4.62,2.89-9.19,5.9-13.9,8.6a14.56,14.56,0,0,0-6.76,8.21A180.1,180.1,0,0,0,.77,47.71C.48,49.23.23,50.78,0,52.35a4.34,4.34,0,0,0,1,3.39c.62.77,1.19,1.61,1.8,2.38a60.49,60.49,0,0,0,17,14.32,139.66,139.66,0,0,0,15.58,7.69l2.25,1a7.87,7.87,0,0,0,.76.29,6.1,6.1,0,0,0,4,.08c2.33-1.07,4.67-2.1,7-3.21,3.94-1.89,7.88-3.8,11.78-5.78,3.66-1.85,7.27-3.83,10.92-5.71a4.87,4.87,0,0,0,.45-.27l.2-.16L73.1,66c.08-.1.17-.2.24-.3a3.62,3.62,0,0,0,.22-.32,6.29,6.29,0,0,0,.76-2.19c.86-5.14,1.75-10.27,2.61-15.41.47-2.86,1-5.71,1.32-8.61A9.87,9.87,0,0,0,76.68,32.63ZM39.85,67.12c.08,2.46.07,4.9.09,7.35a8.94,8.94,0,0,1-.06,1c-.12,1-.48,1.24-1.26.83C32.08,72.9,25.54,69.52,19,66a28,28,0,0,1-8.54-7,39.78,39.78,0,0,1-2.88-4.23c-.85-1.4-.69-2.34.36-3.08C12,48.74,16.13,46,20.09,43c2.54-1.95,5.39-2.27,8.49-2.18,5.15.14,10.3.1,15.4-.15,3.77-.17,7.47-.79,11.19-1.2a3.09,3.09,0,0,1,.43,0,1.46,1.46,0,0,1,.07.19l-3.21,3.77Q48,48.68,43.51,54C40.67,57.32,39.67,61.85,39.85,67.12ZM71.5,60.56a10.76,10.76,0,0,1-4.94,4.93c-3.37,1.74-6.8,3.32-10.22,4.93-3.63,1.71-7.28,3.37-10.92,5-.86.39-1.43,0-1.63-1.15a44.1,44.1,0,0,1-.73-10.26,14.52,14.52,0,0,1,3-7.64C50,50.92,53.94,45.46,57.89,40c1.35-1.87,2.74-1.8,4.35.4.86,1.16,1.6,2.48,2.38,3.73A49.82,49.82,0,0,0,70.74,52,11.09,11.09,0,0,1,72,53.75,9.15,9.15,0,0,1,71.5,60.56Z"/><path class="cls-2" d="M76.68,32.63c-4.83-7.89-9.57-15.86-14.35-23.8a5.14,5.14,0,0,0-2.94-2.45q-10-3-20-6.1A5,5,0,0,0,35,.77L28.32,5c-4.62,2.89-9.19,5.9-13.9,8.6a14.56,14.56,0,0,0-6.76,8.21A180.1,180.1,0,0,0,.77,47.71C.48,49.23.23,50.78,0,52.35a4.34,4.34,0,0,0,1,3.39c.62.77,1.19,1.61,1.8,2.38a60.49,60.49,0,0,0,17,14.32,139.66,139.66,0,0,0,15.58,7.69l2.25,1c.25.11.51.2.76.29a6.1,6.1,0,0,0,4,.08c2.33-1.07,4.67-2.1,7-3.21,3.94-1.89,7.88-3.8,11.78-5.78,3.66-1.85,7.27-3.83,10.92-5.71a4.87,4.87,0,0,0,.45-.27l.2-.16L73.1,66c.08-.1.17-.2.24-.3a3.62,3.62,0,0,0,.22-.32,6.29,6.29,0,0,0,.76-2.19c.86-5.14,1.75-10.27,2.61-15.41.47-2.86,1-5.71,1.32-8.61A9.87,9.87,0,0,0,76.68,32.63ZM39.85,67.12c.08,2.46.07,4.9.09,7.35a8.94,8.94,0,0,1-.06,1c-.12,1-.48,1.24-1.26.83C32.08,72.9,25.54,69.52,19,66a28,28,0,0,1-8.54-7,39.78,39.78,0,0,1-2.88-4.23c-.85-1.4-.69-2.34.36-3.08C12,48.74,16.13,46,20.09,43c2.54-1.95,5.39-2.27,8.49-2.18,5.15.14,10.3.1,15.4-.15,3.77-.17,7.47-.79,11.19-1.2a3.09,3.09,0,0,1,.43,0,1.46,1.46,0,0,1,.07.19l-3.21,3.77Q48,48.68,43.51,54C40.67,57.32,39.67,61.85,39.85,67.12ZM71.5,60.56a10.76,10.76,0,0,1-4.94,4.93c-3.37,1.74-6.8,3.32-10.22,4.93-3.63,1.71-7.28,3.37-10.92,5-.86.39-1.43,0-1.63-1.15a44.1,44.1,0,0,1-.73-10.26,14.52,14.52,0,0,1,3-7.64C50,50.92,53.94,45.46,57.89,40c1.35-1.87,2.74-1.8,4.35.4.86,1.16,1.6,2.48,2.38,3.73A49.82,49.82,0,0,0,70.74,52,11.09,11.09,0,0,1,72,53.75,9.15,9.15,0,0,1,71.5,60.56Zm1.69-11.45c-.12.32-.27.61-.44,1-.2-.2-.37-.34-.51-.51a38.84,38.84,0,0,1-9.3-21.1,36.45,36.45,0,0,0-.8-4.37A28.91,28.91,0,0,0,60.93,21l-.32-.05A11.62,11.62,0,0,0,60,22.56a12.61,12.61,0,0,0,.2,4.72,16.6,16.6,0,0,1,.36,5.23,3.45,3.45,0,0,1-1.22,2.6,4,4,0,0,1-1.81.4c-8.19.32-16.39.59-24.58.92a6.42,6.42,0,0,1-3.66-.58,3.25,3.25,0,0,1-1.46-3.6,1.31,1.31,0,0,0-.27-1.47c-.51-.49-1.12-.59-1.49-.13a2.35,2.35,0,0,0-.53,1.07C25,35.25,23,37,20.69,38.39L6.93,47c-.83.52-1.67,1-2.67,1.64.34-2.12.62-4,1-5.86a77.22,77.22,0,0,1,3.9-14.85c2.3-5.89,5.75-10.32,10.38-13.21,2.8-1.75,5.71-3.3,8.58-4.91,1.68-.94,3.38-1.82,5.07-2.73a1.3,1.3,0,0,1,.46-.18c.54-.08.81.3.68.95a5.4,5.4,0,0,1-.18.57l-5.57,17c-.08.24-.14.47-.22.74.45.51.87.46,1.2.16a4.59,4.59,0,0,0,1-1.25,82.63,82.63,0,0,0,6.17-16,10.74,10.74,0,0,1,.66-1.72A2.05,2.05,0,0,1,40,6.12c5,1.61,10.09,3.21,15.14,4.89a14.28,14.28,0,0,1,2.89,1.51,7.7,7.7,0,0,1,2.71,3.25,111.78,111.78,0,0,0,7.06,11.61,39.52,39.52,0,0,1,5.33,11.46C74.09,42.45,74.33,45.93,73.19,49.11Z"/><path class="cls-3" d="M71.5,60.56a10.76,10.76,0,0,1-4.94,4.93c-3.37,1.74-6.8,3.32-10.22,4.93-3.63,1.71-7.28,3.37-10.92,5-.86.39-1.43,0-1.63-1.15a44.1,44.1,0,0,1-.73-10.26,14.52,14.52,0,0,1,3-7.64C50,50.92,53.94,45.46,57.89,40c1.35-1.87,2.74-1.8,4.35.4.86,1.16,1.6,2.48,2.38,3.73A49.82,49.82,0,0,0,70.74,52,11.09,11.09,0,0,1,72,53.75,9.15,9.15,0,0,1,71.5,60.56Z"/><path class="cls-4" d="M55.67,39.64l-3.21,3.77Q48,48.68,43.51,54c-2.84,3.36-3.84,7.89-3.66,13.16.08,2.46.07,4.9.09,7.35a8.94,8.94,0,0,1-.06,1c-.12,1-.48,1.24-1.26.83C32.08,72.9,25.54,69.52,19,66a28,28,0,0,1-8.54-7,39.78,39.78,0,0,1-2.88-4.23c-.85-1.4-.69-2.34.36-3.08C12,48.74,16.13,46,20.09,43c2.54-1.95,5.39-2.27,8.49-2.18,5.15.14,10.3.1,15.4-.15,3.77-.17,7.47-.79,11.19-1.2a3.09,3.09,0,0,1,.43,0A1.46,1.46,0,0,1,55.67,39.64Z"/></g></g></g></svg>