<svg xmlns="http://www.w3.org/2000/svg" viewBox="0 0 62.53 87.17"><defs><style>.cls-1{fill:#d66900;}.cls-2{fill:#f3861e;}.cls-3{fill:#55596d;}.cls-4{fill:#6c7689;}.cls-5{fill:#453c4a;}</style></defs><title>Asset 5</title><g id="Layer_2" data-name="Layer 2"><g id="LEVELI"><g id="_5._DOBA_KOVIN" data-name="5. DOBA KOVIN"><path class="cls-1" d="M57.92,18.85l1.1.92a3.91,3.91,0,0,1,.49,5.5L8.86,85.78a3.9,3.9,0,0,1-5.5.48l-1.1-.92Z"/><path class="cls-2" d="M57.06,18.13l.86.72L2.26,85.34l-.86-.72a3.9,3.9,0,0,1-.49-5.5l50.65-60.5A3.89,3.89,0,0,1,57.06,18.13Z"/><path class="cls-3" d="M30.85,24c-1.29-.67-2.74-.67-4.11-1A22.73,22.73,0,0,1,41.07,6.15c.61,1.28.77,2.74,1.65,3.9l.3.63a15.16,15.16,0,0,0,4.25,5.22L49,17.35,52.07,20,54,21.64l1.92,1.65,2.55,2.33a3.26,3.26,0,0,1-.84,3.47Q54.76,32.33,52,35.68a3.26,3.26,0,0,1-3.29,1.38l-2.47-1.94-2.65-2.26-1.41-1.23-.25-.21-2.41-2a14,14,0,0,0-2.67-2.25A14.64,14.64,0,0,0,30.85,24Z"/><path class="cls-4" d="M41.07,6.15A22.73,22.73,0,0,0,26.74,22.94a.57.57,0,0,0-.16.15A8.51,8.51,0,0,0,24.06,23v0l-2-.2c-1.6-.15-1.93-.55-1.66-2.12a40.15,40.15,0,0,1,1.17-5.05c.33-1.09,1.13-2,1.06-3.23l.34-.52.42-.46.52-.78a39.4,39.4,0,0,1,4-4.91,4.6,4.6,0,0,0,1.44-1.23A30.69,30.69,0,0,1,37.66.24c1.62-.5,2.08-.3,2.45,1.33S40.75,4.62,41.07,6.15Z"/><path class="cls-5" d="M56.86,37.85c-3.29,3.3-3.29,3.3-7,.3a.62.62,0,0,0-.25-.17l-.9-.92A3.26,3.26,0,0,0,52,35.68q2.74-3.34,5.62-6.59a3.26,3.26,0,0,0,.84-3.47l1.28.95,1.22,1,1.36,1.31a5.71,5.71,0,0,1,.17,2.18l-2.36,3Z"/></g></g></g></svg>