<svg xmlns="http://www.w3.org/2000/svg" viewBox="0 0 222.27 283.83"><defs><style>.cls-1{fill:#476120;}.cls-2{fill:#2f4417;}.cls-3{fill:#637f29;}.cls-4{fill:#819f31;}.cls-5{fill:#564f27;}.cls-6{fill:#6d5a23;}.cls-7{fill:#3e5922;}.cls-8{fill:#475c46;}.cls-9{fill:#152e17;}.cls-10{fill:#344d39;}.cls-11{fill:#52694f;}.cls-12{fill:#5f7656;}.cls-13{fill:#b29648;}.cls-14{fill:#566430;}.cls-15{fill:#acc97d;}.cls-16{fill:#274f16;}.cls-17{fill:#296313;}.cls-18{fill:#357c13;}.cls-19{fill:#1e3d10;}.cls-20{fill:#253b23;}.cls-21{fill:#455026;}.cls-22{fill:#cea849;}.cls-23{fill:#9e9e9e;}.cls-24{fill:#e8eee6;}.cls-25{fill:#79825c;}</style></defs><title>Asset 10</title><g id="Layer_2" data-name="Layer 2"><g id="RASTLINE"><g id="_1_MALO_DREVO" data-name="1 MALO DREVO"><path class="cls-1" d="M119.67,183a.93.93,0,0,1-.48.55c-3.42-1.84-4.16.19-4.33,3-.35,1-1.13,1.15-2,1.06-1.86-.06-3.69-.43-5.43.86-6.58,4.88-12.88,5.13-20,.26-4-2.75-9.18-5.69-14.4-1.4l-2.57-.07c-.21-.51-.4-1-.59-1.53-.21.49-.43,1-.63,1.49-2.29,1.53-1.94,4.05-2.36,6.28-.12,1.15-.25,2.3-.38,3.46-1.54,1.58-1.06,3.68-1.36,5.58l-2.24,1.34c-2.37-3.39,1.09-6.8,0-10.2,2.69-3,3.43-5.27-2-4.88-1.14.09-1.87.29-2.37-1.06-2.32-6.18-5.05-2.67-7.71-.27-2.42-.76-.29,4.19-3.05,2.59-14-8.14-29.59-13.78-40.18-26.92a12.81,12.81,0,0,0-6.8-4.8c-.16-.4-.33-.82-.48-1.23,1.16.12,1.86-.31,1.89-1.55a44.66,44.66,0,0,1,12.67-17.44c1.43.1,3.4.86,4.21.2,3.59-2.93,6.93,1,10.47,0,1.39-.41,2.81,1.18,2.78,2.81-.12,9.79,7.89,14.69,12.7,21.54,3,4.29,7.61,5.59,12.08,5.09,3.61-.41,4.39.49,4.81,3.53.51,3.75,2.77,4.8,6.59,4.87,10.19.23,18.84-3.5,27.52-8.35,4.37-2.43,5-7.38,8.81-9.73l-.11.15c1.4,4.82,3.15,2.44,4.9.25,4.92,2.22,7,8.91,13.53,8.62.13.87.26,1.76.38,2.64C121.29,173.86,118.08,177.71,119.67,183Z"/><path class="cls-2" d="M.75,158.29a12.83,12.83,0,0,1,6.8,4.8C18.14,176.23,33.78,181.86,47.72,190c2.76,1.61.64-3.34,3.05-2.59-.57,3.17,2.82,5.75,1.35,9.06-9-.39-18-.67-27-1.21-4.61-.28-9.13-1.21-13-4.13l-1.56-1,.12.16c-.72-4.39-3.92-6.82-7.26-9.12C2.77,179.9,2,178.72.4,178.53.28,171.78-.62,165,.75,158.29Z"/><path class="cls-3" d="M104.81,158.07c-3.87,2.33-4.45,7.28-8.82,9.72-8.69,4.85-17.34,8.58-27.53,8.36-3.81-.09-6.07-1.14-6.58-4.88-.41-3-1.2-3.94-4.81-3.53-4.47.51-9.07-.8-12.08-5.1-4.81-6.84-12.83-11.74-12.7-21.53,0-1.64-1.39-3.21-2.79-2.81-3.52,1-6.87-3-10.46,0-.81.65-2.78-.11-4.21-.21-1.61-3.86-.78-5.86,3.77-6.76,3.41-.67,6.68-2.35,11-2.73-6.44-3.06-12.48-.72-19.14-1C14.21,122.74,17.9,119,23,116.8c1.82,2.74-2,3.58-2.05,5.72,7.23,1.3,13.71.66,18.23-5.92a6.8,6.8,0,0,1,4.92,1.86c3.56,4.79,7.46-.22,10.76.76,6.57,2,7.1-1.73,7.27-6.52,0-.44,1.68-1,2.64-1.18,1.24-.26,2.26-.42,3-1.76,4.05-7.14,4.53-7.18,11.88-3.06,2,1.14,4.45,3.24,6.09-.62,11.1,7.85,18.73,18.61,25.21,30.3,1.51,2.73,3.14,5.87-2.6,4.94-.19-.85-.37-1.73-1.3-.45l-3.74-.42c-4.08-2.25-8.47-.62-12.7-1l.06.52-.5.13a6.14,6.14,0,0,1,1-1.54c1.36-1.13,3.87-1.69,3.13-4s-3.14-1.3-4.89-1.46c-.83-.07-1.65-.07-2.48-.1,0-1.22-.11-2.44-.16-3.67,2.55-2.17.1-3.18-1.11-4.33s-2.35-.36-3.43.31c-1.88,1.16-2.07,2.48-.3,3.94l.36,6c-5.71-1.76-9.68-6.25-14.59-9.26-3.07-1.89-5.07-2.09-4.84,2.5a62.9,62.9,0,0,1-1,11.84,67.39,67.39,0,0,0,0,15.09c.25,2.73,1,6.43,5.28,5.28a162.36,162.36,0,0,0,16.68-5.44c2.8-1.09,7-2.8,7.4-4.87.54-2.71-4.32-3.64-6-6-1-1.39-4.51-2.12-2-5l3.41.87c-1,2,.13,2.71,1.84,2.51,4.07-.49,7.82.94,11.63,1.8,3.59.81,7.32.61,9.4,5.7,1.3,3.21,7.76,3,10.4,6.84-2,1.65-3.76.65-5.79-.07-4.08-1.46-7.73-4.26-13-4.68C102.64,154.62,104.78,155.71,104.81,158.07Z"/><path class="cls-4" d="M85.71,106.08c-1.64,3.86-4,1.76-6.09.62-7.35-4.12-7.83-4.08-11.88,3.06-.76,1.34-1.78,1.5-3,1.76-1,.2-2.62.74-2.64,1.18-.17,4.79-.7,8.47-7.27,6.52-3.3-1-7.2,4-10.76-.76a6.8,6.8,0,0,0-4.92-1.86c-2.52-6.9-7.84-1-11.54-2.53C45.58,101.32,64.61,96.22,85.71,106.08Z"/><path class="cls-5" d="M62.84,193.63c1.1,3.4-2.35,6.8,0,10.2,0,1.3,0,2.6,0,3.89-.37.73-1.06,1.45-1.05,2.17.05,14.51.18,29,.29,43.53v2c-.13.93-.25,1.86-.37,2.79a1.07,1.07,0,0,0-.22.86c-3.56-.36-2.07-3.13-2.08-4.85-.13-14.25-.51-28.52.07-42.75.28-6.81-2-11.4-7.33-15-.81-3.84,2.93-3.6,4.63-5.18l.32,0,.31-.06C58.78,193,60.8,193.34,62.84,193.63Z"/><path class="cls-6" d="M65.9,219.09c.25,11.76.21,23.54.48,35.3.08,3.7-.75,5.76-4.93,4.64a1.06,1.06,0,0,1,.22-.84c1-.45,1.1-1.35,1.15-2.27,2.35-11,1.8-22,.23-33l-.23-15.23c0-1.29,0-2.6,0-3.89l2.24-1.34c1.71,2.75-2.74,8,3.64,8.86C66,213.28,65.83,216,65.9,219.09Z"/><path class="cls-1" d="M75.48,197.67l-7.6-.23c-.47-.18-.93-.36-1.42-.53-1.54,1.58-1.06,3.68-1.36,5.58,1.71,2.75-2.74,8,3.64,8.86,3.65-.76,7.3-1.19,8.9-5.62.51-1.39,2.89-2.38,4.6-3,2.32-.82,3.58-2,3.41-4.54C82.33,196.74,78.89,197.58,75.48,197.67Zm-5,2.4h0Z"/><path class="cls-2" d="M112.82,187.56c-6.54,5-13.15,9.82-22.11,8.57-.09-.88-.19-1.77-.28-2.64-2.54-1.81-5-4.12-8.44-2.14-4.43-3.1-4.43-3.1-5.33-.95-1.42-.82-1.74-2.91-3.67-3.12,5.22-4.29,10.4-1.35,14.4,1.4,7.12,4.87,13.42,4.62,20-.26C109.13,187.13,111,187.5,112.82,187.56Z"/><path class="cls-2" d="M27.59,114.07c3.7,1.49,9-4.37,11.54,2.53-4.52,6.58-11,7.22-18.23,5.92,0-2.14,3.87-3,2.05-5.72l1.64-1.56c0,.55-.23,1.44.57,1.31,1-.18.51-1.18.5-1.86Z"/><path class="cls-2" d="M104.81,158.07c0-2.36-2.17-3.45-3.8-5.78,5.26.42,8.91,3.22,13,4.68,2,.72,3.83,1.72,5.79.07,3.47,2.56,2.22,6.69,3.33,10-6.52.29-8.61-6.4-13.53-8.62l-4.9-.24Z"/><path class="cls-7" d="M62.84,193.63c-2-.29-4.06-.63-5.47-2.38,0-.31,0-.62,0-.93l-.59,1c-1.7,1.58-5.44,1.34-4.63,5.18v0c1.47-3.31-1.92-5.89-1.35-9.06,2.67-2.41,5.41-5.91,7.72.27.5,1.35,1.22,1.15,2.36,1.07C66.28,188.36,65.52,190.64,62.84,193.63Z"/><path class="cls-1" d="M90.71,196.13a6.11,6.11,0,0,0-5.06,2.07c-3.32-1.46-6.76-.62-10.17-.53l-7.6-.23c-.47-.18-.93-.36-1.42-.53.13-1.16.26-2.31.38-3.46a55.39,55.39,0,0,0,5.45,1.44c3.46.56,5.19-.78,4.37-4.49.9-2.15.9-2.15,5.33.95-.41,1.57-3.29,1-2.89,3.48,3.87.1,7.74.63,11.33-1.34C90.52,194.36,90.62,195.25,90.71,196.13Z"/><path class="cls-2" d="M86.52,140.19l-3.41-.87c.07-.72.15-1.44.23-2.16l1-1.64h0c1.84.15,2.59-.8,2.55-2.54h0c.83,0,1.65,0,2.48.1,1.75.16,4.16-.81,4.89,1.46s-1.77,2.86-3.13,4a6.14,6.14,0,0,0-1,1.54Z"/><path class="cls-2" d="M119.66,183c-1.57-5.24,1.63-9.09,3.84-13.23C123.93,174.63,123.3,179.22,119.66,183Z"/><path class="cls-2" d="M3.49,181.13c3.34,2.3,6.54,4.73,7.26,9.12-4.06-1.14-5.81-4.45-7.44-7.87Z"/><path class="cls-2" d="M90.58,139.44c4.23.39,8.62-1.24,12.7,1C99,140.23,94.64,142,90.58,139.44Z"/><path class="cls-2" d="M114.85,186.5c.19-2.82.92-4.84,4.34-3A5.91,5.91,0,0,1,114.85,186.5Z"/><path class="cls-8" d="M25.66,114.69c0,.68.53,1.68-.5,1.86-.8.13-.6-.76-.57-1.31Z"/><path class="cls-9" d="M10.63,190.09l1.56,1Z"/><path class="cls-10" d="M107,140.87c.93-1.28,1.11-.4,1.3.45Z"/><path class="cls-1" d="M72.29,194.89a55.39,55.39,0,0,1-5.45-1.44c.42-2.23.07-4.75,2.36-6.28l.59.14.63-.1,2.57.07c1.93.21,2.25,2.3,3.67,3.12C77.48,194.11,75.75,195.45,72.29,194.89Z"/><path class="cls-11" d="M104.69,158.22l4.9.24C107.85,160.65,106.09,163,104.69,158.22Z"/><path class="cls-10" d="M70.42,187.21l-.63.1-.59-.14c.2-.51.42-1,.63-1.49C70,186.18,70.21,186.7,70.42,187.21Z"/><path class="cls-4" d="M83.34,137.16c-.08.72-.16,1.44-.23,2.16-2.46,2.89,1.06,3.62,2,5,1.72,2.41,6.58,3.34,6,6-.41,2.07-4.6,3.78-7.4,4.87a162.36,162.36,0,0,1-16.68,5.44c-4.26,1.15-5-2.55-5.28-5.28a67.39,67.39,0,0,1,0-15.09,62.9,62.9,0,0,0,1-11.84c-.23-4.59,1.77-4.39,4.84-2.5,4.91,3,8.88,7.5,14.58,9.26.3.06.59.13.88.21C83.19,136,83.26,136.59,83.34,137.16Z"/><path class="cls-2" d="M83.11,135.45c-.29-.08-.58-.15-.88-.21q-.17-3-.35-6c1.64-1.45,3.25-1.15,4.84.08,0,1.23.11,2.45.16,3.67h0c-1.86-.17-2.53.86-2.55,2.54h0A4,4,0,0,0,83.11,135.45Z"/><path class="cls-12" d="M86.72,129.33c-1.59-1.23-3.2-1.53-4.84-.08-1.77-1.46-1.58-2.78.3-3.94,1.08-.67,2.3-1.39,3.43-.31S89.27,127.16,86.72,129.33Z"/><path class="cls-5" d="M62.81,207.72l.24,15.22c-.88,10.14.73,20.36-1,30.48-.11-14.51-.24-29-.29-43.53C61.75,209.17,62.44,208.45,62.81,207.72Z"/><path class="cls-13" d="M62.05,253.42c1.73-10.12.12-20.34,1-30.48,1.57,11,2.13,22-.23,33a5.1,5.1,0,0,0-.78-.53Z"/><path class="cls-14" d="M62,255.39a5.1,5.1,0,0,1,.78.53c0,.93-.16,1.82-1.15,2.26C61.79,257.25,61.91,256.32,62,255.39Z"/><path class="cls-1" d="M56.74,191.28l.59-1c0,.31,0,.62,0,.93l-.31.06Z"/><path class="cls-15" d="M70.45,200.06h0Z"/><path class="cls-1" d="M90.43,193.49c-3.6,2-7.46,1.44-11.33,1.34-.41-2.5,2.48-1.91,2.88-3.48C85.48,189.37,87.89,191.68,90.43,193.49Z"/><path class="cls-11" d="M84.35,135.53c0-1.68.69-2.71,2.55-2.54C86.94,134.73,86.19,135.68,84.35,135.53Z"/><path class="cls-11" d="M83.11,135.45a4,4,0,0,1,1.25.07l-1,1.64C83.26,136.59,83.19,136,83.11,135.45Z"/><path class="cls-15" d="M70.45,200.06h0Z"/></g><g id="_1_VELIKO_DREVO" data-name="1 VELIKO DREVO"><path class="cls-16" d="M145.76,211.27c-.25-7.37,2.09-16.73-1.57-21.49-3-3.91-13.21-2-20.09-3.32a60.16,60.16,0,0,1-33.65-18.84c-1.79-2-1.68-3.83-1.53-6,3.22-.18,6.33-.41,9.52,1,3.39,1.5,6.06,5,10.41,4.08,7,6,15.42,2.27,23.16,3.15,5.59.64,9.45-2.19,11.79-7.18,2.58-3.7,2.62-7.38-.08-11-.9-.55-2-1.74-2.67-1.55-14.4,4.14-28.5,1.5-42.46-2.07-6.69-1.71-14.72-.87-16.65-11.3-2.27-12.29-1.4-24.35-.51-36.52.26-3.49,2.09-6.95-.86-10.11.53-6.4,1.25-12.75,4.47-18.49,7.15,6.06,14.38,3.61,21.48,0,3.63-1.84,4.38-4.48,3.8-10.61-6.46,7.9-15,10.58-23.19,7.29.49-1.61-1-3.84,1.69-4.78,7.39-2.63,12.85-8,18.52-13.1,3.11-.86,3.07-3.56,3.23-5.94.1-1.53-1.42-1.54-2.45-1.36-2.69.48-5.63.76-6.14,4.33A15.93,15.93,0,0,0,102,50c-3.68-.07-8.83,2.18-10.58-1.17-1.51-2.9,2-7.1,4.15-10.06,3.76-5.1,4.68-12.39,11.46-15.19,7.92,5,14.1,4.17,23.22-4.12,4.33-3.93,8.74-6.47,14.66-5.81s10.28-.62,10.74-7.77c.09-1.29,1.93-2.47,3-3.69a15.83,15.83,0,0,1,8.49,4.75c-1.81,2.41,1.14,9.38-6.21,6.49-1,2.93-6.67,3.48-4.84,7.46,1.48,3.21,4.71,5,8.07,1.31l1.43.78c.41,3.67-4.58,10.37,5,8.89a.82.82,0,0,1,.72.47c-.3.45-.62.89-.95,1.32l-1.62,1.56c-1.6,2.13-4.08,3.79-6.35,3.17-10.42-2.83-9.35,4.84-10.29,10.75-.3,1.89-.15,3.92-.78,5.67-5.8,16.12-4.11,31.77,2.64,47.16,2.91,7.54,5.34-1.81,8.09-.24l.06,1.95c-2.51,3.38-5.6,6.49-7.38,10.22-2.25,4.72.68,4.33,3.81,2.83,3.46-.19,6.22.07,7.72,4.29,1.07,3,3.85,6,7.58,5.55,7.75-.85,14,2.71,20.22,6.25,5.14,2.93,9.17,2.6,13.13-2,1.86-2.18,3.66-5.81,7-5.07,4.78,1,4.32-1.71,4.35-4.54,0-3,0-6.09,0-9.13,6.62,16.17,3.9,32-4.4,46.21-8.49,14.58-22.76,22.48-38.88,26.88-4.32-1.16-7.58,2.56-11.66,2.54l-3.06-.42c-2.7-1.48-5.61-.37-8.41-.64a3,3,0,0,0-3.37,1.5c-2.76,2.3-1.39,5.47-1.74,8.28C146.42,201.3,148.37,206.48,145.76,211.27Z"/><path class="cls-17" d="M153.91,101.92c-6.75-15.39-8.44-31-2.64-47.16.63-1.75.48-3.78.78-5.67.94-5.91-.13-13.58,10.29-10.75,2.27.62,4.75-1,6.35-3.17l1.62-1.56c.33-.43.65-.87.95-1.31l.06.78,3.31,2.05-.23-.64.6-.32c.47,1.47,1.07,2.31,2.2.44a21.18,21.18,0,0,1,13.22,5.26c5.13,14.69,10.2,29.4,15.46,44,.83,2.31-.56,3-1.87,3.81-3,1.94-6.07,3.75-9.12,5.61-2.49,1.4-5.57,1.55-7.67,3.82s-.24,2.36,1.35,2.64c-.34,2.38-5.28,3.88-2.13,6.55,2.06,1.75,5.11,0,7-2.11,1.22-1.34,4.26-1.22,3.42-4.22.77-2.67,5.34-.8,5.3-4.44,2.19,0,4.38-.14,6.56-.11,3.17.06,7.39-1,7.85,3.59.37,3.63.33,8.17-5.68,8.09-1.14,0-2.3,1.26-3.76,2.11,3.28,4.21,7.83,1.47,11.39,2.74,0,3,0,6.09,0,9.13,0,2.83.43,5.59-4.35,4.54-3.37-.74-5.17,2.89-7,5.07-4,4.64-8,5-13.13,2-6.22-3.54-12.47-7.1-20.22-6.25-3.73.4-6.51-2.58-7.58-5.55-1.5-4.22-4.26-4.48-7.72-4.29.63-10.78,11.65-9.19,17.67-14.05-5.36-2.38-9.59.79-14.1,1l-.06-1.94c3.47-6.34,11.19-6.7,15.88-11.28,2.55-2.5,7.14-4.82,4-9.16s-7.09-3.09-11.53-.44C161.93,85.82,158.83,94.49,153.91,101.92Zm58.62,17c-9.12-3.76-12.2-3.14-14.57,2.84C202.3,118.77,206.82,119.23,212.53,119Z"/><path class="cls-18" d="M158.6,2.14c-1,1.22-2.87,2.4-3,3.69-.46,7.15-4.81,8.44-10.74,7.77s-10.33,1.88-14.66,5.81c-9.12,8.29-15.3,9.13-23.22,4.12a71.79,71.79,0,0,1,11.71-14C130.61-2.15,144.29-1,158.6,2.14Z"/><path class="cls-19" d="M143.8,162.68c-2.34,5-6.2,7.82-11.79,7.18-7.74-.88-16.12,2.82-23.16-3.15,5.2.45,10.42,1.32,15.61,1.21,3.76-.08,9.88,1.12,10.47-3.41.7-5.42-5.69-7-9.82-9.34-1.06-.59-2.72,0-4.1-.14-12.36-.84-25.66,3.39-36.35-6.71-.43-.4-1.61,0-2.44,0C74.56,129.11,76,109.65,80.57,90.1c3,3.16,1.12,6.62.86,10.11-.89,12.17-1.76,24.23.51,36.52,1.93,10.43,10,9.59,16.65,11.3,14,3.57,28.06,6.21,42.46,2.07.69-.19,1.77,1,2.67,1.55-1.27.47-2.53,1-3.82,1.41-5.45,1.81-3.6,6.45-2.69,9.45C138.5,166.78,141.51,163.45,143.8,162.68Z"/><path class="cls-5" d="M148.78,188.06a3,3,0,0,1,3.37-1.5,55.74,55.74,0,0,0,.53,16.61c.31,17.88.56,35.75.95,53.63.08,3.68.13,6.91-5.07,5.69Q148.67,225.28,148.78,188.06Z"/><path class="cls-20" d="M148.78,188.06q-.1,37.22-.22,74.43c-4.46.66-3.23-2.69-3.22-4.83.06-13.24.25-26.48.39-39.71,1.43-1,1.43-2.08,0-3.12,0-1.18,0-2.37,0-3.56,2.61-4.79.66-10,1.28-14.93C147.39,193.53,146,190.36,148.78,188.06Z"/><path class="cls-19" d="M87.13,68.31c8.19,3.29,16.73.61,23.19-7.29.58,6.13-.17,8.77-3.8,10.61-7.1,3.59-14.33,6-21.48,0C85,70,85.29,68.69,87.13,68.31Z"/><path class="cls-17" d="M170.54,31.82c-9.58,1.48-4.59-5.22-5-8.89,4.54,1.08,9,2.46,13.63,3.15,3,.45,5.25,1.21,6.37,4.15-2.47,3.27-5.36.32-8,.55C175.16,31,172.34,28.09,170.54,31.82Z"/><path class="cls-18" d="M164.11,22.15c-3.36,3.68-6.59,1.9-8.07-1.31-1.83-4,3.79-4.53,4.84-7.46,7.35,2.89,4.4-4.08,6.21-6.49,2.92.91,5.46,3.76,5.07,5.75-.54,2.85-4.42,3.81-7.29,4.29C158.45,18,160.78,19.89,164.11,22.15Z"/><path class="cls-21" d="M145.75,214.83c1.41,1,1.41,2.08,0,3.12C145.74,216.91,145.74,215.87,145.75,214.83Z"/><path class="cls-19" d="M153.91,101.92c4.92-7.43,8-16.1,16.39-21.11,4.44-2.65,8.36-3.88,11.53.44s-1.4,6.66-4,9.16C173.19,95,165.47,95.35,162,101.69,159.25,100.11,156.82,109.46,153.91,101.92Z"/><path class="cls-19" d="M162.06,103.63c4.51-.21,8.74-3.38,14.1-1-6,4.86-17,3.27-17.67,14.05-3.13,1.5-6.06,1.89-3.81-2.83C156.46,110.12,159.55,107,162.06,103.63Z"/><path class="cls-8" d="M170.31,33.61l-1.62,1.56Z"/><path class="cls-19" d="M212.53,119c-5.71.26-10.23-.2-14.57,2.84C200.33,115.83,203.41,115.21,212.53,119Z"/><path class="cls-21" d="M175,34.17l2.2.44C176.07,36.48,175.47,35.64,175,34.17Z"/><path class="cls-21" d="M171.32,33.08c1.76-.39,3.2-.25,3.31,2.05Z"/><path class="cls-14" d="M193.48,99.86c-1.38,0-2.89.42-3.44-1.47C191.55,98,193.65,96.29,193.48,99.86Z"/></g><g id="_2_RESJE" data-name="2 RESJE"><path class="cls-22" d="M173,283l-1.89.14c-1.87-.29-1.94-1.74-2.19-3.2-.62-3.55-1.37-7.08-2.07-10.62-.08,3.18-1.84,5.86-2.33,8.85-.09.64-.19,1.28-.28,1.93-1.05.75-.75,1.95-1,3l-2.22,0c0-1.29.66-2.61-.46-4.25v4.26l-.19.15c-2.83-.27-2.1-2.46-2.06-4.09a230.59,230.59,0,0,1,2.44-30.41c.86-5.3.75-10.86,3.22-16.78.74,6.48-.26,12-1.1,17.37s-.29,10.79-.58,17.2a21.26,21.26,0,0,0,3.72-12.29c0-1.57-.22-3.1.66-4.71,3.32-6.12,5.22-12.52,3.69-19.67-.42-2-1.27-4.5.64-6.47l0-.06a8.62,8.62,0,0,1,.61,2.81c-.44,3,3.47,3.33,3.48,6a11.81,11.81,0,0,0-.34,7.57c1.21,5.5,2.17,11.06,3.26,16.72,3.22-1.23,1.22-6,4.84-6.7v7.84c-2.22.84-2.64,3.13-2.7,4.8-.21,5.67-1.48,11.34-.39,17,0,.47,0,.93,0,1.4-.35,1.13-.46,2.42-1.88,2.84a.51.51,0,0,0-.85-.07l-1.41-.41a37.55,37.55,0,0,0-1.09-13c.21-.64.2-1.37-.64-1.2s-.56.87-.18,1.41C173.69,274.6,174.14,278.85,173,283Z"/><path class="cls-22" d="M137.74,282.83l-1.9.63a4.2,4.2,0,0,1-2.45-2.68c-.65-1.56-1.47-1.23-2.48-.52-1.13-3.95,1.9-8.65-2.14-12.09-1.67,1.49-.82,4.53-3.43,5.38L124,265.06c-1.63,4.94-.42,9.85-.59,14.73-.07,1.95.15,3.58-2.31,3.76-2.64.19-2.75-1.78-2.79-3.61-.31-13.19-2.43-26.17-4.6-39.14-.31-1.82.52-1.44,1.52-.84,2,5.61,3.8,11.33,7.64,16.84,1-6.21-2.18-10.73-3.23-15.72a3,3,0,0,1,2.49-1.31c2.09,2.57,2.24,6.07,4.51,8.8-.76-5.86-.43-11.63-.54-17.4-.06-3.29.87-6.77-1-9.9l.91-1c1.75,1.74,1.67,4.1,2,6.26,1.33,9.21,2.54,18.43,3.79,27.65-.61,3.45-1.07,6.88,1,10.05C134.32,270.44,137,276.39,137.74,282.83Z"/><path class="cls-22" d="M156.3,262.23c1.21,6.36-.49,12.59-.18,19.7-2.58-2.87.18-6.42-3.05-8-.9-1.33-.57-2.79-.5-4.24s3.43-2.87.8-3.77c-2.34-.8-1,2.66-2.07,3.82-.22.24-.41.5-.61.75-.77,0-2.12,2.61-2.17-.55,0-1.26.6-3-1.63-3.25l-.74-22.89c.27-11.28.47-22.57.91-33.84,0-1-1.58-3.41,1.47-3.3,2.29,12.54,4.47,25.06,4.17,37.92-.1,4.35-2.17,8.81.32,13.11l1.23-3.44C154.92,256.91,154.62,259.82,156.3,262.23Zm-6.38,6.22.32,0v-2.14h-.32Z"/><path class="cls-22" d="M142.84,236.53c.42,2.42.83,4.85,1.25,7.28.41,5.27,1,10.55,1.17,15.83.22,6.85,1.51,13.74-.56,20.53v-10.9c-2.73,4.6-1,9.13-1,13.66a.34.34,0,0,1,0,.55l-1-.19-1.93.48c-1.87-1.73-1.69-4-2-6.31-1-8-1.52-16-4.28-23.67,0-2.08,0-4.15,0-6.23-.38-5.06-1.82-10-1.45-15.91,5.56,11.24,6.48,22.81,8.16,34.74.9-6-.31-11.3-.2-16.67.09-.09.27-.19.26-.26a4.21,4.21,0,0,0-.23-.65q0-3.09,0-6.18c.93-1.57.55-3.17.11-4.77A1.55,1.55,0,0,1,142.84,236.53Z"/><path class="cls-22" d="M159.9,234.83c.08,7.14-1.33,14.07-2.82,21-2.08-1-1-3.78-2.76-4.94-1.26-2.63-.7-5.45-.68-8.16,0-8.77.28-17.55.45-26.32l.45-3.9c.67-.87,1.93-1.26,3.07-2.56v23.33A2.27,2.27,0,0,0,159.9,234.83Z"/><path class="cls-14" d="M125.34,273.55c2.61-.85,1.76-3.89,3.43-5.38,4,3.44,1,8.14,2.14,12.09a3.77,3.77,0,0,0,0,.67c-1.59.72-2.89,2.95-5,.92h0C124.7,279.15,125.41,276.33,125.34,273.55Z"/><path class="cls-14" d="M146.89,266.68c2.23.22,1.62,2,1.63,3.25,0,3.16,1.4.58,2.17.55.5,2.23-1.87,5.19,1.67,6.67a5.21,5.21,0,0,1-.85,3.89c-1.61.6-2.49,3-4.77,1.95Z"/><path class="cls-23" d="M119.66,241.08l-1.13-1c-1.3-3.5,1.12-7,.1-10.7l1.33,1.92c-.08,3.05,3.22,5.22,2.19,8.51A3,3,0,0,0,119.66,241.08Z"/><path class="cls-14" d="M144.7,280.17l0,2.84-1-.08c-.06-4.53-1.74-9.06,1-13.66Z"/><path class="cls-23" d="M157.43,199.8v7.28c-3.11-2.23-1.35-5.08-2.05-7.3C156.07,198.84,156.75,198.75,157.43,199.8Z"/><path class="cls-23" d="M142.76,236.53c-1.88.19-1.95-1.31-2.35-2.51.54-1.13-.93-2.5.66-3.78A9.58,9.58,0,0,1,142.76,236.53Z"/><path class="cls-24" d="M179.78,280.81c0-.47,0-.93,0-1.4C179.79,279.88,179.79,280.34,179.78,280.81Z"/><path class="cls-13" d="M125.89,281.85h0l-.33.66c0-.14-.08-.31,0-.42S125.77,281.93,125.89,281.85Z"/><path class="cls-24" d="M142.74,283.29l1,.19Z"/><path class="cls-13" d="M177.05,283.58a.51.51,0,0,1,.85.07l-.44.18Z"/><path class="cls-23" d="M174.55,270.16a.88.88,0,0,1-.82.21c-.38-.54-.57-1.26.18-1.41S174.76,269.52,174.55,270.16Z"/><path class="cls-25" d="M134.54,253.79q-.84,5.21-1.69,10.4c-2.11-3.17-1.65-6.6-1-10.05a11.27,11.27,0,0,1,2.74-6.58C134.55,249.64,134.54,251.71,134.54,253.79Z"/><path class="cls-23" d="M152.36,277.15c-3.54-1.48-1.17-4.44-1.67-6.67.2-.25.39-.51.61-.75,1.07-1.16-.27-4.62,2.07-3.82,2.63.9-.73,2.38-.8,3.77s-.4,2.91.5,4.24S153.08,276.18,152.36,277.15Z"/><path class="cls-25" d="M159.9,234.83a2.27,2.27,0,0,1-2.29-1.56l2.83-9.43C161.92,227.65,160.55,231.22,159.9,234.83Z"/><path class="cls-14" d="M154.25,254.24c0-1.12.05-2.24.07-3.36,1.78,1.16.68,3.94,2.76,4.94l-.78,6.41C154.62,259.82,154.92,256.91,154.25,254.24Z"/><path class="cls-14" d="M149.92,268.45v-2.13h.32v2.14Z"/><path class="cls-23" d="M141.13,242.63a8.16,8.16,0,0,1,.11-4.77C141.68,239.46,142.06,241.06,141.13,242.63Z"/><path class="cls-23" d="M141.06,249.72a.92.92,0,0,1,0-.91,4.21,4.21,0,0,1,.23.65C141.33,249.53,141.15,249.63,141.06,249.72Z"/></g></g></g></svg>