<svg xmlns="http://www.w3.org/2000/svg" viewBox="0 0 176.86 215.91"><defs><style>.cls-1{fill:#476120;}.cls-2{fill:#2f4417;}.cls-3{fill:#637f29;}.cls-4{fill:#819f31;}.cls-5{fill:#564f27;}.cls-6{fill:#6d5a23;}.cls-7{fill:#3e5922;}.cls-8{fill:#475c46;}.cls-9{fill:#152e17;}.cls-10{fill:#344d39;}.cls-11{fill:#52694f;}.cls-12{fill:#5f7656;}.cls-13{fill:#b29648;}.cls-14{fill:#566430;}.cls-15{fill:#acc97d;}.cls-16{fill:#9e9e9e;}.cls-17{fill:#e8eee6;}.cls-18{fill:#79825c;}</style></defs><title>Asset 12</title><g id="Layer_2" data-name="Layer 2"><g id="RASTLINE"><g id="_2MALO_DREVO" data-name="2MALO DREVO"><path class="cls-1" d="M4,128.48a1,1,0,0,0,.48.55c3.42-1.84,4.15.19,4.33,3,.34,1,1.13,1.15,2,1.06,1.86-.06,3.68-.43,5.43.86,6.57,4.88,12.88,5.13,20,.25,4-2.74,9.18-5.68,14.41-1.39l2.57-.07c.2-.51.39-1,.58-1.54.22.5.43,1,.64,1.5,2.29,1.53,1.93,4.05,2.35,6.28.13,1.15.25,2.3.38,3.45,1.55,1.59,1.06,3.69,1.37,5.59.75.44,1.49.88,2.24,1.34,2.37-3.39-1.09-6.8,0-10.2-2.68-3-3.43-5.27,2-4.88,1.14.09,1.86.29,2.37-1.06,2.31-6.18,5.05-2.67,7.71-.27,2.42-.76.29,4.19,3,2.58,14-8.14,29.59-13.77,40.17-26.91a12.89,12.89,0,0,1,6.8-4.8q.26-.61.48-1.23c-1.15.11-1.86-.32-1.88-1.56A44.55,44.55,0,0,0,108.78,83.6c-1.43.1-3.39.86-4.2.2-3.6-2.94-6.94,1-10.47,0-1.39-.41-2.81,1.17-2.79,2.81.13,9.78-7.88,14.68-12.7,21.53-3,4.3-7.6,5.6-12.07,5.09-3.61-.4-4.4.5-4.82,3.54-.5,3.74-2.77,4.79-6.58,4.87-10.19.23-18.84-3.51-27.52-8.36-4.37-2.43-5-7.38-8.82-9.72l.12.15c-1.41,4.81-3.16,2.43-4.9.24C9.1,106.21,7,112.9.49,112.61c-.12.87-.25,1.75-.38,2.64C2.33,119.39,5.53,123.24,4,128.48Z"/><path class="cls-2" d="M122.86,103.82a12.77,12.77,0,0,0-6.79,4.8c-10.59,13.13-26.23,18.77-40.18,26.91-2.76,1.61-.63-3.34-3-2.58.57,3.17-2.81,5.75-1.34,9.05,9-.38,18-.66,27-1.21,4.61-.27,9.14-1.2,13-4.13l1.56-1-.12.16c.72-4.4,3.92-6.82,7.26-9.12.72-1.23,1.48-2.41,3.08-2.6C123.34,117.31,124.23,110.54,122.86,103.82Z"/><path class="cls-3" d="M18.81,103.6c3.87,2.33,4.45,7.28,8.82,9.72,8.69,4.84,17.33,8.58,27.52,8.35,3.82-.08,6.08-1.13,6.59-4.88.41-3,1.2-3.94,4.81-3.52,4.47.5,9.06-.8,12.08-5.1,4.81-6.84,12.82-11.74,12.69-21.53,0-1.64,1.4-3.21,2.79-2.81,3.53,1,6.88-3,10.47,0,.81.66,2.77-.1,4.21-.21,1.61-3.85.77-5.85-3.77-6.75-3.42-.67-6.68-2.35-11-2.73,6.44-3.07,12.49-.72,19.14-1-3.74-4.83-7.43-8.56-12.47-10.78-1.82,2.75,2,3.59,2,5.72-7.24,1.31-13.71.67-18.23-5.91A6.78,6.78,0,0,0,79.57,64c-3.57,4.79-7.46-.22-10.76.75-6.57,2-7.11-1.73-7.28-6.52,0-.43-1.67-1-2.63-1.17-1.25-.26-2.26-.42-3-1.76-4.05-7.14-4.53-7.18-11.89-3.06-2,1.14-4.44,3.24-6.08-.63C26.81,59.46,19.17,70.21,12.7,81.91c-1.51,2.73-3.14,5.86,2.6,4.94.19-.85.37-1.73,1.3-.45L20.33,86c4.08-2.25,8.47-.62,12.7-1l-.05.53.5.13a6.44,6.44,0,0,0-1-1.54c-1.36-1.13-3.88-1.69-3.14-4s3.15-1.3,4.9-1.46c.82-.08,1.65-.07,2.48-.1,0-1.22.11-2.45.16-3.67-2.56-2.18-.1-3.19,1.11-4.34s2.35-.35,3.43.32c1.88,1.15,2.06,2.48.29,3.93-.12,2-.23,4-.35,6C47.08,79,51.06,74.52,56,71.5,59,69.62,61,69.42,60.81,74a63,63,0,0,0,1,11.84,66.71,66.71,0,0,1,0,15.08c-.25,2.74-1,6.44-5.28,5.29a164.65,164.65,0,0,1-16.67-5.44c-2.81-1.1-7-2.81-7.4-4.87-.55-2.71,4.31-3.65,6-6,1-1.4,4.51-2.12,2.06-5l-3.42.86c1,2-.12,2.72-1.84,2.52-4.06-.49-7.82.93-11.62,1.8-3.6.81-7.33.61-9.4,5.7-1.31,3.21-7.77,3-10.4,6.84,2,1.65,3.76.65,5.79-.08,4.08-1.45,7.73-4.25,13-4.67C21,100.15,18.83,101.24,18.81,103.6Z"/><path class="cls-4" d="M37.91,51.6c1.64,3.87,4.05,1.77,6.08.63,7.36-4.12,7.84-4.08,11.89,3.06.76,1.34,1.77,1.5,3,1.76,1,.2,2.62.74,2.63,1.17.17,4.79.71,8.47,7.28,6.52,3.3-1,7.19,4,10.76-.75a6.78,6.78,0,0,1,4.92-1.86C87,55.23,92.32,61.08,96,59.6,78,46.85,59,41.74,37.91,51.6Z"/><path class="cls-5" d="M60.77,139.16c-1.1,3.4,2.36,6.8,0,10.2,0,1.3,0,2.59,0,3.89.37.72,1.06,1.45,1.06,2.17,0,14.51-.18,29-.29,43.52v2c.12.93.25,1.86.37,2.79a1.08,1.08,0,0,1,.21.85c3.57-.35,2.07-3.12,2.09-4.85.12-14.25.51-28.51-.08-42.74-.28-6.81,2-11.4,7.33-15,.82-3.83-2.92-3.59-4.63-5.17l-.32,0-.31-.06C64.84,138.53,62.82,138.87,60.77,139.16Z"/><path class="cls-6" d="M57.72,164.62c-.25,11.76-.21,23.53-.48,35.3-.09,3.69.75,5.76,4.92,4.64a1.05,1.05,0,0,0-.21-.85c-1-.44-1.1-1.34-1.15-2.26-2.36-11-1.8-22-.23-33l.23-15.23c0-1.29,0-2.6,0-3.89-.75-.46-1.49-.9-2.24-1.34-1.71,2.75,2.73,8-3.65,8.86C57.61,158.81,57.78,161.54,57.72,164.62Z"/><path class="cls-1" d="M38,143.73c-.18,2.5,1.09,3.72,3.41,4.54,1.7.61,4.08,1.6,4.59,3,1.61,4.43,5.26,4.86,8.9,5.62,6.38-.83,1.94-6.11,3.65-8.86-.31-1.9.18-4-1.37-5.59l-1.42.54-7.59.22C44.73,143.11,41.29,142.27,38,143.73Zm15.19,1.86h0Z"/><path class="cls-2" d="M10.8,133.09c6.53,5,13.14,9.81,22.11,8.57.08-.88.19-1.77.27-2.64,2.55-1.81,5-4.12,8.45-2.14,4.43-3.11,4.43-3.11,5.33-.95,1.42-.83,1.73-2.92,3.67-3.12-5.23-4.29-10.41-1.35-14.41,1.39-7.11,4.88-13.42,4.63-20-.25C14.48,132.66,12.66,133,10.8,133.09Z"/><path class="cls-2" d="M96,59.6c-3.71,1.48-9-4.37-11.54,2.53,4.52,6.58,11,7.22,18.23,5.91,0-2.13-3.87-3-2-5.72L99,60.76c0,.56.24,1.45-.56,1.31-1-.17-.51-1.17-.5-1.85Z"/><path class="cls-2" d="M18.81,103.6c0-2.36,2.16-3.45,3.8-5.78-5.26.42-8.91,3.22-13,4.67-2,.73-3.83,1.73-5.79.08-3.48,2.56-2.23,6.69-3.34,10C7,112.89,9.1,106.21,14,104l4.91-.24Z"/><path class="cls-7" d="M60.77,139.16c2-.29,4.07-.63,5.47-2.39,0-.3,0-.61.05-.92l.58,1c1.71,1.58,5.45,1.34,4.63,5.17v0c-1.47-3.3,1.91-5.88,1.34-9.05-2.66-2.41-5.4-5.92-7.71.26-.51,1.36-1.23,1.16-2.37,1.08C57.34,133.89,58.09,136.16,60.77,139.16Z"/><path class="cls-1" d="M32.91,141.66A6.11,6.11,0,0,1,38,143.73c3.32-1.46,6.76-.62,10.17-.54l7.59-.22,1.42-.54c-.13-1.15-.25-2.3-.38-3.45a54.47,54.47,0,0,1-5.44,1.44c-3.46.56-5.19-.78-4.37-4.49-.9-2.16-.9-2.16-5.33.95.4,1.57,3.29,1,2.89,3.48-3.88.1-7.74.63-11.34-1.34C33.1,139.89,33,140.78,32.91,141.66Z"/><path class="cls-2" d="M37.09,85.71l3.42-.86c-.08-.72-.16-1.44-.23-2.16-.34-.55-.68-1.1-1-1.64h0c-1.85.14-2.6-.8-2.55-2.55l0,0c-.83,0-1.66,0-2.48.1-1.75.16-4.17-.82-4.9,1.46s1.78,2.86,3.14,4a6.44,6.44,0,0,1,1,1.54Z"/><path class="cls-2" d="M4,128.48c1.58-5.24-1.63-9.09-3.83-13.23C-.31,120.15.32,124.75,4,128.48Z"/><path class="cls-2" d="M120.13,126.66c-3.34,2.3-6.54,4.72-7.26,9.12,4-1.14,5.8-4.46,7.44-7.87Z"/><path class="cls-2" d="M33,85c-4.23.4-8.62-1.23-12.7,1C24.58,85.76,29,87.48,33,85Z"/><path class="cls-2" d="M8.76,132c-.18-2.82-.92-4.84-4.33-3A5.92,5.92,0,0,0,8.76,132Z"/><path class="cls-8" d="M98,60.22c0,.68-.53,1.68.5,1.85.8.14.6-.75.56-1.31Z"/><path class="cls-9" d="M113,135.62l-1.56,1Z"/><path class="cls-10" d="M16.6,86.4c-.93-1.28-1.11-.4-1.3.45Z"/><path class="cls-1" d="M51.33,140.42A54.47,54.47,0,0,0,56.77,139c-.42-2.23-.06-4.75-2.35-6.28l-.6.14-.62-.1-2.57.07c-1.94.2-2.25,2.29-3.67,3.12C46.14,139.64,47.87,141,51.33,140.42Z"/><path class="cls-11" d="M18.93,103.74,14,104C15.77,106.18,17.52,108.55,18.93,103.74Z"/><path class="cls-10" d="M53.2,132.74l.62.1.6-.14c-.21-.51-.42-1-.64-1.5C53.59,131.71,53.4,132.23,53.2,132.74Z"/><path class="cls-4" d="M40.28,82.69c.07.72.15,1.44.23,2.16,2.45,2.89-1.06,3.61-2.06,5-1.72,2.4-6.58,3.34-6,6,.41,2.06,4.59,3.77,7.4,4.87a164.65,164.65,0,0,0,16.67,5.44c4.26,1.15,5-2.55,5.28-5.29a66.71,66.71,0,0,0,0-15.08,63,63,0,0,1-1-11.84C61,69.42,59,69.62,56,71.5c-4.9,3-8.88,7.51-14.58,9.27L40.5,81C40.43,81.55,40.35,82.12,40.28,82.69Z"/><path class="cls-2" d="M40.5,81l.88-.21c.12-2,.23-4,.35-6-1.63-1.44-3.24-1.14-4.83.09,0,1.22-.11,2.45-.16,3.67l0,0c1.86-.16,2.53.87,2.55,2.55h0A4,4,0,0,1,40.5,81Z"/><path class="cls-12" d="M36.9,74.86c1.59-1.23,3.2-1.53,4.83-.09,1.77-1.45,1.59-2.78-.29-3.93-1.08-.67-2.31-1.39-3.43-.32S34.34,72.68,36.9,74.86Z"/><path class="cls-5" d="M60.8,153.25q-.12,7.62-.23,15.22c.87,10.14-.74,20.36,1,30.47.11-14.5.24-29,.29-43.52C61.86,154.7,61.17,154,60.8,153.25Z"/><path class="cls-13" d="M61.57,198.94c-1.74-10.11-.13-20.33-1-30.47-1.57,11-2.13,22,.22,33a5.19,5.19,0,0,1,.79-.53Z"/><path class="cls-14" d="M61.58,200.92a5.19,5.19,0,0,0-.79.53c.05.93.17,1.82,1.16,2.26C61.83,202.78,61.7,201.85,61.58,200.92Z"/><path class="cls-1" d="M66.87,136.81l-.58-1c0,.31,0,.62-.05.92l.31.06Z"/><path class="cls-15" d="M53.16,145.59h0Z"/><path class="cls-1" d="M33.18,139c3.61,2,7.47,1.45,11.34,1.34.4-2.49-2.49-1.91-2.89-3.48C38.13,134.9,35.72,137.21,33.18,139Z"/><path class="cls-11" d="M39.27,81.06c0-1.68-.69-2.71-2.55-2.55C36.67,80.26,37.42,81.2,39.27,81.06Z"/><path class="cls-11" d="M40.5,81a4,4,0,0,0-1.25.07c.35.54.69,1.09,1,1.64C40.35,82.12,40.43,81.55,40.5,81Z"/><path class="cls-15" d="M53.16,145.59h0Z"/></g><g id="_2_VELIKO_DREVO" data-name="2 VELIKO DREVO"><path class="cls-1" d="M172,101.84a1.16,1.16,0,0,1-.6.67c-4.24-2.28-5.15.24-5.37,3.73-.43,1.25-1.4,1.43-2.53,1.32-2.31-.08-4.58-.54-6.75,1.06-8.15,6-16,6.37-24.81.32-5-3.41-11.39-7.06-17.88-1.73l-3.19-.09c-.25-.63-.49-1.28-.72-1.91-.27.62-.54,1.23-.79,1.86-2.84,1.9-2.4,5-2.92,7.79-.16,1.43-.32,2.86-.47,4.29-1.92,2-1.32,4.58-1.7,6.93-.93.55-1.86,1.1-2.78,1.67-2.94-4.21,1.35-8.44,0-12.67,3.33-3.71,4.26-6.53-2.47-6-1.41.11-2.31.36-2.93-1.32-2.88-7.67-6.27-3.31-9.57-.33-3-.94-.37,5.2-3.79,3.21-17.32-10.11-36.73-17.1-49.86-33.41-2.27-2.81-4.87-5-8.44-6-.21-.5-.41-1-.6-1.52,1.43.14,2.31-.39,2.34-1.93A55.38,55.38,0,0,1,41.84,46.13c1.78.12,4.21,1.07,5.22.25,4.46-3.65,8.61,1.27,13,0,1.72-.5,3.48,1.46,3.45,3.49-.15,12.15,9.79,18.23,15.76,26.73,3.74,5.33,9.45,7,15,6.32,4.47-.51,5.45.61,6,4.38.63,4.65,3.44,6,8.17,6,12.65.28,23.38-4.35,34.16-10.37,5.42-3,6.15-9.16,10.94-12.07l-.14.19c1.74,6,3.91,3,6.08.3,6.11,2.76,8.7,11.06,16.8,10.7.15,1.08.31,2.18.47,3.28C174,90.55,170,95.33,172,101.84Z"/><path class="cls-2" d="M24.37,71.23c3.56.92,6.17,3.14,8.43,6,13.14,16.31,32.56,23.3,49.87,33.41,3.42,2,.78-4.15,3.78-3.22-.71,3.94,3.49,7.15,1.67,11.25-11.16-.48-22.32-.83-33.47-1.5-5.72-.35-11.34-1.5-16.09-5.13l-1.93-1.3.14.2c-.89-5.45-4.86-8.46-9-11.32-.89-1.53-1.84-3-3.83-3.23C23.78,88,22.67,79.57,24.37,71.23Z"/><path class="cls-3" d="M153.51,71c-4.8,2.89-5.52,9-10.94,12.06-10.79,6-21.52,10.65-34.16,10.38-4.74-.11-7.54-1.41-8.17-6.06-.52-3.77-1.5-4.89-6-4.38-5.55.63-11.25-1-15-6.32-6-8.5-15.92-14.58-15.76-26.73,0-2-1.73-4-3.46-3.49-4.38,1.25-8.53-3.68-13,0-1,.82-3.44-.12-5.22-.26-2-4.78-1-7.26,4.67-8.38,4.24-.84,8.3-2.92,13.68-3.39-8-3.8-15.5-.89-23.76-1.25,4.64-6,9.23-10.62,15.49-13.38,2.26,3.41-2.54,4.46-2.55,7.1,9,1.62,17,.82,22.63-7.34,2.49-.39,5.59,1.61,6.1,2.31,4.43,5.94,9.26-.28,13.36.94,8.16,2.42,8.82-2.15,9-8.1,0-.54,2.08-1.2,3.27-1.45,1.54-.33,2.8-.52,3.74-2.19,5-8.86,5.63-8.91,14.76-3.79,2.52,1.41,5.51,4,7.55-.78,13.78,9.75,23.25,23.1,31.29,37.61,1.87,3.39,3.9,7.28-3.23,6.14-.24-1.06-.46-2.15-1.61-.57l-4.64-.52c-5.06-2.79-10.51-.77-15.76-1.26l.07.65-.62.17a7.52,7.52,0,0,1,1.22-1.91c1.68-1.41,4.81-2.11,3.89-5s-3.91-1.61-6.08-1.81c-1-.09-2.05-.08-3.08-.12-.06-1.52-.13-3-.2-4.56,3.18-2.7.13-4-1.37-5.38s-2.92-.44-4.26.39c-2.34,1.43-2.56,3.08-.37,4.89.15,2.48.3,5,.44,7.43-7.08-2.18-12-7.75-18.1-11.49-3.81-2.34-6.29-2.59-6,3.11.24,4.94-.56,9.78-1.24,14.69a83.71,83.71,0,0,0,0,18.72c.31,3.39,1.26,8,6.55,6.56a200,200,0,0,0,20.7-6.75c3.48-1.36,8.67-3.48,9.19-6,.67-3.36-5.36-4.53-7.5-7.51-1.23-1.73-5.59-2.63-2.55-6.22l4.24,1.07c-1.22,2.49.16,3.38,2.29,3.12,5-.61,9.7,1.17,14.43,2.24,4.45,1,9.08.76,11.66,7.07,1.62,4,9.64,3.77,12.91,8.49-2.44,2-4.67.81-7.19-.09-5.06-1.81-9.59-5.28-16.12-5.8C150.83,66.67,153.48,68,153.51,71Z"/><path class="cls-4" d="M129.81,6.42c-2,4.79-5,2.19-7.55.78-9.13-5.12-9.73-5.07-14.76,3.79-.94,1.67-2.2,1.86-3.74,2.19-1.19.25-3.26.91-3.27,1.45-.21,5.95-.87,10.52-9,8.1-4.1-1.22-8.93,5-13.36-.94-.51-.7-3.61-2.7-6.11-2.31-3.12-8.56-9.72-1.3-14.31-3.14C80,.52,103.63-5.82,129.81,6.42Z"/><path class="cls-5" d="M101.43,115.08c1.36,4.22-2.92,8.45,0,12.67l-.06,4.83c-.45.89-1.31,1.79-1.31,2.69.06,18,.22,36,.37,54l0,2.45c-.15,1.15-.31,2.31-.46,3.47a1.29,1.29,0,0,0-.26,1.06c-4.43-.45-2.57-3.88-2.59-6-.16-17.69-.63-35.4.09-53.06.35-8.45-2.47-14.15-9.09-18.6-1-4.75,3.63-4.46,5.74-6.42l.39,0,.39-.07C96.38,114.3,98.89,114.72,101.43,115.08Z"/><path class="cls-6" d="M105.22,146.68c.31,14.6.27,29.22.6,43.81.11,4.59-.93,7.15-6.12,5.77a1.32,1.32,0,0,1,.27-1c1.23-.55,1.37-1.67,1.43-2.81,2.92-13.63,2.23-27.27.28-40.92l-.28-18.91c0-1.6,0-3.22,0-4.82.92-.57,1.85-1.12,2.78-1.67,2.12,3.41-3.4,10,4.52,11C105.36,139.47,105.14,142.87,105.22,146.68Z"/><path class="cls-1" d="M117.11,120.1l-9.42-.29-1.76-.66c-1.92,2-1.32,4.58-1.7,6.93,2.12,3.41-3.4,10,4.52,11,4.53-.94,9.06-1.47,11-7,.63-1.73,3.58-3,5.71-3.71,2.87-1,4.44-2.53,4.22-5.64C125.62,119,121.34,120,117.11,120.1Zm-6.25,3h0S110.86,123.08,110.86,123.08Z"/><path class="cls-2" d="M163.46,107.56c-8.11,6.22-16.32,12.17-27.44,10.63-.11-1.1-.24-2.2-.35-3.28-3.16-2.25-6.14-5.11-10.48-2.66-5.5-3.85-5.5-3.85-6.61-1.17-1.76-1-2.16-3.62-4.56-3.87,6.49-5.33,12.92-1.68,17.88,1.73,8.83,6,16.66,5.73,24.81-.32C158.88,107,161.15,107.48,163.46,107.56Z"/><path class="cls-2" d="M57.68,16.34c4.59,1.84,11.19-5.42,14.31,3.14-5.61,8.16-13.64,9-22.62,7.34,0-2.64,4.81-3.69,2.55-7.1.68-.65,1.36-1.3,2-1.93-.05.69-.29,1.79.7,1.62,1.28-.21.63-1.45.62-2.3Z"/><path class="cls-2" d="M153.51,71c0-2.93-2.68-4.28-4.71-7.17,6.53.52,11.06,4,16.12,5.8,2.52.9,4.75,2.14,7.19.09,4.31,3.18,2.76,8.3,4.14,12.46-8.1.36-10.69-7.94-16.8-10.7l-6.08-.3Z"/><path class="cls-7" d="M101.43,115.08c-2.54-.36-5.05-.78-6.79-3,0-.38,0-.77,0-1.15l-.73,1.19c-2.11,2-6.76,1.67-5.74,6.42v0c1.82-4.1-2.38-7.31-1.67-11.25,3.31-3,6.71-7.33,9.57.34.63,1.68,1.53,1.43,2.94,1.33C105.7,108.54,104.76,111.37,101.43,115.08Z"/><path class="cls-1" d="M136,118.19a7.59,7.59,0,0,0-6.29,2.57c-4.11-1.81-8.39-.77-12.62-.66l-9.42-.29-1.76-.66c.15-1.43.31-2.86.47-4.29a63.93,63.93,0,0,0,6.75,1.79c4.29.7,6.45-1,5.43-5.57,1.11-2.68,1.11-2.68,6.61,1.17-.5,2-4.08,1.23-3.58,4.33,4.81.12,9.6.78,14.06-1.67C135.78,116,135.91,117.09,136,118.19Z"/><path class="cls-2" d="M130.82,48.75l-4.24-1.07c.1-.89.19-1.79.29-2.68l1.27-2,0,0c2.29.18,3.22-1,3.16-3.16l0,0c1,0,2.06,0,3.08.12,2.17.2,5.17-1,6.08,1.81s-2.21,3.55-3.89,5a7.52,7.52,0,0,0-1.22,1.91Z"/><path class="cls-2" d="M172,101.83c-2-6.5,2-11.28,4.76-16.42C177.25,91.5,176.47,97.21,172,101.83Z"/><path class="cls-2" d="M27.76,99.57c4.15,2.86,8.12,5.87,9,11.32-5-1.41-7.2-5.53-9.23-9.77C27.61,100.6,27.69,100.09,27.76,99.57Z"/><path class="cls-2" d="M135.86,47.82c5.25.49,10.7-1.53,15.76,1.26C146.36,48.81,140.9,51,135.86,47.82Z"/><path class="cls-2" d="M166,106.24c.23-3.5,1.14-6,5.38-3.74A7.35,7.35,0,0,1,166,106.24Z"/><path class="cls-8" d="M55.28,17.11c0,.85.66,2.09-.62,2.3-1,.17-.75-.93-.7-1.62Z"/><path class="cls-9" d="M36.63,110.69l1.93,1.3Z"/><path class="cls-10" d="M156.26,49.6c1.15-1.58,1.37-.49,1.61.57Z"/><path class="cls-1" d="M113.15,116.65a63.93,63.93,0,0,1-6.75-1.79c.52-2.76.08-5.89,2.92-7.79l.74.17.77-.12,3.19.09c2.4.25,2.8,2.84,4.56,3.87C119.6,115.68,117.44,117.35,113.15,116.65Z"/><path class="cls-11" d="M153.37,71.13l6.08.3C157.29,74.15,155.11,77.1,153.37,71.13Z"/><path class="cls-10" d="M110.83,107.12l-.77.12-.74-.17c.25-.63.52-1.24.79-1.86C110.34,105.84,110.58,106.49,110.83,107.12Z"/><path class="cls-4" d="M126.87,45c-.1.89-.19,1.79-.29,2.68-3,3.59,1.32,4.49,2.55,6.22,2.14,3,8.17,4.15,7.5,7.51-.52,2.56-5.71,4.68-9.19,6a200,200,0,0,1-20.7,6.75c-5.29,1.43-6.24-3.17-6.55-6.56a83.71,83.71,0,0,1,0-18.72c.68-4.91,1.48-9.75,1.24-14.69-.28-5.7,2.2-5.45,6-3.11,6.09,3.74,11,9.31,18.1,11.5.36.07.73.16,1.09.25C126.68,43.58,126.78,44.29,126.87,45Z"/><path class="cls-2" d="M126.59,42.87c-.36-.09-.73-.18-1.09-.25-.14-2.49-.29-5-.44-7.45,2-1.79,4-1.42,6,.11.07,1.52.14,3,.2,4.56l0,0c-2.3-.21-3.13,1.07-3.16,3.16l0,0A5,5,0,0,0,126.59,42.87Z"/><path class="cls-12" d="M131.06,35.28c-2-1.53-4-1.9-6-.11-2.19-1.8-2-3.45.37-4.88,1.34-.83,2.86-1.72,4.26-.39S134.24,32.58,131.06,35.28Z"/><path class="cls-5" d="M101.39,132.58l.3,18.89c-1.09,12.58.91,25.27-1.24,37.82-.15-18-.31-36-.37-54C100.08,134.37,100.94,133.47,101.39,132.58Z"/><path class="cls-13" d="M100.45,189.29c2.15-12.55.15-25.24,1.24-37.82,2,13.66,2.64,27.31-.29,40.93a6.38,6.38,0,0,0-1-.66Z"/><path class="cls-14" d="M100.43,191.74a6.38,6.38,0,0,1,1,.66c-.06,1.15-.2,2.26-1.43,2.81C100.12,194.05,100.28,192.89,100.43,191.74Z"/><path class="cls-1" d="M93.86,112.17l.73-1.19c0,.38,0,.77,0,1.15l-.39.07Z"/><path class="cls-15" d="M110.88,123.07s0,0,0,0h0Z"/><path class="cls-1" d="M135.68,114.91c-4.48,2.46-9.27,1.79-14.07,1.66-.51-3.1,3.08-2.37,3.58-4.32C129.53,109.8,132.52,112.67,135.68,114.91Z"/><path class="cls-11" d="M128.12,43c0-2.09.86-3.37,3.16-3.16C131.34,42,130.41,43.16,128.12,43Z"/><path class="cls-11" d="M126.59,42.87a5,5,0,0,1,1.55.09l-1.27,2C126.78,44.29,126.68,43.58,126.59,42.87Z"/><path class="cls-15" d="M110.88,123.07s0,0,0,0h0Z"/></g><g id="_4_RESJE" data-name="4 RESJE"><path class="cls-13" d="M152.85,208l-1.6.12c-1.59-.25-1.64-1.47-1.86-2.72-.52-3-1.16-6-1.75-9-.07,2.69-1.56,5-2,7.49l-.24,1.64c-.89.64-.63,1.66-.82,2.53l-1.89,0c0-1.1.56-2.22-.39-3.6v3.61l-.16.12c-2.4-.23-1.78-2.08-1.74-3.46a195.06,195.06,0,0,1,2.06-25.79c.73-4.49.64-9.21,2.73-14.22.63,5.49-.22,10.14-.93,14.72s-.24,9.15-.49,14.59A18.12,18.12,0,0,0,147,183.59a7.47,7.47,0,0,1,.55-4c2.82-5.19,4.43-10.61,3.13-16.68-.36-1.69-1.07-3.81.54-5.48l0-.05a7.27,7.27,0,0,1,.51,2.38c-.36,2.54,3,2.82,3,5.06a10,10,0,0,0-.3,6.42c1,4.66,1.85,9.38,2.77,14.18,2.73-1.05,1-5.08,4.1-5.68v6.64c-1.88.72-2.24,2.66-2.29,4.07-.17,4.81-1.25,9.61-.32,14.44,0,.4,0,.79,0,1.18-.3,1-.39,2.06-1.6,2.42a.43.43,0,0,0-.72-.06l-1.2-.35a32,32,0,0,0-.91-11c.17-.55.16-1.16-.55-1s-.48.74-.15,1.2C153.4,200.82,153.78,204.43,152.85,208Z"/><path class="cls-13" d="M122.93,207.8l-1.62.53a3.51,3.51,0,0,1-2.07-2.27c-.55-1.32-1.25-1-2.11-.44-.95-3.35,1.62-7.34-1.82-10.25-1.4,1.27-.69,3.84-2.9,4.56-.37-2.4-.75-4.8-1.12-7.2-1.38,4.19-.35,8.35-.5,12.5-.06,1.64.13,3-2,3.18s-2.33-1.51-2.36-3.06c-.27-11.18-2.06-22.19-3.91-33.18-.25-1.55.45-1.22,1.29-.71,1.71,4.75,3.23,9.6,6.48,14.27.82-5.26-1.84-9.1-2.74-13.32a2.55,2.55,0,0,1,2.11-1.12c1.78,2.18,1.9,5.15,3.83,7.46-.64-5-.37-9.86-.46-14.75,0-2.78.74-5.73-.84-8.39l.77-.88c1.49,1.47,1.42,3.47,1.68,5.31,1.13,7.8,2.15,15.62,3.21,23.44-.51,2.92-.9,5.83.88,8.52C120,197.3,122.26,202.34,122.93,207.8Z"/><path class="cls-13" d="M138.66,190.33c1,5.4-.42,10.68-.16,16.71-2.18-2.43.15-5.44-2.58-6.8-.76-1.12-.49-2.36-.42-3.59s2.9-2.43.68-3.19c-2-.68-.86,2.25-1.76,3.23-.18.2-.34.43-.52.64-.65,0-1.8,2.21-1.83-.46,0-1.08.5-2.57-1.39-2.76l-.63-19.41c.23-9.56.4-19.13.77-28.69,0-.81-1.33-2.89,1.25-2.79,1.94,10.63,3.79,21.24,3.54,32.15-.09,3.68-1.85,7.46.27,11.11.33-.93.69-1.92,1-2.92C137.49,185.82,137.23,188.29,138.66,190.33Zm-5.41,5.28h.27v-1.81h-.27Z"/><path class="cls-13" d="M127.24,168.54c.36,2.06.71,4.12,1.07,6.17.34,4.48.84,8.95,1,13.43.19,5.8,1.28,11.65-.48,17.41v-9.24c-2.31,3.89-.89,7.74-.83,11.58a.29.29,0,0,1,0,.47l-.82-.17-1.64.41c-1.58-1.47-1.43-3.42-1.68-5.35-.87-6.75-1.29-13.59-3.63-20.07,0-1.76,0-3.52,0-5.28-.32-4.29-1.55-8.51-1.23-13.49,4.71,9.53,5.49,19.34,6.92,29.46.76-5.06-.27-9.59-.17-14.14.08-.08.23-.17.22-.22a2.79,2.79,0,0,0-.2-.55l0-5.24c.8-1.33.47-2.69.1-4A1.32,1.32,0,0,1,127.24,168.54Z"/><path class="cls-13" d="M141.71,167.11c.07,6-1.13,11.92-2.39,17.79-1.76-.85-.83-3.2-2.34-4.19-1.07-2.23-.59-4.61-.58-6.92,0-7.43.24-14.87.38-22.31.13-1.1.26-2.2.38-3.3.58-.75,1.64-1.08,2.61-2.18v19.78A1.93,1.93,0,0,0,141.71,167.11Z"/><path class="cls-14" d="M112.41,199.93c2.21-.72,1.5-3.29,2.9-4.56,3.44,2.91.87,6.9,1.82,10.25a3.63,3.63,0,0,0,0,.57c-1.35.61-2.45,2.5-4.22.78h0C111.87,204.68,112.47,202.29,112.41,199.93Z"/><path class="cls-14" d="M130.68,194.11c1.89.19,1.37,1.68,1.39,2.76,0,2.67,1.18.49,1.83.46.43,1.89-1.58,4.4,1.42,5.66a4.41,4.41,0,0,1-.72,3.29c-1.37.51-2.11,2.55-4,1.65Q130.61,201,130.68,194.11Z"/><path class="cls-16" d="M107.59,172.41l-1-.89c-1.09-3,1-6,.09-9.07l1.13,1.63c-.07,2.58,2.73,4.43,1.86,7.21A2.56,2.56,0,0,0,107.59,172.41Z"/><path class="cls-14" d="M128.82,205.55c0,.8,0,1.6,0,2.4l-.81-.06c-.06-3.84-1.48-7.69.83-11.58Z"/><path class="cls-16" d="M139.62,137.4v6.17c-2.64-1.88-1.14-4.3-1.74-6.18C138.46,136.59,139,136.51,139.62,137.4Z"/><path class="cls-16" d="M127.18,168.54c-1.59.17-1.66-1.1-2-2.12.45-1-.79-2.12.56-3.21A8.2,8.2,0,0,1,127.18,168.54Z"/><path class="cls-17" d="M158.57,206.08c0-.39,0-.78,0-1.18C158.57,205.3,158.57,205.69,158.57,206.08Z"/><path class="cls-13" d="M112.88,207h0l-.28.56c0-.12-.07-.26,0-.36S112.77,207,112.88,207Z"/><path class="cls-17" d="M127.16,208.19l.82.17Z"/><path class="cls-13" d="M156.25,208.44a.43.43,0,0,1,.72.06l-.37.15Z"/><path class="cls-16" d="M154.14,197.06a.77.77,0,0,1-.71.18c-.32-.46-.47-1.07.16-1.2S154.31,196.51,154.14,197.06Z"/><path class="cls-18" d="M120.21,183.18,118.77,192c-1.78-2.69-1.39-5.6-.88-8.52a9.57,9.57,0,0,1,2.33-5.58C120.22,179.66,120.21,181.42,120.21,183.18Z"/><path class="cls-16" d="M135.32,203c-3-1.26-1-3.77-1.42-5.66.18-.21.34-.44.52-.64.9-1-.23-3.91,1.76-3.23,2.22.76-.62,2-.68,3.19s-.34,2.47.42,3.59S135.93,202.16,135.32,203Z"/><path class="cls-18" d="M141.71,167.11a1.93,1.93,0,0,1-1.94-1.33l2.4-8C143.42,161,142.26,164,141.71,167.11Z"/><path class="cls-14" d="M136.92,183.56l.06-2.85c1.51,1,.58,3.34,2.34,4.19l-.66,5.43C137.23,188.29,137.49,185.82,136.92,183.56Z"/><path class="cls-14" d="M133.25,195.61V193.8h.27v1.81Z"/><path class="cls-16" d="M125.79,173.72a6.87,6.87,0,0,1,.1-4C126.26,171,126.59,172.39,125.79,173.72Z"/><path class="cls-16" d="M125.74,179.73a.78.78,0,0,1,0-.77,2.79,2.79,0,0,1,.2.55C126,179.56,125.82,179.65,125.74,179.73Z"/><path class="cls-13" d="M119.86,215.22l-1.6.12c-1.59-.25-1.64-1.47-1.86-2.72-.52-3-1.16-6-1.76-9-.06,2.7-1.55,5-2,7.5l-.24,1.64c-.89.64-.63,1.66-.82,2.53h-1.89c0-1.09.56-2.21-.39-3.6v3.62l-.16.12c-2.4-.23-1.78-2.08-1.74-3.46a193.11,193.11,0,0,1,2.06-25.79c.73-4.49.64-9.21,2.73-14.22.63,5.49-.22,10.14-.93,14.72s-.25,9.15-.49,14.59A18.12,18.12,0,0,0,114,190.85a7.47,7.47,0,0,1,.55-4c2.82-5.19,4.42-10.61,3.13-16.68-.36-1.69-1.08-3.81.54-5.48l0,0a7.17,7.17,0,0,1,.51,2.38c-.37,2.54,3,2.82,3,5.06a10.07,10.07,0,0,0-.29,6.42c1,4.66,1.85,9.37,2.77,14.18,2.73-1.05,1-5.09,4.1-5.68v6.64c-1.88.71-2.24,2.66-2.29,4.07-.17,4.81-1.25,9.61-.32,14.44,0,.39,0,.79,0,1.18-.3,1-.39,2.06-1.6,2.41a.43.43,0,0,0-.72-.05l-1.2-.35a31.84,31.84,0,0,0-.92-11c.18-.54.17-1.16-.54-1s-.48.74-.15,1.2C120.41,208.08,120.79,211.68,119.86,215.22Z"/><path class="cls-13" d="M89.94,215.06l-1.62.53a3.56,3.56,0,0,1-2.07-2.27c-.55-1.32-1.25-1-2.11-.44-1-3.35,1.62-7.34-1.82-10.25-1.4,1.26-.69,3.84-2.9,4.56-.37-2.4-.75-4.8-1.12-7.2-1.38,4.19-.35,8.35-.5,12.49-.06,1.65.13,3-2,3.19-2.24.16-2.33-1.51-2.36-3.06-.27-11.18-2.06-22.19-3.91-33.18-.26-1.55.45-1.22,1.29-.72,1.71,4.76,3.23,9.6,6.48,14.28.82-5.26-1.84-9.1-2.74-13.32a2.53,2.53,0,0,1,2.11-1.12c1.78,2.18,1.9,5.15,3.83,7.46-.64-5-.37-9.86-.46-14.75,0-2.79.74-5.74-.84-8.39.26-.3.52-.59.77-.89,1.49,1.48,1.42,3.48,1.68,5.32,1.13,7.8,2.15,15.62,3.21,23.43-.51,2.93-.9,5.84.88,8.53C87,204.56,89.27,209.6,89.94,215.06Z"/><path class="cls-13" d="M105.67,197.59c1,5.4-.42,10.68-.16,16.7-2.18-2.42.15-5.44-2.58-6.79-.76-1.12-.49-2.36-.42-3.59s2.9-2.44.68-3.19c-2-.68-.86,2.24-1.76,3.23-.18.2-.34.42-.52.64-.65,0-1.8,2.21-1.83-.47,0-1.07.5-2.57-1.39-2.76L97.06,182c.23-9.57.4-19.13.77-28.69,0-.81-1.33-2.89,1.25-2.8,1.94,10.63,3.79,21.25,3.54,32.15-.09,3.69-1.85,7.47.27,11.12l1-2.92C104.5,193.08,104.24,195.55,105.67,197.59Zm-5.41,5.28h.27v-1.81h-.27Z"/><path class="cls-13" d="M94.25,175.8c.36,2.06.71,4.12,1.07,6.17.34,4.48.84,8.95,1,13.43.19,5.8,1.28,11.65-.48,17.41v-9.25c-2.31,3.9-.89,7.74-.83,11.59a.28.28,0,0,1,0,.46l-.82-.16-1.64.41c-1.58-1.47-1.43-3.42-1.68-5.35-.87-6.75-1.29-13.59-3.63-20.07,0-1.76,0-3.52,0-5.28-.32-4.29-1.55-8.51-1.23-13.49,4.71,9.52,5.49,19.34,6.92,29.45.76-5.06-.27-9.58-.17-14.14.08-.07.23-.16.22-.22a3,3,0,0,0-.2-.54l0-5.24c.8-1.33.47-2.69.1-4A1.32,1.32,0,0,1,94.25,175.8Z"/><path class="cls-13" d="M108.72,174.37c.06,6-1.13,11.92-2.39,17.79-1.76-.85-.83-3.2-2.34-4.19-1.07-2.23-.59-4.62-.58-6.92,0-7.44.24-14.87.38-22.31.13-1.1.26-2.2.38-3.31.58-.74,1.64-1.07,2.61-2.17V173A1.93,1.93,0,0,0,108.72,174.37Z"/><path class="cls-14" d="M79.42,207.19c2.21-.72,1.5-3.3,2.9-4.56,3.44,2.91.87,6.9,1.82,10.25a3.63,3.63,0,0,0,0,.57c-1.35.61-2.45,2.5-4.22.78h0C78.88,211.94,79.48,209.55,79.42,207.19Z"/><path class="cls-14" d="M97.69,201.36c1.89.19,1.37,1.69,1.39,2.76,0,2.68,1.18.5,1.83.46.43,1.9-1.58,4.41,1.42,5.67a4.37,4.37,0,0,1-.73,3.29c-1.36.51-2.1,2.55-4,1.65Q97.62,208.28,97.69,201.36Z"/><path class="cls-16" d="M74.6,179.67l-1-.89c-1.09-3,1-6,.09-9.07l1.13,1.63c-.07,2.58,2.73,4.43,1.85,7.21A2.53,2.53,0,0,0,74.6,179.67Z"/><path class="cls-14" d="M95.83,212.81c0,.8,0,1.6,0,2.4l-.81-.06c-.06-3.85-1.48-7.69.83-11.59Z"/><path class="cls-16" d="M106.63,144.66v6.17c-2.64-1.89-1.14-4.3-1.74-6.18C105.47,143.85,106.05,143.77,106.63,144.66Z"/><path class="cls-16" d="M94.19,175.8c-1.6.16-1.66-1.11-2-2.12.45-1-.79-2.13.56-3.21A8.2,8.2,0,0,1,94.19,175.8Z"/><path class="cls-17" d="M125.58,213.34c0-.39,0-.79,0-1.18C125.58,212.56,125.58,213,125.58,213.34Z"/><path class="cls-13" d="M79.89,214.23h0c-.1.18-.19.37-.28.56,0-.12-.07-.27,0-.36S79.78,214.3,79.89,214.23Z"/><path class="cls-17" d="M94.17,215.45l.82.16Z"/><path class="cls-13" d="M123.26,215.7a.43.43,0,0,1,.72.05l-.37.16Z"/><path class="cls-16" d="M121.14,204.31a.73.73,0,0,1-.7.19c-.32-.46-.48-1.07.16-1.2S121.32,203.77,121.14,204.31Z"/><path class="cls-18" d="M87.22,190.44l-1.44,8.82c-1.78-2.69-1.39-5.6-.88-8.53a9.62,9.62,0,0,1,2.33-5.58C87.23,186.92,87.22,188.68,87.22,190.44Z"/><path class="cls-16" d="M102.33,210.25c-3-1.26-1-3.77-1.42-5.67.18-.21.34-.43.52-.63.9-1-.23-3.91,1.76-3.23,2.22.75-.62,2-.68,3.19s-.34,2.47.42,3.59S102.94,209.42,102.33,210.25Z"/><path class="cls-18" d="M108.72,174.37a1.93,1.93,0,0,1-1.94-1.33l2.4-8C110.43,168.28,109.27,171.3,108.72,174.37Z"/><path class="cls-14" d="M103.93,190.82,104,188c1.51,1,.58,3.34,2.34,4.19l-.66,5.43C104.24,195.55,104.5,193.08,103.93,190.82Z"/><path class="cls-14" d="M100.26,202.87v-1.81h.27v1.81Z"/><path class="cls-16" d="M92.8,181a6.9,6.9,0,0,1,.1-4C93.27,178.29,93.6,179.65,92.8,181Z"/><path class="cls-16" d="M92.75,187a.76.76,0,0,1,0-.76,3,3,0,0,1,.2.54C93,186.82,92.83,186.91,92.75,187Z"/><path class="cls-13" d="M96.1,209.61l-1.59.12c-1.59-.25-1.65-1.47-1.86-2.72-.53-3-1.17-6-1.76-9-.06,2.69-1.55,5-2,7.49l-.24,1.64c-.89.64-.64,1.66-.83,2.53H86c0-1.09.56-2.21-.39-3.59v3.61l-.16.12c-2.4-.23-1.79-2.08-1.75-3.46a195.07,195.07,0,0,1,2.07-25.79c.73-4.49.63-9.21,2.73-14.22.63,5.49-.22,10.14-.94,14.72s-.24,9.15-.48,14.59a18,18,0,0,0,3.15-10.43,7.38,7.38,0,0,1,.56-4c2.81-5.19,4.42-10.61,3.13-16.68-.36-1.69-1.08-3.81.54-5.48l0-.05a7,7,0,0,1,.52,2.38c-.37,2.54,2.94,2.82,3,5.06a10,10,0,0,0-.29,6.42c1,4.66,1.84,9.38,2.77,14.18,2.73-1.05,1-5.08,4.1-5.68V188c-1.88.72-2.24,2.66-2.29,4.07-.18,4.81-1.25,9.61-.33,14.44,0,.4,0,.79,0,1.18-.29,1-.39,2.06-1.59,2.41a.44.44,0,0,0-.72,0l-1.2-.35a31.78,31.78,0,0,0-.92-11c.18-.55.17-1.17-.54-1s-.48.74-.16,1.2C96.66,202.47,97,206.08,96.1,209.61Z"/><path class="cls-13" d="M66.18,209.45l-1.61.53a3.55,3.55,0,0,1-2.08-2.27c-.54-1.32-1.24-1-2.1-.44-1-3.35,1.61-7.34-1.82-10.25-1.41,1.26-.69,3.84-2.9,4.56q-.57-3.6-1.12-7.2c-1.39,4.19-.36,8.35-.5,12.49-.06,1.65.12,3-2,3.19-2.24.16-2.33-1.51-2.37-3.06-.26-11.18-2-22.19-3.9-33.18-.26-1.55.45-1.22,1.29-.71,1.71,4.75,3.23,9.6,6.48,14.27.82-5.26-1.85-9.1-2.74-13.32A2.55,2.55,0,0,1,53,172.94c1.78,2.18,1.9,5.15,3.82,7.46-.63-5-.36-9.86-.45-14.75,0-2.78.74-5.73-.84-8.39.25-.3.51-.59.77-.88,1.48,1.47,1.42,3.47,1.68,5.31,1.13,7.8,2.15,15.62,3.21,23.43-.52,2.93-.9,5.84.88,8.53C63.28,199,65.52,204,66.18,209.45Z"/><path class="cls-13" d="M81.92,192c1,5.4-.42,10.68-.16,16.71-2.18-2.43.15-5.45-2.59-6.8-.76-1.12-.48-2.36-.42-3.59s2.91-2.43.68-3.19c-2-.68-.85,2.25-1.75,3.23-.19.2-.35.43-.52.64-.65,0-1.8,2.21-1.84-.47,0-1.07.51-2.56-1.38-2.75l-.63-19.41c.23-9.57.4-19.13.77-28.69,0-.81-1.34-2.89,1.25-2.79,1.94,10.63,3.78,21.24,3.53,32.15-.08,3.68-1.84,7.46.27,11.11.34-.93.69-1.93,1.05-2.92C80.75,187.47,80.49,189.94,81.92,192Zm-5.41,5.28h.27v-1.81h-.27Z"/><path class="cls-13" d="M70.5,170.19c.36,2.06.71,4.12,1.07,6.17.34,4.48.84,8.95,1,13.43.2,5.8,1.28,11.65-.47,17.41V198c-2.31,3.89-.89,7.73-.84,11.58a.28.28,0,0,1,0,.46l-.82-.16-1.64.41c-1.58-1.47-1.43-3.42-1.68-5.35-.87-6.75-1.29-13.59-3.63-20.07,0-1.76,0-3.52,0-5.28-.33-4.29-1.55-8.51-1.24-13.49,4.72,9.53,5.5,19.34,6.92,29.45.77-5.06-.26-9.58-.17-14.13.08-.08.24-.17.23-.22a3.62,3.62,0,0,0-.2-.55l0-5.24c.8-1.33.47-2.69.1-4A1.31,1.31,0,0,1,70.5,170.19Z"/><path class="cls-13" d="M85,168.76c.06,6-1.13,11.92-2.4,17.79-1.75-.85-.82-3.2-2.34-4.19-1.06-2.23-.58-4.62-.57-6.92,0-7.44.24-14.87.38-22.31.13-1.1.25-2.2.38-3.31.57-.74,1.64-1.07,2.6-2.17v19.78A1.94,1.94,0,0,0,85,168.76Z"/><path class="cls-14" d="M55.67,201.58c2.21-.72,1.49-3.3,2.9-4.56,3.43,2.91.86,6.9,1.82,10.25a3.64,3.64,0,0,0,0,.57c-1.34.61-2.45,2.5-4.22.78h0C55.13,206.33,55.73,203.94,55.67,201.58Z"/><path class="cls-14" d="M73.94,195.76c1.89.19,1.37,1.68,1.38,2.75,0,2.68,1.19.5,1.84.47.43,1.89-1.58,4.4,1.41,5.66a4.37,4.37,0,0,1-.72,3.29c-1.36.51-2.1,2.55-4,1.65Q73.87,202.67,73.94,195.76Z"/><path class="cls-16" d="M50.85,174.06l-1-.89c-1.1-3,1-6,.09-9.07l1.13,1.63c-.07,2.58,2.73,4.43,1.85,7.21A2.55,2.55,0,0,0,50.85,174.06Z"/><path class="cls-14" d="M72.08,207.2c0,.8,0,1.6,0,2.4l-.82-.06c0-3.85-1.47-7.69.84-11.58Z"/><path class="cls-16" d="M82.87,139.05v6.17c-2.63-1.89-1.14-4.3-1.73-6.18C81.72,138.24,82.3,138.16,82.87,139.05Z"/><path class="cls-16" d="M70.43,170.19c-1.59.17-1.65-1.1-2-2.12.46-1-.79-2.12.57-3.21A8.14,8.14,0,0,1,70.43,170.19Z"/><path class="cls-17" d="M101.82,207.73c0-.39,0-.78,0-1.18C101.83,207,101.83,207.34,101.82,207.73Z"/><path class="cls-13" d="M56.14,208.62h0l-.27.56c0-.12-.07-.26,0-.36S56,208.69,56.14,208.62Z"/><path class="cls-17" d="M70.42,209.84l.82.16Z"/><path class="cls-13" d="M99.51,210.09a.44.44,0,0,1,.72,0l-.38.16Z"/><path class="cls-16" d="M97.39,198.71a.75.75,0,0,1-.7.18c-.32-.46-.48-1.07.16-1.2S97.57,198.16,97.39,198.71Z"/><path class="cls-18" d="M63.47,184.83,62,193.65c-1.78-2.69-1.4-5.6-.88-8.53a9.5,9.5,0,0,1,2.33-5.57C63.47,181.31,63.47,183.07,63.47,184.83Z"/><path class="cls-16" d="M78.57,204.64c-3-1.26-1-3.77-1.41-5.66.17-.21.33-.44.52-.64.9-1-.23-3.91,1.75-3.23,2.23.76-.62,2-.68,3.19s-.34,2.47.42,3.59S79.19,203.81,78.57,204.64Z"/><path class="cls-18" d="M85,168.76a1.94,1.94,0,0,1-2-1.33l2.4-8C86.68,162.67,85.52,165.69,85,168.76Z"/><path class="cls-14" d="M80.18,185.21c0-1,0-1.9,0-2.85,1.52,1,.59,3.34,2.34,4.19-.22,1.81-.43,3.62-.65,5.43C80.49,189.94,80.75,187.47,80.18,185.21Z"/><path class="cls-14" d="M76.51,197.26v-1.81h.27v1.81Z"/><path class="cls-16" d="M69.05,175.37a6.87,6.87,0,0,1,.1-4C69.52,172.68,69.85,174,69.05,175.37Z"/><path class="cls-16" d="M69,181.38a.81.81,0,0,1,0-.77,3.62,3.62,0,0,1,.2.55C69.23,181.21,69.07,181.3,69,181.38Z"/></g></g></g></svg>