<svg xmlns="http://www.w3.org/2000/svg" viewBox="0 0 63.59 91.25"><defs><style>.cls-1{fill:#d66900;}.cls-2{fill:#f3861e;}.cls-3{fill:#b7b7b7;}.cls-4{fill:none;stroke:#e8d2a7;stroke-linecap:round;stroke-miterlimit:10;stroke-width:2.66px;}</style></defs><title>Asset 6kladivo</title><g id="Layer_2" data-name="Layer 2"><g id="LEVELI"><g id="_1._PRAZGODOVINSKA_OBDOBJA" data-name="1. PRAZGODOVINSKA OBDOBJA"><path class="cls-1" d="M48.64,1.07l1.47.74a4.5,4.5,0,0,1,2,6l-41,80.93a4.48,4.48,0,0,1-6,2L3.61,90Z"/><path class="cls-2" d="M47.49.49l1.15.58-45,89-1.15-.58a4.49,4.49,0,0,1-2-6l41-80.94A4.49,4.49,0,0,1,47.49.49Z"/><path class="cls-3" d="M38,38.48,19.17,30.34a15.31,15.31,0,0,1-7.93-20.08h0A15.3,15.3,0,0,1,31.31,2.33L59.07,14.38c5.23,2.27,5.4,12.52,3.13,17.75h0C57.79,42.3,48.12,42.9,38,38.48Z"/><line class="cls-4" x1="39.35" y1="5.71" x2="37.07" y2="38.73"/><line class="cls-4" x1="51.11" y1="10.64" x2="25.3" y2="33.8"/></g></g></g></svg>