<svg xmlns="http://www.w3.org/2000/svg" viewBox="0 0 232.94 231.16"><defs><style>.cls-1{fill:#52694f;}.cls-2{fill:#475c46;}.cls-3{fill:#253b23;}.cls-4{fill:#5f7656;}.cls-5{fill:#344d39;}.cls-6{fill:#b29648;}.cls-7{fill:#9e9e9e;}.cls-8{fill:#79825c;}.cls-9{fill:#455026;}</style></defs><title>Asset 9</title><g id="Layer_2" data-name="Layer 2"><g id="RASTLINE"><g id="_1_PRAPROT" data-name="1 PRAPROT"><path class="cls-1" d="M9.09,77.68c.84.76,1.67,1.53,2.5,2.3l1.2,5.1A24.76,24.76,0,0,0,9,98.81C1.1,100,5,90.45,0,89V73.67C4.46,71.77,5.86,76.8,9.09,77.68Z"/><path class="cls-2" d="M175.16,126c1.66,9.58,9.59.06,12.93,4.2,1.22,21.44-19,13-28.64,20.68,1.26,8.22,22.32,11.29,7.44,24.26-3.67.89-4,3.73-4,6.78a1.84,1.84,0,0,1-.25,2.22c-11.43,8.23-18.78-1.86-27.43-6.11-.62-3.56,1.78-4.59,4.5-5.34,11.17-3.44,21.78-7,8.13-20.46-1.09-1.08-.59-3.79-.82-5.74a2.47,2.47,0,0,1,.73-2.37c.81-1.22,1.61-2.45,2.41-3.67-.12-2.87,3.92-4.57,1.82-8.83L121,148.35a58.11,58.11,0,0,1-.21-26.84c1.19-5.22.42-7.67-4.95-8.14.72-4.19,5-7.27,3.78-12.07,4.6-3.17,2.78-7.9,3-12.15l0,.18c7.4,1.84,10.83-3.18,14.76-8,8.31-10.24,16.79-20.36,25.67-30.1,2.9-3.18,7.23-6.53,11.9-4.8,6,2.22,2.47,7.67,2.63,11.82-11,4.29-2.1,21.67-18,22.63,5.66,3.73,8.62,0,12.79.57-.39,17.68-18.81,20-26.29,31.23,5,2.67,8.57-1.83,12.89-2.52,6.56,4-1.89,11.54,3.79,15.71-2.23.4-4.86.32-4.67,3.69a1.39,1.39,0,0,0,1,.95c3.38.21,3.32-2.41,3.71-4.64Z"/><path class="cls-3" d="M135.2,178c8.65,4.25,16,14.34,27.43,6.11.91,4.81-1.16,7.41-5.67,9.27-5.1,2.11-9.68,5.26-9.27,11.94-5.09,11.28-14.21,12-24.59,9.35l-.25-.17c-8.91-9.08-16.82-9.47-23.32,2.65-5.24,1.28-11.85,1-10.57,9.55l-18.18,0c2.28-10.23-4-13.9-12.3-15.94a70.74,70.74,0,0,0-3.37-23.73L55,180.79q1-15.18,1.94-30.35,0-11.16.1-22.32c5.65,3.11,5,8.69,4.37,13.48C59.31,156.32,69.72,166,74.3,179c5.51-7.42-2.51-17.56,7.21-22.29v23.77l2.94.2q2.35-15.13,4.69-30.26h1.51l1.52,0,.19,6c-.63,12.94-3,26.52,12.07,33.86,2.78,9.51,10.3,15,19,13.76,8.95-1.25,1.58-11.66,5.5-16.77Z"/><path class="cls-1" d="M81.51,156.67c-9.72,4.73-1.7,14.87-7.21,22.29-4.58-12.92-15-22.64-12.9-37.36.68-4.79,1.28-10.37-4.37-13.48l.17-1.18c5.31-3.72,5.21-7.45,0-11.21C51.74,92,65.56,72.12,71,50.7c2.36-9.2,5.53-1.12,7.52,2.07l2,5.85-1.35-.5c-8.24,3-9.34,9.7-7.57,16.84,1.21,4.91,5.2,3.16,8.45,1.6l2.09,3c-2.72,6.54-4.62,11.63-1.46,20.16,5.42,14.64-9.57,23.82-16.2,35.19.36,2.3.07,5.42,3.49,5.06,1-.1,1.66-2.94,2.48-4.52,7.68-2.92,13.57-3.35,12,7.94C81.8,147.75,81.8,152.23,81.51,156.67Z"/><path class="cls-4" d="M56.93,150.44Q56,165.62,55,180.79c-7.92-5.17-9.17-18.17-21.43-18.24l0-8.33c0-4.87-1.52-7.65-7-5.31l.48-.83-.62.71q-1-7.18-2-14.34c-1.4-3.65-1.75-8.81-4.41-10.69-9-6.33-10.69-15.17-11-25a24.76,24.76,0,0,1,3.81-13.73l5.31,4.25h0l14.8,18.38c.73,3.9,1.53,7.76,4.7,10.56C43.54,129.29,47.74,141.36,56.93,150.44Z"/><path class="cls-1" d="M175.16,126l-12.49-.17h0c-5.68-4.17,2.77-11.75-3.79-15.71,6.12-2.94,10.65-7.33,15.44-12.36,9.06-9.52,11.92-23.67,23.93-30.62,6.39.66,12.87,1.11,16.89,7.26-3.72,8.8-7.7,17.51-11.09,26.44-3.77,9.94-13.18,9.64-21,12.33-15.91-3.92-4.8,8.89-8,12.86Z"/><path class="cls-5" d="M128.82,0c9.91,7.24-.47,16.79,2.24,25.64,1.17,3.79,5.16,15.83-4.64,20.67-10.62,1.56-5.38,9.82-6.51,15.39,0,.93-.12,1.86-.19,2.79-4.41-8.53-10.23-8-16.82-2.63q9.5-26.14,19-52.3Z"/><path class="cls-6" d="M58.48,210.83c8.34,2,14.58,5.71,12.3,15.94C57.9,233,44.94,228.91,32,227.14c-4.21-.58-6.73-2.92-6.62-6.91C25.52,214,27,208,34.25,206l3.26,2.88C40.88,220.4,47.05,211,52,210.8Z"/><path class="cls-5" d="M37.51,208.87,34.25,206c3.25-10.65-10.15-19-4.09-30.07,5.73,9.47,16,8.8,25,11.18a70.74,70.74,0,0,1,3.37,23.73l-6.51,0C48.12,203,42.09,211.31,37.51,208.87Z"/><path class="cls-2" d="M198.25,67.14c5.48-7.49,9.77-16,17.67-21.45,4.94-4,9.86-8.11,17-14-.7,19-18.2,27.07-17.8,42.72C211.12,68.25,204.64,67.8,198.25,67.14Z"/><path class="cls-2" d="M102.9,61.86c6.59-5.41,12.41-5.9,16.82,2.63-.92,7.43,1.18,14.44,3,21.48-.06,1.12-.13,2.23-.2,3.35,0,0,0-.17,0-.17-5-3.05-10.21,5.91-15.22-.17v0c2.23-1.29,1.91-2.29-.35-3.08-5.39-3.88.23-12.2-6.3-15.62Z"/><path class="cls-7" d="M123.1,214.7c10.38,2.64,19.5,1.93,24.59-9.35,7.76,6.34,6.49,16.23,4.18,22.72-1.6,4.47-12.31,3.93-17.81-.59-4.26-3.5-7.12-2.08-10.62.12Q123.26,221.15,123.1,214.7Z"/><path class="cls-6" d="M123.1,214.7q.16,6.45.34,12.9l-.32.05L119.56,230c-10.23-.81-21.08,4.29-30.6-3.23-1.28-8.5,5.33-8.27,10.57-9.54,7.6-2.46,15.43-2.83,23.32-2.66Z"/><path class="cls-2" d="M55.11,187.1c-8.92-2.38-19.22-1.71-24.95-11.18-10.84-7.5,0-9.49,3.4-13.37,12.26.07,13.51,13.07,21.43,18.24Z"/><path class="cls-5" d="M100.74,70.31c6.53,3.42.91,11.74,6.31,15.62.12,1,.23,2,.34,3.08v0l-3.27,2.93-6.52-.06q.08-3.8.13-7.59.43-5.33.86-10.65a1.15,1.15,0,0,0,.11-2A14.58,14.58,0,0,1,100.74,70.31Z"/><path class="cls-8" d="M80.08,76.56c-3.25,1.56-7.24,3.31-8.45-1.6C69.86,67.82,71,61.15,79.2,58.12Q79.63,67.35,80.08,76.56Z"/><path class="cls-2" d="M175.08,126c3.17-4-7.94-16.78,8-12.86.22,5.37,4.63,2.89,7.21,3.84,0,2,.07,3.94.1,5.91Z"/><path class="cls-2" d="M24.38,134.45q1,7.16,2,14.34c-2.8-1.15-5.68-2.12-8.35-3.5-4.5-2.33-4.67-7.52-3.56-10.64C16.77,128.29,21,137.81,24.38,134.45Z"/><path class="cls-2" d="M119.91,61.7c1.13-5.57-4.11-13.83,6.51-15.39L126,70.68Z"/><path class="cls-4" d="M119.91,61.7l6.12,9c-.36,5.25,2.67,11.22-3.26,15.29-1.87-7-4-14-3-21.48C119.79,63.56,119.86,62.63,119.91,61.7Z"/><path class="cls-3" d="M57.2,126.94l-1.62-7.2c.56-1.33,1.12-2.67,1.67-4C62.41,119.49,62.51,123.22,57.2,126.94Z"/><path class="cls-2" d="M26.55,148.91c5.46-2.34,7,.44,7,5.31Z"/><path class="cls-1" d="M190.36,122.92c0-2-.07-3.94-.1-5.91,1.9-.17,3.75-.15,3.63,2.5C193.8,121.69,192.39,122.66,190.36,122.92Z"/><path class="cls-3" d="M162.88,181.92c0-3,.34-5.89,4-6.78C166.33,177.86,165.54,180.44,162.88,181.92Z"/><path class="cls-7" d="M119.56,230l3.56-2.31Z"/><path class="cls-5" d="M147,146.49c.23,1.95-.27,4.66.82,5.74,13.65,13.45,3,17-8.13,20.46-12.65-1.59-19.85,10.8-31.33,12.21-.47-.4-.93-.81-1.37-1.24l-2.56-2.51c2.48-3.75-6.35-10.18,2.92-12.32,5.24.26,16.13,7.15,8.62-7.6-.76-1.49,2.35-5,3.67-7.51C129.21,153,138.9,152.72,147,146.49Z"/><path class="cls-4" d="M115.87,113.37c5.37.47,6.14,2.92,4.95,8.14a58.11,58.11,0,0,0,.21,26.84l-.35-.24c-9.26,3.19-16,4.28-11.36-9.72,1.92-5.83.8-12.67,1.07-19A7.69,7.69,0,0,1,115.87,113.37Z"/><path class="cls-4" d="M104.12,91.91,107.39,89c5,6.08,10.18-2.88,15.22.17-.18,4.25,1.64,9-3,12.15-7.11.88-10,10.75-18.46,8.73C98.12,103.34,101.57,97.7,104.12,91.91Z"/><path class="cls-1" d="M162.67,125.83c-.39,2.23-.33,4.85-3.71,4.64a1.39,1.39,0,0,1-1-.95c-.19-3.37,2.44-3.29,4.67-3.69Z"/><path class="cls-5" d="M147.74,144.12c.81-1.22,1.61-2.45,2.41-3.67C149.35,141.67,148.55,142.9,147.74,144.12Z"/><path class="cls-2" d="M101.19,110c-2.42,5.87-1.34,7,9.2,9.32-.27,6.37.85,13.21-1.07,19-4.59,14,2.1,12.91,11.36,9.72-.34,1.88-.68,3.74-1,5.61-1.32,2.55-4.43,6-3.67,7.51,7.51,14.75-3.38,7.86-8.62,7.6-2.9-6.69-5.74-13.44-15-12.49q-.1-3-.19-6c3.6-6.47,6.39-12.87-1.69-18.26,4.11-13.11.94-27.5,7.12-40.25l6.52.06C101.57,97.7,98.12,103.34,101.19,110Z"/><path class="cls-9" d="M92.36,156.34c9.26-1,12.1,5.8,15,12.49-9.27,2.14-.44,8.57-2.92,12.32l2.56,2.51c.44.43.9.84,1.37,1.24a2,2,0,0,1,.47,1.59l-4.41,3.71C89.32,182.86,91.73,169.28,92.36,156.34Z"/><path class="cls-5" d="M104.43,190.2l4.41-3.71,10.89.86c1,2.17,2,2.23,3,0l6.17-.17c-3.92,5.11,3.45,15.52-5.5,16.77C114.73,205.18,107.21,199.71,104.43,190.2Z"/><path class="cls-7" d="M122.85,214.53c-7.89-.17-15.72.2-23.32,2.66C106,205.06,113.94,205.45,122.85,214.53Z"/><path class="cls-9" d="M90.48,132.1c8.08,5.39,5.29,11.79,1.69,18.26l-1.52,0H89.14C88,144.17,88.8,138.1,90.48,132.1Z"/><path class="cls-3" d="M64.51,134.88l6,.54C69.66,137,69,139.84,68,139.94,64.58,140.3,64.87,137.18,64.51,134.88Z"/><path class="cls-3" d="M37.51,208.87C42.09,211.31,48.12,203,52,210.8,47.05,211,40.88,220.4,37.51,208.87Z"/><path class="cls-4" d="M107.39,89c-.11-1-.22-2.05-.34-3.08C109.3,86.72,109.62,87.72,107.39,89Z"/><path class="cls-3" d="M107,183.66l-2.56-2.51Z"/><path class="cls-3" d="M122.73,187.36c-1,2.22-2,2.16-3,0A4,4,0,0,1,122.73,187.36Z"/></g></g></g></svg>