<svg xmlns="http://www.w3.org/2000/svg" viewBox="0 0 165.83 203.14"><defs><style>.cls-1{fill:#cea849;}.cls-2{fill:#566430;}.cls-3{fill:#9e9e9e;}.cls-4{fill:#e8eee6;}.cls-5{fill:#b29648;}.cls-6{fill:#79825c;}</style></defs><title>Asset 8</title><g id="Layer_2" data-name="Layer 2"><g id="RASTLINE"><g id="_1_RESJE" data-name="1 RESJE"><path class="cls-1" d="M142.25,201.19l-4.51.35c-4.5-.7-4.65-4.17-5.26-7.68-1.48-8.51-3.29-17-5-25.43-.19,7.61-4.4,14-5.58,21.19-.23,1.54-.45,3.08-.68,4.62-2.51,1.82-1.79,4.69-2.33,7.15l-5.33.05c.11-3.09,1.58-6.27-1.1-10.18v10.21l-.44.35c-6.78-.65-5-5.88-4.94-9.79.7-24.39,1.91-48.8,5.83-72.87,2.06-12.7,1.8-26,7.72-40.19,1.79,15.51-.63,28.66-2.64,41.61s-.69,25.86-1.38,41.22c6.73-10.54,9-19.61,8.92-29.47,0-3.75-.54-7.41,1.56-11.28,8-14.66,12.51-30,8.86-47.13-1-4.77-3.05-10.76,1.53-15.48l-.08-.15c.53,2.25,1.76,4.59,1.45,6.72-1,7.18,8.33,8,8.35,14.31-2.59,5.94-2.2,11.87-.82,18.13,2.91,13.19,5.21,26.5,7.82,40.08,7.72-3,2.92-14.37,11.59-16v18.76c-5.32,2-6.33,7.51-6.47,11.5-.5,13.59-3.54,27.17-.92,40.82l0,3.34c-.84,2.71-1.1,5.8-4.51,6.81a1.21,1.21,0,0,0-2-.16l-3.39-1a90,90,0,0,0-2.59-31.18c.49-1.53.46-3.28-1.54-2.87-1.8.36-1.35,2.09-.43,3.38C143.81,181,144.89,191.21,142.25,201.19Z"/><path class="cls-1" d="M57.7,200.74l-4.58,1.5c-3.15-1-4.74-3.71-5.85-6.41-1.55-3.74-3.53-3-6-1.25-2.7-9.46,4.57-20.73-5.14-29-4,3.57-2,10.85-8.2,12.9q-1.59-10.19-3.16-20.36c-3.92,11.85-1,23.6-1.42,35.31-.16,4.65.35,8.57-5.53,9-6.33.45-6.59-4.26-6.69-8.65-.75-31.6-5.81-62.69-11-93.77-.73-4.37,1.26-3.45,3.64-2,4.82,13.44,9.12,27.13,18.32,40.34,2.32-14.87-5.22-25.71-7.74-37.65a7.15,7.15,0,0,1,6-3.16c5,6.16,5.37,14.56,10.8,21.09-1.8-14-1-27.87-1.28-41.69-.15-7.87,2.09-16.21-2.38-23.71l2.18-2.5c4.2,4.17,4,9.83,4.75,15,3.18,22,6.07,44.15,9.07,66.23C42,140.27,40.92,148.5,46,156.09,49.49,171.07,55.81,185.32,57.7,200.74Z"/><path class="cls-1" d="M102.16,151.38c2.9,15.25-1.19,30.17-.45,47.2-6.16-6.86.43-15.37-7.31-19.19-2.14-3.18-1.36-6.68-1.18-10.16.16-3.33,8.21-6.87,1.92-9-5.61-1.91-2.41,6.36-5,9.15-.52.56-1,1.19-1.46,1.79-1.84.08-5.09,6.26-5.2-1.31,0-3,1.44-7.26-3.92-7.8q-.88-27.42-1.76-54.84c.63-27,1.12-54.06,2.17-81.07.09-2.29-3.78-8.17,3.52-7.89,5.5,30,10.7,60,10,90.85-.24,10.4-5.2,21.09.77,31.41.94-2.64,1.95-5.44,2.95-8.25C98.86,138.64,98.12,145.62,102.16,151.38ZM86.87,166.3l.77,0v-5.12l-.77,0Z"/><path class="cls-1" d="M69.9,89.81q1.5,8.72,3,17.44c1,12.64,2.37,25.27,2.79,37.94.54,16.4,3.61,32.93-1.35,49.19V168.26c-6.53,11-2.51,21.87-2.35,32.73a.81.81,0,0,1,0,1.32l-2.33-.46L65,203c-4.46-4.16-4.05-9.67-4.75-15.12-2.46-19.07-3.65-38.4-10.26-56.72q0-7.47,0-14.92c-.9-12.13-4.36-24-3.48-38.12,13.32,26.92,15.53,54.66,19.56,83.23,2.15-14.29-.74-27.09-.48-40,.22-.21.66-.46.63-.62a9.31,9.31,0,0,0-.56-1.55l.09-14.81c2.25-3.75,1.31-7.58.27-11.42C66.6,91.05,67.72,89.8,69.9,89.81Z"/><path class="cls-1" d="M110.77,85.75c.19,17.09-3.18,33.7-6.76,50.28-5-2.4-2.33-9-6.61-11.83-3-6.3-1.66-13-1.63-19.56.11-21,.69-42,1.08-63l1.08-9.35c1.62-2.1,4.63-3,7.36-6.14q0,27.95,0,55.89C106.38,84.31,108,85.92,110.77,85.75Z"/><path class="cls-2" d="M28,178.52c6.24-2.05,4.23-9.33,8.2-12.9,9.71,8.23,2.44,19.5,5.14,29a9.66,9.66,0,0,0-.1,1.62c-3.79,1.73-6.92,7.07-11.92,2.19v0C26.45,191.94,28.14,185.16,28,178.52Z"/><path class="cls-2" d="M79.6,162c5.36.54,3.88,4.77,3.92,7.8.11,7.57,3.36,1.39,5.2,1.31,1.2,5.36-4.48,12.44,4,16a12.43,12.43,0,0,1-2,9.3c-3.86,1.45-6,7.2-11.43,4.67Z"/><path class="cls-3" d="M14.37,100.73l-2.71-2.5c-3.11-8.38,2.67-16.86.25-25.63C13,74.13,14,75.66,15.1,77.2c-.2,7.29,7.71,12.51,5.23,20.38A7.12,7.12,0,0,0,14.37,100.73Z"/><path class="cls-2" d="M74.35,194.38l-.06,6.8L72,201c-.16-10.86-4.18-21.72,2.35-32.73Z"/><path class="cls-3" d="M104.86,1.81V19.25C97.4,13.91,101.64,7.1,100,1.77,101.6-.49,103.24-.71,104.86,1.81Z"/><path class="cls-3" d="M69.7,89.81c-4.49.46-4.67-3.13-5.62-6,1.29-2.72-2.23-6,1.59-9.07C69.15,79.34,69.78,84.46,69.7,89.81Z"/><path class="cls-4" d="M158.41,195.9l0-3.34Z"/><path class="cls-5" d="M29.3,198.41v0c-.27.53-.53,1.07-.79,1.6,0-.35-.19-.75-.06-1S29,198.59,29.3,198.41Z"/><path class="cls-4" d="M69.65,201.85l2.33.46Z"/><path class="cls-5" d="M151.87,202.55a1.21,1.21,0,0,1,2,.16l-1.05.43Z"/><path class="cls-3" d="M145.89,170.38a2.15,2.15,0,0,1-2,.52c-.9-1.3-1.35-3,.45-3.39C146.35,167.1,146.38,168.85,145.89,170.38Z"/><path class="cls-6" d="M50,131.17Q48,143.64,46,156.09c-5-7.59-4-15.82-2.49-24.09a27.05,27.05,0,0,1,6.58-15.76Z"/><path class="cls-3" d="M92.71,187.15c-8.47-3.56-2.79-10.64-4-16,.48-.6.94-1.23,1.46-1.79,2.55-2.79-.65-11.06,5-9.15,6.29,2.15-1.76,5.69-1.92,9-.18,3.48-1,7,1.18,10.16C96.27,182.5,94.44,184.81,92.71,187.15Z"/><path class="cls-6" d="M110.77,85.75c-2.8.17-4.39-1.44-5.49-3.75q3.41-11.3,6.79-22.58C115.61,68.55,112.33,77.09,110.77,85.75Z"/><path class="cls-2" d="M97.24,132.25c.06-2.68.11-5.37.16-8C101.68,127,99,133.63,104,136q-.93,7.68-1.85,15.35C98.12,145.62,98.86,138.64,97.24,132.25Z"/><path class="cls-2" d="M86.87,166.3v-5.11l.77,0v5.12Z"/><path class="cls-3" d="M65.8,104.43c-.79-3.83-1.22-7.65.28-11.42C67.11,96.85,68.05,100.68,65.8,104.43Z"/><path class="cls-3" d="M65.64,121.41a2.18,2.18,0,0,1,.07-2.17,9.31,9.31,0,0,1,.56,1.55C66.3,121,65.86,121.2,65.64,121.41Z"/></g></g></g></svg>