<svg xmlns="http://www.w3.org/2000/svg" viewBox="0 0 127.56 191.97"><defs><style>.cls-1{fill:#60512c;}.cls-2{fill:#9e9e9e;}.cls-3{fill:#52694f;}.cls-4{fill:#475c46;}.cls-5{fill:#253b23;}.cls-6{fill:#5f7656;}.cls-7{fill:#344d39;}.cls-8{fill:#b29648;}.cls-9{fill:#79825c;}.cls-10{fill:#455026;}.cls-11{fill:#566430;}.cls-12{fill:#e8eee6;}.cls-13{fill:#ceab55;}</style></defs><title>Asset 11</title><g id="Layer_2" data-name="Layer 2"><g id="RASTLINE"><g id="_3_RESJE" data-name="3 RESJE"><path class="cls-1" d="M31.07,39c-6.66-10.72-3.62-22.67-4.14-34.13-.08-1.92,1.36-5,4.17-4.86,3.26.14,4.56,3.3,4.7,5.82.6,10.86,1.52,21.77-.58,32.6Z"/><path class="cls-2" d="M34.77,109.48Q32.92,74.23,31.07,39l4.15-.57c1.78,23.65,4.33,47.3-.45,71.06"/><path class="cls-1" d="M84,43.69c-3.76-12.76,3.18-24.44,3.81-36.77a3.71,3.71,0,0,1,3.82-3.7,4.59,4.59,0,0,1,4.06,4.93c-2,12.35,0,25.73-8.92,36.38Z"/><path class="cls-2" d="M84,43.69l2.77.84L83.2,74.87C79.81,64.24,80.56,53.89,84,43.69Z"/><path class="cls-3" d="M44,78.71l.94.86c.14.63.29,1.27.44,1.9a9.29,9.29,0,0,0-1.42,5.13c-2.94.45-1.49-3.12-3.35-3.66V77.21C42.23,76.5,42.76,78.38,44,78.71Z"/><path class="cls-4" d="M106,96.75c.62,3.58,3.58,0,4.83,1.57.46,8-7.11,4.84-10.7,7.72.47,3.08,8.34,4.22,2.78,9.06-1.37.34-1.49,1.4-1.49,2.53a.69.69,0,0,1-.1.83c-4.27,3.08-7-.69-10.24-2.27-.23-1.34.66-1.72,1.68-2,4.17-1.28,8.13-2.62,3-7.64-.4-.41-.21-1.42-.3-2.15a.91.91,0,0,1,.27-.88l.9-1.37c0-1.07,1.46-1.71.68-3.3L85.77,105.1a21.53,21.53,0,0,1-.08-10c.44-1.94.15-2.86-1.85-3,.27-1.57,1.87-2.72,1.41-4.51,1.72-1.18,1-3,1.11-4.54l0,.07c2.76.69,4-1.19,5.51-3,3.1-3.83,6.27-7.61,9.59-11.24,1.08-1.19,2.7-2.44,4.44-1.8,2.23.83.93,2.87,1,4.42-4.09,1.6-.78,8.09-6.73,8.45,2.11,1.39,3.22,0,4.77.21-.14,6.6-7,7.47-9.81,11.66,1.86,1,3.2-.68,4.81-.94,2.45,1.48-.71,4.31,1.41,5.87-.83.15-1.81.12-1.74,1.38a.53.53,0,0,0,.36.35c1.26.08,1.24-.9,1.38-1.73Z"/><path class="cls-5" d="M91.06,116.19c3.23,1.58,6,5.35,10.24,2.27.34,1.8-.43,2.77-2.12,3.47-1.9.78-3.61,2-3.46,4.46-1.9,4.21-5.3,4.47-9.18,3.49l-.1-.07c-3.32-3.38-6.28-3.53-8.7,1-2,.47-4.43.39-3.95,3.56l-6.79,0c.85-3.82-1.48-5.2-4.59-6a26.63,26.63,0,0,0-1.26-8.86l0-2.36.73-11.33,0-8.34c2.11,1.17,1.89,3.25,1.64,5-.78,5.5,3.1,9.13,4.81,14,2.06-2.77-.93-6.56,2.7-8.32v8.87l1.1.08q.87-5.66,1.75-11.3H75l.07,2.23c-.24,4.84-1.13,9.91,4.51,12.65,1,3.55,3.84,5.59,7.08,5.14s.59-4.36,2.06-6.26Z"/><path class="cls-3" d="M71,108.21c-3.63,1.76-.64,5.55-2.7,8.32-1.71-4.82-5.59-8.45-4.81-14,.25-1.79.47-3.87-1.63-5l.06-.44c2-1.38,2-2.78,0-4.18-2.06-8.87,3.1-16.29,5.15-24.29.88-3.43,2.06-.42,2.81.78.24.72.49,1.45.74,2.18l-.5-.19c-3.08,1.13-3.49,3.62-2.83,6.29.45,1.84,1.94,1.18,3.15.6l.78,1.11c-1,2.44-1.72,4.34-.54,7.53,2,5.47-3.57,8.89-6,13.14.13.86,0,2,1.3,1.89.37,0,.62-1.1.93-1.69,2.86-1.09,5.07-1.25,4.46,3C71.12,104.88,71.12,106.55,71,108.21Z"/><path class="cls-6" d="M61.83,105.88q-.36,5.67-.73,11.34c-3-1.93-3.42-6.79-8-6.82,0-1,0-2.07,0-3.11,0-1.82-.57-2.86-2.61-2l.18-.31-.23.26c-.25-1.78-.5-3.57-.76-5.35-.52-1.37-.65-3.29-1.65-4-3.36-2.37-4-5.67-4.1-9.32a9.29,9.29,0,0,1,1.42-5.13l2,1.59h0l5.53,6.87a6.35,6.35,0,0,0,1.76,3.94C56.83,98,58.39,102.49,61.83,105.88Z"/><path class="cls-3" d="M106,96.75l-4.67-.06h0c-2.12-1.56,1-4.39-1.41-5.87a19.9,19.9,0,0,0,5.77-4.61c3.38-3.56,4.45-8.84,8.93-11.44,2.39.25,4.81.42,6.31,2.71-1.39,3.29-2.87,6.54-4.14,9.88-1.41,3.71-4.92,3.6-7.84,4.6-5.94-1.46-1.8,3.32-3,4.81Z"/><path class="cls-7" d="M88.68,49.7c3.7,2.7-.18,6.27.83,9.57.44,1.42,1.93,5.92-1.73,7.72-4,.58-2,3.67-2.43,5.75,0,.35,0,.69-.07,1-1.65-3.18-3.83-3-6.29-1Q82.55,63,86.08,53.27Z"/><path class="cls-8" d="M62.41,128.43c3.11.76,5.44,2.14,4.59,6-4.81,2.33-9.65.8-14.49.13-1.58-.21-2.52-1.09-2.48-2.58.07-2.34.62-4.55,3.33-5.32l1.22,1.08c1.25,4.31,3.56.78,5.4.72Z"/><path class="cls-7" d="M54.58,127.7l-1.22-1.08c1.21-4-3.79-7.1-1.53-11.23,2.14,3.54,6,3.29,9.32,4.18a26.63,26.63,0,0,1,1.26,8.86H60C58.54,125.49,56.29,128.61,54.58,127.7Z"/><path class="cls-4" d="M114.6,74.77c2.05-2.79,3.65-6,6.6-8,1.85-1.51,3.68-3,6.36-5.23-.26,7.08-6.8,10.11-6.65,16C119.41,75.19,117,75,114.6,74.77Z"/><path class="cls-4" d="M79,72.8c2.46-2,4.64-2.2,6.29,1-.35,2.78.44,5.4,1.14,8,0,.42,0,.84-.08,1.26l0-.07c-1.88-1.14-3.82,2.21-5.69-.06h0c.83-.48.71-.86-.13-1.15-2-1.45.09-4.56-2.35-5.83C78.46,74.9,78.72,73.85,79,72.8Z"/><path class="cls-2" d="M86.54,129.88c3.88,1,7.28.72,9.18-3.49,2.9,2.36,2.43,6.06,1.56,8.48-.59,1.67-4.59,1.47-6.65-.22-1.59-1.31-2.66-.78-4,0Z"/><path class="cls-8" d="M86.54,129.88l.12,4.82h-.11l-1.33.87c-3.82-.31-7.88,1.6-11.43-1.21-.48-3.17,2-3.09,3.95-3.56a26.11,26.11,0,0,1,8.7-1Z"/><path class="cls-4" d="M61.15,119.57c-3.33-.89-7.18-.64-9.32-4.18-4-2.79,0-3.54,1.27-5,4.58,0,5,4.89,8,6.82C61.12,118,61.13,118.79,61.15,119.57Z"/><path class="cls-7" d="M78.19,76c2.44,1.27.34,4.38,2.35,5.83,0,.38.09.77.13,1.15h0L79.45,84,77,84c0-.94,0-1.89,0-2.84l.33-4a.44.44,0,0,0,0-.74A5.47,5.47,0,0,1,78.19,76Z"/><path class="cls-9" d="M70.47,78.29c-1.21.58-2.7,1.24-3.15-.6-.66-2.67-.25-5.16,2.83-6.29C70.25,73.7,70.36,76,70.47,78.29Z"/><path class="cls-4" d="M106,96.77c1.18-1.49-3-6.27,3-4.81.08,2,1.72,1.08,2.69,1.44l0,2.2Z"/><path class="cls-4" d="M49.67,99.91c.26,1.78.51,3.57.76,5.35-1-.42-2.12-.79-3.12-1.3A3.21,3.21,0,0,1,46,100C46.83,97.61,48.41,101.16,49.67,99.91Z"/><path class="cls-4" d="M85.35,72.74c.42-2.08-1.54-5.17,2.43-5.75l-.15,9.11Z"/><path class="cls-6" d="M85.35,72.74l2.28,3.36c-.13,2,1,4.19-1.21,5.7-.7-2.62-1.49-5.24-1.14-8C85.3,73.43,85.33,73.09,85.35,72.74Z"/><path class="cls-5" d="M61.93,97.1l-.61-2.68.63-1.5C63.88,94.32,63.91,95.72,61.93,97.1Z"/><path class="cls-4" d="M50.48,105.31c2-.88,2.62.16,2.61,2Z"/><path class="cls-3" d="M111.66,95.6l0-2.2c.71-.07,1.4-.06,1.36.93A1.3,1.3,0,0,1,111.66,95.6Z"/><path class="cls-5" d="M101.4,117.63c0-1.13.12-2.19,1.49-2.53A3.33,3.33,0,0,1,101.4,117.63Z"/><path class="cls-2" d="M85.22,135.58l1.33-.87Z"/><path class="cls-7" d="M95.47,104.4c.09.73-.1,1.74.3,2.15,5.1,5,1.14,6.36-3,7.64-4.73-.6-7.42,4-11.7,4.56l-.52-.46-1-.94c.93-1.4-2.37-3.8,1.09-4.6,2,.1,6,2.67,3.22-2.84-.28-.56.88-1.85,1.37-2.8C88.82,106.83,92.44,106.73,95.47,104.4Z"/><path class="cls-6" d="M83.84,92c2,.17,2.29,1.09,1.85,3a21.53,21.53,0,0,0,.08,10l-.13-.09c-3.46,1.19-6,1.6-4.25-3.63.72-2.18.3-4.73.4-7.11A2.87,2.87,0,0,1,83.84,92Z"/><path class="cls-6" d="M79.45,84l1.22-1.09c1.87,2.27,3.81-1.08,5.69.06-.07,1.59.61,3.36-1.11,4.54-2.66.33-3.73,4-6.89,3.26C77.21,88.29,78.5,86.18,79.45,84Z"/><path class="cls-3" d="M101.31,96.69c-.14.83-.12,1.81-1.38,1.73a.53.53,0,0,1-.36-.35c-.07-1.26.91-1.23,1.74-1.38Z"/><path class="cls-7" d="M95.74,103.52l.9-1.37Z"/><path class="cls-4" d="M78.36,90.79c-.91,2.19-.5,2.6,3.43,3.48-.1,2.38.32,4.93-.4,7.11-1.71,5.23.79,4.82,4.25,3.63l-.39,2.1c-.49,1-1.65,2.24-1.37,2.8,2.81,5.51-1.26,2.94-3.22,2.84-1.08-2.5-2.14-5-5.6-4.67,0-.74,0-1.49-.07-2.23,1.34-2.42,2.38-4.8-.63-6.82,1.53-4.89.35-10.27,2.66-15l2.43,0C78.5,86.18,77.21,88.29,78.36,90.79Z"/><path class="cls-10" d="M75.06,108.08c3.46-.35,4.52,2.17,5.6,4.67-3.46.8-.16,3.2-1.09,4.6.32.31.64.62,1,.94l.52.46a.74.74,0,0,1,.17.59l-1.64,1.39C73.93,118,74.82,112.92,75.06,108.08Z"/><path class="cls-7" d="M79.57,120.73l1.64-1.39,4.07.32c.37.81.75.84,1.12,0l2.31-.06c-1.47,1.9,1.28,5.79-2.06,6.26S80.61,124.28,79.57,120.73Z"/><path class="cls-2" d="M86.44,129.81a26.11,26.11,0,0,0-8.7,1C80.16,126.28,83.12,126.43,86.44,129.81Z"/><path class="cls-10" d="M74.36,99c3,2,2,4.4.63,6.82H73.86A14.91,14.91,0,0,1,74.36,99Z"/><path class="cls-5" d="M64.66,100.07l2.23.2c-.31.59-.56,1.65-.93,1.69C64.68,102.09,64.79,100.93,64.66,100.07Z"/><path class="cls-5" d="M54.58,127.7c1.71.91,4-2.21,5.4.72C58.14,128.48,55.83,132,54.58,127.7Z"/><path class="cls-6" d="M80.67,82.94c0-.38-.08-.77-.13-1.15C81.38,82.08,81.5,82.46,80.67,82.94Z"/><path class="cls-5" d="M80.52,118.29c-.31-.32-.63-.63-1-.94C79.89,117.66,80.21,118,80.52,118.29Z"/><path class="cls-5" d="M86.4,119.67c-.37.83-.75.8-1.12,0A1.5,1.5,0,0,1,86.4,119.67Z"/><path class="cls-8" d="M83.3,155.54l-2.92-.22c-2.81-.88-2.57-3.11-2.62-5.41-.12-5.59-.47-11.16-.72-16.75-.85,4.85-4.16,8.56-5.61,13-.29,1-.59,1.92-.88,2.89-1.78.92-1.6,2.82-2.18,4.34L65,152.93c.37-2,1.62-3.85.28-6.61l-1,6.53-.32.17c-4.27-1.07-2.66-4.24-2.21-6.73,2.8-15.53,5.93-31,10.76-46,2.54-7.92,3.66-16.47,8.81-25-.35,10.1-3.16,18.27-5.7,26.36s-2.93,16.47-4.86,26.23c5.32-6.09,7.64-11.68,8.55-18,.34-2.4.37-4.79,2.09-7.06,6.5-8.61,10.89-18,10.21-29.29-.19-3.15-.91-7.17,2.47-9.75l0-.1c.12,1.48.69,3.1.28,4.43-1.35,4.49,4.56,5.91,4,10C96,81.63,95.7,85.46,96,89.6c.59,8.71.77,17.45,1.13,26.38,5.22-1.15,3.25-8.9,9-9.15l-1.81,12c-3.6.78-4.77,4.19-5.25,6.72-1.62,8.65-4.88,17-4.52,26-.12.71-.23,1.42-.35,2.13-.79,1.65-1.26,3.61-3.54,3.92a.79.79,0,0,0-1.28-.3l-2.07-1a58.16,58.16,0,0,0,1.35-20.19c.46-.94.61-2.06-.71-2s-1.06,1.21-.6,2.12C86.24,142.79,86,149.41,83.3,155.54Z"/><path class="cls-8" d="M29.27,147.09l-3.07.52c-1.92-1-2.67-2.83-3.13-4.66-.63-2.55-2-2.24-3.68-1.38-.81-6.31,4.92-12.82-.49-19-2.89,1.89-2.3,6.74-6.49,7.45l-.06-13.32c-3.65,7.2-2.92,15-4.31,22.44-.55,3-.6,5.52-4.41,5.22C-.46,144-.17,141,.19,138.18c2.57-20.29,2.34-40.66,2-61,0-2.87,1.14-2.09,2.52-.94,1.79,9.06,3.21,18.23,7.82,27.56,2.92-9.28-.86-16.94-1.32-24.82a4.62,4.62,0,0,1,4.12-1.44c2.61,4.42,2,9.82,4.87,14.52.2-9.14,2-17.92,3.2-26.78.67-5,2.9-10.16.77-15.4l1.64-1.38c2.28,3.07,1.61,6.67,1.59,10.06-.1,14.41-.38,28.82-.59,43.23-1.74,5.15-3.23,10.3-.74,15.64C26.89,127.32,29.55,137.05,29.27,147.09Z"/><path class="cls-8" d="M62.47,119.81c.38,10-3.67,19.18-4.84,30.15-3.28-5,1.75-9.79-2.83-13-1.06-2.24-.22-4.4.23-6.61s5.91-3.61,2.1-5.59c-3.4-1.76-2.16,3.84-4.06,5.37-.39.32-.74.67-1.11,1-1.18-.12-3.85,3.51-3.19-1.34.26-1.94,1.62-4.5-1.76-5.36l4.17-35.25c3-17.22,5.93-34.46,9.21-51.63.28-1.46-1.63-5.59,3-4.71.61,19.74,1,39.42-2.38,59.06-1.16,6.63-5.37,13-2.54,20.16.85-1.59,1.77-3.29,2.68-5C61.58,111.34,60.44,115.74,62.47,119.81Zm-11.22,8.07.49.1.5-3.27-.5-.1Z"/><path class="cls-8" d="M47.78,77.32,48,88.77c-.6,8.18-.92,16.39-1.88,24.53-1.23,10.54-.86,21.41-5.61,31.33l2.52-16.7c-5.23,6.41-3.71,13.74-4.66,20.7a.52.52,0,0,1-.13.84L36.81,149l-3.07.29c-2.45-3.09-1.66-6.58-1.58-10.13.27-12.43,1.38-24.91-1.09-37.26q.73-4.77,1.46-9.54c.59-7.85-.47-15.8,1.45-24.72,5.92,18.5,4.66,36.45,4.48,55.12,2.75-8.94,2.14-17.4,3.54-25.6.17-.11.47-.23.47-.33a5.58,5.58,0,0,0-.21-1.05c.49-3.15,1-6.3,1.48-9.46C45.55,84.1,45.32,81.56,45,79A2.42,2.42,0,0,1,47.78,77.32Z"/><path class="cls-8" d="M74.31,78.67c-1.53,11-5.29,21.25-9.18,31.51-2.94-2-.61-6-3.08-8.21-1.32-4.32.19-8.5.84-12.66C65,75.88,67.39,62.5,69.67,49.1l1.59-5.88C72.5,42,74.52,41.73,76.56,40l-5.4,35.74C71.64,77.33,72.5,78.51,74.31,78.67Z"/><path class="cls-11" d="M12.41,130c4.19-.71,3.6-5.56,6.49-7.45,5.41,6.19-.32,12.7.49,19a7,7,0,0,0-.22,1c-2.59.73-5.11,3.85-7.84.25h0C10.14,138.44,11.87,134.28,12.41,130Z"/><path class="cls-11" d="M47,124.46c3.38.86,2,3.42,1.76,5.36-.66,4.85,2,1.22,3.19,1.34.25,3.54-4.06,7.52,1,10.61a8,8,0,0,1-2.2,5.76c-2.61.55-4.5,4-7.76,1.88Q45,136.93,47,124.46Z"/><path class="cls-2" d="M11.21,79,9.72,77.09c-1.18-5.66,3.34-10.52,2.63-16.37.54,1.08,1.07,2.17,1.6,3.25-.83,4.65,3.73,8.75,1.38,13.54A4.62,4.62,0,0,0,11.21,79Z"/><path class="cls-11" d="M40.53,144.63,39.84,149l-1.45-.34c1-7-.57-14.29,4.66-20.7Z"/><path class="cls-2" d="M78.63,24.42,76.94,35.57c-4.25-4.13-.88-8.08-1.45-11.64C76.77,22.64,77.84,22.66,78.63,24.42Z"/><path class="cls-2" d="M47.65,77.31c-2.92-.14-2.68-2.46-3-4.38,1.09-1.62-.85-4.06,1.89-5.65C48.31,70.56,48.22,73.89,47.65,77.31Z"/><path class="cls-12" d="M94.14,153.71c.12-.71.23-1.42.35-2.13C94.37,152.29,94.26,153,94.14,153.71Z"/><path class="cls-8" d="M11.34,142.86h0l-.65.94c0-.22,0-.5.06-.65S11.13,143,11.34,142.86Z"/><path class="cls-12" d="M36.81,149l1.45.51Z"/><path class="cls-8" d="M89.32,157.33a.79.79,0,0,1,1.28.3l-.71.18Z"/><path class="cls-2" d="M88.6,136.19a1.38,1.38,0,0,1-1.32.13c-.45-.91-.57-2.06.61-2.12S89.06,135.25,88.6,136.19Z"/><path class="cls-9" d="M31.07,101.86q-2.49,7.77-5,15.54c-2.49-5.34-1-10.49.74-15.64a17.41,17.41,0,0,1,5.73-9.45Z"/><path class="cls-2" d="M53,141.77c-5.07-3.09-.76-7.07-1-10.61.37-.34.72-.69,1.11-1,1.9-1.53.66-7.13,4.06-5.37,3.81,2-1.68,3.47-2.1,5.59s-1.29,4.37-.23,6.61C55.7,139.15,54.31,140.45,53,141.77Z"/><path class="cls-9" d="M74.31,78.67c-1.81-.16-2.67-1.34-3.15-2.92q3.27-6.9,6.52-13.79C79.06,68.14,76.14,73.29,74.31,78.67Z"/><path class="cls-11" d="M61.17,107.11c.29-1.72.59-3.43.88-5.14,2.47,2.2.14,6.19,3.08,8.21q-1.34,4.81-2.66,9.64C60.44,115.74,61.58,111.34,61.17,107.11Z"/><path class="cls-11" d="M51.25,127.88l.49-3.27.5.1-.5,3.27Z"/><path class="cls-2" d="M43.74,86.28c-.13-2.52,0-5,1.29-7.28C45.32,81.56,45.55,84.1,43.74,86.28Z"/><path class="cls-2" d="M42,97.12a1.44,1.44,0,0,1,.26-1.38,5.58,5.58,0,0,1,.21,1.05C42.47,96.89,42.17,97,42,97.12Z"/><path class="cls-3" d="M8.24,105.65l1.13,1L9.91,109a11.22,11.22,0,0,0-1.72,6.22c-3.57.55-1.81-3.78-4.07-4.44v-7C6.14,103,6.77,105.25,8.24,105.65Z"/><path class="cls-4" d="M83.47,127.54c.76,4.34,4.35,0,5.86,1.9.55,9.72-8.62,5.88-13,9.37.57,3.73,10.11,5.12,3.36,11-1.65.41-1.81,1.7-1.81,3.07a.84.84,0,0,1-.11,1c-5.18,3.73-8.51-.84-12.43-2.76-.28-1.62.81-2.08,2-2.43,5.06-1.55,9.86-3.17,3.68-9.27-.49-.49-.26-1.71-.37-2.6a1.13,1.13,0,0,1,.33-1.07l1.09-1.66c0-1.3,1.78-2.07.83-4l-14,7.58a26.17,26.17,0,0,1-.09-12.16c.53-2.37.18-3.48-2.25-3.69.33-1.9,2.27-3.29,1.72-5.47,2.08-1.44,1.26-3.58,1.34-5.5l0,.08c3.35.83,4.9-1.44,6.69-3.64,3.76-4.64,7.6-9.23,11.62-13.64,1.32-1.44,3.28-3,5.4-2.17,2.69,1,1.11,3.47,1.18,5.35-5,1.94-.94,9.82-8.17,10.25,2.57,1.69,3.91,0,5.8.26-.18,8-8.52,9.06-11.91,14.15,2.26,1.21,3.88-.83,5.84-1.14,3,1.79-.86,5.22,1.71,7.11-1,.19-2.2.15-2.11,1.68a.64.64,0,0,0,.43.43c1.54.09,1.51-1.1,1.68-2.11Z"/><path class="cls-5" d="M65.37,151.12c3.92,1.92,7.25,6.49,12.43,2.76.41,2.18-.53,3.36-2.57,4.2-2.31,1-4.39,2.38-4.2,5.41-2.31,5.11-6.44,5.43-11.14,4.24l-.12-.08c-4-4.11-7.62-4.29-10.56,1.2-2.38.58-5.37.48-4.79,4.33l-8.24,0c1-4.64-1.79-6.3-5.57-7.23a32.16,32.16,0,0,0-1.52-10.75L29,152.36q.43-6.87.88-13.75l0-10.11c2.56,1.41,2.29,3.94,2,6.11-1,6.67,3.76,11.07,5.84,16.92,2.5-3.36-1.14-7.95,3.27-10.09v10.77l1.33.09q1.07-6.86,2.12-13.72h1.37l.09,2.71c-.28,5.86-1.37,12,5.47,15.34,1.26,4.31,4.66,6.78,8.59,6.23s.72-5.28,2.5-7.6Z"/><path class="cls-3" d="M41.05,141.44c-4.41,2.14-.77,6.73-3.27,10.09-2.08-5.85-6.79-10.25-5.84-16.92.3-2.17.57-4.7-2-6.11L30,128c2.41-1.69,2.36-3.38,0-5.08-2.49-10.76,3.77-19.76,6.25-29.46,1.07-4.17,2.51-.51,3.41.94l.9,2.65L40,96.79c-3.74,1.37-4.23,4.39-3.43,7.63.55,2.22,2.35,1.43,3.83.72l.94,1.35c-1.23,3-2.09,5.27-.66,9.13,2.46,6.64-4.33,10.79-7.34,15.94.16,1.05,0,2.46,1.59,2.3.44-.05.75-1.33,1.12-2.05,3.48-1.32,6.15-1.52,5.41,3.6C41.18,137.4,41.18,139.43,41.05,141.44Z"/><path class="cls-6" d="M29.91,138.61q-.43,6.88-.88,13.75c-3.59-2.34-4.15-8.23-9.71-8.26,0-1.26,0-2.51,0-3.77,0-2.21-.69-3.47-3.16-2.41l.22-.38-.29.33q-.45-3.26-.92-6.5c-.63-1.66-.79-4-2-4.84-4.07-2.87-4.84-6.88-5-11.31A11.22,11.22,0,0,1,9.91,109l2.41,1.93h0L19,119.25c.33,1.77.69,3.52,2.13,4.79C23.84,129,25.74,134.5,29.91,138.61Z"/><path class="cls-3" d="M83.47,127.54l-5.66-.08h0c-2.57-1.89,1.26-5.32-1.71-7.11a24.32,24.32,0,0,0,7-5.6c4.11-4.31,5.4-10.73,10.84-13.87,2.9.29,5.83.5,7.66,3.28-1.69,4-3.49,7.94-5,12-1.71,4.5-6,4.37-9.51,5.59-7.21-1.78-2.18,4-3.62,5.83Z"/><path class="cls-7" d="M62.48,70.46c4.49,3.28-.21,7.61,1,11.61.53,1.72,2.34,7.18-2.1,9.37-4.81.7-2.44,4.45-3,7,0,.42,0,.84-.08,1.26-2-3.86-4.64-3.64-7.63-1.19l8.61-23.69Z"/><path class="cls-8" d="M30.61,166c3.78.93,6.61,2.59,5.57,7.23-5.83,2.82-11.7,1-17.58.16-1.91-.26-3.05-1.32-3-3.13.08-2.85.75-5.52,4-6.45l1.47,1.31c1.53,5.22,4.32.94,6.55.87Z"/><path class="cls-7" d="M21.11,165.09l-1.47-1.31c1.47-4.82-4.6-8.62-1.86-13.62,2.6,4.29,7.26,4,11.31,5.06A32.16,32.16,0,0,1,30.61,166H27.66C25.92,162.41,23.19,166.19,21.11,165.09Z"/><path class="cls-4" d="M93.93,100.88c2.49-3.4,4.43-7.23,8-9.72l7.71-6.35c-.32,8.58-8.25,12.26-8.06,19.35C99.76,101.38,96.83,101.17,93.93,100.88Z"/><path class="cls-4" d="M50.73,98.48c3-2.45,5.63-2.67,7.63,1.19-.42,3.37.53,6.55,1.38,9.74l-.09,1.52,0-.08c-2.29-1.39-4.63,2.67-6.9-.08h0c1-.58.86-1-.16-1.39-2.44-1.76.11-5.53-2.85-7.08C50.08,101,50.41,99.76,50.73,98.48Z"/><path class="cls-2" d="M59.89,167.73c4.7,1.19,8.83.87,11.14-4.24,3.51,2.87,2.94,7.35,1.89,10.29-.72,2-5.57,1.79-8.07-.26-1.93-1.59-3.22-1-4.81,0Z"/><path class="cls-8" d="M59.89,167.73l.15,5.84-.14,0-1.62,1c-4.63-.37-9.55,1.94-13.86-1.46-.58-3.85,2.41-3.75,4.79-4.33a31.68,31.68,0,0,1,10.56-1.2Z"/><path class="cls-4" d="M29.09,155.22c-4.05-1.07-8.71-.77-11.31-5.06-4.91-3.4,0-4.3,1.54-6.06,5.56,0,6.12,5.92,9.71,8.26Z"/><path class="cls-7" d="M49.76,102.31c3,1.55.41,5.32,2.86,7.08l.15,1.39h0l-1.48,1.33-2.95,0c0-1.15,0-2.29,0-3.44l.39-4.83a.52.52,0,0,0,0-.89A7.39,7.39,0,0,1,49.76,102.31Z"/><path class="cls-9" d="M40.4,105.14c-1.48.71-3.28,1.5-3.83-.72-.8-3.24-.31-6.26,3.43-7.63C40.13,99.57,40.26,102.36,40.4,105.14Z"/><path class="cls-4" d="M83.43,127.56c1.44-1.8-3.59-7.61,3.62-5.83.1,2.43,2.09,1.31,3.26,1.74,0,.89,0,1.78,0,2.68Z"/><path class="cls-4" d="M15.16,131.37q.46,3.24.92,6.5c-1.26-.52-2.57-1-3.78-1.59a3.88,3.88,0,0,1-1.61-4.82C11.71,128.58,13.64,132.89,15.16,131.37Z"/><path class="cls-4" d="M58.44,98.41c.51-2.52-1.86-6.27,3-7l-.18,11Z"/><path class="cls-6" d="M58.44,98.41l2.77,4.07c-.16,2.38,1.21,5.08-1.47,6.93-.85-3.19-1.8-6.37-1.38-9.74C58.39,99.25,58.42,98.83,58.44,98.41Z"/><path class="cls-5" d="M30,128c-.24-1.09-.49-2.18-.73-3.26.25-.61.5-1.21.76-1.82C32.39,124.59,32.44,126.28,30,128Z"/><path class="cls-4" d="M16.15,137.92c2.47-1.06,3.18.2,3.16,2.41Z"/><path class="cls-3" d="M90.36,126.15c0-.9,0-1.79,0-2.68.87-.08,1.7-.07,1.65,1.13C91.92,125.59,91.28,126,90.36,126.15Z"/><path class="cls-5" d="M77.91,152.87c0-1.37.16-2.66,1.81-3.07A4,4,0,0,1,77.91,152.87Z"/><path class="cls-2" d="M58.28,174.64l1.62-1Z"/><path class="cls-7" d="M70.72,136.82c.11.89-.12,2.11.37,2.6,6.18,6.1,1.38,7.72-3.68,9.27-5.73-.72-9,4.89-14.2,5.54-.21-.18-.42-.37-.62-.57l-1.16-1.13c1.13-1.7-2.87-4.62,1.33-5.59,2.37.12,7.31,3.24,3.9-3.44-.34-.67,1.07-2.24,1.66-3.4C62.66,139.76,67.05,139.65,70.72,136.82Z"/><path class="cls-6" d="M56.61,121.82c2.43.21,2.78,1.32,2.25,3.69A26.17,26.17,0,0,0,59,137.67l-.16-.11c-4.19,1.44-7.22,1.94-5.14-4.4.86-2.65.36-5.74.48-8.63A3.47,3.47,0,0,1,56.61,121.82Z"/><path class="cls-6" d="M51.29,112.1l1.48-1.33c2.27,2.75,4.61-1.31,6.9.08-.08,1.92.74,4.06-1.34,5.5-3.23.4-4.53,4.87-8.37,4C48.57,117.27,50.13,114.72,51.29,112.1Z"/><path class="cls-3" d="M77.81,127.46c-.17,1-.14,2.2-1.68,2.11a.64.64,0,0,1-.43-.43c-.09-1.53,1.11-1.49,2.11-1.68Z"/><path class="cls-7" d="M71.05,135.75c.37-.55.73-1.11,1.09-1.66C71.78,134.64,71.42,135.2,71.05,135.75Z"/><path class="cls-4" d="M50,120.31c-1.09,2.66-.61,3.15,4.17,4.22-.12,2.89.38,6-.48,8.63-2.08,6.34,1,5.84,5.14,4.4-.15.85-.31,1.69-.47,2.54-.59,1.16-2,2.73-1.66,3.4,3.41,6.68-1.53,3.56-3.9,3.44-1.32-3-2.61-6.08-6.8-5.65l-.09-2.71c1.64-2.93,2.9-5.83-.76-8.27,1.86-5.94.43-12.46,3.23-18.24l2.95,0C50.13,114.72,48.57,117.27,50,120.31Z"/><path class="cls-10" d="M46,141.29c4.19-.43,5.48,2.63,6.8,5.65-4.2,1-.2,3.89-1.33,5.59l1.16,1.13c.2.2.41.39.62.57a.87.87,0,0,1,.22.71l-2,1.69C44.59,153.3,45.68,147.15,46,141.29Z"/><path class="cls-7" d="M51.43,156.63l2-1.69,4.93.4c.45,1,.91,1,1.36,0l2.8-.08c-1.78,2.32,1.56,7-2.5,7.6S52.69,160.94,51.43,156.63Z"/><path class="cls-2" d="M59.77,167.65a31.68,31.68,0,0,0-10.56,1.2C52.15,163.36,55.74,163.54,59.77,167.65Z"/><path class="cls-10" d="M45.11,130.31c3.66,2.44,2.4,5.34.76,8.27H44.5A18.23,18.23,0,0,1,45.11,130.31Z"/><path class="cls-5" d="M33.34,131.56l2.71.25c-.37.72-.68,2-1.12,2.05C33.38,134,33.5,132.61,33.34,131.56Z"/><path class="cls-5" d="M21.11,165.09c2.08,1.1,4.81-2.68,6.55.87C25.43,166,22.64,170.31,21.11,165.09Z"/><path class="cls-6" d="M52.77,110.78l-.15-1.39C53.63,109.75,53.78,110.2,52.77,110.78Z"/><path class="cls-5" d="M52.59,153.66l-1.16-1.13Z"/><path class="cls-5" d="M59.72,155.34c-.45,1-.91,1-1.36,0A1.78,1.78,0,0,1,59.72,155.34Z"/><g id="_3_RESJE-2" data-name="3 RESJE"><path class="cls-13" d="M78.93,191l-2.22.17c-2.22-.35-2.3-2.06-2.6-3.79-.73-4.2-1.62-8.36-2.45-12.54-.09,3.75-2.16,6.92-2.75,10.45l-.33,2.28c-1.24.89-.88,2.31-1.15,3.52l-2.63,0c0-1.52.78-3.09-.54-5v5l-.22.17c-3.35-.32-2.49-2.9-2.44-4.82.35-12,.94-24.08,2.88-36,1-6.26.89-12.83,3.81-19.82.88,7.65-.31,14.14-1.31,20.52s-.33,12.76-.67,20.34A25.22,25.22,0,0,0,70.7,157c0-1.85-.26-3.65.78-5.56,3.92-7.24,6.16-14.79,4.36-23.25-.5-2.35-1.5-5.31.76-7.63l0-.08c.26,1.11.87,2.27.72,3.32-.51,3.54,4.1,3.93,4.11,7-1.28,2.94-1.08,5.86-.4,9,1.43,6.5,2.57,13.07,3.86,19.77,3.8-1.47,1.43-7.09,5.71-7.92v9.25c-2.62,1-3.12,3.71-3.19,5.67-.24,6.71-1.75,13.4-.45,20.14,0,.54,0,1.09,0,1.64-.41,1.34-.54,2.87-2.22,3.36a.6.6,0,0,0-1-.08L82,191.19a44,44,0,0,0-1.28-15.38c.25-.76.23-1.62-.75-1.42s-.67,1-.22,1.67C79.7,181.06,80.23,186.08,78.93,191Z"/><path class="cls-13" d="M37.23,190.78l-2.26.74a5,5,0,0,1-2.89-3.16c-.76-1.84-1.74-1.46-2.93-.61-1.33-4.67,2.25-10.23-2.53-14.29-2,1.76-1,5.35-4.05,6.36l-1.56-10c-1.93,5.85-.49,11.64-.7,17.41-.08,2.3.18,4.24-2.73,4.44-3.12.23-3.24-2.09-3.3-4.26-.37-15.59-2.86-30.92-5.43-46.25-.37-2.16.62-1.7,1.79-1,2.38,6.63,4.5,13.38,9,19.89,1.15-7.33-2.57-12.68-3.81-18.57a3.51,3.51,0,0,1,2.94-1.55c2.47,3,2.64,7.18,5.32,10.4-.88-6.92-.5-13.75-.63-20.56-.07-3.88,1-8-1.17-11.7l1.07-1.23c2.07,2.06,2,4.85,2.35,7.4,1.57,10.88,3,21.78,4.47,32.67C29.49,161,29,165,31.44,168.76,33.18,176.15,36.3,183.18,37.23,190.78Z"/><path class="cls-13" d="M59.16,166.44c1.43,7.52-.59,14.88-.22,23.28-3-3.39.21-7.58-3.61-9.47-1.06-1.56-.67-3.29-.58-5s4-3.39,1-4.45c-2.77-.94-1.19,3.14-2.45,4.51-.26.28-.48.59-.72.89-.91,0-2.51,3.08-2.57-.65,0-1.49.71-3.58-1.93-3.84l-.87-27c.31-13.33.55-26.67,1.07-40,.05-1.13-1.86-4,1.74-3.89,2.71,14.81,5.28,29.61,4.93,44.81-.12,5.13-2.57,10.4.38,15.49.46-1.3,1-2.68,1.45-4.07C57.53,160.15,57.16,163.6,59.16,166.44Zm-7.55,7.36H52v-2.52l-.39,0Z"/><path class="cls-13" d="M43.24,136.07c.5,2.87,1,5.73,1.49,8.6.48,6.24,1.17,12.47,1.38,18.71.26,8.09,1.78,16.24-.67,24.27V174.76c-3.22,5.43-1.24,10.79-1.16,16.15a.4.4,0,0,1,0,.65l-1.15-.23-2.28.57c-2.2-2.05-2-4.77-2.34-7.46-1.21-9.4-1.8-18.93-5.06-28,0-2.46,0-4.91,0-7.36-.45-6-2.15-11.86-1.71-18.8,6.56,13.27,7.65,27,9.64,41.05,1.06-7.05-.37-13.36-.24-19.71.11-.1.33-.22.32-.3a4.35,4.35,0,0,0-.28-.76c0-2.44,0-4.87,0-7.31,1.11-1.85.65-3.74.14-5.63A1.82,1.82,0,0,1,43.24,136.07Z"/><path class="cls-8" d="M63.41,134.07c.09,8.43-1.57,16.62-3.34,24.8-2.45-1.19-1.15-4.47-3.26-5.84-1.49-3.11-.82-6.44-.8-9.65.05-10.36.33-20.73.53-31.09.18-1.54.35-3.07.53-4.61.8-1,2.29-1.5,3.63-3v27.57A2.69,2.69,0,0,0,63.41,134.07Z"/><path class="cls-11" d="M22.57,179.82c3.08-1,2.08-4.6,4.05-6.36,4.78,4.06,1.2,9.62,2.53,14.28a4.3,4.3,0,0,0,0,.8c-1.87.85-3.41,3.49-5.88,1.08h0C21.81,186.44,22.65,183.1,22.57,179.82Z"/><path class="cls-11" d="M48,171.7c2.64.26,1.91,2.35,1.93,3.84.06,3.73,1.66.69,2.57.65.59,2.64-2.21,6.13,2,7.89a6.18,6.18,0,0,1-1,4.59c-1.9.71-2.93,3.55-5.64,2.3Z"/><path class="cls-2" d="M15.86,141.45l-1.34-1.23c-1.53-4.13,1.32-8.31.12-12.64l1.58,2.27c-.1,3.6,3.8,6.17,2.58,10.05A3.51,3.51,0,0,0,15.86,141.45Z"/><path class="cls-11" d="M45.44,187.65l0,3.35-1.13-.09c-.08-5.36-2.06-10.72,1.16-16.15Z"/><path class="cls-2" d="M60.49,92.67v8.6c-3.68-2.64-1.59-6-2.42-8.62C58.88,91.53,59.69,91.42,60.49,92.67Z"/><path class="cls-2" d="M43.15,136.07c-2.22.23-2.3-1.55-2.77-3,.63-1.34-1.1-3,.78-4.47C42.88,130.9,43.19,133.43,43.15,136.07Z"/><path class="cls-12" d="M86.9,188.39c0-.55,0-1.1,0-1.64C86.91,187.3,86.91,187.84,86.9,188.39Z"/><path class="cls-8" d="M23.22,189.63h0l-.39.79c0-.17-.09-.37,0-.5S23.08,189.72,23.22,189.63Z"/><path class="cls-12" d="M43.12,191.33l1.15.23Z"/><path class="cls-8" d="M83.68,191.67a.6.6,0,0,1,1,.08l-.52.22Z"/><path class="cls-2" d="M80.72,175.81a1,1,0,0,1-1,.25c-.45-.64-.67-1.49.22-1.67S81,175.05,80.72,175.81Z"/><path class="cls-9" d="M33.44,156.47q-1,6.15-2,12.29c-2.49-3.75-2-7.8-1.23-11.88a13.36,13.36,0,0,1,3.25-7.78C33.45,151.56,33.44,154,33.44,156.47Z"/><path class="cls-2" d="M54.5,184.08c-4.18-1.76-1.38-5.25-2-7.89.24-.3.46-.61.72-.89,1.26-1.37-.32-5.45,2.45-4.51,3.1,1.06-.87,2.81-1,4.45s-.48,3.45.58,5S55.35,182.93,54.5,184.08Z"/><path class="cls-9" d="M63.41,134.07a2.69,2.69,0,0,1-2.71-1.85q1.66-5.58,3.34-11.14C65.79,125.58,64.17,129.8,63.41,134.07Z"/><path class="cls-11" d="M56.73,157c0-1.32.05-2.65.08-4,2.11,1.37.81,4.65,3.26,5.84-.3,2.52-.61,5-.91,7.57C57.16,163.6,57.53,160.15,56.73,157Z"/><path class="cls-11" d="M51.61,173.8v-2.53l.39,0v2.52Z"/><path class="cls-2" d="M41.22,143.28a9.56,9.56,0,0,1,.14-5.63C41.87,139.54,42.33,141.43,41.22,143.28Z"/><path class="cls-2" d="M41.14,151.65a1.1,1.1,0,0,1,0-1.07,4.77,4.77,0,0,1,.28.77C41.47,151.43,41.25,151.55,41.14,151.65Z"/></g></g></g></g></svg>