<svg xmlns="http://www.w3.org/2000/svg" viewBox="0 0 226.14 359.77"><defs><style>.cls-1{fill:#819f31;}.cls-2{fill:#564f27;}.cls-3{fill:#3d4521;}.cls-4{fill:#637f29;}.cls-5{fill:#6d5a23;}.cls-6{fill:#515d2b;}.cls-7{fill:#476120;}.cls-8{fill:#4c441c;}.cls-9{fill:#ccc;}.cls-10{fill:#5b7251;}.cls-11{fill:#516147;}</style></defs><title>drevo_sredina_desno</title><g id="Layer_2" data-name="Layer 2"><g id="RASTLINE"><g id="_1_D_PALMA" data-name="1 D PALMA"><path class="cls-1" d="M174.31,77.3c-.34,2.92-1.62,5.5-2.56,8.21-3.66-.18-6.41,2.54-9.68,3.53-1.22.36-2.86,1.84-3.85.52-1.18-1.59,1.36-2.23,1.52-3.67,0-.24-.15-.52-.26-.87-2.35,0-3.48,2.07-5,3.44-2.32,2-3.66,5.39-6.92,6.18,0-1.51,0-3-.05-4.53C146,77.9,145.08,65.58,143,53.49c-2.78-16.25-6.15-32.39-11.94-47.8-.94-2.5-.09-4.14,2.7-3.94,7.19,2.67,11.82,8.75,15.94,15.08,1.47,2.24.27,5.89-.36,8.84-1.26,5.92-1.57,12-3.27,18A44.06,44.06,0,0,0,156,31.81c.75-1.29,1.44-2.92,2.94-.74.8,2-.68,3-1.54,4.28-2.31,3.49-5.69,6.08-7.34,10.13v0c3.39-1.18,5.56-4.17,8.17-6.5,1.64-1.47,3.29-3.16,4.77.88.75-3.46-.14-6.41,1.3-9,1.55-1.94,3-4,4.65-5.8,3-3.28,7.69-2.22,7.8,2.2C177,37.46,177.57,47.85,172,57c-.82,1.35-3.23,2.5-2.06,4.3,1,1.53,2.51-1.25,4-.81a6.68,6.68,0,0,1-3.25,3.56c3,1,3.63,2.89,3,6.09C173.27,72.31,172.35,75.12,174.31,77.3Z"/><path class="cls-2" d="M174.34,149.41c-5.91,25.18-11.52,50.44-15.41,76.11-1,6.47-3,12.93-3.23,19.3-.49,11.56-2.95,23-2,34.71,4.07-13.29,8.44-26.45,13.49-39.32,2.49,1.9,1.13,4.12.44,6.28-.48,7.12-2.81,13.74-5.1,20.29-5.08,14.51-6,29.65-6.54,44.91-.51,14-1.26,28.06-1.9,42.09-.28,5.92-.29,5.92-5.71,5.51,0-2.27-.11-4.54-.11-6.81q0-57,0-114.08c0-1.75.61-3.65-.66-5.23,0-2.12,0-4.23,0-6.34q0-20.31,0-40.63c0-3.77.5-7.64-.1-11.3-1.27-7.82,2.79-12.37,7.66-16.66,4.77-2.62,4.64-2.42,5.15,3.46.33,3.8-2.36,6.65-1.79,10.29-.66,1.77-2.49,2.73-2.52,5-.13,7.68-1.22,15.34-.68,23-1.32,1-1,2.35-.83,4.05.88-1.07,1.22-3,2.45-.93-.74,9.85-3.89,19.41-3.11,30.57,2.86-19,5.79-36.8,9.81-54.4,2.5-11,4.49-22.12,8.23-32.73C173.15,147,173.33,148.65,174.34,149.41Z"/><path class="cls-1" d="M209.46,85.6c.65,1.27,2.25,2,1.06,4.13-3,5.47-5.7,11.15-8.52,16.75-.73-1.64-1.12-3.43-2.92-4.34-3.52-1.77-4.62-4.43-2.35-8.32.43-.74,1.31-2,.14-3.44A20.18,20.18,0,0,1,194.12,93c-1.17.79-1.29-.44-1.48-1.29,0-2.14-2-3-2.57-4.85-.48-1.65-2.56-3-.67-5,1.95,1.87,2,5.16,4.56,7.31a12.46,12.46,0,0,0,.27-6.45c-.82-3.88-1.38-7.65,1.13-11.12.37-.5-4.38-9.14-5-9.09-1.12.08-1.5,1-2,2-.39.84-.63.7-1.46-1.31-1.4-3.28-2.72-6.61-4.24-9.82-.77-1.64-1.19-3,.49-4.87l4.5,10c0-4.44.7-8.23-.15-11.54-1.74-6.79.68-11.37,5.19-15.41.95-.85,1.79-1.83,2.7-2.76,1,.92.49,2.07.78,3a20,20,0,0,0,1.51,9.86V31.82c.43-2.21-1-4.78,1.48-7.39V36.51l.73.14q2.72-8.4,5.42-16.8c.89-2.75,8.45-8.82,11-8.88,3-.08,5.62,3.85,4.24,7.68-4.28,11.89-6.21,25.53-19,31.55,1,1.25,2.06.64,2.88.93,1.05.38,3.09-1,3,.93-.07,2.07-2.2,1-3.46,1.22-.31-.08-.81-.32-.88-.21-.3.46.11.57.42.69,3.56,2.72,1.49,5.74.38,8.7-.32.62-.61,1.23.36,1.48,2.37,2.44-.09,5.66,1.34,8.72,1.38-3.17,3-6,3.86-9,1.54-5.53,5.71-7.44,9.92-9.41,1.86-.86,3.79-1.09,5.41.7,1.78,2,1.53,4.23.41,6.26-4.49,8.09-7.14,17.83-16.83,21.16,1.66,2.24,3.29.65,4.72,1.18-.48,2.08-2.07,1.53-3.33,1.71l-.91-.23C209.09,85.19,209.27,85.4,209.46,85.6Zm-10,3.58-.2.37.2-.38.19-.38C199.59,88.92,199.53,89.05,199.47,89.18Zm4-13.9V64.35C201.08,68.79,202.08,72.11,203.47,75.28ZM188.13,60.46c.06-.08.16-.16.18-.25a1.46,1.46,0,0,0,0-.41c-.09.09-.23.17-.25.28S188.09,60.33,188.13,60.46Z"/><path class="cls-1" d="M70.27,144.09c-5-8.51-9.9-17.12-15.11-25.49-2.07-3.34,1.47-3,2.05-4.59-1.65-.87-3.64.55-5.75-1.75l6.66-.35c0-.25,0-.7,0-.72-10.92-2.78-15.91-12.48-21.23-21.67-2.29-3.94-1-6.82,3.09-7.56a21.51,21.51,0,0,1,16.73,4.21c3.52,2.64,3.94,8.41,5.28,13,.46,1.56.66,3.2,1.18,5.78a42.2,42.2,0,0,0,2.44-11c.06-.8-.16-2.07,1.16-1.85,1,.16,1.28,1.1,1.16,2.08-.29,2.24-.66,4.47-1,6.7a1.66,1.66,0,0,0-.28,2.26l.91-1.73c1.7-1.76,1.14-5.92,3.37-6.07,1.9-.12,3.83,2.75,6,3.8,3.65,1.81,4.7,4.35,3.67,8.63a25.16,25.16,0,0,0-.83,10.73c1.88-2.57,3.38-4.67,4.94-6.73.48-.63,1-1.8,1.93-1.06s.77,1.75.13,2.79c-1.35,2.21-3.77,3.54-4.7,6.4,10.66-1.87,8.44-2,12.62,7,2.74,5.93,5.16,12,7.7,18.08.45,1.07,1.22,2.09.53,3.7-3.78-1-6.46-5.08-10.68-4.9l0,.06c-.53-1.2-1.08-1.34-1.67-.05-2.8-.7-5.57-1.51-7.86-3.53-1.62-1.42-3.14-2.41-5.11-.47A4.9,4.9,0,0,1,73.68,141C71.65,140.87,70.53,141.93,70.27,144.09Z"/><path class="cls-3" d="M155.08,158.24c-4.87,4.29-8.93,8.84-7.66,16.66.6,3.66.09,7.53.1,11.3q0,20.31,0,40.63c0,2.11,0,4.22,0,6.33-.08,1.47-.15,2.94-.23,4.41-1.63-2.19-2.17-1.76-2.4.93-.17,2,1.56,5.31-2.42,5.38-.18-1-.37-1.93-.5-2.6-.21,3.76-.44,7.78-.66,11.79l-2.25-.92c-.41-12,.87-23.85,1.11-35.79A259.33,259.33,0,0,0,138,176.08a5.34,5.34,0,0,0-.46-2.19c-4.61-6.52-3.26-14.13-3.31-21.44,0-2.42-.4-4.24-2.17-5.89-6-5.58-7.65-13-7.72-21.36q-.75,3.22-1.49,6.45l-.36-.06v-5.15c-4.32,1.77-3.75-2.8-5.25-4.47a8.65,8.65,0,0,1,7.64-3.38,35.32,35.32,0,0,1,4,.64l1.66,1.3.18,2.32-.18.37.18-.37,1.37.92,1.17,1.76c-.08,1.63.72,1.45,1.67,1,.55,1.33-.63,4.66,2.7,2.75,9.47-.08,9.47-.08,9.85,10.16,0,.16,0,.31,0,.46,0,1.62.6,1.88,2.11,2.69,4.09,2.19,8.16.42,12.14,1.24h0c-1.36,4.21-2.32,8.65-5.87,11.57C155,156.06,155,157.17,155.08,158.24Z"/><path class="cls-4" d="M133.77,1.75c-2.78-.21-3.63,1.45-2.7,4,5.8,15.4,9.15,31.55,11.94,47.79,2.07,12.09,3,24.41,4.45,36.62a7.25,7.25,0,0,1-6-2.5c-.72-.75-1.58-2.55-2.59-1.44-1.43,1.58.82,2,1.4,3,.46.76.92,1.51,1.39,2.25s1.27,1.91.21,2.76-2,.33-2.83-.78c-4.26-5.46-5.24-5.45-9.78-.3V62.43c1,0,2.09,2,3.83,2.43,1.59,1.66,3.49,2.32,6.44,2.41l-5.33-5.47C128.72,55.37,126,47.94,125.57,39c-.49-9.45-2.33-18.82-2.26-28.35a22.81,22.81,0,0,1,.31-4C125-.23,127.83-1.6,133.77,1.75Z"/><path class="cls-3" d="M189.4,81.86c-1.89,2,.19,3.39.67,5,.54,1.81,2.55,2.71,2.57,4.85-1.57-.5-3.12-1.07-4.71-1.46-1.42-.34-2.83-.18-3.37,1.62-.72,2.39-1.3,4.82-1.94,7.23a44.8,44.8,0,0,0-4.45,11.73c-.76,2.92-.61,4.3,1.51,5.73-.13,1.7-.27,3.39-.45,5.67l2.35-2.32c1.19,1.91,4.28,1.67,4.47,4.7-.9,7,.22,14.47-5.35,20.09-1.94,2-3.62,4.09-6.36,4.66-1-.75-1.19-2.4-2.55-2.78.26-2.38.56-4.75.76-7.13.06-.76.61-1.94-.56-2.14-.49-.09-1.11.76-1.67,1.19-3.43-.23-5.46.92-4.6,5.23.12.58-.45,1.33-.71,2l-1.79,1.65c-.49-1.22-1-2.43-1.45-3.64h0a98.05,98.05,0,0,0-5-23.61c.07-2.31-.54-4.78,1.36-7a24.09,24.09,0,0,1,6.92,10.41c.46,1.29.94,2.33,2.14,2.24s1.11-1.46,1.3-2.48c1.07-5.69,2.17-11.37,3.25-17.06,2.51-4.69,5-9.39,7.73-14.49-3.4.8-5.17,3.4-7.65,4.65-3.38-3.64-.32-7.32-.07-11,.94-2.71,2.22-5.29,2.56-8.22l2.3-8.31c1.58.16.27,2.42,1.76,2.77A15.71,15.71,0,0,1,189.4,81.86Z"/><path class="cls-5" d="M139.13,252.15l2.25.92v14.27h1.34v-9.79c3.09-.52,4,.83,4,4.25,0,5.2-.87,10.49.59,15.64l.12,81.93c-4.87,1.58-5.35-1.76-5.64-5.69-1.08-14.62-3.17-29.22-3.18-43.83,0-17.2-5.59-32.06-12.86-46.63a25.54,25.54,0,0,1-1-2.9c.92-.57,1.28-2.06,2.65-1.9a2,2,0,0,0,.73.36c1.12,4.8,4,8.66,5.8,13.17.54-3.93-2-7-2.34-10.69l3.49-.16c1.21,3.27,2.42,6.53,4,10.93Z"/><path class="cls-1" d="M22.7,140.08c3.06,2,4.51,5.65,7.32,8.69a41.92,41.92,0,0,0-1.5-9.42c-.2-.9-1.74-2.27.2-2.78,1.65-.44,1.5,1.39,1.75,2.44a39.33,39.33,0,0,0,2.29,7.66v-3.1c0-6.75,0-6.8,5.84-5.09a83.23,83.23,0,0,1,18.8,8.66c3.21,1.9,4.47,4.07,2.77,7.85a37.38,37.38,0,0,0-1.43,4.78c.49-.09.77-.05.93-.18,6.74-6.09,6.78-6.13,13,.74,2.61,2.87,5.71,5.27,7.87,9-4,0-7.81-.12-11.58,0-2.42.1-1.32,1.05-.2,1.82,1.64,2.64,1.18,3.8-1.92,3.56a7.36,7.36,0,0,1-4.23-1.48c-2.64-2.05-5.41-3.91-8.13-5.85-3-4.19-7.59-5.78-11.62-8.14-7.14-4.16-14.66-7.55-21.86-11.59-4-2.27-3.86-2.54,0-5.12C21.78,142.08,22.15,140.93,22.7,140.08Z"/><path class="cls-6" d="M156.77,120.17a98.05,98.05,0,0,1,5,23.61c-4-.82-8.05.95-12.14-1.24-1.51-.81-2.12-1.07-2.11-2.69,0-.15,0-.3,0-.46-.38-10.24-.38-10.24-9.85-10.16l2.67-6.9c.09-.37.35-1,.25-1-.46-.35-.61.11-.75.5-2.22.84-2.88,3.58-4.87,4.7-.95.5-1.75.68-1.67-1,1.92-.76,2.69-2.57,3.42-4.41.37-.12.74-.28.45-.78,0-.06-.57.21-.88.33-1.65.62-3.25,1.31-4.16,3.1l-1.37-.92h0l-.18-2.32c-.43-3.19-.63-6.57-5-6.48l3.38,5.18a35.32,35.32,0,0,0-4-.64,8.65,8.65,0,0,0-7.64,3.38,40.66,40.66,0,0,1-5.22-9c1.34-1.17,3.23.59,4.34-.65,3.67-4.12,9.57-4.65,12.73-9.51h.82c.31.35.48,1.2,1.1.35l-1.1-.34c0-.6,0-1.2,0-1.79.55.07,1.22,0,1.63.25,5,3.54,7.52,3.54,12.19-.37,1.14-1,2.15-1.93,3.69-1.69,0,5.46.16,10.91,0,16.36-.1,4,1.48,5.44,4.83,4.1C154,119,155.29,120.06,156.77,120.17Z"/><path class="cls-4" d="M22.7,140.08c-.55.85-.92,2-1.67,2.5-3.85,2.58-4,2.85,0,5.12,7.2,4,14.72,7.43,21.86,11.59,4,2.36,8.64,4,11.62,8.14-2.3,4.44-7.77,3.6-10.45,7.42-4.14-2.91-8.28-5.83-12.89-9.06l6.66-3.36c-1-.27-1.38-.48-1.69-.43C22,164.15,12.54,154,2.24,146.4c-3.53-2.6-2.71-6,1.17-8.05a26.32,26.32,0,0,1,13.83-2.7C19.86,135.76,21.18,138.16,22.7,140.08Z"/><path class="cls-1" d="M100.58,89.19c-2.46-2.17.68-2.82,1-4.2-1.17-1-3.18.66-4.08-1.87l5-.38C92.62,78.9,89.79,68.88,85.4,60.3A4.83,4.83,0,0,1,86,54.46c1.49-1.69,3.26-1.49,5-.74,4.43,1.88,8.75,3.76,10.3,9.54.83,3.11,2.49,6,4.32,10.16V64c2.63,2.92,1.12,6.5,2,10.18,1.11-2.59.22-5.28,1.34-7.08,10.9,3.64,8.29,13,7.19,22.56,2.27-2.33,2.8-4.37,3.69-6.16.37-.74.53-2,1.61-1.54s.92,1.6.42,2.65c-1.26,2.65-3.54,4.72-3.78,7.93a3.11,3.11,0,0,1-2.88,3.13c-1.59.2-1.08-2.06-1.74-3.1a7.79,7.79,0,0,1-.91-2.5c-.19-.87,1-2.19-.62-2.57a2.52,2.52,0,0,0-2.94.95c-1.55,2-3.46,3.15-5.73.87A2.09,2.09,0,0,0,100.58,89.19Z"/><path class="cls-6" d="M99.16,153.65c7.16,6.22,8.87,13.79,4.53,22.67-.89,1.82.21,2.88.72,4.11,6.79,16.16,13.43,32.39,19.49,48.9-2.85,1,0,3.24-.87,4.67,2.73,1.59,1.48,3.95,1,6.16l-16.52-42.92c-1.18-3.06-2.42-6.1-3.64-9.15-1.76-4.42-3.37-8.18-8.41-10.35-7.82-3.37-11.77-10.62-10.64-20.28a31.66,31.66,0,0,0,4.42-.58C92.7,156.25,95.24,152.42,99.16,153.65Z"/><path class="cls-7" d="M44.07,174.85c2.68-3.82,8.15-3,10.45-7.42,2.72,1.94,5.49,3.8,8.13,5.85a7.36,7.36,0,0,0,4.23,1.48c3.1.24,3.56-.92,1.92-3.56,4.61,1.67,9.26,3.23,13.43,6.05-.35.46-.94.87-1,1.36-.85,6.67-2,7.52-6.72,3.71-3.06-2.48-5.17-1.88-7.5.62-1,1-1.13,1.88.15,2.69l-.08-.06c-1.11,1.57.74,3.33-.3,5-1.79-1.28-.9-4-2.81-5.67,0,3.3-.77,4.24-3.57,2.22C54.88,183.12,49.16,179.49,44.07,174.85Z"/><path class="cls-4" d="M99.16,153.65c-3.92-1.23-6.46,2.6-9.9,3.23a31.66,31.66,0,0,1-4.42.58c-.13-1-.27-2.07-.52-4.11-1,3.65-1.71,6.37-2.54,9.48-1.15-2.27.11-4.24-.72-6.42-1.63,2.38-2.82,2.13-4.1-.38-2.06-4.08-4.44-8-6.69-11.94.26-2.16,1.38-3.22,3.41-3.05a4.9,4.9,0,0,0,3.91-1.26c2-1.94,3.49-.95,5.11.47,2.29,2,5.06,2.83,7.86,3.53.55.07,1.09,1,1.67.05l0-.06c0,3.11,2.95,3.85,4.13,6A30.39,30.39,0,0,0,99.16,153.65ZM82,155.2l-.23-.32c-.09.1-.24.2-.24.3s.13.21.21.32Z"/><path class="cls-3" d="M67,182.94c2.33-2.5,4.44-3.1,7.5-.62,4.71,3.81,5.87,3,6.72-3.71.07-.49.66-.9,1-1.36,5.92,2.28,8.31,6.39,8.45,14.5-.51,1.55-1.94,2.87-1,4.77-5,3.19-15.17.5-18.46-4.64-1.36-2.12-1.73-5-4.17-6.31l.08.06Z"/><path class="cls-6" d="M179.68,116.6c-2.12-1.43-2.27-2.81-1.51-5.73a44.8,44.8,0,0,1,4.45-11.73c3.67.76,7.23,1.64,7,7,0,.13.13.26.18.4,1.36,4.24,4.76,6.44,7.72,9.07-2,3.59-3.92,7.19-5.93,10.75-.59,1.06-1.19,2.84-2.44.51-1.54,1.38-.1,3.32-.82,4.94-2-1.93-.46-5.22-2.33-7.14-.19-3-3.28-2.79-4.47-4.7.22-1.1,1.72-1.82.52-3.38C181.08,115.25,180.47,116.83,179.68,116.6Z"/><path class="cls-4" d="M100.58,89.19a2.09,2.09,0,0,1,2.72.14c2.27,2.28,4.18,1.14,5.73-.87a2.52,2.52,0,0,1,2.94-.95c1.6.38.43,1.7.62,2.57a7.79,7.79,0,0,0,.91,2.5c.66,1,.15,3.3,1.74,3.1a3.11,3.11,0,0,0,2.88-3.13c5.36-4.07,6.57-3.72,9.17,2.62.72,1.76.72,1.76,2,1.93.21,1.31.41,2.62.62,3.93,0,.59,0,1.19,0,1.79h-.82c-.11-3.76-2-4.88-4.52-2.58a12.53,12.53,0,0,1-8.17,3.65c-3.47.21-5.63-1.81-8-4.12-.29,1.63-.5,2.79-.71,4C105.14,99,102.39,94.35,100.58,89.19Z"/><path class="cls-6" d="M89.7,196.52c-1-1.9.47-3.22,1-4.77a233.25,233.25,0,0,1,17.88,28.4c6.6,12.57,13.45,25,18.85,38.27-1.37-.16-1.73,1.33-2.65,1.9-7.32-14.85-13.94-30.09-22.17-44.39A144.29,144.29,0,0,0,89.7,196.52Z"/><path class="cls-4" d="M189.4,81.86a15.71,15.71,0,0,0-11-10.11c-1.49-.35-.18-2.61-1.76-2.77.13-.73.2-1.49.4-2.2,2.54-8.86,2.72-8.2,9.94-3.59.83,2,1.07,2.15,1.46,1.31.47-1,.85-1.91,2-2,.6,0,5.35,8.59,5,9.09-2.51,3.47-2,7.24-1.13,11.12a12.46,12.46,0,0,1-.27,6.45C191.4,87,191.35,83.73,189.4,81.86Z"/><path class="cls-4" d="M197.57,115.59c-3-2.63-6.36-4.83-7.72-9.07,0-.14-.19-.27-.18-.4.18-5.34-3.38-6.22-7-7,.64-2.41,1.22-4.84,1.94-7.23.54-1.8,1.95-2,3.37-1.62,1.59.39,3.14,1,4.71,1.46.19.85.31,2.08,1.48,1.29a20.18,20.18,0,0,0,2.75-2.66c1.17,1.42.29,2.7-.14,3.44-2.27,3.89-1.17,6.55,2.35,8.32,1.8.91,2.19,2.7,2.92,4.34A32.49,32.49,0,0,1,197.57,115.59Z"/><path class="cls-7" d="M130,101c-.21-1.31-.41-2.62-.62-3.93l-.09-4c4.54-5.15,5.52-5.16,9.78.3.86,1.11,1.78,1.61,2.83.78s.35-1.87-.21-2.76-.93-1.49-1.39-2.25c-.58-1-2.83-1.43-1.4-3,1-1.11,1.87.69,2.59,1.44a7.25,7.25,0,0,0,6,2.5c0,1.51,0,3,.07,4.53s-.05,3.06-.07,4.58c-1.54-.24-2.55.73-3.69,1.69-4.67,3.91-7.16,3.91-12.19.37C131.17,101,130.5,101.1,130,101Z"/><path class="cls-7" d="M107.71,103.72c.21-1.17.42-2.33.71-4,2.35,2.31,4.51,4.33,8,4.12a12.53,12.53,0,0,0,8.17-3.65c2.54-2.3,4.41-1.18,4.52,2.58-3.16,4.86-9.06,5.39-12.73,9.51-1.11,1.24-3-.52-4.34.65a11.3,11.3,0,0,1-2.26-4.67c1.13-.13,2.51-.48,2.19-1.89-.47-2.15-2.35-2.5-4.16-2.57Z"/><path class="cls-3" d="M124.05,240.16c.46-2.21,1.71-4.57-1-6.16.85-1.43-2-3.67.87-4.67,3.71,10.6,8.38,20.8,11.19,31.77l-3.49.16c-1.67-1.91-1.21-5-3.15-6.74Z"/><path class="cls-6" d="M147.47,359.37l-.12-81.93c0-7.35.1-14.7.1-22.05,0-5.94-.06-11.88-.09-17.82.08-1.47.15-2.94.23-4.41,1.27,1.59.66,3.49.66,5.24q.06,57,0,114.08c0,2.27.07,4.54.11,6.81Z"/><path class="cls-8" d="M173.77,223.37c1.58-3.57,3.14-7.16,4.77-10.71.4-.86.74-2.84,2-.61-3.49,10.2-6.94,20.41-10.5,30.58-.5,1.42-.48,3.44-2.43,3.87.69-2.17,2.05-4.39-.44-6.29Z"/><path class="cls-7" d="M107.79,103.84c1.81.07,3.69.42,4.16,2.57.32,1.41-1.06,1.76-2.19,1.89A9,9,0,0,1,107.79,103.84Z"/><path class="cls-4" d="M147.46,99.22c0-1.52,0-3,.07-4.58,3.25-.79,4.6-4.13,6.92-6.18,1.55-1.37,2.68-3.44,5-3.44a2.64,2.64,0,0,1,.26.88c-.18,1.43-2.71,2.08-1.53,3.66,1,1.33,2.63-.16,3.85-.53,3.27-1,6-3.7,9.68-3.52-.25,3.66-3.31,7.34.07,11,.52,3.28-1.18,6.55-.08,9.84-1.08,5.69-2.18,11.37-3.25,17.06-.19,1-.09,2.4-1.3,2.48s-1.68-1-2.14-2.24a24.09,24.09,0,0,0-6.92-10.41c-1.9,2.17-1.29,4.64-1.36,7-1.48-.11-2.74-1.16-4.45-.49-3.35,1.34-4.93-.11-4.83-4.1C147.62,110.13,147.48,104.68,147.46,99.22Z"/><path class="cls-8" d="M170.32,138.54c-3.1,6.7-3.67,14.13-5.12,21.29-2.92,14.42-5.58,28.9-8.34,43.36-1.23-2.05-1.57-.14-2.45.93-.16-1.7-.49-3,.83-4.05,2.17-10.67,4.38-21.34,5.63-32.21l0,.07A130.51,130.51,0,0,0,165,145.77c.26-.67.83-1.42.71-2C164.86,139.46,166.89,138.31,170.32,138.54Z"/><path class="cls-6" d="M160.87,167.86c-1.2,1.1-.91,3.25-2.43,4.13-.57-3.64,2.12-6.49,1.79-10.29-.51-5.88-.38-6.08-5.15-3.46,0-1.07,0-2.18.82-2.89,3.55-2.92,4.51-7.36,5.87-11.57.48,1.21,1,2.42,1.45,3.64h-.11c-1.05-1-1.18-.07-1.34.77-1.35.95-.74,2.43-.76,3.67-.09,5.36-.09,10.72-.11,16.08Z"/><path class="cls-9" d="M203.47,64.35V75.28"/><path class="cls-10" d="M199.47,89.17l-.2.38.2-.37Z"/><path class="cls-10" d="M199.47,89.18c.06-.13.12-.26.19-.39l-.19.38Z"/><path class="cls-3" d="M147.36,237.57c0,5.94.09,11.88.09,17.82,0,7.35-.06,14.7-.1,22.05-1.46-5.15-.58-10.44-.59-15.64,0-3.42-.95-4.77-4-4.25-.57-4.55-.25-9.11-.18-13.67,4-.07,2.25-3.39,2.42-5.38C145.19,235.81,145.73,235.38,147.36,237.57Z"/><path class="cls-3" d="M142.54,243.88c-.07,4.56-.39,9.12.18,13.67v9.79h-1.34V253.07c.22-4,.45-8,.66-11.79C142.17,242,142.36,242.92,142.54,243.88Z"/><path class="cls-6" d="M130.76,122.85l-.18.37.18-.37Z"/><path class="cls-11" d="M129.91,102.82l1.1.34c-.62.85-.79,0-1.1-.35Z"/><path class="cls-3" d="M163.11,147.41c-.19.8-.73.86-1.34.77C161.93,147.34,162.06,146.42,163.11,147.41Z"/></g></g></g></svg>