<svg xmlns="http://www.w3.org/2000/svg" viewBox="0 0 189.72 188.27"><defs><style>.cls-1{fill:#52694f;}.cls-2{fill:#475c46;}.cls-3{fill:#253b23;}.cls-4{fill:#5f7656;}.cls-5{fill:#344d39;}.cls-6{fill:#b29648;}.cls-7{fill:#9e9e9e;}.cls-8{fill:#79825c;}.cls-9{fill:#455026;}</style></defs><title>trava_spodaj_desno_3</title><g id="Layer_2" data-name="Layer 2"><g id="RASTLINE"><g id="_2_PRAPROT" data-name="2 PRAPROT"><path class="cls-1" d="M182.31,63.26l-2,1.88c-.32,1.39-.65,2.77-1,4.16a20.15,20.15,0,0,1,3.09,11.18c6.42,1,3.26-6.81,7.32-8V60C186.09,58.45,185,62.55,182.31,63.26Z"/><path class="cls-2" d="M47.06,102.62c-1.36,7.81-7.81,0-10.53,3.42-1,17.46,15.5,10.56,23.32,16.85-1,6.7-18.17,9.19-6.05,19.76,3,.72,3.25,3,3.26,5.52a1.51,1.51,0,0,0,.2,1.81c9.31,6.7,15.3-1.52,22.35-5,.5-2.9-1.46-3.74-3.67-4.35-9.1-2.8-17.74-5.71-6.62-16.67.89-.88.47-3.08.67-4.67a2,2,0,0,0-.6-1.93c-.66-1-1.31-2-2-3,.1-2.33-3.19-3.72-1.49-7.19l25.2,13.63A47.14,47.14,0,0,0,91.31,99c-1-4.24-.34-6.24,4-6.62-.59-3.42-4.07-5.93-3.08-9.84-3.75-2.58-2.27-6.43-2.42-9.89l0,.14c-6,1.51-8.82-2.58-12-6.54C71.1,57.87,64.19,49.63,57,41.69c-2.36-2.59-5.89-5.32-9.69-3.9-4.85,1.8-2,6.24-2.14,9.62,8.94,3.5,1.71,17.65,14.69,18.43-4.61,3-7,0-10.42.47.32,14.4,15.33,16.28,21.42,25.43-4.06,2.18-7-1.49-10.51-2-5.34,3.23,1.55,9.4-3.08,12.79,1.81.33,4,.27,3.81,3a1.13,1.13,0,0,1-.79.77c-2.75.17-2.7-2-3-3.78Z"/><path class="cls-3" d="M79.61,145c-7,3.46-13,11.68-22.35,5-.74,3.91,1,6,4.62,7.55,4.15,1.71,7.89,4.28,7.55,9.72,4.15,9.19,11.57,9.77,20,7.62l.2-.14c7.26-7.39,13.7-7.71,19,2.16,4.27,1,9.65.86,8.62,7.77l14.8,0c-1.85-8.33,3.22-11.32,10-13a57.86,57.86,0,0,1,2.74-19.33l.1-5.14q-.78-12.36-1.58-24.72,0-9.09-.08-18.18c-4.6,2.53-4.12,7.08-3.56,11,1.7,12-6.77,19.9-10.5,30.43-4.5-6,2-14.31-5.88-18.15V147l-2.39.17q-1.92-12.33-3.82-24.65h-1.23l-1.24,0-.15,4.87c.51,10.54,2.47,21.6-9.83,27.58-2.27,7.75-8.39,12.2-15.45,11.21-7.29-1-1.3-9.5-4.49-13.66Q82.17,148.74,79.61,145Z"/><path class="cls-1" d="M123.33,127.61c7.92,3.84,1.38,12.1,5.88,18.15,3.73-10.53,12.2-18.44,10.5-30.43-.56-3.9-1-8.45,3.56-11l-.14-1c-4.32-3-4.24-6.07,0-9.13,4.49-19.35-6.76-35.52-11.23-53-1.92-7.49-4.51-.91-6.12,1.69l-1.62,4.77,1.09-.42c6.72,2.47,7.61,7.9,6.17,13.72-1,4-4.23,2.58-6.88,1.31-.57.8-1.14,1.61-1.7,2.42,2.21,5.32,3.76,9.47,1.19,16.41-4.42,11.93,7.79,19.41,13.19,28.67-.29,1.87-.06,4.41-2.85,4.12-.79-.09-1.35-2.4-2-3.69-6.26-2.37-11.06-2.73-9.74,6.47C123.09,120.34,123.1,124,123.33,127.61Z"/><path class="cls-4" d="M143.35,122.53q.79,12.36,1.58,24.72c6.45-4.21,7.47-14.8,17.46-14.86,0-2.26,0-4.52,0-6.78,0-4,1.24-6.23,5.69-4.33l-.4-.68.51.58c.54-3.9,1.1-7.79,1.65-11.68,1.15-3,1.43-7.17,3.6-8.7,7.33-5.15,8.7-12.36,8.94-20.32a20.15,20.15,0,0,0-3.09-11.18L175,72.76l0,0-12.06,15c-.59,3.17-1.24,6.32-3.83,8.6C154.26,105.3,150.84,115.14,143.35,122.53Z"/><path class="cls-1" d="M47.06,102.62l10.17-.14h0c4.63-3.39-2.26-9.56,3.08-12.79-5-2.39-8.67-6-12.57-10.07C40.36,71.87,38,60.34,28.25,54.69c-5.2.53-10.48.89-13.76,5.9,3,7.18,6.27,14.27,9,21.54,3.07,8.09,10.73,7.85,17.1,10,13-3.19,3.91,7.25,6.5,10.48Z"/><path class="cls-5" d="M84.8,0c-8.07,5.9.38,13.68-1.83,20.88C82,24,78.77,33.78,86.76,37.72c8.64,1.27,4.38,8,5.3,12.53,0,.76.09,1.52.15,2.27,3.6-6.94,8.34-6.54,13.7-2.14Q98.19,29.09,90.45,7.79Z"/><path class="cls-6" d="M142.09,171.72c-6.8,1.66-11.87,4.65-10,13,10.49,5.08,21.05,1.74,31.61.3,3.43-.47,5.48-2.38,5.39-5.63-.13-5.12-1.33-9.93-7.25-11.6l-2.65,2.35c-2.75,9.39-7.77,1.7-11.78,1.57Z"/><path class="cls-5" d="M159.17,170.12l2.65-2.35c-2.64-8.67,8.27-15.5,3.34-24.49-4.67,7.71-13.06,7.17-20.33,9.11a57.86,57.86,0,0,0-2.74,19.33l5.3,0C150.53,165.3,155.44,172.11,159.17,170.12Z"/><path class="cls-2" d="M28.25,54.69c-4.46-6.1-7.95-13-14.39-17.47L0,25.8C.56,41.23,14.82,47.85,14.49,60.59,17.77,55.58,23.05,55.22,28.25,54.69Z"/><path class="cls-2" d="M105.91,50.38c-5.36-4.4-10.1-4.8-13.7,2.14.76,6.06-1,11.77-2.49,17.5.06.91.11,1.82.17,2.73l0-.14c4.11-2.49,8.32,4.81,12.4-.14v0c-1.82-1-1.56-1.86.28-2.5,4.39-3.16-.19-9.94,5.13-12.72C107.09,55,106.5,52.68,105.91,50.38Z"/><path class="cls-7" d="M89.46,174.87c-8.46,2.15-15.88,1.57-20-7.62-6.32,5.17-5.29,13.22-3.4,18.51,1.3,3.64,10,3.2,14.5-.48,3.47-2.86,5.8-1.7,8.65.09Q89.33,180.12,89.46,174.87Z"/><path class="cls-6" d="M89.46,174.87q-.13,5.25-.28,10.5l.26,0,2.9,1.88c8.33-.66,17.17,3.5,24.93-2.63,1-6.91-4.35-6.73-8.62-7.77-6.18-2-12.56-2.3-19-2.16Z"/><path class="cls-2" d="M144.83,152.39c7.27-1.94,15.66-1.4,20.33-9.11,8.83-6.1,0-7.72-2.77-10.89-10,.06-11,10.65-17.46,14.86C144.9,149,144.87,150.68,144.83,152.39Z"/><path class="cls-5" d="M107.67,57.27c-5.32,2.78-.74,9.56-5.14,12.72l-.27,2.5v0l2.67,2.39,5.31,0c0-2.06-.07-4.12-.11-6.19-.23-2.89-.47-5.78-.7-8.67a.93.93,0,0,1-.09-1.6A10.74,10.74,0,0,0,107.67,57.27Z"/><path class="cls-8" d="M124.5,62.36c2.65,1.27,5.9,2.69,6.88-1.31,1.44-5.82.55-11.25-6.17-13.72Q124.85,54.85,124.5,62.36Z"/><path class="cls-2" d="M47.13,102.65c-2.59-3.23,6.46-13.67-6.5-10.48-.18,4.37-3.77,2.36-5.87,3.13,0,1.6-.06,3.21-.08,4.82Z"/><path class="cls-2" d="M169.86,109.5c-.55,3.89-1.11,7.78-1.65,11.68,2.28-.93,4.63-1.72,6.8-2.85,3.66-1.89,3.8-6.12,2.9-8.66C176.06,104.49,172.61,112.24,169.86,109.5Z"/><path class="cls-2" d="M92.06,50.25c-.92-4.53,3.34-11.26-5.3-12.53q.15,9.91.32,19.85Z"/><path class="cls-4" d="M92.06,50.25l-5,7.32c.29,4.28-2.18,9.14,2.64,12.45,1.53-5.73,3.25-11.44,2.49-17.5C92.15,51.77,92.1,51,92.06,50.25Z"/><path class="cls-3" d="M143.13,103.39l1.32-5.86-1.36-3.27C138.89,97.32,138.81,100.36,143.13,103.39Z"/><path class="cls-2" d="M168.1,121.28c-4.45-1.9-5.72.36-5.69,4.33Z"/><path class="cls-1" d="M34.68,100.12c0-1.61,0-3.22.08-4.82-1.55-.14-3-.12-3,2C31.87,99.11,33,99.91,34.68,100.12Z"/><path class="cls-3" d="M57.06,148.17c0-2.48-.28-4.8-3.26-5.52C54.25,144.86,54.89,147,57.06,148.17Z"/><path class="cls-7" d="M92.34,187.29l-2.9-1.88Z"/><path class="cls-5" d="M70,119.31c-.2,1.59.22,3.79-.67,4.67-11.12,11-2.48,13.87,6.62,16.67,10.3-1.3,16.17,8.79,25.52,9.95.38-.33.75-.66,1.11-1l2.09-2.05c-2-3,5.17-8.29-2.38-10-4.27.22-13.14,5.83-7-6.18.62-1.22-1.92-4-3-6.12C84.48,124.6,76.59,124.39,70,119.31Z"/><path class="cls-4" d="M95.35,92.34c-4.38.38-5,2.38-4,6.62a47.14,47.14,0,0,1-.17,21.87l.29-.2c7.54,2.6,13,3.49,9.25-7.91C99.12,108,100,102.4,99.81,97.2A6.26,6.26,0,0,0,95.35,92.34Z"/><path class="cls-4" d="M104.92,74.86l-2.67-2.39c-4.08,5-8.29-2.35-12.4.14.15,3.46-1.33,7.31,2.42,9.89,5.79.72,8.12,8.76,15,7.12C109.81,84.17,107,79.57,104.92,74.86Z"/><path class="cls-1" d="M57.23,102.48c.32,1.82.27,4,3,3.78a1.13,1.13,0,0,0,.79-.77c.15-2.74-2-2.68-3.81-3Z"/><path class="cls-5" d="M69.39,117.38c-.66-1-1.31-2-2-3C68.08,115.39,68.73,116.39,69.39,117.38Z"/><path class="cls-2" d="M107.31,89.62c2,4.78,1.08,5.67-7.5,7.58.22,5.2-.69,10.76.87,15.52,3.74,11.4-1.71,10.51-9.25,7.91.27,1.53.56,3.05.84,4.57,1.07,2.08,3.61,4.9,3,6.12-6.12,12,2.75,6.4,7,6.18,2.36-5.44,4.68-10.94,12.22-10.17l.15-4.87c-2.93-5.27-5.2-10.47,1.38-14.87-3.35-10.67-.77-22.4-5.8-32.78l-5.31,0C107,79.57,109.81,84.17,107.31,89.62Z"/><path class="cls-9" d="M114.5,127.33c-7.54-.77-9.86,4.73-12.22,10.17,7.55,1.75.35,7,2.38,10l-2.09,2.05c-.36.35-.73.68-1.11,1a1.59,1.59,0,0,0-.39,1.29l3.6,3C117,148.93,115,137.87,114.5,127.33Z"/><path class="cls-5" d="M104.67,154.91l-3.6-3-8.87.7c-.81,1.77-1.62,1.82-2.44,0l-5-.14c3.19,4.16-2.8,12.64,4.49,13.66C96.28,167.11,102.4,162.66,104.67,154.91Z"/><path class="cls-7" d="M89.66,174.73c6.43-.14,12.81.16,19,2.16C103.36,167,96.92,167.34,89.66,174.73Z"/><path class="cls-9" d="M116,107.59c-6.58,4.4-4.31,9.6-1.38,14.87l1.24,0h1.23A32.79,32.79,0,0,0,116,107.59Z"/><path class="cls-3" d="M137.18,109.86l-4.86.43c.66,1.29,1.22,3.6,2,3.69C137.12,114.27,136.89,111.73,137.18,109.86Z"/><path class="cls-3" d="M159.17,170.12c-3.73,2-8.64-4.82-11.78,1.57C151.4,171.82,156.42,179.51,159.17,170.12Z"/><path class="cls-4" d="M102.26,72.49l.27-2.5C100.7,70.63,100.44,71.44,102.26,72.49Z"/><path class="cls-3" d="M102.57,149.59l2.09-2.05Z"/><path class="cls-3" d="M89.76,152.6c.82,1.81,1.63,1.76,2.44,0A3.27,3.27,0,0,0,89.76,152.6Z"/></g></g></g></svg>