<svg xmlns="http://www.w3.org/2000/svg" viewBox="0 0 170.7 199"><defs><style>.cls-1{fill:#59a022;}.cls-2{fill:#163018;}.cls-3{fill:#274f16;}.cls-4{fill:#296313;}.cls-5{fill:#1e3d10;}.cls-6{fill:#5b7251;}.cls-7{fill:#516147;}.cls-8{fill:#405741;}.cls-9{fill:#26442a;}</style></defs><title>trava_spodaj_levo_1</title><g id="Layer_2" data-name="Layer 2"><g id="RASTLINE"><g id="_1_BUSH" data-name="1 BUSH"><path class="cls-1" d="M23,116.71c-6.89-13.43-12.9-33.54-15.44-52.43l17.4,24.1.76-.46c-3.41-6.49-6.79-13-10.23-19.47-3.07-5.8-6-11.68-9.36-17.34-3.49-5.91-4.51-12.52-6-19-.11-.49,0-1.46.19-1.53,2.4-.84,4.81-1.95,7.28-2.14,1.93-.16,1.83,2.3,2.34,3.65,9.94,26.3,19.8,52.63,30.42,78.79-1-4.49-1.94-9-3-13.47q-8.35-34.53-16.8-69c-.66-2.7-.11-4.05,2.82-4.6a65.85,65.85,0,0,0,9.85-2.7c2-.73,2.47-.05,2.67,1.77C37.51,38.42,39.2,54,41.05,69.58s3.87,31.07,5.79,46.61a16.27,16.27,0,0,0,1.08,5v-31c0-23.06,0-46.13,0-69.2,0-2.93.47-4.43,3.82-5.28,10.43-2.65,10.34-2.87,9.87,8.13C61,36.47,60.57,49,60.08,61.59c-1.79.66-2.67,1.49-2,3.77,1.15,3.91,1.79,8,2.64,12-2.57-.06-1.59,1.93-1.63,3.09-.43,13.43-.76,26.87-1.14,40.31-.11,3.81-1.16,7.62-.06,12.32.78-6.21,1.38-11.57,2.13-16.9,1-7.28,2.18-14.54,3.28-21.81.66.4.77,1.07,1,1.75,1.55,4.79,1.44,10,3.46,14.65l-.06,3.4c-.06,2.85-.73,5.63-1,8.47-.85,8.65-1,17.37-2.6,25.94-1.88-.39-3-1.47-1.89-3.3,2.07-3.3,0-4.11-2.53-4.41-2.34-.28-3.37-1.39-4.12-3.58s-2.47-3-4.57-1.22c-1.17,1-2.3,2.07-3.45,3.1q-9.74-16-19.49-31.93l-.8.44q1.64,5.4,3.29,10.79a3.15,3.15,0,0,1-3.26-1.4C25.91,114.35,24.46,115.74,23,116.71Zm3.78-11.39c-.06.28-.2.54-.13.74.12.37.36.36.54,0a.43.43,0,0,0,0-.35A2.71,2.71,0,0,0,26.74,105.32Z"/><path class="cls-2" d="M106.87,173.91a1.49,1.49,0,0,0,.5-.43c2.22-.51,1.48-2.24,1.51-3.66.12-.5.23-1,.35-1.51,1.76-.34,1.45-1.64,1.34-2.85a.47.47,0,0,1,.19-.61c1.53.12,4.14-1.25,3.21,2.3-1.51,5.7-5.9,10.52-5.13,16.94.12,1-1.27,1.07-1.67,1.69-1.19,1.88-2.84,4-.51,6,2.51,2.16,9.24,0,11-3,1.16-2,.91-5.45,2.29-6,4.13-1.73,2.45-4.83,2.76-7.51,1.93.92,1.61-1.44,2.66-1.82,2.23-.27,3.08,2.1,4.91,2.6-1.38,5-2.85,10-4.08,15.07-.31,1.25-2.1,3.41-.13,3.81,1.8.36,4.59-.08,5.34-3,.49-1.9,1.25-3.72,1.89-5.57,2.65-.47,2.34-2,1.33-3.75.12-.47.23-.94.35-1.41,1.21,0,2.32.07,2.36,1.68l-.19.39.21-.36c1.08-.48,2.27-1.33,2.55.79-.24.6-.48,1.2-.71,1.8-.89.59-1.74,1.66-.58,2.2.91.43,1.73-1,2.23-2l3.42-3.63c1-.11,2.2.12,2.88-.39,4-3,4.52.07,5.62,2.83.61,1.52-1.82,3.32.6,4.48l-.39.81c-1.51,1.25-.91,2.92-.9,4.47l-.23,1.51c-1.78.24-1.42,1.75-1.7,2.88-21.2.33-42.4.45-63.6-.06-.24-.36-.49-.72-.73-1.09a194.66,194.66,0,0,1-4.46-21.28c-.82-3.83-1.49-7.71-2.52-11.48-.64-2.3.27-5.17-2.3-6.82-.43-2.34.78-4.92-1.08-7-.06-1.93-.11-3.87-.16-5.81l6.06.91c-.27,5.34,1.91,10.28,2.53,15.47Q85.42,171.23,87,181l-.61,0V152.24c.13-1.52.27-3,.4-4.56,2.22-.5,3.72-.36,3.35,2.68-.18,1.41-1,3.5,1.46,4.19l.18,6c-2.53,2.36-.55,5-.44,7.53.23,5,1.48,10-.92,15a5.14,5.14,0,0,0,1.37,6.61c1.85,1.37,3.19,1.34,3.41-1.35.14-1.84.06-3.72.37-5.52a2.47,2.47,0,0,1,1.73-1.59c.81-.08-.09,1.7,1.3,1.78.29-1.51.57-3,.86-4.56,0-1.68.08-3.37.13-5.06l-.09.08c1.44-1.44,1.28-3.46,1.91-5.2,1.79-2.17,3.19-1.84,4.06.74.29.87-.07,2,.76,2.7,0,.5,0,1-.07,1.49-.52.85-1.47,2.32-.81,2.62C106.77,176.45,106.13,174.43,106.87,173.91Z"/><path class="cls-2" d="M78.13,187.44c-.95,11.48-.95,11.48-12.25,11.48l-25.76,0c-1.51,0-3.31.49-3.8-1.72-1.66-7.57-3.3-15.14-5.2-23.89l6.49,4.38c.15,1,.24,2.14,1.68,1l1-.13c.81.48,1.2,2.83,2.62.3a29.65,29.65,0,0,1,3.81-4.59c2.69.3,1.33,3.14,3.13,3.88.94-1,.62-2,.26-2.92-1.65-4.25-3.66-8.4-4.89-12.76-1.68-6-5.2-11.47-4.81-18q5.94,7.61,11.87,15.2l-.07-.09a2.68,2.68,0,0,1,.1.79c1.13,5.51,7.9,5.08,10.05,9.56q1-9.94,2-19.83c2.19-2.78,2.68-6.35,4.42-9.34,1.4,2.07.77,4.3.44,6.48a58.82,58.82,0,0,0-.54,14.09,39.18,39.18,0,0,0-1.64,14c2.34-.65,2.46-2.19,2.48-3.78s1-1,1.76-.81a6.91,6.91,0,0,0,.74,3.63c-4.79,1.93.78,4.56-.58,6.83.81-1.85,1.21-3.94,3.86-3.52s2.42,2.78,2.73,4.58A37.34,37.34,0,0,1,78.13,187.44Zm-27-6.24-.17-.33c-.08.1-.22.19-.23.29s.11.22.17.33Z"/><path class="cls-1" d="M66.84,63.44C68.28,53,69.75,42.6,71.15,32.18c.92-6.91,1.81-13.82,2.61-20.74.27-2.38,2.14-2.63,3.7-2.75,2.19-.16,1.28,1.84,1.28,2.86.09,13.45.08,26.9.09,40.35a8.48,8.48,0,0,0,.63,3.87q2.69-18.68,5.39-37.33c.49-3.37,1.34-6.71,1.56-10.1.16-2.29,1.49-2.84,3.16-3.26,2.1-.52,2.83-.26,2.49,2.49-2.3,18.49-4.29,37-6.41,55.56-.21,1.83-.61,3.64-.93,5.46-.85.9-3.52-.32-2.94,2.07,1.36,5.63-.41,11.45,1.3,17a4.79,4.79,0,0,0-.74,1.41c-1.27,10.63-2.49,21.26-3.73,31.9-2.27-1-.65-3.8-2.26-5.13,0-1.13-.09-2.27-.14-3.4L73.9,96.53a79.7,79.7,0,0,0,1.51-14.39L73,84.91c-2.57-3-.67-6.94-2.36-10.12C68.69,71.23,71,66.28,66.84,63.44Z"/><path class="cls-1" d="M91.79,72.06c2.75-9.84,4-20,6-30,2.54-12.82,4.8-25.7,7.23-38.54.42-2.23,7.07-4.56,8.63-3.09.85.8.53,1.89.35,2.84Q107,39.45,99.9,75.61a196,196,0,0,0-3.27,21.87c2.1-6.11,4.18-12.23,6.31-18.34.42-1.2.3-3.07,2.65-2.22,1.78.65,3.35.86,3,3.63-1.26,10-2.19,20.1-3.25,30.16l-4-.39-.35-1.59-1.64,2c-1.51-.5-4.55,1.35-3.87-2.54.12-.66-.44-1-1-1.14-1-.23-1.14.6-1.44,1.2-1,2-.89,4.39-3,6.53.91-7.49,1.75-14.38,2.58-21.27C95,88.86,95.24,83.73,96,78.74,96.47,75.55,95.24,73,91.79,72.06Z"/><path class="cls-3" d="M73.9,96.53l2.31,15.92c-3.1.82-5.55-1.57-8.46-1.73-2-4.68-1.91-9.86-3.46-14.65-.22-.68-.33-1.35-1-1.75.51-5.88-2.32-11.24-2.58-17-.85-4-1.49-8-2.64-12-.67-2.28.21-3.11,2-3.77l6.76,1.85c4.12,2.84,1.85,7.79,3.75,11.35C72.28,78,70.38,82,73,84.91,71.56,88.92,73.34,92.68,73.9,96.53Z"/><path class="cls-4" d="M136.56,120.35a.63.63,0,0,1-.13.64c-2.48.41-1,1.76-.68,2.84q-1.47,7.08-2.93,14.17c-.86.94-.67,1.91-.28,3.43l1-2.8q2.34-5.81,4.66-11.62c2.82-.68,1.39-2.9,1.64-4.51.1-.5.21-1,.31-1.48,1.78.08,4.18-2.57,5.12,1.17a231.52,231.52,0,0,1-6.32,22.86c-5-3.81-6.07,2.39-9.2,3.89-.14-3.33-.44-6.24-4.68-5.54-.61-.79-1-1.34-1.56.16-1.4,4-2.94,7.91-4.42,11.86l-4.15-.94c2.76-9.44,7-18.33,10.53-27.48l.57-1,0,0c2-.14,2.44-.92,1-2.46.22-.58.44-1.17.65-1.75,2.28.1,3-1.73,4.14-3.19.88-1.13,2.21-2.07,3.69-1.62S136.23,119.2,136.56,120.35Z"/><path class="cls-1" d="M111.75,116.72c2.21-10.83,4.53-21.64,6.56-32.5.41-2.22,1.1-2.66,3-1.93a3,3,0,0,0,.43.06c9.81,2.4,9.81,2.41,7,12q-3.14,10.8-6.28,21.61C118.85,115.63,115.25,115.53,111.75,116.72Z"/><path class="cls-3" d="M40.36,144.54c-.39,6.52,3.13,12,4.81,18,1.23,4.36,3.24,8.51,4.89,12.76.36.94.68,1.89-.26,2.92-1.8-.74-.44-3.58-3.13-3.88a29.65,29.65,0,0,0-3.81,4.59c-1.42,2.53-1.81.18-2.62-.3-.13-.5,0-1.31-1-.91l.09,0c-1.93-6.12-6.19-10.9-9.5-16.21a23.36,23.36,0,0,1-3.6-11.07c-.33-1.85,1.37-4.24-1.45-5.43-.28-1.28-.56-2.55-.83-3.83l4.14,1.27c4.54,7,7.87,14.79,12.77,21.61.17.51-.13,1.63.79,1.26.62-.25.12-1.16-.35-1.68Q39.69,159,38,154.28c.55-.91,1.1-1.82,1.83-3l-2.82.65c0-.28-.1-.56-.16-.85.88-.5,1.75-1.18,1.26-2.26-1.1-2.41.29-3.56,2.06-4.61C40.36,144.24,40.42,144.35,40.36,144.54Zm3.13,24.72.51,1.09c.11-.09.31-.24.3-.27-.18-.34-.39-.67-.59-1-.19-.74.14-1.73-.85-2.09-.17-.06-.72.37-.77.64C41.86,168.7,42.67,169,43.49,169.26Z"/><path class="cls-5" d="M114.92,154.48l4.15.94a15.84,15.84,0,0,0,.6,5.43c1,4.81,2,9.62,3,14.43-.31,2.68,1.37,5.78-2.76,7.51-1.38.58-1.13,4-2.29,6-1.74,3-8.47,5.16-11,3-2.33-2-.68-4.16.51-6,.4-.62,1.79-.68,1.67-1.69-.77-6.42,3.62-11.24,5.13-16.94.93-3.55-1.68-2.18-3.21-2.3A42.71,42.71,0,0,1,114.92,154.48Z"/><path class="cls-1" d="M150.84,131.25c3.48-11.07,7-22.13,10.39-33.23.56-1.81,1.3-1.62,2.77-1.2,7.31,2.05,7.51,2,5.86,9.29-2,8.91-7.88,15.91-12.41,23.56-1.27-.12-2.76.14-2.92-1.79l.19-.37-.2.36C153.27,129,153.91,132.12,150.84,131.25Z"/><path class="cls-3" d="M154.53,127.88c.16,1.93,1.65,1.67,2.92,1.79l-2.23,3.83v.23c-.25.21-.67.41-.15.74.05,0,.32-.26.49-.4l1.49-.52,7.2-4.19a190,190,0,0,1-12,27.82c-3-1.52-4.2-3.54-1.73-6.47l-2.83-.48c-.08-.54-.08-1.16-.79-1.27-.13,0-.48.33-.46.47.1.71.73.71,1.27.79-2,2.08-.73,6.47-5,6.91,2-8.85,5.49-17.23,8.16-25.88,3.06.87,2.42-2.29,3.67-3.38Z"/><path class="cls-3" d="M125.05,143.4c4.24-.7,4.54,2.21,4.68,5.54,3.13-1.5,4.22-7.7,9.2-3.89l-8.67,31c-1.83-.5-2.68-2.87-4.91-2.6a14.5,14.5,0,0,0,.91-6.63C125.79,159,125.44,151.21,125.05,143.4Z"/><path class="cls-5" d="M99.43,178.45c-.29,1.52-.57,3.05-.86,4.56-1.39-.08-.49-1.86-1.3-1.78a2.47,2.47,0,0,0-1.73,1.59c-.31,1.8-.23,3.68-.37,5.52-.22,2.69-1.56,2.72-3.41,1.35a5.14,5.14,0,0,1-1.37-6.61c2.4-5,1.15-10,.92-15-.11-2.49-2.09-5.17.44-7.53,3-4.1,3.92-9.26,6.62-13.53.76,1.73-.88,4.75,2.69,5-.39,7.17-1.89,14.27-1.59,21.49l.09-.08A3.94,3.94,0,0,0,99.43,178.45Z"/><path class="cls-4" d="M91.79,72.06c3.45.94,4.68,3.49,4.2,6.68-.75,5-1,10.12-3.38,14.74-1-.41-1.43-1.31-2-2.15-.7-1.06-1.53-2.34-3-1.87s-1,1.92-1,3c0,2.34-1.27,3.64-3.24,4.49-.11-3.08-.21-6.17-.32-9.26-1.71-5.56.06-11.38-1.3-17-.58-2.39,2.09-1.17,2.94-2.07C86.18,71.57,89.36,71.06,91.79,72.06Z"/><path class="cls-3" d="M111.75,116.72c3.5-1.19,7.1-1.09,10.72-.76l-1.31,1.56c-.62.12-1.44,0-1.55.88s.63,1.34,1.33,1.72a264.1,264.1,0,0,1-8.5,29.32c-3.23-1.85.29-6.07-2.81-8.21-1.27,2.05-1.67,4.5-3.93,5.58Q108.73,131.76,111.75,116.72Z"/><path class="cls-5" d="M147.64,150.23l2.83.48c-2.47,2.93-1.32,4.95,1.73,6.47-.12.25-.23.51-.35.77-2.19.33-1.54,2.05-1.65,3.39Q145,172.52,139.89,183.7c-.28-2.12-1.47-1.27-2.55-.79l0,0c0-1.61-1.15-1.71-2.36-1.68a83.71,83.71,0,0,1,4.22-12.92,1.65,1.65,0,0,0,.63-1.92,4.7,4.7,0,0,1,1-3.24c.11-.07.33-.15.33-.2a3.86,3.86,0,0,0-.2-.66l1.71-5.13c4.24-.44,3-4.83,5-6.91Z"/><path class="cls-4" d="M40.17,144.2c-1.77,1.05-3.16,2.2-2.06,4.61.49,1.08-.38,1.76-1.26,2.26Q29.32,134.14,23,116.71c1.5-1,2.95-2.36,4.3.31a3.17,3.17,0,0,0,3.26,1.41c.39,1.32.79,2.65,1.19,4l.55,1.15C35.09,130.37,36.39,137.76,40.17,144.2Z"/><path class="cls-1" d="M136.56,120.35c-.33-1.15.53-2.86-1.1-3.35s-2.81.49-3.69,1.62c-1.12,1.46-1.86,3.29-4.14,3.19,4-10.34,8-20.66,11.94-31,.61-1.62,1.55-1.9,2.93-1.34,1.13.45,1.8,1,1.37,2.6C141.29,101.44,139.59,111.06,136.56,120.35Z"/><path class="cls-5" d="M105.7,146.81c2.26-1.08,2.66-3.53,3.93-5.58,3.1,2.14-.42,6.36,2.81,8.21-3.11,7.14-3.35,15.08-6.24,22.27-.83-.75-.47-1.83-.76-2.7-.87-2.58-2.27-2.91-4.06-.74l3.42-17.16c.58-.13,1.37.31,1.64-.62l-1.46-.36Z"/><path class="cls-3" d="M101.06,152c-3.57-.21-1.93-3.23-2.69-5q1.5-18.35,3-36.7l4,.39a8.71,8.71,0,0,1-.76,4.27,6.28,6.28,0,0,0-.23,6Q102.7,136.48,101.06,152Z"/><path class="cls-1" d="M145.25,122.19c-.94-3.74-3.34-1.09-5.12-1.17,3.11-8.64,6.19-17.29,9.34-25.91.44-1.22.68-3,2.78-2.31,1.93.65,1,1.9.62,3.09C150.41,104.68,148.33,113.58,145.25,122.19Z"/><path class="cls-3" d="M78.13,187.44a37.34,37.34,0,0,0-.19-5.08c-.31-1.8,0-4.16-2.73-4.58s-3,1.67-3.86,3.52c1.36-2.27-4.21-4.9.58-6.83,2.41-1.63,2-4.3,2.45-6.65.6-3.33.49-6.8,2.14-9.9,2.57,1.65,1.66,4.52,2.3,6.82,1,3.77,1.7,7.65,2.52,11.48C78.86,179.56,80,183.93,78.13,187.44Z"/><path class="cls-5" d="M153.35,189c-2.42-1.16,0-3-.6-4.48-1.1-2.76-1.64-5.83-5.62-2.83-.68.51-1.91.28-2.88.39l12.2-13.9C156.52,175.44,154.72,182.17,153.35,189Z"/><path class="cls-6" d="M28.14,142.49,24,141.22c-.37-2.46-1.73-4.78-1-7.39l-.06.08C25.45,136.31,26.69,139.47,28.14,142.49Z"/><path class="cls-6" d="M24.83,145.05c2.82,1.19,1.12,3.58,1.45,5.43C25.19,148.84,25.42,146.83,24.83,145.05Z"/><path class="cls-5" d="M150.13,198.65c.28-1.13-.08-2.64,1.7-2.88C151.84,197.07,152.54,198.78,150.13,198.65Z"/><path class="cls-6" d="M120.94,120.12c-.7-.38-1.45-.78-1.33-1.72s.93-.76,1.55-.88C122.68,118.52,121.74,119.31,120.94,120.12Z"/><path class="cls-6" d="M139.82,122.5c-.25,1.61,1.18,3.83-1.64,4.51A8.27,8.27,0,0,1,139.82,122.5Z"/><path class="cls-5" d="M134.61,182.61c1,1.76,1.32,3.28-1.33,3.75C133.66,185.09,133.61,183.66,134.61,182.61Z"/><path class="cls-6" d="M104.35,121a6.28,6.28,0,0,1,.23-6A16.76,16.76,0,0,1,104.35,121Z"/><path class="cls-7" d="M37,151.92l2.82-.65c-.73,1.19-1.28,2.1-1.83,3Z"/><path class="cls-6" d="M127,123.56c1.44,1.54,1,2.32-1,2.46C126.05,125.09,126,124.13,127,123.56Z"/><path class="cls-8" d="M150.2,161.34c.11-1.34-.54-3.06,1.65-3.39A5.57,5.57,0,0,1,150.2,161.34Z"/><path class="cls-5" d="M140.83,185.69c-.5,1-1.32,2.44-2.23,2-1.16-.54-.31-1.61.58-2.2Z"/><path class="cls-9" d="M108.88,169.82c0,1.42.71,3.15-1.51,3.66A5.94,5.94,0,0,1,108.88,169.82Z"/><path class="cls-6" d="M135.75,123.83c-.35-1.08-1.8-2.43.68-2.84C136.55,122,136.67,123.05,135.75,123.83Z"/><path class="cls-5" d="M152.06,194.26c0-1.55-.61-3.22.9-4.47C152.75,191.3,153.35,193,152.06,194.26Z"/><path class="cls-9" d="M110.57,165.46c.11,1.21.42,2.51-1.34,2.85C109.67,167.36,109.59,166.16,110.57,165.46Z"/><path class="cls-8" d="M39.29,178.75c-1.44,1.11-1.53,0-1.68-1l1.77,0-.09,0c-.07.11-.2.23-.19.34A3.46,3.46,0,0,0,39.29,178.75Z"/><path class="cls-8" d="M105,150.13l1.46.36c-.27.93-1.06.49-1.64.62Z"/><path class="cls-6" d="M155.21,133.73v-.23l1.82.05-1.49.52Z"/><path class="cls-8" d="M139.81,166.36a1.65,1.65,0,0,1-.63,1.92C139.06,167.53,139,166.81,139.81,166.36Z"/><path class="cls-6" d="M126,126l-.57,1A.77.77,0,0,1,126,126Z"/><path class="cls-6" d="M23,133.83l-.58-.1.08-.37.44.55Z"/><path class="cls-8" d="M141,162.26a3.86,3.86,0,0,1,.2.66c0,.05-.22.13-.33.2C140.89,162.84,140.94,162.55,141,162.26Z"/><path class="cls-8" d="M85.8,197.5c.24.37.49.73.73,1.09C85.78,198.57,85.71,198.09,85.8,197.5Z"/><path class="cls-3" d="M64.27,150.17q-1,9.9-2,19.83c-2.15-4.48-8.92-4.05-10.05-9.56l.53-.44-.63-.35.07.09c-1.14-7,0-14.47-4.71-20.62,1.15-1,2.28-2.09,3.45-3.1,2.1-1.8,3.85-.89,4.57,1.22s1.78,3.3,4.12,3.58c2.52.3,4.6,1.11,2.53,4.41-1.15,1.83,0,2.91,1.89,3.3C64.14,149.08,64.21,149.62,64.27,150.17Z"/><path class="cls-5" d="M67.75,110.72c2.91.16,5.36,2.55,8.46,1.73.05,1.13.09,2.27.14,3.4-2,2-1.17,5.5,1.74,7.71q.84,6,1.67,12,.8,5.2,1.58,10.41l-6.06-.91a10.21,10.21,0,0,1-1.56-4.27c-.83-3.47-.68-7.2-2.68-10.36.28-3.54-1.17-6.83-1.45-10.28.72-.15,1.55-.47,1.42-1.24-.3-1.82,3.13-2.93,1.14-4.67-.93-.8-1.64,2.27-3.42,1.56-.24-.63-.1-1.49-1-1.69Z"/><path class="cls-4" d="M81.34,146q-.78-5.21-1.58-10.41c.82-.34.73-1.1.87-1.78,1.17-5.69,1.72-11.51,3.49-17.08,1.49,1.88.41,4.11.84,6.13.71,7.38.79,14.79.82,22.2,0,1,0,2,1,2.64-.13,1.52-.27,3-.4,4.56-3.16,2.44-1.84,6.09-2.49,9.21C83.25,156.26,81.07,151.32,81.34,146Z"/><path class="cls-4" d="M68.69,140.83c1.69-3.26,1.23-7,2.35-10.39,2,3.16,1.85,6.89,2.68,10.36a10.21,10.21,0,0,0,1.56,4.27c0,1.94.1,3.88.16,5.81-1.29,2.48-.59,5.32-1.4,7.88-2.2.08-2.66,3.77-5.45,2.64a58.82,58.82,0,0,1,.54-14.09C69.46,145.13,70.09,142.9,68.69,140.83Zm2.22,17.28a.85.85,0,0,0-.12-.36s-.2.05-.31.08a.81.81,0,0,0,.12.36S70.81,158.14,70.91,158.11Z"/><path class="cls-5" d="M86.76,147.68c-1-.63-1-1.64-1-2.64,0-7.41-.11-14.82-.82-22.2.57,2,3.81.29,3.66,1.91-.39,4,2.3,6.7,3.34,10.06.55,6.59-.49,13.15-.39,19.74-2.45-.69-1.64-2.78-1.46-4.19C90.48,147.32,89,147.18,86.76,147.68Z"/><path class="cls-9" d="M137.34,182.91l-.21.36.19-.39Z"/><path class="cls-3" d="M74,158.76c-.25,3.09-.51,6.18-.76,9.28-1.39.42-1,2.14-2.09,2.8-.79-.18-1.74-.68-1.76.81s-.14,3.13-2.48,3.78a39.18,39.18,0,0,1,1.64-14C71.38,162.53,71.84,158.84,74,158.76Z"/><path class="cls-7" d="M71.19,170.84c1.07-.66.7-2.38,2.09-2.8l1.1-.22c-.44,2.35,0,5-2.45,6.65A6.91,6.91,0,0,1,71.19,170.84Z"/><path class="cls-8" d="M51.13,181.2l-.23.29c-.06-.11-.18-.22-.17-.33s.15-.19.23-.29Z"/><path class="cls-3" d="M78.61,121a2.89,2.89,0,0,1-.52,2.58c-2.91-2.21-3.71-5.73-1.74-7.71C78,117.18,76.34,119.94,78.61,121Z"/><path class="cls-3" d="M84.12,116.71c0-.59.06-1.18.1-1.77a7.6,7.6,0,0,0,0-6.83L83.4,96.93c2-.85,3.25-2.15,3.24-4.49,0-1.06-.5-2.53,1-3s2.34.81,3,1.87c.55.84,1,1.74,2,2.15-.83,6.89-1.67,13.78-2.58,21.27,2.13-2.14,2-4.58,3-6.53.3-.6.48-1.43,1.44-1.2.57.14,1.13.48,1,1.14-.68,3.89,2.36,2,3.87,2.54-.32.84-.64,1.68-1,2.52-2.86-.16-1.37,1.7-1.35,2.88-2.45,6-5.13,12-5.11,18.71-1-3.36-3.73-6.07-3.34-10.06.15-1.62-3.09.1-3.66-1.91S85.61,118.59,84.12,116.71Z"/><path class="cls-7" d="M43.49,169.26c-.82-.25-1.63-.56-1.4-1.64,0-.27.6-.7.77-.64,1,.36.66,1.35.85,2.09Z"/><path class="cls-7" d="M43.71,169.07c.2.34.41.67.59,1,0,0-.19.18-.3.27l-.51-1.09Z"/><path class="cls-8" d="M154.52,127.87l.2-.36-.19.37Z"/><path class="cls-9" d="M147.66,150.22c-.54-.08-1.17-.08-1.27-.79,0-.14.33-.49.46-.47.71.11.71.73.79,1.27Z"/><path class="cls-6" d="M155.55,134.07c-.17.14-.44.44-.49.4-.52-.33-.1-.53.15-.74Z"/><path class="cls-6" d="M31.71,122.41l.55,1.15Z"/><path class="cls-3" d="M69.59,120.16c-.31-1.45-1.42-2.73-.86-4.35,1.78.71,2.49-2.36,3.42-1.56,2,1.74-1.44,2.85-1.14,4.67C71.14,119.69,70.31,120,69.59,120.16Z"/><path class="cls-6" d="M97.07,116.1c0-1.18-1.51-3,1.35-2.88A5.12,5.12,0,0,1,97.07,116.1Z"/><path class="cls-8" d="M70.91,158.11c-.1,0-.28.12-.31.08a.81.81,0,0,1-.12-.36c.11,0,.28-.11.31-.08A.85.85,0,0,1,70.91,158.11Z"/><path class="cls-7" d="M84.18,108.11a7.6,7.6,0,0,1,0,6.83Q84.19,111.54,84.18,108.11Z"/></g></g></g></svg>