<svg xmlns="http://www.w3.org/2000/svg" viewBox="0 0 1080 1319.18"><defs><style>.cls-1{fill:#ed896e;}.cls-2{fill:#b75f4b;opacity:0.3;}.cls-3{fill:#f49984;}.cls-4{fill:#001f20;}.cls-5{fill:#f7b28e;}.cls-6{fill:#c9745d;}.cls-7{fill:#dc7f66;}.cls-8{fill:#5b1f00;}.cls-9{fill:#893116;}.cls-15,.cls-9{opacity:0.6;}.cls-10{fill:#441500;}.cls-11{fill:#7f3814;}.cls-12{fill:#873f1f;}.cls-13{fill:#723214;}.cls-14{fill:#642b0e;}.cls-16{fill:#c45414;}.cls-17{fill:#14070a;}.cls-18{fill:#221a1c;}.cls-19{fill:#ff4759;}.cls-20{fill:#d14050;}.cls-21{fill:#c36f5a;}.cls-22{fill:#c8725c;}.cls-23{fill:#fff;}.cls-24{fill:#261e20;}.cls-25{fill:#423a3d;}.cls-26{fill:#ef9d89;}.cls-27{fill:#f29883;}.cls-28{fill:aqua;}</style></defs><title>jozi-zalosten</title><g id="Layer_2" data-name="Layer 2"><g id="Vprašanja"><path class="cls-1" d="M4516.06,1808.25s21.62,199.12,39.22,225.26l37.71-7s-11.06-110.11,16.6-176.49C4550.76,1794.67,4515.79,1805.77,4516.06,1808.25Z" transform="translate(-4258.34 -735.93)"/><path class="cls-2" d="M4589.59,1832.93c-46.67-35.7-73.77-26.86-73.53-24.68,0,0,2.46,22.59,6.38,53.52,0,0,77.52,47.76,43.47,169.76l27.08-5.06s-10.94-109.08,16.22-175.54Z" transform="translate(-4258.34 -735.93)"/><path class="cls-3" d="M4537.37,2045.54c-1.48-6.84,24.86-39.86,72.22-24.44,5.45-9,19.13-10.44,21.16,10.19s-23.56,23.78-42.46,23.78S4539.69,2056.3,4537.37,2045.54Z" transform="translate(-4258.34 -735.93)"/><path class="cls-4" d="M4522.05,1910.8s26.21,1.16,47.81-5.17C4559.79,1913.11,4529.83,1918,4522.05,1910.8Z" transform="translate(-4258.34 -735.93)"/><path class="cls-4" d="M4523.2,1924.92s17.28,4,38.89-2.3C4552,1930.1,4531,1932.12,4523.2,1924.92Z" transform="translate(-4258.34 -735.93)"/><path class="cls-4" d="M4528.69,1941.27s12.09,3.62,33.69-.57C4552.31,1945.65,4535.45,1948.7,4528.69,1941.27Z" transform="translate(-4258.34 -735.93)"/><path class="cls-4" d="M4531.18,1957.55s3.4,3.44,25-.75C4546.11,1961.75,4539,1962.32,4531.18,1957.55Z" transform="translate(-4258.34 -735.93)"/><path class="cls-4" d="M4532.6,1969.53s3.41,3.44,25-.75C4547.52,1973.72,4540.37,1974.29,4532.6,1969.53Z" transform="translate(-4258.34 -735.93)"/><path class="cls-2" d="M4588.29,2055.07c18.06,0,42.17-2.9,42.51-21.18-55.48,24.13-75.55,1.15-80.16-6-9.3,6.73-13.92,14.64-13.27,17.61C4539.69,2056.3,4569.38,2055.07,4588.29,2055.07Z" transform="translate(-4258.34 -735.93)"/><path class="cls-5" d="M4562.58,2024.41s20.09-10.92,47.4,0C4620.11,2030.65,4538.79,2032.8,4562.58,2024.41Z" transform="translate(-4258.34 -735.93)"/><path class="cls-1" d="M4853.63,1749.9s11.39,195.78-30.6,278.41l-37.72-7s2.46-163.27-25.2-229.64C4818.94,1736.33,4853.9,1747.41,4853.63,1749.9Z" transform="translate(-4258.34 -735.93)"/><path class="cls-2" d="M4851.24,1891.6c5.68-41.19,1.19-130.82,2.17-139.63-3.34-1.56-6.9-3.11-10.59-4.63-14.57,0-43.27,7.21-82.71,44.29,27.66,66.37,25.2,229.64,25.2,229.64l37.72,7c2-2.91,4-8.06,6-14.76-13.48-8.26-25.33-25.58-23-66.64C4808.55,1901.54,4836.62,1893,4851.24,1891.6Z" transform="translate(-4258.34 -735.93)"/><path class="cls-4" d="M4857.52,1910.51s-26.18,1.49-47.86-4.57C4819.84,1913.3,4849.84,1917.81,4857.52,1910.51Z" transform="translate(-4258.34 -735.93)"/><path class="cls-4" d="M4856.55,1924.63s-17.23,4.26-38.91-1.81C4827.82,1930.18,4848.87,1931.93,4856.55,1924.63Z" transform="translate(-4258.34 -735.93)"/><path class="cls-4" d="M4851.29,1941.06s-12.05,3.77-33.69-.14C4827.73,1945.74,4844.62,1948.57,4851.29,1941.06Z" transform="translate(-4258.34 -735.93)"/><path class="cls-4" d="M4849,1957.37s-3.36,3.47-25-.43C4834.13,1961.76,4841.28,1962.23,4849,1957.37Z" transform="translate(-4258.34 -735.93)"/><path class="cls-4" d="M4847.74,1969.37s-3.36,3.47-25-.44C4832.87,1973.75,4840,1974.22,4847.74,1969.37Z" transform="translate(-4258.34 -735.93)"/><path class="cls-3" d="M4841.48,2040.85c1.48-6.84-24.86-39.86-72.21-24.44-5.46-9-19.14-10.44-21.17,10.2s23.56,23.77,42.46,23.77S4839.17,2051.62,4841.48,2040.85Z" transform="translate(-4258.34 -735.93)"/><path class="cls-2" d="M4790.56,2050.38c-18.07,0-42.18-2.89-42.51-21.18,55.49,24.14,75.54,1.16,80.16-6,9.3,6.73,13.91,14.63,13.27,17.6C4839.17,2051.62,4809.47,2050.38,4790.56,2050.38Z" transform="translate(-4258.34 -735.93)"/><path class="cls-5" d="M4816.28,2019.73s-20.1-10.92-47.4,0C4758.74,2026,4840.07,2028.11,4816.28,2019.73Z" transform="translate(-4258.34 -735.93)"/><path class="cls-1" d="M4546.54,894.85s-36.92-25.44-43.46,11.74,1.91,59.73,41.79,56.44S4546.54,894.85,4546.54,894.85Z" transform="translate(-4258.34 -735.93)"/><path class="cls-6" d="M4553.14,909.8s-24.9-17.16-29.33,7.91,1.31,40.29,28.2,38.08S4553.14,909.8,4553.14,909.8Z" transform="translate(-4258.34 -735.93)"/><path class="cls-1" d="M4753.6,892.19s38-29.06,42.15,8.12,1.82,59.94-42.15,50.78S4753.6,892.19,4753.6,892.19Z" transform="translate(-4258.34 -735.93)"/><path class="cls-6" d="M4751.52,907.32s24.25-18.55,26.91,5.19,1.18,38.27-26.91,32.42S4751.52,907.32,4751.52,907.32Z" transform="translate(-4258.34 -735.93)"/><path class="cls-1" d="M4560.48,964.19s-17.93-90.78,3.46-129.52S4731,779.18,4742,850.87s-5.21,107-5.21,107S4680.15,1022,4560.48,964.19Z" transform="translate(-4258.34 -735.93)"/><path class="cls-1" d="M4508.33,1039.74s-100.54,7.07-180.1,138.89-107.31,348.28,3.7,501.84c72.26,45.62,101.76-3.71,101.76-3.71l110.07-420,51.8-129.5Z" transform="translate(-4258.34 -735.93)"/><path class="cls-7" d="M4508.33,1039.74s-24.11,1.74-58,18.91c28.45,18.33,77.42,62.34,10.32,119.74-89.25,76.35-117.2,118.28-101.08,267.76,9.24,85.58-13.28,156.65-48.71,201.42a365.36,365.36,0,0,0,21.09,32.9c72.26,45.62,101.76-3.71,101.76-3.71l110.07-420,51.8-129.5Z" transform="translate(-4258.34 -735.93)"/><path class="cls-1" d="M4756.52,1009.88s57.35-4.67,98.06,25.85,102.68,80.48,102.68,80.48,137.83,155.39,92.51,407.92c1.39,56.43-33,68-33,68s-93.2.19-99.67-70.11,10.53-93.63-33.87-163S4756.52,1009.88,4756.52,1009.88Z" transform="translate(-4258.34 -735.93)"/><path class="cls-7" d="M4957.26,1116.21s-43.16-34.78-81.09-64l-77.87,62.76c-2.56,2-5,4-7.36,5.93,27.82,86.26,66.48,197.82,92.32,238.18,44.4,69.38,27.4,92.71,33.87,163s99.67,70.11,99.67,70.11,34.36-11.61,33-68c1.22-6.86,2.26-13.62,3.22-20.34-153.58-25.83-100.63-315-87.41-377.13C4960.42,1119.81,4957.26,1116.21,4957.26,1116.21Z" transform="translate(-4258.34 -735.93)"/><path class="cls-8" d="M4978.38,1539.39c-18.93-23.15-41-15.59-39.31,7.11s48.84,39,88.61,79.28,104.59,118.55,126.64,155,28.62,62.78,49,64.63c18.88,40,48.35,84.31,93.62,67.59s27.69-64.87,27.69-64.87,32.29-13.42-2.08-67S5193.4,1695,5193.4,1695s17-.1-3-11.78-49.74-16.55-49.74-16.55-27.71-33.07-63.74-50.07S4996.12,1561.08,4978.38,1539.39Z" transform="translate(-4258.34 -735.93)"/><path class="cls-9" d="M5154.32,1780.73c4.87,8,9,15.54,12.63,22.44-1.89-14.32-13.57-28.9-8.54-42.42,2.91-7.81-10.15-19.59-9.72-28.11.54-10.73,18.93-14.53,9.51-18.13-8.33-3.19-16.87-3.67-25.22-7.31a150,150,0,0,1-35.2-21.69c-6-5.17-14.22-10.16-19.32-16.2-5.49-6.54-10.18-14.75-14.87-22-7.33-11.25-18.56-16.62-29.54-23.68-4.9-3.14-9.28-5.74-13.78-9.51s-7.27-8.41-11.22-12.82c-5.41-6-10.52-7.31-16.84-11.32-5.86-3.7-10.52-9.22-15.73-13.84s-16.85-10.44-14.73-19c3.13.07,6,1.54,9.17,1.42.05-.59.3-1.29.32-1.91,11-.5,19.76,11.17,26.17,18s14.9,11.24,20.74,18.3a92.63,92.63,0,0,0,24.52,21.58c5.31,3.27,10.76,6.33,16.13,9.55s10.68,10.94,16.67,11.93c-7.86-8.55-16.07-17.57-24.78-25.35-6.73-6-14.55-12.14-18.74-20-.76-1.42-1.55-2.73-2.37-4-21.5-16.44-40.91-34.68-51.2-47.27-18.93-23.15-41-15.59-39.31,7.11s48.84,39,88.61,79.28S5132.27,1744.33,5154.32,1780.73Z" transform="translate(-4258.34 -735.93)"/><path class="cls-9" d="M5274.37,1901.25c-23.85-2.74-37.05-19.48-48.87-37.94a209.67,209.67,0,0,0-15.8-22.3c-3.85-4.6-6.24-10.28-11.42-13.49-2.81-1.75-6.95-2.07-7.67-6,5.75.33,11,1.78,16.6,2.85-9.57-6.53-13.29-18-15.13-28.48-1.9-10.93-6.1-17.28-10.61-26.48,9.39,1.51,18.44,16.4,25.4,22.75s13.85,10.18,21.37,15.1c9.39,6.16,17.32,14.32,27.07,20.15,3.58,2.14,6.95,4.94,10.52,7,3,1.72,6.74,2.47,9.49,4.73-8,.26-16.45-5.53-23.6-8.53-6.52-2.73-12.88-5.79-19.61-8.14-11.61-4-19.86-12.65-30.07-19.41,7.34,9.34,12.24,21.43,20.86,30.31-2.54-.11-5.13-.49-7.69-.78,5.33,1.14,11.46,17.46,14.08,22.37,3.87,7.25,8.06,15.79,13.41,22.3,7.84,9.55,19.09,18.88,30.11,23.82" transform="translate(-4258.34 -735.93)"/><path class="cls-9" d="M5329.44,1826.77c-1.78-12.52-19.5-19-24-30.25-5.36-13.35-16-21.81-25.48-32.08-5.45-5.91-9.28-11.58-16.57-15.54-8.49-4.62-17.12-7.82-26-11.43-7.43-3-15.33-4.58-22.72-7.48-7.68-3-15.71-12.27-24-12.82,9.1,4.25,15.81,12.44,23.21,18.78,5.86,5,12.71,9,19.44,12.82,14.33,8.15,28.42,18.22,41.73,28.15,9.89,7.38,17.21,17.42,26.57,25.34,4.25,3.59,7.59,8.18,11.84,11.82,5,4.26,10.78,7.94,15.52,12.1" transform="translate(-4258.34 -735.93)"/><path class="cls-10" d="M5320.86,1851.14c.62,1.86,0,4.45-.19,6.48q-.77,6.89-1.52,13.76c-.77,6.94-.77,12.91-5.36,18.36a47.31,47.31,0,0,1-11.72,9.7c-2.88,1.63-7.88,4.53-10.93,4.62.57-1.73,3-2.17,3.23-4.15-4.22-.66-8.55-.88-12.77-1.47,3.74-1,6.18-4.35,10.21-5-6.73-1.29-15.49-.39-21.21-5-6.24-5-8-12.39-10.82-19.43-1.82-4.5-5.22-7.42-8.39-11-1.91-2.14-3-4.76-4.81-7-3.45-4.35-5.75-14.57-11.2-16.84,10.65,4.12,18,14.83,28.64,19.07a25.92,25.92,0,0,0,9.47,1.61c4-.13,7.47-2.8,11.21-4.24,3.34-1.29,7.24-1.23,10.46-2.56,4.86-2-1.34-4.71-4-6.27-3.75-2.2-7.3-4.4-11.09-6.34a51.24,51.24,0,0,1-10.37-7.19c4.72.21,10.61,2.22,15.11,1.43-6.31-4.7-13.23-8.19-20.06-12-5.71-3.21-10.33-7.44-15.33-11.56s-9.79-8.22-14.55-12.53a35.68,35.68,0,0,0-7.4-5.26c-1.6-.86-3.59-1.54-4.81-3,7.25,0,13.16,3.57,19.43,6.76,7.41,3.76,14.57,7.74,21.76,11.83s15.07,6.77,22.39,10.4a44.45,44.45,0,0,1,10.22,6.76c2.7,2.43,5.48,5.36,8.66,7,5.34,2.76,10.73,4.75,15.82,8,.68.45,2.61,1,2.93,1.71.63,1.32-.4,5.35-.72,6.9a15.59,15.59,0,0,1-2.19,5.85" transform="translate(-4258.34 -735.93)"/><path class="cls-10" d="M5086.79,1636c4.14.7,8.5,4.11,11.59,6.75,4.21,3.59,9.18,6.55,13.25,10.2,2.61,2.35,3.71,5,5.58,7.9,2.27,3.47,6,5.66,9.25,8.2,9.54,7.53,22.22,6.89,33.49,10.5s19.41,10.89,28.19,18.47c12.45,10.75,31.6,10.32,44.37,20.7-9.54-.52-20.63-3.31-29.86-6.18-7.51-2.32-14.19-3.92-20.73-8.94a63.2,63.2,0,0,0-19.64-10.63c-8.21-2.64-18.28-2.36-25.93-6.42,5.93-2,13.9-.08,20.3.36-7-4.54-15.85-3.72-23.62-6-3.36-1-6.82-1.92-9.29-4.58-3-3.21-3.89-7.41-6.49-10.93-2.23-3-5.58-4.3-8.21-6.86s-3.16-5.53-5.09-8.72c-2.24-3.7-5.17-5.34-8.19-8-2-1.78-3.22-5.81-6.19-6a2.28,2.28,0,0,0,1.53.95" transform="translate(-4258.34 -735.93)"/><path class="cls-10" d="M5109.1,1712.1c.54,1.94,5.72,5,7.41,6.29a50.65,50.65,0,0,0,8.22,5.29c4.79,2.26,9.8,5.67,12.61,10.36.88,1.45,1.41,3.25,2.42,4.61,1.27,1.69,3.12,3.07,4.39,4.82,2.37,3.2,3.93,7.66,5.7,11.23-3.46-.09-7.36-3.45-10-5.36-2.44-1.72-5.38-3-7.1-5.41-2.54-3.52-4.85-7.24-7.33-10.81-2.68-3.83-6.32-6.71-8.81-10.74-2-3.27-6.75-5.88-7.26-10" transform="translate(-4258.34 -735.93)"/><path class="cls-11" d="M4744.55,1076.44s103.93-12,110-40.71c51.8,22.2,102.68,80.48,102.68,80.48s-42.56,161-34.23,199.81-14.8-30.52-14.8-30.52,26.82,155.4,32.37,207.2c-23.13-23.12-28.67-53.65-28.67-53.65s34.23,199.8,34.23,267.33c-25.91-29.6-29.61-56.42-29.61-56.42s26.84,88.8,5.55,135c-29.6-9.25-34.22-35.14-34.22-35.14s-14.65,65.67-27.22,62.89-24.58-53.65-24.58-53.65-36.08,96.21-55.51,84.19-27.74-53.66-27.74-53.66-19.44,96.19-45.34,83.25-36.07-41.63-36.07-41.63-7.4,56.44-21.27,49-21.28-43.49-21.28-43.49-27.76,63.83-59.21,58.28-43.47-64.76-43.47-64.76,10.18,82.33-16.65,80.49-38.86-66.61-38.86-66.61-17.57,71.24-41.62,47.19-26.83-142.46-4.63-284c0,0-35.14,57.34-9.25-46.26-39.77,23.13-7.4-98.05,9.25-148.93,0,0-31.44,5.55-14.79-61s15.73-114.7,44.4-129.5,91.44-36.08,117.41-94.36S4744.55,1076.44,4744.55,1076.44Z" transform="translate(-4258.34 -735.93)"/><path class="cls-12" d="M4844.28,1191.79c1.52-28.07,1-57.16-3.83-84.8a27.75,27.75,0,0,0,5.39,9.41c6.79-23.74-12.66-40.68-32.11-54.12-31.34,9.77-69.18,14.16-69.18,14.16s-147.14-7.4-173.1,50.87c-18.64,41.83-56.19,64.54-86.52,79.54a301.53,301.53,0,0,0-2.82,39.09c0,24.2-3.59,50.52,10,72,6.8,10.75,14.53,17.55,21.09,3.62,6.91-14.68,10.11-34.7,11.21-50.9-.31,12.58-7.8,72.13,13.47,72,11.07-.08,16.17-26.53,18.88-36.34,2.29-8.37,4-21.34,8.82-28.36,7.57,6.09,2.83,27.58,3.3,35.77,1.66,28.71,7.62,60.13,14.52,87.85,7.35,29.55,15.31,63.66,33.42,88.66,4.2,5.79,11.3,19,20.86,16.22,9-2.64,13.72-24.9,16.92-32.49,7.51-17.78,13.36-33.59,15.24-53,2.73-28.42-5.15-59.86,2.3-87.61,2.3,6,4.68,59.38,17.26,55.9,3.64-1,6.73-43,7.15-47.88.75-9-1.78-19.56,2.06-28.08,5,10.24,4.62,31.6,16,37.92,6.2-19.36.17-40.88,3.25-60.69,5.14,4.63,5.62,12.12,8,18.52,3.9,10.38,8.2,23,14.49,32.16,2,2.88,7.12,10.5,11.55,10.25,6.1-.34,4-3,5.69-8.11,3.09-9.17,7.25-18.8,9-28.36,2.32-12.81.66-27.09.66-40.06,0-12.3,0-24.61,0-36.9,7.54,12.84,17.35,35.42,32.16,40.87,3.61-4,4.16-13.43,5.71-18.56,3.58-11.8,4.73-23.73,5.13-36,.47-14.82-.91-29.81.11-44.59,5.83,6.46,13.09,31.79,24.27,33.65C4845.06,1215.05,4843.84,1199.69,4844.28,1191.79Z" transform="translate(-4258.34 -735.93)"/><path class="cls-13" d="M4860.66,1812.76c12.57,2.78,27.22-62.89,27.22-62.89s4.62,25.89,34.22,35.14c16.45-35.75,4.16-96.88-2.26-122.82,3.66,10.6,11.18,26.9,26.32,44.19,0-67.53-34.23-267.33-34.23-267.33s5.54,30.53,28.67,53.65c-5.55-51.8-32.37-207.2-32.37-207.2s23.12,69.37,14.8,30.52,34.23-199.81,34.23-199.81-48.16-55-98.47-78.49c1.14,1.71,2.25,3.45,3.4,5.1,8.9,12.9,23.44,22,30.79,36,7.05,13.5,7.53,43.64,2.82,58.76,0-1.53.23-3.1.07-4.62-1.31,25.13,3.5,47.35-3.4,71.7-5.77,20.35-4.44,54.94-14.51,72.66-3.68-6.65-6.19-13.81-10.59-19.95-8.86,16.1-.15,52.08-.16,71.71,0,20,5.42,49.73-1.48,68.55-3.53-4.47-7.49-11.11-11.93-15.71-1.15,22.8,2.57,55.15-8.72,75.13-9.91-9-10-25.64-16.93-37-.73,15.89,2.15,33.05-2.86,48.44-5.47-16.85-8.37-39.19-17.89-53.92-9.65,15.36-2.07,57.48-2,76.33,0,25.59,2.47,67.09-10.2,89.47-18.15-10.11-24.33-36.34-39.29-50.43-5.48,14.79-1.45,32.83-8.53,46-12-11.93-9.67-32.28-17.64-46.82-5.13,12.44-6.72,28.06-9.15,41.7-8.09-29.86-9.2-67.35-10.55-98.08-6.34,15.78-6.74,37.84-10.57,54.57-5.86,25.75-15.67,50.45-22.59,75.93-8.92,32.91-22.41,83.06-49.34,106.63-25.16-12.28-14.86-62-24.05-83.71-1.28,9.58-.74,20.42-2.79,29.35-7.44-14-4.25-32.58-9.49-47.33-11.43,25.22-10,56.72-22.13,81-20.64-12.72-19.3-33.2-22.22-53.92-7.67-54.4-4.41-112.17-3.9-167.7-4,11.57-23.47,64.14-31.78,64.4-35.73,1.16-17-110-22.26-128.07-6.45,19.2-23.2,35.5-26.14,55.54-15.4-13.24-12.68-41-13.36-59-1-26.55,1.56-57.62-8.84-82.17-7.05,18.55-12.08,42-12.51,62.13-9-2.44-14.11-17.29-15.92-25.77-.55-2.51-1-5.14-1.44-7.83-.35,1.47-.67,2.9-1,4.39-16.65,66.6,14.79,61,14.79,61-16.65,50.88-49,172.06-9.25,148.93-25.89,103.6,9.25,46.26,9.25,46.26-22.2,141.53-19.42,259.93,4.63,284s41.62-47.19,41.62-47.19,12,64.76,38.86,66.61,16.65-80.49,16.65-80.49,12,59.21,43.47,64.76,59.21-58.28,59.21-58.28,7.4,36.08,21.28,43.49,21.27-49,21.27-49,10.19,28.69,36.07,41.63,45.34-83.25,45.34-83.25,8.32,41.62,27.74,53.66,55.51-84.19,55.51-84.19S4848.09,1810,4860.66,1812.76Z" transform="translate(-4258.34 -735.93)"/><path class="cls-14" d="M4922.1,1785c16.45-35.75,4.16-96.88-2.26-122.82,3.66,10.6,11.18,26.9,26.32,44.19,0-37.59-10.61-116.14-20-178.42,0,3.67-.11,7.35-.11,11,0,17.38,4,40.34-4.86,56.11-13.82-10.17-18-28.33-29.5-40.59-2.63,21.61,6.72,41.14,9,62.28a282.39,282.39,0,0,1-.83,61.18,35.75,35.75,0,0,1-8.66-16.06c.47,13.16,6.69,57.83-4.3,63.15-22.14,10.73-50.93-67.2-64.3-73.07-17.71,24.7-.08,64.86-9.89,92.38-17.26-1.56-18.55-31.41-21.41-44.32-6.26,25.31-5.35,54-12,80.34-26.59,6.31-26.89-49.77-31-64.28-1.25,9-.86,21.36-6.25,28.38-7.3-10-12.26-22.83-15.11-34.66-5.06,7.59-3.18,19.06-5.15,28-1.8,8.12-8.72,37.81-15.93,42.82-23.53,16.32-34.43-43.8-46.58-50.82-6.23,18.25-20.18,91-43.38,44.72-7.86,15.11-12.45,65.45-36.43,61.8-30-4.58-34.4-73.26-39.5-95.69-4.4,5.87-6.59,16.68-8.81,24.3-1.74,6-4.09,28.1-8.43,32-22.33,20.29-22.45-47.64-25.92-56.45-6.91,12.83-2.18,31.05-10.07,44.3-20.46-5.47-13.35-56.32-13.16-73.38-4.64,16.91-12.94,53.3-27.11,64-20.09-27-28.58-57-32.18-88.63-10.16,104.54-4.6,185.12,14.77,204.5,24,24,41.62-47.19,41.62-47.19s12,64.76,38.86,66.61,16.65-80.49,16.65-80.49,12,59.21,43.47,64.76,59.21-58.28,59.21-58.28,7.4,36.08,21.28,43.49,21.27-49,21.27-49,10.19,28.69,36.07,41.63,45.34-83.25,45.34-83.25,8.32,41.62,27.74,53.66,55.51-84.19,55.51-84.19,12,50.88,24.58,53.65,27.22-62.89,27.22-62.89S4892.5,1775.76,4922.1,1785Z" transform="translate(-4258.34 -735.93)"/><path class="cls-14" d="M4930.49,1420.72c-1.51,18.36-2.54,36.77-3.24,55.2a98.9,98.9,0,0,0,13.35,16.78C4938.84,1476.33,4935,1449.61,4930.49,1420.72Z" transform="translate(-4258.34 -735.93)"/><g class="cls-15"><path class="cls-16" d="M4590,1336.35c-4.39-2.61-37.73,26.1-40.46,33-4.09,10.36,6.43,22.88,16.48,25.11,9.85,2.19,15.3-4.07,25.32-1.45,9.37,2.44,18.93,8.88,29,7.25,21.56-3.47,26.06-34.11,9.59-45.83-12.33-8.76-26.35-12.21-39.89-17.14" transform="translate(-4258.34 -735.93)"/><path class="cls-16" d="M4738,1319.7c-10.66-11.88-33.72,16.86-37.08,26.45-6.57,18.74,30.66,16.69,41.78,15.09,21.23-3.08,22.05-14.27,9.87-30.92-3.08-4.22-36-30.65-30.3-10.62" transform="translate(-4258.34 -735.93)"/><path class="cls-16" d="M4586.8,1199.43c-10.66-11.87-33.73,16.86-37.09,26.45-6.57,18.74,30.67,16.7,41.79,15.09,21.23-3.08,22.05-14.27,9.87-30.92-3.09-4.21-36-30.65-30.3-10.62" transform="translate(-4258.34 -735.93)"/><path class="cls-16" d="M4707.49,1431.62c-10-7.75-43.28-7.63-48.93,5.61-8.32,19.53,16,24.92,28.94,24.91,17.83,0,44.44-5.76,40.34-29.17-2.87-16.37-19.72-19.39-32.37-10.59" transform="translate(-4258.34 -735.93)"/><path class="cls-16" d="M4853.65,1341c-1.69-1.21-29.59,17.79-34.95,20.71-6.81,3.7-9.33,4.38-8.56,13.43.32,4,1,9,4.57,11.81,2.46,1.92,8.86.79,10.16,2.09,2.22,2.22,3.38,10.56,2,14-4.67,11.66-31.57,10.75-20,26.29,5.64,7.55,22.3,12.91,31.47,11.61,9.56-1.37,14.12-8.86,17.41-17.61,2.71-7.21.63-15.6,3.4-22.49,3.43-8.56,7.77-5.39,14.71-8.75,8.94-4.32,7.51-12.47,7.51-22.17,0-11.32-1.27-16.79-10.15-23.56-7.78-5.93-19.45-10-27.77-2.57" transform="translate(-4258.34 -735.93)"/><path class="cls-16" d="M4822.2,1193.9c-6.9-2.67-22.16,5.65-30.66,6.53s-15.05.62-23.48,3.62c-12.62,4.49-12.92,9.44-13.6,21.73-.47,8.48-1.57,19,8.7,22.84,8.28,3.12,17.33-1.26,23.89-4.6,8.88-4.51,21.14-3.13,29.13-7.74,7.69-4.42,15-31.86,5.09-36.84" transform="translate(-4258.34 -735.93)"/><path class="cls-16" d="M4887.88,1156c-13,0-18.27-2-26.37,8.77-6.42,8.54-13.64,19.39-.31,24.37,22,8.2,52.8-1,51.58-27.25-6-.93-18.23.76-22.13-3.12" transform="translate(-4258.34 -735.93)"/><path class="cls-16" d="M4508.74,1268.36c-13,0-18.27-2-26.38,8.77-6.41,8.54-13.64,19.39-.3,24.37,22,8.21,52.8-1,51.57-27.25-6-.93-18.23.76-22.13-3.12" transform="translate(-4258.34 -735.93)"/><path class="cls-16" d="M4870.3,1082.89c-6.4-1-11.24,6.1-17.56,7.47-9.86,2.11-18.87-1.78-27.72,4.48-12,8.5-10.59,36.41,8.5,33.44,6.26-1,12-7.61,17.5-10.21,7.62-3.61,20.39-3.36,25.8-10.18,7.08-8.92,2-20.16-6.52-25" transform="translate(-4258.34 -735.93)"/><path class="cls-16" d="M4883.25,1250.32c-10.38-.57-62,8.25-57.35,27.77,3.62,15.2,34.34,4.73,44.48,4.41,9.69-.31,17.36,3.32,25.84-1.86,4.3-2.63,11.48-10.1,13-14.8,5.64-17.55-15.36-14.59-26-14.59" transform="translate(-4258.34 -735.93)"/><path class="cls-16" d="M4805.55,1471.41c-11.07.93-29.74-8.19-39.06-1.76-4.69,3.23-8.14,13.17-12.81,17.57-4.19,4-8.5,8-13.76,10.36-9.71,4.36-21,2-30.34,7.53-10.56,6.31-17,15.8-6.06,24.61,11.54,9.33,36.42,8.68,50.26,6.22,15.89-2.82,28.81-18.47,43.4-25.62,10.93-5.34,20.33-13.85,20.5-26.73.13-10.11-8-13.27-17.68-12.18" transform="translate(-4258.34 -735.93)"/><path class="cls-16" d="M4850.87,1497.3c-8,.22-12.72,8.44-14.84,15-3.2,10-.75,13.13-10.78,19.43-7,4.4-15.53,8.49-4.21,14.38,10.15,5.3,25.88.88,34.41-5.08,11.54-8.07,32.49-14.5,30.56-31.91-2-18.26-25.28-12.77-38.84-12.77" transform="translate(-4258.34 -735.93)"/><path class="cls-16" d="M4761.15,1602.75c-4.62,0-11,1-15.43-.3-8-2.39-14.84-12.81-23.23-13.66-17.27-1.75-29,20.44-37.15,32-10.1,14.31-17.91,9.54-31.29,18.07-12.2,7.77-15.18,27.31-8.59,39.76,7.46,14.13,26.64,10.89,40.2,10.31a108.87,108.87,0,0,0,49.24-14.24c12.1-6.89,27.26-17.6,36.28-28,7.63-8.82,10.23-20,5.49-30.94-5.31-12.29-13.53-10.16-25.69-10.16" transform="translate(-4258.34 -735.93)"/><path class="cls-16" d="M4887.88,1573.16c-7.75-1.11-12.11,3.07-18.51,6.26-7.33,3.66-17.18,3.85-23.22,9.74-5.85,5.69-7.83,17.33.27,21,9.55,4.34,30.58-4.29,39.11-8.29,8.83-4.15,12.43-11.43,10.33-21.2a13.9,13.9,0,0,0-3.35-.13" transform="translate(-4258.34 -735.93)"/><path class="cls-16" d="M4894.35,1699.89c-1.5-5.21-43.45-6.09-47.16,4.58-6.09,17.5,12.78,16.66,23.91,16.7,15.83,0,30.72,2,28.8-17.43-1.8-18.31-25.21-6-37-.15" transform="translate(-4258.34 -735.93)"/><path class="cls-16" d="M4805.55,1688.79c-23.37-4-38.68,40.89-3.35,37.07,13.51-1.47,19.31-8.71,16.29-22-2.1-9.34-9.86-8.68-14.79-16" transform="translate(-4258.34 -735.93)"/><path class="cls-16" d="M4693.62,1765.57c-4.9,1.82-10-.76-15.39-1-8.06-.38-13.84,1.93-20.64,5-11.89,5.26-16,7.79-20.89,19.24-1.53,3.56-3,9.89-5.37,12.74-3,3.55-11.08,4.28-12.55,9.41-3.3,11.58,17.65,11.48,24.63,10.18,9.11-1.69,15.27-7.8,25.95-8.32,9.7-.48,14.83,2.51,19.6-6.36,4.17-7.75,6.77-21.89,5.58-30.74-1.39-10.44-2.15-8.91-12.93-11" transform="translate(-4258.34 -735.93)"/><path class="cls-16" d="M4596.49,1710.06c-9.78-14.55-25.26-16.17-41.71-15.75-13.19.35-23.22.89-31.79,11-4.84,5.74-14.05,15.76-11.11,23.87,16.83,1.52,34.34.28,51.3.28,7.89,0,17.32,1.2,24.95-1.06,12.39-3.66,16.76-17,13-28.54" transform="translate(-4258.34 -735.93)"/><path class="cls-16" d="M4589.09,1591.65c1.07-10.6-5.36-18.08-16-17.58-9.39.43-14.56,8.79-23.55,10.19-12.24,1.9-25-1-36.42,5.5-9.68,5.5-14.94,15.38-17.5,25.73-3.63,14.73-.7,24.78,15.84,28.08,17.54,3.5,36.49,2.2,48.7-9.31,13.07-12.35,26.8-19.29,27.05-38.9" transform="translate(-4258.34 -735.93)"/><path class="cls-16" d="M4482.71,1675.84c-10.26-1-28.43,4-32.4,14.75-3.82,10.34,3.94,17.39,13.91,16.69,13.86-1,33.34-24.27,14.79-32.37" transform="translate(-4258.34 -735.93)"/><path class="cls-16" d="M4658.17,1271c-10.25-1-28.42,4-32.39,14.75-3.82,10.34,3.94,17.39,13.91,16.69,13.87-1,33.34-24.27,14.79-32.37" transform="translate(-4258.34 -735.93)"/><path class="cls-16" d="M4484.56,1468.63c-13.12-23.58-70.56,9.64-58.55,28.86,5.2,8.3,36.08,6.23,43.81,2.54,8.94-4.27,21.28-19,16.6-29.55" transform="translate(-4258.34 -735.93)"/><path class="cls-16" d="M4519.72,1514c-6.21-2-39-2-29.49,13,2.08,3.29,14.34,4.22,18,1.81,4-2.69,4.07-7.53,4.13-12" transform="translate(-4258.34 -735.93)"/><path class="cls-16" d="M4601.11,1501c-10.14-4.08-49.89-6.54-46.24,14.72,3.29,19.22,32.49,14,47,14,14,0,35.62,3.49,20.5-14.72-6.58-7.93-16.15-10.56-23.13-17.66" transform="translate(-4258.34 -735.93)"/><path class="cls-16" d="M4713,1559.28c-7.47-2.84-42.74-5.38-47.94.89-5.85,7,3.4,14.7,8.75,15.75,8.43,1.68,24.28,1.59,32.67-1.59,6.57-2.48,12-10.89,5.6-16.9" transform="translate(-4258.34 -735.93)"/><path class="cls-16" d="M4506.51,1342.72c-7.47-2.84-42.74-5.37-47.94.89-5.86,7.06,3.4,14.71,8.74,15.76,8.44,1.67,24.29,1.59,32.68-1.59,6.56-2.49,12-10.9,5.6-16.9" transform="translate(-4258.34 -735.93)"/><path class="cls-16" d="M4568.74,1780.37c-6.17-10.21-33.66-6.81-45.44-7.4-9.84-.51-21.74-.06-27.65,9.24-3.7,5.82-4.72,13.19,1.58,18.12,8.11,6.35,22.89,2.19,31.55,1.47,5.37-.45,17.26,2.37,21.54,0,4-2.23,4.44-10,7.12-13.36,2.5-3.15,5.77-5.2,8.52-8" transform="translate(-4258.34 -735.93)"/></g><path class="cls-17" d="M4614.83,974s-25.44-37-70-11l6.94,5.2s-28.24,2.88-50.2,46.81a38.81,38.81,0,0,0,24.18,1.84s-28.9,38.07-74,42.69c18.51,16.2,24.87,16.2,24.87,16.2l-24.87-3.48s31.79,82.1,95.4,113.32a83.22,83.22,0,0,1-42.78-7.52c31.79,34.7,70.54,68.22,185,26-15,20.82-20.8,23.71-20.8,23.71s100-8.1,124.88-74v30.65s39.29-9.84,27.16-99.45l14.45,20.82s0-79.78-53.17-140.49-48-6.94-113.91,6.35S4614.83,974,4614.83,974Z" transform="translate(-4258.34 -735.93)"/><path class="cls-18" d="M4650.7,998.77c-5.65-4.06-14.74-6.28-21.33-8.12a141,141,0,0,0-21.7-4.06c-5.79-.62-11.94-.12-17.77-.08-14.51.1-25.22,8.08-39.66,8,10,1.52,30.79,9.55,41.25,3.78-8.66.47-13.79,7.15-20.61,10.81,6.29,4.11,22.38.83,30.3,1-3.42,6.11-11.2,10.85-16.36,15.45-7.73,6.92-17,9.12-25.65,14.37s-17.49,10.25-27.11,13.08c-4.19,1.23-8.71,1.67-12.77,3.34,9.11-.23,18.25-.1,27.36,0-5.72,3.14-24.13,8.76-25,16,15.88.85,34.15,1,48-7-4.32,11.33-21.74,15-31.73,19.71-6.22,2.91-13,3.19-19.44,5.1,7,3.55,14.56,4.89,21.76,7.28-5.57-.09-13.22-1.32-18.3.53,3.29,4.65,11.91,7.85,16.95,10.76,8.38,4.85,19,12.29,28.79,13.89,9,1.47,19,.25,28.11.25a233.56,233.56,0,0,0,29.91-1.75c-8.5,5.64-18.35,8.69-26.3,15.49-2.18,1.87-6.7,5.26-6.66,8.36,13.82.5,26.4-2,37.58-9.71-1.4,11.38-21.32,16.43-19.25,29.39,11.71,1.48,30.57,3.88,41.09-2.28,7.38-4.32,12.45-11.72,18.46-17.57,6.32-6.16,12.64-12.19,16.59-20,1,8.36-8.1,16.11-6.26,23.95,14.94,1.07,19-25.14,26.65-34.24,1.09,17.25-12.05,31.89-16.08,48,5.54-1,13.09-6.61,17.47-10.3,8.61-7.22,16-15.57,20.17-26,3.91-9.8,8.43-19.48,10.43-29.93.56-2.95.4-7.28,1.9-9.31,1.12,8.53,1,24.25,8.34,30.4,5.82-10.06,2.07-24.62,5.89-34.87,2.8,9.66,4.72,20.8,10,29.55,3.6-8.48,2.8-21.13,2.79-30.39,0-12.27-6.07-23.53-6.31-35.64,10.46,17.46,27.08,31,35.93,49.83.59-15.56-6.1-31.94-11-46.64-6.39-19.26-18.75-30.35-33.65-43.25,8.75-.06,17.53.82,26.29.46-.52-7.1-15.85-10.87-21.25-12.38-8.81-2.45-19.19-1.81-27.54-4.44,4-.31,38.89.95,28.78-10.6-2.07-2.36-8.93-1.88-11.51-2.1-8.68-.77-17.27-2.8-25.94-3.36-6.37-.42-12.89-.07-19.28-.07-22.05,0-40.48,7.91-59,18.86" transform="translate(-4258.34 -735.93)"/><path class="cls-19" d="M4641.93,881.73s-69.32,103.84-9.77,111.36,44.62-44.37,37.6-79.2C4659.82,864.63,4641.93,881.73,4641.93,881.73Z" transform="translate(-4258.34 -735.93)"/><path class="cls-19" d="M4641.93,881.73s-69.32,103.84-9.77,111.36,44.62-44.37,37.6-79.2C4659.82,864.63,4641.93,881.73,4641.93,881.73Z" transform="translate(-4258.34 -735.93)"/><path class="cls-20" d="M4669.76,913.89c-2-9.75-4.26-16.82-6.65-22,7.23,34.62,18.61,82-38.49,74.83-7.22-.91-12.51-3.26-16.29-6.65-1.7,16.88,3.65,30.5,23.83,33C4691.72,1000.61,4676.78,948.72,4669.76,913.89Z" transform="translate(-4258.34 -735.93)"/><path d="M4698.1,918.05c0,7.75-3.53,14-7.9,14s-7.9-6.28-7.9-14,3.54-14,7.9-14S4698.1,910.3,4698.1,918.05Z" transform="translate(-4258.34 -735.93)"/><path d="M4617.59,918.05c0,7.75-3.53,14-7.9,14s-7.89-6.28-7.89-14,3.53-14,7.89-14S4617.59,910.3,4617.59,918.05Z" transform="translate(-4258.34 -735.93)"/><path class="cls-17" d="M4685.55,861.17c-9.87,11.17-21.12,19.23-3.47,33.32s32.05,24.92,41.79,7.37S4685.55,861.17,4685.55,861.17Z" transform="translate(-4258.34 -735.93)"/><path class="cls-17" d="M4616.43,862.33c9,11.91,19.55,20.81.86,33.49s-33.89,22.34-42.24,4.08S4616.43,862.33,4616.43,862.33Z" transform="translate(-4258.34 -735.93)"/><path class="cls-6" d="M4710,1004.87s-53-9.94-68.16,30.36C4648.73,1014.8,4673.75,989.54,4710,1004.87Z" transform="translate(-4258.34 -735.93)"/><path class="cls-17" d="M4612.23,817.86s30.36,6.29,71.72,0a19.4,19.4,0,0,1-10.47,6.29s13.1,7.19,35.6,5.23l-3.92,6s24.61-1,28.26,35.34,3.84,47.27,0,70.43c16.5,5.49,31.35,11.7,31.35,11.7s-2.29-42.33-10.13-76.36c12.56,17.8,15.17,27.52,15.17,27.52s1.31-39.84-19.38-73.6c14.41,7.07,19.39,23.56,19.39,23.56s-8.92-86.13-100.28-80.89c46.6-16,62.57-4.45,62.57-4.45s-52.62-29.06-90.58,4.71c-5.23-25.13,4.46-37.43,4.46-37.43s-19.9,4.7-19.63,46.85c-22-30.36-42.15-20.68-42.15-20.68l29.58,27.75s-47.62-14.92-71.19,22c18.33-3.67,24.33-2.1,24.33-2.1s-36.37,24.89-31.14,78.28l5-16.23s-8.63,59.94,8.91,91.87c14.91-3.13,16.24-6.28,16.24-6.28s-12.86-37.69,2.6-80.63c-8.38,6.28-8.9,11.27-8.9,11.27S4567.2,824.15,4612.23,817.86Z" transform="translate(-4258.34 -735.93)"/><path class="cls-21" d="M4937.45,1587.92s-21.24-30.57,30.42-19.64,58.12,21.22,51.72,48.23S4960,1625.92,4937.45,1587.92Z" transform="translate(-4258.34 -735.93)"/><path class="cls-22" d="M4955.53,1551.72c-10.15-10.76,27-29.06,36.31-7.47S4974.18,1571.46,4955.53,1551.72Z" transform="translate(-4258.34 -735.93)"/><path class="cls-23" d="M4691.3,918.08a3.7,3.7,0,1,1-3.7-3.7A3.7,3.7,0,0,1,4691.3,918.08Z" transform="translate(-4258.34 -735.93)"/><path class="cls-23" d="M4611.8,918.08a3.69,3.69,0,1,1-3.69-3.7A3.7,3.7,0,0,1,4611.8,918.08Z" transform="translate(-4258.34 -735.93)"/><path class="cls-24" d="M4714.36,898.22c1.81-1.66-5.15-6.41-5.88-7.67,2.49.87,5.69,4.12,8.53,3.23,1.29-.39,1.38-.93.85-2.13-1.57-3.48-4.72-6.06-7.38-8.64-.23-.23-.51-.41-.74-.62.86.49,1.77.82,2.35.39-.41-2.09-4.42-4.66-6-5.82-3-2.27-6.11-4.48-9.17-6.72a53.48,53.48,0,0,0-5.88-4.32c-2.68-1.44-6.64-.12-6.8,3-1.89,2.36-2.63,5.9-3,8.84-.45,3.52.1,10.4,3.57,12.63,3.11,2,1-5,1.72-6.47,1.53,4.15,1.48,9.92,5.76,12.45,1.77-1.35-1-6.11-.17-8.14a49.4,49.4,0,0,0,5.9,8.94c1,1.09,3.7,4.81,5.17,3.3s-.31-4.57-.94-6.06c-.78-1.84-2.52-3.77-2.82-5.78,2.59,1.75,4.89,3.89,7.4,5.72C4708.08,895.22,4712.9,899.56,4714.36,898.22Z" transform="translate(-4258.34 -735.93)"/><path class="cls-24" d="M4611.82,867.79c.09-1.32-5.44,2.15-6,2.48-3.46,2.1-6.68,4.61-10,6.94-2.15,1.52-4.58,2.91-6.57,4.64-1.27,1.11-3.34,3.25-3.45,5.06,2,.27,6.29-3,7.65-4.58a28.66,28.66,0,0,0-6.82,7c-.84,1.14-3.23,3.85-2.49,5.52,1.09,2.44,7.37-2.38,8.14-3.68-.69,1.23-2.55,5.79-.43,6.61,1.46.57,6.13-3.55,7.28-4.45,2.8-2.2,6.09-5.57,7.59-8.86-.56,1.68-1.76,5.6-.43,7.21,2.12-.43,3.42-2.93,4.4-4.59a42.85,42.85,0,0,0,2.17-4.47c.31-.71,1.09-1.87.94-2.71.55,1.3-.11,4.25,1.17,5.09,2.48-1.2,1.53-7.1.53-8.95.74.25,1.67,1.83,2.41.86.63-.81-1-2.76-1.5-3.43l-1.57-2.22c-.62-.91-1.51-1.55-2.14-2.41" transform="translate(-4258.34 -735.93)"/><path class="cls-25" d="M4767.6,965.77s37.23,14.14,59.85,113.6C4814.26,1050.15,4803.9,1004.42,4767.6,965.77Z" transform="translate(-4258.34 -735.93)"/><path class="cls-25" d="M4812.38,1077.49s15.07,65-13.2,96.64C4808.61,1152.91,4817.56,1127,4812.38,1077.49Z" transform="translate(-4258.34 -735.93)"/><path class="cls-25" d="M4791.59,1131.29s-2.3,69.9-106,90.13C4708.82,1212.68,4771.81,1192.68,4791.59,1131.29Z" transform="translate(-4258.34 -735.93)"/><path class="cls-25" d="M4520.53,1189.46s42.53,56.33,159.09,14.49C4631.34,1212.22,4562.82,1224.64,4520.53,1189.46Z" transform="translate(-4258.34 -735.93)"/><path class="cls-25" d="M4461.45,1079.57s15.62,35.86,57,57.24C4496.15,1115.89,4461.45,1079.57,4461.45,1079.57Z" transform="translate(-4258.34 -735.93)"/><path class="cls-25" d="M4549.27,962.25s33.56-14.12,54,7C4589.16,963.69,4572.59,959.8,4549.27,962.25Z" transform="translate(-4258.34 -735.93)"/><path class="cls-25" d="M4506.93,1011.76s28-45.42,81.62-36C4567.89,978.62,4538.85,979,4506.93,1011.76Z" transform="translate(-4258.34 -735.93)"/><path class="cls-24" d="M4634.88,789.12c.27-1.33,2.61-3.06,4-4.22a100.33,100.33,0,0,1,12-9,81.65,81.65,0,0,1,15.71-8,73.89,73.89,0,0,0-9.19,6.69c-2.48,2-3.23,4.19-5.17,6.41,4.48.86,8.8-3.61,13.56-3.32-1.45,3-5,4.67-7.38,6.68,10.89-1.18,23.23-3.38,33.41,1.75,9.33,4.69,17.89,13.86,29,14.54-3.39,1-8.25-1.59-11.82-2a34.39,34.39,0,0,0-5.82-.18c-1.9,5.12,28.46,8.45,27.38,17.57-2.37.42-4.93-1-7.11-1.7-3.3-1.08-7.35-1.65-10.28-3.32,3.65,1.24,7.72,4.87,10.77,7.23a37.56,37.56,0,0,1,11.63,14.25,92,92,0,0,1,5.75,13.66,73.72,73.72,0,0,0-8.56-11.08c-5.6-5.77-12.43-9.76-18.74-14.62a93.69,93.69,0,0,0-17.09-10.94c3.89,2,6.5,4.74,9.79,7.39a36.44,36.44,0,0,1-9.54-2.06c-3.39-1.33-7.19-.66-10.69-1a43.77,43.77,0,0,0,8.63,5.13c-9.9-5.34-23.52-11.63-35.09-8.12a82.17,82.17,0,0,1-23.88,3.55c-3.3,0-7.26.66-10.43-.55,4.12-1.09,10.9.59,14.06-3-10.69-.7-21.69,0-32.43,0a55.17,55.17,0,0,0-16.42,2.77c-5.46,1.63-11.34,2.75-16.61,4.88,2-3.31,8.26-4.94,11.73-6.28a.92.92,0,0,0,0-.57c-11.05-1.75-23.15,10-31.93,15.62-.65-3.12,3.14-6,5.23-7.79,4.85-4.11,9.56-8.05,15.33-10.87,5-2.42,11.07-4.81,16.59-5.42,4.12-.46,8.94-1.49,13.06-1.17-9.72,0-19.56.45-29.25,0,4.83-4.44,14.73-5.32,21.08-5.45,8.43-.19,16.82,2.14,25.18,1.38a46.84,46.84,0,0,0-6.08-4.94c4.79-.36,9.46,2,14.19,1.83-1.72-6.33-10.8-9.47-15.52-13.19-3-2.35-5.94-5.92-9.62-7.14a83.47,83.47,0,0,0,13.82,7.34c3.15,1.4,7.56,2,10.32,4,0-4.09.11-10.14,1.81-13.9,1.83,1.14,2.56,4.11,3.42,6.11,1.06,2.5,2.81,5.12,3.4,7.78" transform="translate(-4258.34 -735.93)"/><path class="cls-24" d="M4569.05,836.68s-19.05,22.21-16.8,69.53C4544.83,879.07,4547.08,855.74,4569.05,836.68Z" transform="translate(-4258.34 -735.93)"/><path class="cls-24" d="M4743.78,864.49s16.14,32.74,13.68,83.43c-5.83-27.35-14.13-84.32-14.13-84.32" transform="translate(-4258.34 -735.93)"/><path class="cls-25" d="M4704.18,1029.44s30.27,29,15.63,85.38C4731.22,1090.49,4735.94,1048.8,4704.18,1029.44Z" transform="translate(-4258.34 -735.93)"/><path class="cls-25" d="M4691.43,974.76s41.66-11.85,75.45,7.46C4754.59,980,4709.41,967.3,4691.43,974.76Z" transform="translate(-4258.34 -735.93)"/><path class="cls-26" d="M4785,884.56s15.45,9.38,4,58.36C4792.25,932.5,4790.87,906.79,4785,884.56Z" transform="translate(-4258.34 -735.93)"/><path class="cls-26" d="M4505.67,905.92s-12,49.33,22.58,55.06C4515,951.08,4508.1,939.09,4505.67,905.92Z" transform="translate(-4258.34 -735.93)"/><path class="cls-27" d="M4983.26,1160.11s83.88,164.53,60.22,315.08C5033.81,1367.65,5004.77,1226.79,4983.26,1160.11Z" transform="translate(-4258.34 -735.93)"/><path class="cls-27" d="M4432.68,1075.15S4203.63,1283.77,4295,1548.31C4301.48,1432.17,4292.88,1301,4432.68,1075.15Z" transform="translate(-4258.34 -735.93)"/><path class="cls-28" d="M4615.83,928.42c-.87-2.42-4.26-3.32-6.51-3.25-4.24.13-5.56,3.71-9.77,3.25-1.38-.15-2.52-.67-3.25,0a2.59,2.59,0,0,0,0,3.26c1.14,1.26,3.19-.16,6.51,0,5.3.25,6.81,4.23,9.76,3.25C4614.89,934.17,4616.68,930.82,4615.83,928.42Z" transform="translate(-4258.34 -735.93)"/><path class="cls-28" d="M4678.92,927.59c1.29-3.62,6.34-5,9.71-4.86,6.31.2,8.28,5.54,14.56,4.86,2.06-.23,3.76-1,4.86,0a3.86,3.86,0,0,1,0,4.85c-1.71,1.89-4.77-.24-9.71,0-7.92.38-10.16,6.31-14.57,4.85C4680.31,936.15,4677.64,931.16,4678.92,927.59Z" transform="translate(-4258.34 -735.93)"/></g></g></svg>