<svg xmlns="http://www.w3.org/2000/svg" viewBox="0 0 1080 1394.38"><defs><style>.cls-1{fill:#ed896e;}.cls-2{fill:#b75f4b;opacity:0.3;}.cls-3{fill:#f49984;}.cls-4{fill:#001f20;}.cls-5{fill:#f7b28e;}.cls-6{fill:#c9745d;}.cls-7{fill:#dc7f66;}.cls-8{fill:#5b1f00;}.cls-9{fill:#893116;}.cls-15,.cls-9{opacity:0.6;}.cls-10{fill:#441500;}.cls-11{fill:#7f3814;}.cls-12{fill:#873f1f;}.cls-13{fill:#723214;}.cls-14{fill:#642b0e;}.cls-16{fill:#c45414;}.cls-17{fill:#14070a;}.cls-18{fill:#221a1c;}.cls-19{fill:#ff4759;}.cls-20{fill:#d14050;}.cls-21{fill:#c36f5a;}.cls-22{fill:#c8725c;}.cls-23{fill:#fff;}.cls-24{fill:#261e20;}.cls-25{fill:#423a3d;}.cls-26{fill:#ef9d89;}.cls-27{fill:#f29883;}.cls-28{fill:aqua;}.cls-29{fill:none;}</style></defs><title>Asset 2</title><g id="Layer_2" data-name="Layer 2"><g id="Vprašanja_prva_stran" data-name="Vprašanja prva stran"><path class="cls-1" d="M257.72,1147.51s21.62,199.12,39.22,225.26l37.72-7s-11.07-110.11,16.59-176.48C292.42,1133.93,257.46,1145,257.72,1147.51Z"/><path class="cls-2" d="M331.25,1172.19c-46.66-35.7-73.77-26.86-73.53-24.68,0,0,2.46,22.59,6.38,53.52,0,0,77.52,47.76,43.47,169.76l27.09-5.06s-11-109.08,16.21-175.54Z"/><path class="cls-3" d="M279,1384.8c-1.48-6.84,24.87-39.86,72.22-24.44,5.46-9,19.14-10.44,21.17,10.19s-23.56,23.79-42.47,23.79S281.35,1395.56,279,1384.8Z"/><path class="cls-4" d="M263.71,1250.06s26.21,1.16,47.82-5.17C301.45,1252.37,271.49,1257.27,263.71,1250.06Z"/><path class="cls-4" d="M264.87,1264.18s17.28,4,38.88-2.3C293.67,1269.36,272.64,1271.38,264.87,1264.18Z"/><path class="cls-4" d="M270.35,1280.53s12.09,3.62,33.69-.57C294,1284.91,277.11,1288,270.35,1280.53Z"/><path class="cls-4" d="M272.85,1296.81s3.4,3.44,25-.75C287.77,1301,280.62,1301.58,272.85,1296.81Z"/><path class="cls-4" d="M274.26,1308.79s3.41,3.44,25-.75C289.18,1313,282,1313.55,274.26,1308.79Z"/><path class="cls-2" d="M330,1394.34c18.07,0,42.18-2.91,42.51-21.19-55.48,24.13-75.55,1.15-80.15-6-9.3,6.73-13.93,14.64-13.28,17.61C281.35,1395.56,311,1394.34,330,1394.34Z"/><path class="cls-5" d="M304.24,1363.67s20.1-10.92,47.4,0C361.78,1369.92,280.45,1372.06,304.24,1363.67Z"/><path class="cls-1" d="M595.3,1089.16s11.38,195.78-30.61,278.41l-37.71-7s2.45-163.27-25.21-229.64C560.6,1075.59,595.57,1086.67,595.3,1089.16Z"/><path class="cls-2" d="M592.9,1230.86c5.68-41.19,1.19-130.82,2.17-139.63-3.34-1.55-6.9-3.11-10.59-4.63-14.57,0-43.26,7.21-82.71,44.29,27.66,66.37,25.21,229.64,25.21,229.64l37.71,7c2-2.91,4-8.06,6-14.75-13.48-8.27-25.33-25.59-23-66.65C550.21,1240.8,578.28,1232.22,592.9,1230.86Z"/><path class="cls-4" d="M599.18,1249.77s-26.18,1.49-47.86-4.57C561.5,1252.56,591.5,1257.07,599.18,1249.77Z"/><path class="cls-4" d="M598.22,1263.89s-17.23,4.26-38.92-1.81C569.49,1269.44,590.53,1271.19,598.22,1263.89Z"/><path class="cls-4" d="M593,1280.32s-12,3.77-33.69-.14C569.39,1285,586.28,1287.83,593,1280.32Z"/><path class="cls-4" d="M590.67,1296.63s-3.37,3.47-25-.43C575.79,1301,583,1301.49,590.67,1296.63Z"/><path class="cls-4" d="M589.4,1308.63s-3.36,3.47-25-.44C574.53,1313,581.69,1313.48,589.4,1308.63Z"/><path class="cls-3" d="M583.14,1380.11c1.48-6.84-24.85-39.86-72.21-24.44-5.46-9-19.14-10.44-21.17,10.2s23.56,23.77,42.46,23.77S580.83,1390.88,583.14,1380.11Z"/><path class="cls-2" d="M532.22,1389.64c-18.06,0-42.17-2.89-42.5-21.18,55.48,24.14,75.53,1.16,80.16-6,9.3,6.73,13.91,14.63,13.26,17.6C580.83,1390.88,551.14,1389.64,532.22,1389.64Z"/><path class="cls-5" d="M557.94,1359s-20.1-10.92-47.4,0C500.4,1365.23,581.74,1367.37,557.94,1359Z"/><path class="cls-1" d="M288.2,234.11s-36.92-25.44-43.46,11.74,1.91,59.73,41.79,56.44S288.2,234.11,288.2,234.11Z"/><path class="cls-6" d="M294.8,249.06S269.9,231.9,265.48,257s1.3,40.28,28.19,38.07S294.8,249.06,294.8,249.06Z"/><path class="cls-1" d="M495.27,231.45s38-29.06,42.14,8.12,1.82,59.94-42.14,50.78S495.27,231.45,495.27,231.45Z"/><path class="cls-6" d="M493.19,246.58s24.24-18.55,26.91,5.19,1.17,38.27-26.91,32.42S493.19,246.58,493.19,246.58Z"/><path class="cls-1" d="M302.14,303.45s-17.92-90.78,3.46-129.52,167.1-55.49,178.09,16.2-5.22,107-5.22,107S421.82,361.26,302.14,303.45Z"/><path class="cls-1" d="M250,379s-100.54,7.07-180.1,138.89-107.31,348.28,3.7,501.84c72.26,45.62,101.76-3.71,101.76-3.71l110.07-420,51.81-129.5Z"/><path class="cls-7" d="M250,379s-24.11,1.74-58,18.91c28.46,18.33,77.42,62.34,10.32,119.74C113,594,85.09,635.94,101.21,785.41c9.24,85.58-13.28,156.65-48.7,201.42a363.06,363.06,0,0,0,21.08,32.9c72.26,45.62,101.76-3.71,101.76-3.71l110.07-420,51.81-129.5Z"/><path class="cls-1" d="M498.18,349.14s57.36-4.67,98.06,25.85,102.68,80.48,102.68,80.48,137.83,155.39,92.51,407.92c1.4,56.43-33,68-33,68s-93.2.19-99.68-70.11,10.54-93.63-33.87-163S498.18,349.14,498.18,349.14Z"/><path class="cls-7" d="M698.92,455.47s-43.16-34.78-81.09-64L540,454.2l-7.36,5.93c27.82,86.26,66.49,197.82,92.32,238.18,44.41,69.38,27.4,92.71,33.87,163s99.68,70.11,99.68,70.11,34.36-11.61,33-68c1.22-6.86,2.26-13.62,3.23-20.34C641.07,817.22,694,528,707.25,465.93,702.09,459.07,698.92,455.47,698.92,455.47Z"/><path class="cls-8" d="M720,878.65c-18.92-23.15-41-15.58-39.31,7.11s48.84,39,88.62,79.28S873.94,1083.59,896,1120s28.61,62.78,48.94,64.63c18.88,40,48.35,84.31,93.63,67.59s27.69-64.87,27.69-64.87,32.29-13.42-2.09-67-129.1-86.12-129.1-86.12,17-.09-3-11.78-49.74-16.55-49.74-16.55-27.72-33.07-63.75-50.07S737.78,900.35,720,878.65Z"/><path class="cls-9" d="M896,1120c4.86,8,9,15.54,12.62,22.44-1.89-14.31-13.56-28.89-8.54-42.42,2.91-7.81-10.14-19.59-9.72-28.11.54-10.73,18.94-14.53,9.52-18.13-8.34-3.19-16.88-3.67-25.23-7.31a150.24,150.24,0,0,1-35.2-21.69c-6-5.17-14.22-10.16-19.32-16.2-5.49-6.54-10.18-14.75-14.86-22-7.33-11.25-18.57-16.62-29.55-23.68-4.89-3.14-9.28-5.74-13.78-9.51s-7.27-8.41-11.21-12.82c-5.42-6-10.52-7.31-16.85-11.32-5.85-3.7-10.51-9.22-15.73-13.84s-16.85-10.44-14.72-19c3.12.07,6,1.54,9.16,1.42.06-.59.3-1.29.33-1.91,11-.5,19.75,11.17,26.17,18s14.89,11.24,20.74,18.3a92.75,92.75,0,0,0,24.51,21.58c5.32,3.27,10.77,6.33,16.13,9.55s10.68,10.94,16.68,11.93c-7.87-8.55-16.08-17.57-24.79-25.35-6.72-6-14.55-12.13-18.73-20-.77-1.42-1.56-2.73-2.37-4-21.5-16.44-40.91-34.68-51.21-47.27-18.92-23.15-41-15.58-39.31,7.11s48.84,39,88.62,79.28S873.94,1083.59,896,1120Z"/><path class="cls-9" d="M1016,1240.51c-23.85-2.74-37-19.48-48.87-37.94a208.17,208.17,0,0,0-15.79-22.3c-3.85-4.6-6.25-10.28-11.43-13.49-2.81-1.75-6.94-2.07-7.66-6,5.74.33,11,1.78,16.59,2.85-9.57-6.52-13.29-18-15.12-28.48-1.9-10.93-6.11-17.28-10.62-26.47,9.39,1.5,18.44,16.39,25.4,22.74s13.86,10.18,21.37,15.1c9.39,6.16,17.32,14.32,27.07,20.15,3.59,2.14,6.95,4.94,10.53,7,3,1.72,6.73,2.47,9.48,4.73-8,.26-16.44-5.53-23.6-8.53-6.52-2.73-12.88-5.79-19.6-8.14-11.62-4-19.86-12.65-30.07-19.41,7.34,9.34,12.23,21.43,20.85,30.31-2.54-.11-5.13-.49-7.69-.78,5.33,1.14,11.46,17.46,14.08,22.37,3.87,7.25,8.06,15.79,13.41,22.3,7.84,9.55,19.09,18.88,30.11,23.82"/><path class="cls-9" d="M1071.1,1166c-1.77-12.52-19.5-19-24-30.25-5.37-13.35-16-21.81-25.49-32.08-5.45-5.91-9.27-11.57-16.57-15.54-8.49-4.62-17.12-7.82-26-11.43-7.44-3-15.33-4.58-22.72-7.48-7.68-3-15.72-12.26-24-12.82,9.09,4.25,15.81,12.44,23.2,18.78,5.87,5,12.71,9,19.45,12.82,14.33,8.15,28.41,18.22,41.72,28.15,9.89,7.38,17.21,17.42,26.58,25.34,4.25,3.59,7.59,8.18,11.84,11.82,5,4.26,10.78,7.94,15.52,12.11"/><path class="cls-10" d="M1062.53,1190.4c.61,1.86,0,4.45-.2,6.48q-.76,6.88-1.52,13.76c-.77,6.94-.77,12.91-5.36,18.36a47.31,47.31,0,0,1-11.72,9.7c-2.88,1.63-7.88,4.53-10.93,4.62.57-1.73,3-2.17,3.23-4.15-4.22-.66-8.55-.88-12.77-1.47,3.74-1,6.19-4.35,10.21-5-6.72-1.29-15.49-.39-21.21-5-6.24-5-8-12.39-10.82-19.43-1.82-4.5-5.22-7.42-8.39-11-1.91-2.14-3-4.76-4.8-7-3.45-4.35-5.75-14.57-11.2-16.84,10.64,4.12,18,14.83,28.63,19.07a25.92,25.92,0,0,0,9.47,1.61c4-.13,7.48-2.8,11.22-4.24,3.34-1.29,7.23-1.23,10.45-2.56,4.86-2-1.33-4.7-4-6.27-3.75-2.2-7.3-4.4-11.08-6.34a51,51,0,0,1-10.38-7.19c4.73.21,10.61,2.22,15.11,1.43-6.31-4.7-13.23-8.19-20.06-12-5.71-3.21-10.33-7.44-15.32-11.56s-9.8-8.22-14.56-12.53a35.42,35.42,0,0,0-7.4-5.26c-1.6-.86-3.59-1.54-4.8-3,7.24,0,13.15,3.57,19.43,6.76,7.4,3.76,14.57,7.74,21.75,11.83s15.07,6.77,22.39,10.4a44.22,44.22,0,0,1,10.23,6.77c2.69,2.42,5.47,5.35,8.65,7,5.34,2.76,10.73,4.75,15.83,8,.68.45,2.6,1,2.92,1.71.63,1.32-.39,5.35-.71,6.9a15.44,15.44,0,0,1-2.2,5.85"/><path class="cls-10" d="M828.46,975.28c4.14.7,8.49,4.11,11.58,6.75,4.21,3.59,9.18,6.55,13.25,10.2,2.61,2.35,3.71,5,5.59,7.9,2.27,3.47,6,5.66,9.25,8.21,9.54,7.52,22.21,6.88,33.48,10.49s19.42,10.89,28.19,18.47c12.46,10.75,31.6,10.32,44.37,20.7-9.53-.52-20.63-3.31-29.86-6.17-7.5-2.33-14.19-3.93-20.73-8.95A63.26,63.26,0,0,0,904,1032.25c-8.22-2.64-18.28-2.36-25.93-6.41,5.92-2,13.9-.09,20.29.35-7-4.54-15.84-3.71-23.61-6-3.37-1-6.82-1.92-9.29-4.58-3-3.21-3.89-7.41-6.49-10.93-2.24-3-5.59-4.3-8.22-6.86s-3.16-5.53-5.09-8.71c-2.24-3.71-5.16-5.35-8.19-8-2-1.78-3.22-5.81-6.18-6a2.26,2.26,0,0,0,1.52,1"/><path class="cls-10" d="M850.76,1051.36c.54,1.94,5.72,5,7.41,6.29a50.65,50.65,0,0,0,8.22,5.29c4.79,2.26,9.8,5.67,12.61,10.36.88,1.45,1.41,3.25,2.43,4.61,1.27,1.69,3.11,3.07,4.38,4.82,2.37,3.2,3.93,7.66,5.7,11.23-3.46-.09-7.36-3.45-10-5.36-2.44-1.72-5.38-3-7.11-5.41-2.54-3.52-4.84-7.24-7.33-10.81-2.68-3.83-6.31-6.71-8.81-10.74-2-3.27-6.75-5.88-7.26-10"/><path class="cls-11" d="M486.21,415.7s103.94-12,110-40.71c51.81,22.2,102.68,80.48,102.68,80.48s-42.56,161-34.23,199.81-14.8-30.52-14.8-30.52S676.72,780.16,682.26,832c-23.13-23.13-28.67-53.66-28.67-53.66s34.23,199.8,34.23,267.33c-25.91-29.6-29.6-56.42-29.6-56.42s26.83,88.8,5.55,135c-29.61-9.25-34.23-35.14-34.23-35.14s-14.65,65.67-27.21,62.89-24.59-53.65-24.59-53.65-36.08,96.21-55.51,84.19-27.74-53.66-27.74-53.66-19.43,96.19-45.34,83.25-36.07-41.63-36.07-41.63-7.4,56.44-21.27,49-21.28-43.49-21.28-43.49-27.75,63.84-59.21,58.28-43.47-64.75-43.47-64.75,10.18,82.32-16.65,80.48-38.85-66.61-38.85-66.61-17.57,71.24-41.63,47.19-26.83-142.46-4.63-284c0,0-35.14,57.34-9.24-46.26-39.78,23.13-7.41-98,9.24-148.93,0,0-31.44,5.55-14.78-61.05S167,575.73,195.7,560.93s91.44-36.08,117.41-94.36S486.21,415.7,486.21,415.7Z"/><path class="cls-12" d="M585.94,531.05c1.52-28.07,1-57.16-3.83-84.8a27.75,27.75,0,0,0,5.39,9.41c6.79-23.74-12.65-40.68-32.11-54.12-31.34,9.77-69.18,14.16-69.18,14.16s-147.13-7.4-173.1,50.87c-18.64,41.83-56.18,64.54-86.51,79.54a299.77,299.77,0,0,0-2.82,39.09c0,24.2-3.6,50.52,10,72,6.8,10.75,14.53,17.55,21.1,3.62,6.9-14.68,10.1-34.7,11.2-50.89-.31,12.57-7.79,72.12,13.47,72,11.08-.08,16.17-26.53,18.88-36.34,2.29-8.37,4-21.34,8.83-28.36,7.56,6.09,2.82,27.58,3.3,35.77,1.65,28.71,7.62,60.13,14.51,87.85,7.35,29.55,15.31,63.66,33.42,88.66,4.2,5.8,11.3,19,20.86,16.22,9-2.64,13.72-24.9,16.93-32.49,7.5-17.78,13.36-33.59,15.23-53,2.74-28.42-5.15-59.86,2.3-87.61,2.31,6,4.68,59.38,17.26,55.9,3.65-1,6.74-43,7.15-47.88.76-9.05-1.77-19.56,2.06-28.08,5,10.24,4.63,31.6,16,37.92,6.2-19.36.16-40.87,3.25-60.69,5.13,4.63,5.61,12.12,8,18.52,3.9,10.39,8.2,23,14.5,32.16,2,2.88,7.11,10.5,11.54,10.25,6.11-.34,4-3,5.69-8.11,3.09-9.17,7.25-18.8,9-28.36,2.32-12.81.65-27.09.65-40.06,0-12.3,0-24.61,0-36.9,7.54,12.84,17.35,35.42,32.16,40.87,3.61-4,4.16-13.43,5.71-18.56,3.59-11.8,4.74-23.73,5.14-36.05.47-14.82-.91-29.81.1-44.59,5.83,6.46,13.1,31.79,24.27,33.65C586.72,554.31,585.5,539,585.94,531.05Z"/><path class="cls-13" d="M602.33,1152c12.56,2.78,27.21-62.89,27.21-62.89s4.62,25.89,34.23,35.14c16.45-35.75,4.16-96.88-2.27-122.82,3.66,10.6,11.18,26.9,26.32,44.19,0-67.53-34.23-267.33-34.23-267.33s5.54,30.53,28.67,53.66c-5.54-51.81-32.37-207.21-32.37-207.21s23.12,69.37,14.8,30.52,34.23-199.81,34.23-199.81S650.77,400.42,600.45,377c1.14,1.71,2.25,3.45,3.4,5.1,8.9,12.9,23.44,22,30.8,36,7,13.5,7.52,43.64,2.81,58.76,0-1.53.24-3.1.07-4.62-1.3,25.13,3.5,47.36-3.39,71.7-5.78,20.35-4.45,54.94-14.52,72.66-3.67-6.65-6.19-13.81-10.58-20-8.87,16.1-.15,52.08-.17,71.71,0,20,5.43,49.73-1.48,68.56-3.53-4.48-7.49-11.12-11.93-15.72-1.14,22.8,2.57,55.15-8.72,75.13-9.91-9-10-25.64-16.93-37-.73,15.89,2.15,33-2.86,48.44-5.47-16.85-8.36-39.19-17.88-53.91-9.65,15.35-2.08,57.47-2,76.32,0,25.59,2.47,67.09-10.19,89.47-18.16-10.11-24.34-36.34-39.3-50.43-5.48,14.79-1.45,32.83-8.53,46-12-11.93-9.66-32.28-17.64-46.81-5.13,12.43-6.72,28.05-9.15,41.69-8.09-29.86-9.2-67.35-10.54-98.08-6.34,15.78-6.75,37.84-10.57,54.57-5.87,25.75-15.68,50.45-22.59,75.93-8.93,32.91-22.42,83.06-49.35,106.63-25.16-12.28-14.86-62-24.05-83.71-1.27,9.59-.74,20.42-2.79,29.35-7.44-14-4.24-32.58-9.49-47.33-11.43,25.22-10,56.72-22.13,81-20.63-12.72-19.3-33.2-22.21-53.92-7.67-54.4-4.41-112.17-3.9-167.7-4,11.57-23.48,64.14-31.79,64.4-35.72,1.16-17-110-22.25-128.07-6.45,19.2-23.21,35.5-26.14,55.55-15.4-13.25-12.69-41-13.37-59-1-26.55,1.57-57.62-8.84-82.17-7,18.55-12.08,42-12.51,62.13-9-2.44-14.11-17.29-15.92-25.77-.54-2.51-1-5.14-1.43-7.83-.36,1.47-.68,2.9-1,4.39-16.66,66.6,14.78,61.05,14.78,61.05-16.65,50.88-49,172.06-9.24,148.93-25.9,103.6,9.24,46.26,9.24,46.26-22.2,141.53-19.42,259.93,4.63,284s41.63-47.19,41.63-47.19,12,64.76,38.85,66.61,16.65-80.48,16.65-80.48,12,59.2,43.47,64.75,59.21-58.28,59.21-58.28,7.4,36.08,21.28,43.49,21.27-49,21.27-49,10.19,28.69,36.07,41.63,45.34-83.25,45.34-83.25,8.32,41.62,27.74,53.66,55.51-84.19,55.51-84.19S589.76,1149.25,602.33,1152Z"/><path class="cls-14" d="M663.77,1124.27c16.45-35.75,4.16-96.88-2.27-122.82,3.66,10.6,11.18,26.9,26.32,44.19,0-37.59-10.61-116.14-20-178.42,0,3.67-.1,7.35-.1,11,0,17.38,4,40.34-4.87,56.11-13.82-10.17-18-28.33-29.5-40.59-2.62,21.61,6.72,41.14,9,62.28a282.38,282.38,0,0,1-.83,61.18,35.94,35.94,0,0,1-8.66-16.06c.47,13.16,6.69,57.83-4.29,63.15-22.14,10.73-50.94-67.2-64.31-73.07-17.71,24.7-.08,64.86-9.88,92.38-17.27-1.56-18.56-31.4-21.42-44.32-6.25,25.31-5.35,54-11.95,80.34-26.59,6.31-26.89-49.77-31-64.28-1.25,9-.86,21.36-6.25,28.38-7.3-10-12.26-22.83-15.11-34.66-5.06,7.59-3.17,19.06-5.15,28-1.79,8.12-8.72,37.81-15.93,42.82-23.53,16.32-34.43-43.8-46.57-50.82-6.24,18.25-20.19,91-43.38,44.72-7.87,15.11-12.46,65.45-36.43,61.8-30-4.58-34.41-73.26-39.51-95.69-4.4,5.87-6.59,16.68-8.8,24.3-1.75,6-4.1,28.1-8.43,32-22.34,20.29-22.45-47.64-25.93-56.45-6.9,12.83-2.17,31.05-10.06,44.3-20.47-5.47-13.36-56.32-13.17-73.38-4.64,16.91-12.94,53.3-27.11,64-20.09-27-28.58-57-32.18-88.63-10.16,104.54-4.6,185.13,14.77,204.5,24.06,24,41.63-47.19,41.63-47.19s12,64.76,38.85,66.61,16.65-80.48,16.65-80.48,12,59.2,43.47,64.75,59.21-58.28,59.21-58.28,7.4,36.08,21.28,43.49,21.27-49,21.27-49,10.19,28.69,36.07,41.63,45.34-83.25,45.34-83.25,8.32,41.62,27.74,53.66,55.51-84.19,55.51-84.19,12,50.88,24.59,53.65,27.21-62.89,27.21-62.89S634.16,1115,663.77,1124.27Z"/><path class="cls-14" d="M672.15,760c-1.5,18.36-2.54,36.77-3.23,55.2A98.77,98.77,0,0,0,682.26,832C680.5,815.59,676.64,788.87,672.15,760Z"/><g class="cls-15"><path class="cls-16" d="M331.67,675.61c-4.38-2.61-37.72,26.1-40.45,33-4.1,10.36,6.42,22.88,16.47,25.11,9.86,2.19,15.3-4.07,25.33-1.45,9.37,2.44,18.92,8.88,29,7.25,21.57-3.47,26.07-34.11,9.6-45.83-12.34-8.76-26.35-12.21-39.9-17.14"/><path class="cls-16" d="M479.68,659C469,647.08,446,675.82,442.61,685.41c-6.58,18.74,30.66,16.69,41.77,15.09,21.24-3.08,22.05-14.27,9.87-30.92-3.08-4.22-36-30.65-30.29-10.62"/><path class="cls-16" d="M328.46,538.69c-10.65-11.87-33.72,16.86-37.08,26.45-6.58,18.74,30.67,16.7,41.78,15.09,21.24-3.08,22-14.27,9.87-30.92-3.08-4.21-36-30.65-30.29-10.62"/><path class="cls-16" d="M449.15,770.88c-10-7.75-43.28-7.63-48.93,5.61-8.32,19.53,16,24.92,28.95,24.91,17.82,0,44.44-5.76,40.34-29.17-2.88-16.37-19.73-19.39-32.37-10.59"/><path class="cls-16" d="M595.31,680.23c-1.69-1.21-29.58,17.79-34.95,20.71-6.81,3.7-9.33,4.38-8.56,13.43.33,4,1,9,4.57,11.81,2.46,1.92,8.86.79,10.17,2.09,2.22,2.22,3.37,10.56,2,14-4.67,11.66-31.58,10.75-20,26.29,5.63,7.55,22.3,12.91,31.47,11.61,9.55-1.37,14.11-8.86,17.41-17.6,2.7-7.22.63-15.61,3.4-22.5,3.43-8.56,7.76-5.39,14.7-8.75,9-4.32,7.51-12.47,7.51-22.17,0-11.32-1.26-16.79-10.15-23.56-7.78-5.93-19.44-10-27.77-2.57"/><path class="cls-16" d="M563.87,533.16c-6.91-2.67-22.17,5.65-30.67,6.53s-15.05.62-23.47,3.62c-12.63,4.49-12.93,9.44-13.6,21.73-.47,8.48-1.58,19,8.7,22.85,8.27,3.11,17.32-1.27,23.88-4.61,8.88-4.51,21.14-3.13,29.13-7.74,7.69-4.42,15-31.86,5.09-36.84"/><path class="cls-16" d="M629.54,495.23c-13,0-18.26-2-26.37,8.77-6.42,8.54-13.64,19.39-.31,24.37,22,8.2,52.81-1,51.59-27.25-6.05-.93-18.24.76-22.14-3.11"/><path class="cls-16" d="M250.4,607.62c-13,0-18.27-2-26.37,8.77-6.42,8.54-13.64,19.39-.31,24.37,22,8.21,52.81-1,51.58-27.25-6-.93-18.23.76-22.13-3.12"/><path class="cls-16" d="M612,422.15c-6.4-1-11.23,6.1-17.56,7.47-9.85,2.11-18.86-1.78-27.72,4.48-12,8.5-10.59,36.41,8.5,33.44,6.26-1,12-7.61,17.5-10.21,7.62-3.61,20.4-3.36,25.81-10.18,7.07-8.92,2-20.16-6.53-25"/><path class="cls-16" d="M624.91,589.58c-10.38-.57-62,8.25-57.34,27.77,3.61,15.2,34.33,4.73,44.47,4.41,9.69-.31,17.36,3.32,25.84-1.86,4.3-2.63,11.49-10.1,13-14.8,5.63-17.55-15.36-14.59-26-14.59"/><path class="cls-16" d="M547.21,810.67c-11.07.93-29.74-8.19-39.06-1.76-4.69,3.23-8.14,13.17-12.81,17.57-4.18,3.95-8.5,8-13.75,10.36-9.72,4.36-21,2-30.35,7.53-10.56,6.31-17,15.8-6.06,24.62,11.54,9.32,36.43,8.67,50.27,6.21,15.88-2.82,28.8-18.47,43.39-25.62,10.93-5.34,20.33-13.85,20.5-26.73.13-10.11-8-13.27-17.68-12.18"/><path class="cls-16" d="M592.54,836.56c-8,.22-12.73,8.44-14.85,15-3.2,10-.74,13.13-10.77,19.43-7,4.4-15.53,8.49-4.22,14.38,10.15,5.3,25.89.88,34.41-5.08,11.55-8.07,32.5-14.5,30.57-31.91-2-18.26-25.29-12.77-38.85-12.77"/><path class="cls-16" d="M502.81,942c-4.62,0-11,1-15.43-.3-8-2.4-14.83-12.82-23.23-13.67-17.27-1.75-29,20.44-37.15,32-10.1,14.31-17.9,9.54-31.29,18.07-12.19,7.77-15.18,27.31-8.59,39.76,7.46,14.13,26.65,10.89,40.2,10.31a108.94,108.94,0,0,0,49.25-14.24c12.1-6.89,27.25-17.6,36.27-28,7.63-8.82,10.24-19.95,5.49-30.94-5.31-12.29-13.53-10.16-25.69-10.16"/><path class="cls-16" d="M629.54,912.42c-7.74-1.11-12.1,3.07-18.5,6.26-7.34,3.66-17.18,3.85-23.23,9.74-5.85,5.69-7.83,17.33.27,21,9.55,4.34,30.58-4.29,39.12-8.29C636,937,639.63,929.72,637.52,920a13.9,13.9,0,0,0-3.35-.13"/><path class="cls-16" d="M636,1039.15c-1.5-5.21-43.45-6.09-47.16,4.58-6.09,17.5,12.78,16.66,23.91,16.7,15.84,0,30.72,2,28.8-17.43-1.8-18.31-25.2-6-37-.15"/><path class="cls-16" d="M547.21,1028.05c-23.36-4-38.67,40.89-3.35,37.07,13.51-1.47,19.31-8.7,16.29-22-2.1-9.34-9.86-8.68-14.79-16"/><path class="cls-16" d="M435.28,1104.83c-4.9,1.82-10-.76-15.38-1-8.06-.38-13.84,1.93-20.65,5-11.89,5.26-15.95,7.79-20.88,19.24-1.54,3.56-3,9.89-5.38,12.74-3,3.55-11.08,4.28-12.55,9.41-3.3,11.58,17.65,11.48,24.63,10.18,9.11-1.69,15.27-7.8,25.95-8.32,9.7-.48,14.84,2.51,19.61-6.36,4.16-7.75,6.77-21.89,5.58-30.74-1.39-10.44-2.15-8.91-12.94-11"/><path class="cls-16" d="M338.15,1049.32c-9.78-14.55-25.26-16.17-41.7-15.75-13.2.35-23.23.89-31.79,11-4.85,5.74-14.06,15.76-11.11,23.87,16.82,1.52,34.33.28,51.29.28,7.9,0,17.33,1.2,25-1.06,12.39-3.66,16.77-17,13-28.54"/><path class="cls-16" d="M330.76,930.92c1.06-10.61-5.37-18.09-16-17.59-9.38.43-14.56,8.79-23.55,10.19-12.23,1.9-25-1-36.42,5.5-9.67,5.5-14.94,15.38-17.49,25.73-3.64,14.73-.71,24.78,15.84,28.08,17.53,3.5,36.48,2.2,48.69-9.31,13.08-12.35,26.81-19.29,27.06-38.9"/><path class="cls-16" d="M224.38,1015.1c-10.26-1-28.44,4-32.4,14.75-3.82,10.34,3.93,17.39,13.9,16.69,13.87-1,33.34-24.27,14.8-32.37"/><path class="cls-16" d="M399.84,610.29c-10.26-1-28.42,4-32.4,14.75-3.82,10.34,3.94,17.39,13.91,16.69,13.87-1,33.34-24.27,14.8-32.37"/><path class="cls-16" d="M226.22,807.89c-13.12-23.58-70.56,9.64-58.54,28.86,5.19,8.3,36.07,6.23,43.81,2.54,8.94-4.27,21.28-19,16.59-29.55"/><path class="cls-16" d="M261.39,853.21c-6.22-2.05-39-2-29.5,13,2.08,3.29,14.35,4.22,18,1.81,4-2.69,4.06-7.53,4.12-12"/><path class="cls-16" d="M342.78,840.27c-10.14-4.08-49.9-6.54-46.25,14.72,3.29,19.22,32.49,14,47,14,14,0,35.63,3.49,20.51-14.72-6.59-7.93-16.16-10.56-23.13-17.66"/><path class="cls-16" d="M454.7,898.54c-7.47-2.84-42.73-5.38-47.94.89-5.85,7.06,3.4,14.7,8.75,15.75,8.44,1.68,24.29,1.59,32.68-1.59,6.56-2.48,12-10.89,5.6-16.9"/><path class="cls-16" d="M248.17,682c-7.47-2.84-42.74-5.37-47.94.89-5.85,7.06,3.4,14.71,8.75,15.76,8.44,1.67,24.28,1.59,32.67-1.59,6.57-2.49,12-10.9,5.6-16.9"/><path class="cls-16" d="M310.4,1119.63c-6.17-10.21-33.65-6.81-45.44-7.4-9.83-.5-21.74-.06-27.64,9.24-3.7,5.82-4.73,13.19,1.57,18.12,8.11,6.35,22.9,2.19,31.55,1.47,5.37-.45,17.26,2.37,21.54,0,3.95-2.23,4.45-10,7.12-13.36,2.5-3.15,5.77-5.2,8.53-8"/></g><path class="cls-17" d="M356.49,313.27s-25.44-37-70-11l6.94,5.2s-28.24,2.88-50.2,46.81a38.84,38.84,0,0,0,24.19,1.84s-28.91,38.07-74,42.69C212,415,218.32,415,218.32,415l-24.88-3.48s31.8,82.1,95.4,113.32a83.22,83.22,0,0,1-42.78-7.52c31.8,34.7,70.54,68.22,185,26-15,20.82-20.81,23.71-20.81,23.71s100-8.1,124.88-74v30.65s39.3-9.84,27.17-99.45l14.44,20.82s0-79.78-53.17-140.49-48-6.94-113.9,6.35S356.49,313.27,356.49,313.27Z"/><path class="cls-18" d="M392.36,338c-5.65-4.06-14.74-6.28-21.32-8.12a141.32,141.32,0,0,0-21.71-4.06c-5.79-.62-11.93-.12-17.77-.07-14.51.09-25.21,8.07-39.65,8,10,1.52,30.78,9.55,41.24,3.78-8.66.47-13.78,7.15-20.61,10.81,6.29,4.11,22.38.83,30.3,1-3.41,6.11-11.2,10.85-16.36,15.45-7.73,6.92-17,9.12-25.64,14.37s-17.49,10.25-27.11,13.08c-4.2,1.23-8.72,1.67-12.77,3.34,9.1-.23,18.25-.1,27.35,0-5.71,3.14-24.13,8.76-25,16,15.88.85,34.15,1,48-7-4.32,11.33-21.73,15-31.73,19.71-6.22,2.91-12.95,3.19-19.43,5.1,7,3.55,14.55,4.89,21.75,7.28-5.57-.09-13.22-1.32-18.29.53,3.29,4.65,11.9,7.85,16.94,10.76,8.38,4.85,19,12.3,28.79,13.89,9,1.47,19,.25,28.11.25a233.45,233.45,0,0,0,29.91-1.75c-8.5,5.64-18.34,8.69-26.29,15.49-2.18,1.87-6.7,5.26-6.66,8.36,13.82.5,26.39-2,37.57-9.71-1.4,11.38-21.31,16.43-19.25,29.39,11.71,1.48,30.57,3.88,41.1-2.28,7.38-4.32,12.44-11.71,18.46-17.57,6.31-6.16,12.63-12.19,16.58-20,1,8.36-8.1,16.12-6.26,23.95,14.94,1.07,19-25.14,26.65-34.24,1.09,17.25-12.05,31.89-16.08,48,5.54-1,13.09-6.61,17.48-10.3,8.6-7.22,16-15.57,20.17-26,3.9-9.8,8.42-19.48,10.43-29.93.55-2.95.39-7.28,1.89-9.31,1.12,8.53,1,24.25,8.34,30.4,5.82-10.06,2.07-24.62,5.89-34.87,2.8,9.66,4.73,20.8,10,29.55,3.6-8.48,2.8-21.13,2.79-30.39,0-12.27-6.07-23.53-6.3-35.64,10.46,17.46,27.07,31,35.92,49.83.59-15.56-6.1-31.94-11-46.64-6.39-19.26-18.75-30.35-33.64-43.25,8.75-.06,17.53.82,26.28.46-.52-7.09-15.85-10.87-21.25-12.38-8.8-2.45-19.19-1.81-27.54-4.44,4-.31,38.89.95,28.78-10.59-2.07-2.37-8.93-1.88-11.51-2.11-8.68-.77-17.27-2.8-25.93-3.36-6.38-.42-12.9-.07-19.28-.07-22,0-40.48,7.91-59,18.86"/><path class="cls-19" d="M383.59,221s-69.32,103.84-9.77,111.37,44.62-44.38,37.6-79.21C401.48,203.89,383.59,221,383.59,221Z"/><path class="cls-19" d="M383.59,221s-69.32,103.84-9.77,111.37,44.62-44.38,37.6-79.21C401.48,203.89,383.59,221,383.59,221Z"/><path class="cls-20" d="M411.42,253.15c-2-9.75-4.26-16.82-6.64-22,7.23,34.62,18.61,82-38.5,74.83-7.22-.91-12.5-3.26-16.29-6.64-1.69,16.87,3.66,30.49,23.83,33C433.39,339.87,418.44,288,411.42,253.15Z"/><path d="M439.76,257.32c0,7.74-3.53,14-7.9,14s-7.9-6.28-7.9-14,3.55-14,7.9-14S439.76,249.56,439.76,257.32Z"/><path d="M359.26,257.32c0,7.74-3.54,14-7.9,14s-7.89-6.28-7.89-14,3.53-14,7.89-14S359.26,249.56,359.26,257.32Z"/><path class="cls-17" d="M427.21,200.43c-9.87,11.17-21.11,19.23-3.47,33.32s32.05,24.92,41.79,7.37S427.21,200.43,427.21,200.43Z"/><path class="cls-17" d="M358.1,201.59c9,11.91,19.55,20.81.85,33.49s-33.88,22.34-42.23,4.08S358.1,201.59,358.1,201.59Z"/><path class="cls-6" d="M422.55,341.52s-29.89-5.26-39.05,19.08C387.66,348.26,400.66,332.26,422.55,341.52Z"/><path class="cls-17" d="M353.89,157.12s30.36,6.29,71.73,0a19.41,19.41,0,0,1-10.48,6.29s13.1,7.19,35.61,5.23l-3.92,6s24.6-1,28.25,35.34,3.84,47.27,0,70.43c16.5,5.49,31.35,11.7,31.35,11.7s-2.28-42.33-10.13-76.36c12.56,17.8,15.17,27.52,15.17,27.52s1.31-39.84-19.37-73.6c14.41,7.07,19.39,23.56,19.39,23.56s-8.92-86.13-100.28-80.89c46.6-16,62.56-4.45,62.56-4.45s-52.62-29.06-90.58,4.71c-5.23-25.13,4.46-37.43,4.46-37.43S367.75,79.89,368,122c-22-30.36-42.15-20.68-42.15-20.68l29.59,27.75s-47.63-14.92-71.2,22c18.33-3.67,24.34-2.1,24.34-2.1s-36.38,24.89-31.14,78.28l5-16.23s-8.63,59.94,8.92,91.87c14.9-3.13,16.23-6.28,16.23-6.28S294.72,259,310.17,216c-8.38,6.28-8.9,11.27-8.9,11.27S308.86,163.41,353.89,157.12Z"/><path class="cls-21" d="M679.12,927.18s-21.25-30.57,30.42-19.64,58.11,21.22,51.72,48.23S701.63,965.18,679.12,927.18Z"/><path class="cls-22" d="M697.2,891c-10.16-10.76,27-29.06,36.3-7.47S715.84,910.72,697.2,891Z"/><path class="cls-23" d="M433,257.34a3.7,3.7,0,1,1-3.7-3.7A3.71,3.71,0,0,1,433,257.34Z"/><path class="cls-23" d="M353.46,257.34a3.69,3.69,0,1,1-3.69-3.7A3.7,3.7,0,0,1,353.46,257.34Z"/><path class="cls-24" d="M456,237.48c1.82-1.66-5.14-6.41-5.88-7.67,2.5.87,5.69,4.12,8.54,3.24,1.28-.4,1.37-.94.84-2.14-1.56-3.48-4.71-6.06-7.38-8.64-.23-.23-.51-.41-.74-.62.86.49,1.77.83,2.35.39-.41-2.09-4.42-4.66-6-5.82-3-2.27-6.11-4.48-9.16-6.72a53.48,53.48,0,0,0-5.88-4.32c-2.69-1.44-6.65-.12-6.81,3-1.89,2.36-2.63,5.9-3,8.84-.44,3.53.1,10.4,3.57,12.63,3.11,2,1-5,1.72-6.47,1.54,4.15,1.49,9.92,5.76,12.45,1.77-1.35-1-6.11-.16-8.14a49.35,49.35,0,0,0,5.89,8.94c1,1.1,3.7,4.81,5.17,3.3s-.31-4.57-.94-6.06c-.78-1.84-2.52-3.77-2.82-5.78,2.59,1.75,4.9,3.89,7.41,5.72C449.74,234.48,454.56,238.82,456,237.48Z"/><path class="cls-24" d="M353.48,207.05c.09-1.32-5.44,2.15-6,2.48-3.45,2.1-6.68,4.61-10,6.94-2.15,1.52-4.57,2.92-6.56,4.64-1.28,1.11-3.35,3.25-3.46,5.06,2,.27,6.29-3,7.66-4.58a28.88,28.88,0,0,0-6.83,7c-.83,1.14-3.23,3.85-2.49,5.52,1.09,2.44,7.37-2.38,8.14-3.67-.68,1.22-2.55,5.78-.43,6.6,1.46.57,6.14-3.55,7.28-4.45,2.81-2.2,6.09-5.57,7.59-8.86-.56,1.68-1.76,5.6-.43,7.21,2.12-.43,3.42-2.93,4.4-4.59a40.94,40.94,0,0,0,2.17-4.47c.31-.71,1.09-1.86.94-2.71.56,1.3-.11,4.25,1.18,5.09,2.47-1.2,1.52-7.1.52-8.94.74.25,1.68,1.82,2.42.85.62-.8-1-2.76-1.51-3.43l-1.57-2.22c-.62-.91-1.51-1.55-2.14-2.41"/><path class="cls-25" d="M509.26,305s37.23,14.14,59.86,113.6C555.92,389.41,545.56,343.68,509.26,305Z"/><path class="cls-25" d="M554,416.75s15.08,65.05-13.2,96.64C550.27,492.17,559.22,466.24,554,416.75Z"/><path class="cls-25" d="M533.26,470.56s-2.3,69.89-106,90.12C450.48,551.94,513.47,531.94,533.26,470.56Z"/><path class="cls-25" d="M262.2,528.72s42.53,56.33,159.09,14.49C373,551.48,304.49,563.9,262.2,528.72Z"/><path class="cls-25" d="M203.11,418.83s15.62,35.86,57,57.24C237.82,455.15,203.11,418.83,203.11,418.83Z"/><path class="cls-25" d="M290.94,301.51s33.55-14.12,54,7C330.82,303,314.26,299.06,290.94,301.51Z"/><path class="cls-25" d="M248.59,351s28-45.42,81.62-36C309.55,317.88,280.51,318.29,248.59,351Z"/><path class="cls-24" d="M376.55,128.38c.27-1.33,2.61-3,4-4.22a100.33,100.33,0,0,1,12-9,82.24,82.24,0,0,1,15.71-8,73.89,73.89,0,0,0-9.19,6.69c-2.48,2-3.22,4.19-5.17,6.41,4.48.86,8.81-3.61,13.56-3.32-1.45,3-5,4.67-7.38,6.68,10.89-1.18,23.24-3.38,33.42,1.75,9.32,4.69,17.89,13.86,29,14.54-3.39,1.05-8.25-1.59-11.83-2a34.36,34.36,0,0,0-5.82-.18c-1.89,5.12,28.46,8.45,27.39,17.57-2.37.42-4.94-1-7.12-1.7-3.3-1.08-7.35-1.65-10.28-3.32,3.65,1.24,7.72,4.87,10.77,7.23a37.68,37.68,0,0,1,11.64,14.25,93,93,0,0,1,5.74,13.66,73.72,73.72,0,0,0-8.56-11.08c-5.6-5.77-12.43-9.76-18.74-14.62a93.11,93.11,0,0,0-17.09-10.93c3.9,1.94,6.51,4.73,9.79,7.38a36.44,36.44,0,0,1-9.54-2.06c-3.38-1.33-7.19-.66-10.69-1a44.51,44.51,0,0,0,8.63,5.12c-9.89-5.34-23.52-11.63-35.08-8.12a82.27,82.27,0,0,1-23.88,3.55c-3.31,0-7.27.66-10.44-.55,4.12-1.09,10.91.59,14.06-3-10.69-.7-21.69,0-32.42,0a55.06,55.06,0,0,0-16.42,2.77c-5.47,1.63-11.34,2.75-16.62,4.88,2-3.31,8.26-4.94,11.74-6.28a1.1,1.1,0,0,0,0-.57c-11.06-1.75-23.16,10.05-31.94,15.62-.64-3.12,3.14-6,5.24-7.79,4.84-4.11,9.55-8.05,15.33-10.87,4.95-2.42,11.06-4.81,16.59-5.42,4.11-.46,8.93-1.49,13.05-1.17-9.71,0-19.56.45-29.25,0,4.83-4.44,14.73-5.32,21.09-5.45,8.42-.19,16.81,2.14,25.17,1.38a47.42,47.42,0,0,0-6.07-4.94c4.79-.36,9.45,2,14.18,1.83-1.72-6.33-10.8-9.47-15.52-13.19-3-2.35-5.94-5.92-9.61-7.14a83.38,83.38,0,0,0,13.81,7.34c3.15,1.4,7.56,2,10.32,4,0-4.09.11-10.14,1.82-13.9,1.82,1.14,2.56,4.11,3.41,6.11,1.06,2.5,2.82,5.12,3.4,7.78"/><path class="cls-24" d="M310.72,175.94s-19.06,22.21-16.81,69.53C286.5,218.33,288.75,195,310.72,175.94Z"/><path class="cls-24" d="M485.44,203.75s16.15,32.74,13.68,83.43C493.29,259.83,485,202.86,485,202.86"/><path class="cls-25" d="M445.84,368.7s30.28,29,15.63,85.38C472.88,429.75,477.6,388.06,445.84,368.7Z"/><path class="cls-25" d="M433.09,314s41.67-11.85,75.45,7.46C496.25,319.29,451.07,306.56,433.09,314Z"/><path class="cls-26" d="M526.63,223.82s15.45,9.38,4,58.36C533.92,271.76,532.54,246.05,526.63,223.82Z"/><path class="cls-26" d="M247.33,245.18s-12,49.33,22.58,55.06C256.7,290.34,249.76,278.35,247.33,245.18Z"/><path class="cls-27" d="M724.92,499.37S808.8,663.9,785.14,814.45C775.47,706.91,746.43,566.05,724.92,499.37Z"/><path class="cls-27" d="M174.35,414.41S-54.71,623,36.69,887.58C43.14,771.43,34.54,640.24,174.35,414.41Z"/><path class="cls-28" d="M357.49,267.68c-.87-2.42-4.25-3.32-6.51-3.25-4.23.13-5.55,3.71-9.76,3.25-1.38-.15-2.52-.67-3.26,0a2.61,2.61,0,0,0,0,3.26c1.14,1.26,3.2-.16,6.51,0,5.31.25,6.81,4.23,9.76,3.25C356.55,273.43,358.35,270.08,357.49,267.68Z"/><path class="cls-28" d="M420.58,266.85c1.3-3.62,6.34-5,9.71-4.86,6.32.2,8.28,5.54,14.56,4.86,2.06-.23,3.76-1,4.86,0s1.16,3.56,0,4.85c-1.7,1.89-4.76-.24-9.71,0-7.92.38-10.16,6.31-14.56,4.85C422,275.41,419.31,270.42,420.58,266.85Z"/><path class="cls-29" d="M497.3,217.26c1,4.27,1.88,8.68,2.7,13.12,1.2-.77,2.64-1.64,4.25-2.53C502.36,224.73,500.07,221.19,497.3,217.26Z"/><path class="cls-29" d="M242.15,381.82a126,126,0,0,0,26.31-24.19,38.76,38.76,0,0,1-24.19-1.84c22-43.93,50.2-46.81,50.2-46.81l-6.94-5.2c-39.88,3.29-48.34-19.26-41.79-56.44,4.67-26.54,24.82-21.17,36-15.92.61-11.26,1.71-18.88,1.71-18.88l-5,16.24c-5.24-53.4,31.14-78.28,31.14-78.28s-6-1.57-24.34,2.09c23.57-36.91,71.2-22,71.2-22l-29.59-27.75S347,93.17,369,123.53c-.27-42.15,19.63-46.84,19.63-46.84S379,89,384.19,114.11c33-29.35,77.06-11.23,88-6a13.21,13.21,0,0,1,2.55,1.29s-.9-.5-2.55-1.29c-6.11-2.49-23.82-6.67-60,5.73,91.36-5.24,100.28,80.89,100.28,80.89s-5-16.49-19.39-23.56c11.33,18.5,16.06,38.82,18,53.41,11.14-4.37,24.87-5,27.29,16.47,3.57,31.7,2.37,52.92-25.31,52.81,3.51,3.42,7.31,7.47,11.48,12.22a202.44,202.44,0,0,1,32.31,51c13.58,3.89,27.76,10,40.35,19.4,28,12,55.74,34.54,75.31,52.72a304.23,304.23,0,0,0,26.24-124C698.79,136.67,562.12,0,393.54,0S88.29,136.67,88.29,305.25a303.9,303.9,0,0,0,36.33,144.53C174.76,399.57,222.87,385.59,242.15,381.82Z"/><path class="cls-1" d="M288.79,296.73c-21.82-.41-26.38-15.13-22.31-38.26,2-11.62,8.49-14.17,14.82-13.56,0-4.85.18-9.41.41-13.49-11.15-5.25-31.3-10.62-36,15.92-6.55,37.18,1.91,59.73,41.79,56.44,1.18-.69,2.34-1.32,3.49-1.92Q289.82,299.39,288.79,296.73Zm-40.46-50.06c2.43,33.18,9.37,45.16,22.58,55.06C236.34,296,248.33,246.67,248.33,246.67Z"/><path class="cls-6" d="M281.3,244.91c-6.33-.61-12.77,1.94-14.82,13.56-4.07,23.13.49,37.85,22.31,38.26C282.75,281.09,281.23,261.35,281.3,244.91Z"/><path class="cls-1" d="M521.1,253.26c2.19,19.43,1.57,32.68-14.12,33.65,0,.51.08,1,.11,1.46,1.9,1.62,3.9,3.44,6,5.5,27.68.11,28.88-21.11,25.31-52.81-2.42-21.51-16.15-20.84-27.29-16.47a152.09,152.09,0,0,1,1.35,16.7C516.66,241.89,520.17,245,521.1,253.26Zm11.53,25.88a31.27,31.27,0,0,1-1,4.54c.36-1.55.7-3.06,1-4.54,1.87-12.19.18-34.35-5-53.83C527.63,225.31,542.11,234.11,532.63,279.14Z"/><path class="cls-1" d="M511.16,241.18a103.58,103.58,0,0,0-6.91-13.33c-1.61.89-3.05,1.76-4.25,2.53.8,4.33,1.52,8.7,2.17,13A21.56,21.56,0,0,1,511.16,241.18Z"/><path class="cls-6" d="M502.17,243.38c2.69,17.86,4.15,34.61,4.81,43.53,15.69-1,16.31-14.22,14.12-33.65-.93-8.22-4.44-11.37-8.63-12,0,2.24,0,3.49,0,3.49a34.14,34.14,0,0,0-1.31-3.6A21.56,21.56,0,0,0,502.17,243.38Z"/><path class="cls-1" d="M355.62,280.39c.55-1.68,1.14-3.37,1.76-5.05.92-2.52,1.92-5,2.95-7.52.69-1.65,1.41-3.3,2.13-4.92,1.45-3.25,3-6.43,4.47-9.48l1.14-2.26a310.61,310.61,0,0,1,16.52-28.68,11.53,11.53,0,0,1,7.13-2.87c5.83-.07,14.06,5.3,19.93,31.42l.06.27c.1.47.21.94.31,1.43s.27,1.26.4,1.91c3.55,17.58,9.1,39.51,6.08,55.95,30.66-8.34,44.3-25.48,58-31,.19-1.21.37-2.4.54-3.55-.73-4.3,0-9,1.54-13.71.91-13.06,0-26-2.47-50.81-3.65-36.38-28.25-35.34-28.25-35.34l3.92-6c-22.51,2-35.61-5.23-35.61-5.23a19.35,19.35,0,0,0,10.48-6.28c-41.37,6.28-71.73,0-71.73,0-45,6.28-52.62,70.16-52.62,70.16s.52-5,8.9-11.27a132,132,0,0,0-7.49,50c2.56,7.17,4.33,15.19,2.47,21,.62,3.06,1.22,5.47,1.68,7.11,20.35-4.31,35,4.68,42.86,11.74C350.52,299.18,352.51,289.83,355.62,280.39Zm77.24-7.56c-4.35,0-7.9-6.28-7.9-14s3.55-14,7.9-14,7.9,6.28,7.9,14S437.23,272.83,432.86,272.83ZM409.9,192s53.26-3.13,53.26,16.95-17.83,17.61-40.1,13.85S406.71,206.55,409.9,192Zm-91.81,16.68c.2-20.08,53.42-16.44,53.42-16.44,3.06,14.58,8.86,27.15-13.45,30.68S317.9,228.75,318.09,208.68Zm26.38,50.13c0-7.76,3.53-14,7.89-14s7.9,6.28,7.9,14-3.54,14-7.9,14S344.47,266.55,344.47,258.81Z"/><path class="cls-1" d="M303.68,267.54c0,1,.08,1.91.14,2.84a52.35,52.35,0,0,1,1.81,15.38c.17,1,.35,1.9.52,2.77C308,282.73,306.24,274.71,303.68,267.54Z"/><path class="cls-1" d="M303.82,270.38a135.66,135.66,0,0,0,1.81,15.38A52.35,52.35,0,0,0,303.82,270.38Z"/><path class="cls-1" d="M477,276c.72-4.89,1.23-9.31,1.54-13.71C477,267,476.28,271.71,477,276Z"/><path class="cls-1" d="M233.77,479.38a279.37,279.37,0,0,1-39.33-66.33L214,415.77q-1.68-1.61-3.39-3.12a123.54,123.54,0,0,1-16-12.15L193,399.41c21.6-10.94,39.2-15.61,49.15-17.57l0,0c-19.28,3.77-67.39,17.75-117.53,68q3.66,6.81,7.65,13.4c24.48-30.33,43.08-47.28,43.08-47.28q-19.31,31.17-34.94,60a307,307,0,0,0,48.44,55.8c4.63-4.1,9.43-8.27,14.44-12.56C219.81,505,229.28,491.7,233.77,479.38Z"/><path class="cls-7" d="M210.59,412.65q1.71,1.52,3.39,3.12l4.75.67C217.68,416.23,215.14,415.45,210.59,412.65Z"/><path class="cls-7" d="M227.6,547.6a290,290,0,0,0,30.55-17.2c-3.84-3.77-7.51-7.65-11.09-11.55a81.82,81.82,0,0,0,18.89,6.2l.07,0,1.17-.86q1.74-1.27,3.46-2.6c.61-.47,1.22-.94,1.82-1.42s1.19-1,1.79-1.44l.9-.74c-16.25-10.7-30.05-24.5-41.39-38.56-4.49,12.32-14,25.64-30.48,39.76-5,4.29-9.81,8.46-14.44,12.56a306.86,306.86,0,0,0,26.83,21.64c3.79-1.78,7.78-3.68,11.91-5.72Z"/><path class="cls-7" d="M242.12,381.84c-10,2-27.55,6.63-49.15,17.57l1.67,1.09-.2-.17C213.58,398.37,229.79,390.38,242.12,381.84Z"/><path class="cls-1" d="M597.24,376.49c-12.59-9.44-26.77-15.51-40.35-19.4a243.6,243.6,0,0,1,13.93,40.82C584.79,392.18,595.41,385.08,597.24,376.49Z"/><path class="cls-11" d="M603,380.83c-.52-.78-1-1.57-1.56-2.36C628,390.84,653.94,412,672.53,429.25l0,0C653,411,625.25,388.49,597.24,376.49Z"/><path class="cls-11" d="M553,520.42c-.35,5.11-.41,10.24-.36,15.38a51.32,51.32,0,0,1,5.18-1.28q-2.42-7-4.8-14.08Z"/><path class="cls-11" d="M266,525l1.17-.86Z"/><path class="cls-11" d="M275.16,517.94l-.9.74.91-.73Z"/><path class="cls-11" d="M270.65,521.54c.61-.47,1.22-.94,1.82-1.42C271.87,520.6,271.26,521.07,270.65,521.54Z"/><path class="cls-11" d="M215.68,553.34q5.15,3.69,10.45,7.17.62-6.43,1.46-12.89C223.46,549.66,219.47,551.56,215.68,553.34Z"/><path class="cls-11" d="M557.83,534.52h0q-2.42-7-4.8-14.07h0Q555.42,527.47,557.83,534.52Z"/><path class="cls-11" d="M570.82,397.91c1.77,7.2,3.09,13.9,4.07,19.88a71.71,71.71,0,0,1,5.57,6.07l34.91-28.13a90.1,90.1,0,0,1-10.52-12.16c-.62-.89-1.23-1.81-1.84-2.74l-5.77-4.34C595.41,385.08,584.79,392.18,570.82,397.91Z"/><path class="cls-11" d="M560.67,534.16c-2.86-5.76-5.36-11.17-7.64-13.71q2.38,7,4.8,14.07A21.63,21.63,0,0,1,560.67,534.16Z"/><path class="cls-11" d="M568.39,547.43a28.79,28.79,0,0,1,.11,8c1.51-1.06,3-2.14,4.51-3.23A22.89,22.89,0,0,1,568.39,547.43Z"/><path class="cls-11" d="M638.53,473.73c.17,1.53-.09,3.09-.07,4.62,4.71-15.12,4.23-45.26-2.81-58.76-4.86-9.28-12.85-16.39-20.28-23.86l-34.91,28.13a48.87,48.87,0,0,1,5.32,8,42.83,42.83,0,0,0,9.62-.71c6.33-1.36,11.16-8.44,17.56-7.46,8.48,4.83,13.6,16.07,6.53,25-5.42,6.82-18.19,6.57-25.81,10.18-2.67,1.26-5.38,3.46-8.19,5.51,2.58,22.55,2.67,45.71,1.45,68.21-.14,2.55-.11,5.88-.35,9.16q7.62-6.24,14.82-13c-9.88-5.34-3.22-15.3,2.76-23.26,8.11-10.79,13.39-8.77,26.37-8.77l.4.4c2.52-3.12,5-6.27,7.39-9.48C638.26,483.08,638.29,478.46,638.53,473.73Z"/><path class="cls-12" d="M267.19,524.14q1.74-1.27,3.46-2.6Q268.93,522.86,267.19,524.14Z"/><path class="cls-12" d="M266,525l-.07,0h0Z"/><path class="cls-12" d="M227.6,547.6v0a288.77,288.77,0,0,0,30.57-17.22h0A290,290,0,0,1,227.6,547.6Z"/><path class="cls-12" d="M272.47,520.12c.6-.47,1.19-1,1.79-1.44C273.66,519.17,273.07,519.65,272.47,520.12Z"/><path class="cls-12" d="M497.13,566.53c.67-12.29,1-17.23,13.6-21.73,8.42-3,15.08-2.74,23.47-3.61,4.88-.51,12-3.46,18.45-5.39,0-5.14,0-10.27.36-15.38l0,0q-1.1-3.21-2.17-6.42c-7.36,9.35-14.72,11.19-14.72,11.19V494.57c-24.87,65.9-124.88,74-124.88,74s5.79-2.89,20.81-23.7c-32.53,12-58.93,17.86-80.81,19.33,2.63,9.22-2.21,15.36-17.1,17.52-8.33,1.21-31.34,2.66-39.57-4.58L288.64,592a306.52,306.52,0,0,0,216.94-2.72C495.58,585.34,496.66,574.94,497.13,566.53Z"/><path class="cls-12" d="M292.38,566.64a42.71,42.71,0,0,1,5.43-9.46c-16.23-6.32-28.69-16-39.65-26.78a288.77,288.77,0,0,1-30.57,17.22q-.84,6.45-1.46,12.89A304,304,0,0,0,288.64,592l5.95-14.86C291.83,574.72,290.73,571.33,292.38,566.64Z"/><path class="cls-12" d="M289.84,526.37A137.65,137.65,0,0,1,275.17,518l-.91.73c-.6.49-1.19,1-1.79,1.44s-1.21,1-1.82,1.42q-1.72,1.32-3.46,2.6L266,525l-.07,0A79.21,79.21,0,0,0,289.84,526.37Z"/><path class="cls-12" d="M574.89,417.79c.56,3.4,1,6.56,1.37,9.46l4.2-3.39A71.71,71.71,0,0,0,574.89,417.79Z"/><path class="cls-12" d="M553,520.44h0q-1.1-3.23-2.17-6.43h0Q551.94,517.23,553,520.44Z"/><path class="cls-12" d="M563.31,425.77c.51,3.78.92,7.4,1.26,10.9l4-3.26Z"/><path class="cls-12" d="M564.57,436.67c0,.57.11,1.15.16,1.71a15,15,0,0,1,2.95-2.79,20,20,0,0,1,1.7-1.08l-.77-1.1Z"/><path class="cls-12" d="M585.49,464.33c-3,2.19-6.08,4.2-9.31,4.71-4.61.71-8.17-.38-10.78-2.56-1.3,24.66-7.92,39.14-14.54,47.54q1.08,3.21,2.17,6.43c2.28,2.54,4.78,7.95,7.64,13.71a10,10,0,0,1,4.2.49l-.94,5.55c2.48,1.24,3.88,3.89,4.46,7.23a22.89,22.89,0,0,0,4.62,4.73q6.93-5,13.58-10.46c.24-3.28.21-6.61.35-9.16C588.16,510,588.07,486.88,585.49,464.33Z"/><path class="cls-12" d="M576.81,432.09a63.52,63.52,0,0,1,9-.27,48.87,48.87,0,0,0-5.32-8l-4.2,3.39C576.47,429,576.66,430.58,576.81,432.09Z"/><path class="cls-13" d="M603,380.83c21.67,16.42,47.88,37.05,67.58,52.69.65-1.42,1.31-2.84,1.94-4.27C653.94,412,628,390.84,601.45,378.47,602,379.26,602.49,380.05,603,380.83Z"/><path class="cls-13" d="M604.85,383.57a90.1,90.1,0,0,0,10.52,12.16l3.46-2.79c17.76,13.69,36.67,28.6,51.75,40.58h0c-19.7-15.64-45.91-36.27-67.58-52.69C603.62,381.76,604.23,382.68,604.85,383.57Z"/><path class="cls-13" d="M615.37,395.73c7.43,7.47,15.42,14.58,20.28,23.86,7,13.5,7.52,43.64,2.81,58.76,0-1.53.24-3.09.07-4.62-.24,4.73-.27,9.35-.2,13.91a305.41,305.41,0,0,0,32.25-54.12c-15.08-12-34-26.89-51.75-40.58Z"/><path class="cls-16" d="M302,558.69l-7.38,18.45c8.23,7.24,31.24,5.79,39.57,4.58,14.89-2.16,19.73-8.3,17.1-17.52C331.52,565.53,315.48,563.27,302,558.69Z"/><path class="cls-16" d="M297.81,557.18a42.71,42.71,0,0,0-5.43,9.46c-1.65,4.69-.55,8.08,2.21,10.5L302,558.69C300.55,558.21,299.17,557.71,297.81,557.18Z"/><path class="cls-16" d="M552.65,535.8c.09,9.74.57,19.52.26,29.21l0,.63q6.55-4,12.88-8.35c-2.66-7.55-5.31-15.16-7.93-22.77A51.32,51.32,0,0,0,552.65,535.8Z"/><path class="cls-16" d="M509.92,587.51l3.95-1.66c-1.4-2.55-2.72-5-4-7.1C509.91,581.67,509.91,584.59,509.92,587.51Z"/><path class="cls-16" d="M557.83,534.52c2.62,7.61,5.27,15.22,7.93,22.77h0c-2.66-7.55-5.31-15.16-7.93-22.77Z"/><path class="cls-16" d="M568.39,547.43a86.19,86.19,0,0,1-7.72-13.27,21.63,21.63,0,0,0-2.84.36c2.62,7.61,5.27,15.22,7.93,22.77l2.74-1.9A28.79,28.79,0,0,0,568.39,547.43Z"/><path class="cls-16" d="M552.65,535.8c-6.47,1.93-13.57,4.88-18.45,5.39-8.39.87-15.05.61-23.47,3.61-12.63,4.5-12.93,9.44-13.6,21.73-.47,8.41-1.55,18.81,8.45,22.75,1.46-.57,2.89-1.18,4.34-1.77,0-2.92,0-5.84,0-8.76,1.25,2.14,2.57,4.55,4,7.1a302.34,302.34,0,0,0,39-20.21l0-.63C553.22,555.32,552.74,545.54,552.65,535.8Z"/><path class="cls-16" d="M563.93,540.2l.94-5.55a10,10,0,0,0-4.2-.49,86.19,86.19,0,0,0,7.72,13.27C567.81,544.09,566.41,541.44,563.93,540.2Z"/><path class="cls-16" d="M604.17,505.49c-6,8-12.64,17.92-2.76,23.26a306.76,306.76,0,0,0,29.53-31.63l-.4-.4C617.56,496.72,612.28,494.7,604.17,505.49Z"/><path class="cls-16" d="M588.5,457.15a27.75,27.75,0,0,1-5.39-9.41q1.44,8.22,2.38,16.59c2.81-2.05,5.52-4.25,8.19-5.51,7.62-3.61,20.39-3.36,25.81-10.18,7.07-8.92,2-20.16-6.53-25-6.4-1-11.23,6.1-17.56,7.46a42.83,42.83,0,0,1-9.62.71A32.88,32.88,0,0,1,588.5,457.15Z"/><path class="cls-16" d="M576.81,432.09c.94,9.07.94,14.49.94,14.49l-8.37-12.07a20,20,0,0,0-1.7,1.08,15,15,0,0,0-2.95,2.79,200.1,200.1,0,0,1,.67,28.1c2.61,2.18,6.17,3.27,10.78,2.56,3.23-.51,6.32-2.52,9.31-4.71q-.94-8.35-2.38-16.59a27.75,27.75,0,0,0,5.39,9.41,32.88,32.88,0,0,0-2.72-25.33A63.52,63.52,0,0,0,576.81,432.09Z"/><path class="cls-17" d="M382.72,334.52a41.22,41.22,0,0,1,10.64,5l-5-5C386.57,334.59,384.7,334.6,382.72,334.52Z"/><path class="cls-17" d="M312.37,406c-8.47,4.91-18.57,6.75-28.76,7.26l8,8.06C300.3,417.92,309.41,413.73,312.37,406Z"/><path class="cls-17" d="M266.17,395.72c2.84-.71,5.77-1.18,8.56-2,9.62-2.84,18.57-7.9,27.11-13.09s17.91-7.45,25.64-14.36c5.16-4.61,12.95-9.35,16.36-15.46-7.92-.13-24,3.15-30.3-1,4.71-2.52,8.62-6.49,13.43-8.86-11,.92-26-4.5-34.06-5.73,14.44.07,25.14-7.91,39.65-8,5.84,0,12-.55,17.77.08,3.3.35,6.76.85,10.21,1.47-.22-.15-.44-.3-.64-.46s-.43-.33-.63-.5-.46-.38-.67-.57-.31-.25-.45-.39-.23-.23-.34-.34c-.27-.26-.53-.53-.78-.8s-.44-.51-.66-.77-.22-.26-.32-.4-.31-.36-.46-.56a231,231,0,0,1-24.89-7.45c-20.63,2.8-49.45,3.47-81.11,35.94,0,0,27.56-44.68,80.33-36.22a286.89,286.89,0,0,1-26.78-11.36s-.18-.93-.49-2.63l-2.3.06c-2.09.66-4.72,1.35-8,2.05-.23-.42-.46-.84-.67-1.27a29.28,29.28,0,0,1-4.14.63l6.94,5.2s-28.24,2.88-50.2,46.81a38.76,38.76,0,0,0,24.19,1.84,126,126,0,0,1-26.31,24.19,83.18,83.18,0,0,1,8.84-1.33Z"/><path class="cls-17" d="M514,399.46a123.35,123.35,0,0,1-9.05-12.84c.17,9.25,3.74,18,5.42,27.1,2.43-.42,5-.88,7.62-1.38Z"/><path class="cls-17" d="M267.42,397l6.85,6.89c5.61-2.87,12.06-5.19,15-6.82C282,397,274.71,396.89,267.42,397Z"/><path class="cls-17" d="M507.43,293.62l-.13-.05a103.1,103.1,0,0,1-11-1.72c-5.69-1.19-9.9-3.06-12.93-5.4a77,77,0,0,1-3.87,12.13s-5.66,6.41-17.17,13.35c11.07-.14,24.15,1.22,36.85,6.12a6.81,6.81,0,0,1,3,1.24,78,78,0,0,1,7.38,3.68c-1.44-.25-3.34-.66-5.58-1.15,3.94,9.16-26.55,8.09-30.25,8.38,8.35,2.62,18.74,2,27.54,4.43,5.4,1.51,20.73,5.29,21.25,12.38-8.75.36-17.53-.51-26.28-.46l4.56,4a184.77,184.77,0,0,1,41.88,3.17,197.19,197.19,0,0,0-32.4-47.17s19.27,7.32,38.51,48.47q4,.92,8.12,2.09a202.44,202.44,0,0,0-32.31-51c-4.17-4.75-8-8.8-11.48-12.22-1.78,0-3.67-.1-5.67-.29Z"/><path class="cls-17" d="M458.82,313.93c1.23,0,2.46,0,3.68.07-1.08-.12-2.15-.22-3.22-.32Z"/><path class="cls-17" d="M291,301.86c-1.15.6-2.31,1.23-3.49,1.92a29.28,29.28,0,0,0,4.14-.63C291.45,302.72,291.23,302.29,291,301.86Z"/><path class="cls-17" d="M507.43,293.58c2,.19,3.89.28,5.67.29-2.11-2.06-4.11-3.88-6-5.5C507.31,291.44,507.41,293.3,507.43,293.58Z"/><path class="cls-17" d="M483.34,286.45c3,2.34,7.24,4.21,12.93,5.4a103.1,103.1,0,0,0,11,1.72c-1.18-.49-11.17-4.62-23.51-9C483.64,285.22,483.49,285.85,483.34,286.45Z"/><path class="cls-17" d="M444.83,313.34c-2.15.33-4,.67-5.59,1,2.15-.15,4.31-.25,6.53-.25,4.32,0,8.7-.16,13.05-.14l.46-.25A95,95,0,0,0,444.83,313.34Z"/><path class="cls-17" d="M354,321.54l-.33-.59a1.4,1.4,0,0,0-.09-.17,31.37,31.37,0,0,1-2.92-13.4c-7.9-7.06-22.51-16.05-42.86-11.74.44,1.62.74,2.5.74,2.5a2.74,2.74,0,0,1-.76.82c11.44-1.55,26.8-.68,38.14,11a107,107,0,0,0-43.3-7.65c.31,1.7.49,2.63.49,2.63a286.89,286.89,0,0,0,26.78,11.36l1.29.21-.51.07A231,231,0,0,0,355.59,324a21.87,21.87,0,0,1-1.51-2.39A.31.31,0,0,0,354,321.54Z"/><path class="cls-17" d="M480.17,283.3l-4.09-1.38c.14-.8.26-1.59.39-2.36-13.67,5.55-27.31,22.69-58,31a34.74,34.74,0,0,1-2.62,8.49,94.82,94.82,0,0,1,21.43-4.61,42.05,42.05,0,0,1,7.52-1.13,128.64,128.64,0,0,1,17.47-1.41c11.51-6.94,17.17-13.35,17.17-13.35a77,77,0,0,0,3.87-12.13A17.52,17.52,0,0,1,480.17,283.3Z"/><path class="cls-17" d="M480.17,283.3a17.52,17.52,0,0,0,3.17,3.15c.15-.6.3-1.23.45-1.88Z"/><path class="cls-17" d="M210.59,412.65a145.35,145.35,0,0,0-16-12.15A123.54,123.54,0,0,0,210.59,412.65Z"/><path class="cls-17" d="M204.11,420.32s15.34,16.05,32.17,33c-2.61-14.83-11.84-27.5-22.3-37.51l-19.54-2.72a279.37,279.37,0,0,0,39.33,66.33A51.4,51.4,0,0,0,237,461.52C213.51,441.87,204.11,420.32,204.11,420.32Z"/><path class="cls-17" d="M251,380.49a83.18,83.18,0,0,0-8.84,1.33l0,0A81.47,81.47,0,0,1,251,380.49Z"/><path class="cls-17" d="M218.73,416.44a3.42,3.42,0,0,0,.59.08Z"/><path class="cls-17" d="M277.76,515.77c1-.82,1.91-1.66,2.86-2.51L282,512q1.23-1.12,2.43-2.28l1.3-1.26c.8-.79,1.6-1.59,2.38-2.4l1-1c1.06-1.12,2.11-2.25,3.14-3.41l1-1.09c.78-.89,1.55-1.79,2.31-2.71l1-1.19c1-1.25,2-2.51,3-3.81l.32-.43q1.32-1.79,2.6-3.62c.3-.42.58-.84.87-1.27.73-1.08,1.46-2.18,2.16-3.3.22-.34.44-.67.65-1q1.32-2.13,2.58-4.34c.21-.37.4-.74.61-1.11.65-1.18,1.29-2.37,1.91-3.58l.69-1.35c.78-1.57,1.54-3.16,2.26-4.79a46.53,46.53,0,0,1,2.18-4.21,57,57,0,0,1-5.89-.61c-9.77-1.59-20.41-9-28.79-13.89-5-2.9-13.65-6.1-16.94-10.76,5.07-1.85,12.72-.61,18.29-.53-7.2-2.39-14.76-3.73-21.75-7.28,6.48-1.91,13.21-2.19,19.43-5.1,3.15-1.47,7-2.84,11-4.39l-8-8.06a189.45,189.45,0,0,1-19.27-.23c.4-3.45,4.81-6.52,9.93-9.14L267.42,397q-2.73,0-5.46.09a30.76,30.76,0,0,1,4.21-1.34L251,380.49a81.47,81.47,0,0,0-8.87,1.35c-12.33,8.54-28.54,16.53-47.68,18.49l.2.17a145.35,145.35,0,0,1,16,12.15c4.55,2.8,7.09,3.58,8.14,3.79l.59.08a3.42,3.42,0,0,1-.59-.08l-4.75-.67c10.46,10,19.69,22.68,22.3,37.51,8.49,8.53,17.36,17.27,24.84,24.29A132.38,132.38,0,0,1,237,461.52a51.4,51.4,0,0,1-3.24,17.86c11.34,14.06,25.14,27.86,41.39,38.56l.95-.78Z"/><path class="cls-17" d="M263.59,526.73c.79-.55,1.57-1.12,2.36-1.68a81.82,81.82,0,0,1-18.89-6.2c3.58,3.9,7.25,7.78,11.09,11.55,1.59-1,3.18-2.1,4.75-3.2Z"/><path class="cls-17" d="M565.07,400.13c2-.72,3.89-1.46,5.75-2.22a243.6,243.6,0,0,0-13.93-40.82q-4.11-1.17-8.12-2.09A291.13,291.13,0,0,1,565.07,400.13Z"/><path class="cls-17" d="M529.86,389.81c2,6,4.29,12.29,6.27,18.69,6.77-1.59,13.66-3.41,20.26-5.47h0c2-.64,4.05-1.29,6-2-5.43-14.33-11.35-30.66-19.75-47.37a184.77,184.77,0,0,0-41.88-3.17C513.61,361.85,524.14,372.55,529.86,389.81Z"/><path class="cls-17" d="M523.65,411.22c-3.24-3.91-6.53-7.79-9.67-11.76l4,12.88Z"/><path class="cls-17" d="M292.21,501.66c-1,1.16-2.08,2.29-3.14,3.41C290.13,504,291.18,502.82,292.21,501.66Z"/><path class="cls-17" d="M295.48,497.86c-.76.92-1.53,1.82-2.31,2.71C294,499.68,294.72,498.78,295.48,497.86Z"/><path class="cls-17" d="M305.41,484.24c-.7,1.12-1.43,2.22-2.16,3.3C304,486.46,304.71,485.36,305.41,484.24Z"/><path class="cls-17" d="M288.09,506.07c-.78.81-1.58,1.61-2.38,2.4C286.51,507.68,287.31,506.88,288.09,506.07Z"/><path class="cls-17" d="M311.16,474.2c-.62,1.21-1.26,2.4-1.91,3.58C309.9,476.6,310.54,475.41,311.16,474.2Z"/><path class="cls-17" d="M308.64,478.89q-1.26,2.21-2.58,4.34Q307.38,481.1,308.64,478.89Z"/><path class="cls-17" d="M276.11,517.16l-.95.78h0Z"/><path class="cls-17" d="M284.41,509.73q-1.2,1.15-2.43,2.28Q283.21,510.89,284.41,509.73Z"/><path class="cls-17" d="M280.62,513.26c-.95.85-1.9,1.69-2.86,2.51C278.72,515,279.67,514.11,280.62,513.26Z"/><path class="cls-17" d="M302.38,488.81q-1.28,1.83-2.6,3.62Q301.1,490.65,302.38,488.81Z"/><path class="cls-17" d="M299.46,492.86c-1,1.3-2,2.56-3,3.81C297.48,495.42,298.48,494.16,299.46,492.86Z"/><path class="cls-17" d="M263.59,526.73l-.69.47Z"/><path class="cls-17" d="M314.11,468.06c-.72,1.63-1.48,3.22-2.26,4.79C312.63,471.28,313.39,469.69,314.11,468.06Z"/><path class="cls-17" d="M574.89,417.79c-1-6-2.3-12.68-4.07-19.88-1.86.76-3.79,1.5-5.75,2.22q1.56,5.6,3.06,11.65C570.49,413.71,572.77,415.71,574.89,417.79Z"/><path class="cls-17" d="M562.41,401.07c-2,.68-4,1.33-6,2,3.19,2.2,6.37,4.5,9.44,6.9Q564.15,405.65,562.41,401.07Z"/><path class="cls-17" d="M510.35,413.72h0c2.42-.43,5-.89,7.62-1.39h0C515.33,412.84,512.78,413.3,510.35,413.72Z"/><path class="cls-17" d="M311.85,472.85l-.69,1.35Z"/><path class="cls-17" d="M306.06,483.23c-.21.34-.43.67-.65,1C305.63,483.9,305.85,483.57,306.06,483.23Z"/><path class="cls-17" d="M309.25,477.78c-.21.37-.4.74-.61,1.11C308.85,478.52,309,478.15,309.25,477.78Z"/><path class="cls-17" d="M303.25,487.54c-.29.43-.57.85-.87,1.27C302.68,488.39,303,488,303.25,487.54Z"/><path class="cls-17" d="M299.78,492.43l-.32.43Z"/><path class="cls-17" d="M285.71,508.47l-1.3,1.26Z"/><path class="cls-17" d="M282,512l-1.36,1.25Z"/><path class="cls-17" d="M277.76,515.77l-1.65,1.39Z"/><path class="cls-17" d="M258.15,530.4h0c1.58-1,3.17-2.1,4.74-3.2C261.33,528.3,259.74,529.36,258.15,530.4Z"/><path class="cls-17" d="M296.47,496.67l-1,1.19Z"/><path class="cls-17" d="M266,525.05h0c-.79.56-1.57,1.13-2.36,1.68C264.38,526.18,265.16,525.61,266,525.05Z"/><path class="cls-17" d="M293.17,500.57l-1,1.09Z"/><path class="cls-17" d="M289.07,505.07l-1,1Z"/><path class="cls-17" d="M556.4,403h0c-6.6,2.06-13.49,3.88-20.26,5.47h0C542.91,406.92,549.8,405.1,556.4,403Z"/><path class="cls-17" d="M523.65,411.22,518,412.34h0c1.85-.35,3.75-.72,5.68-1.11Z"/><path class="cls-17" d="M541.84,514.88c1.76-3.95,3.49-8.07,5.13-12.46-11-32.87-21-64.37-29-90.08-2.65.5-5.2,1-7.62,1.39a47.43,47.43,0,0,1,.87,8.52c0,9.26.81,21.91-2.79,30.39-5.27-8.75-7.2-19.88-10-29.55-3.82,10.25-.07,24.81-5.89,34.87-7.31-6.15-7.22-21.87-8.34-30.4-1.5,2-1.34,6.36-1.89,9.31-2,10.45-6.53,20.13-10.43,29.93-4.18,10.45-11.57,18.8-20.17,26-4.39,3.69-11.94,9.3-17.48,10.31,4-16.12,17.17-30.76,16.08-48-7.69,9.1-11.71,35.32-26.65,34.25-1.84-7.84,7.24-15.6,6.26-24-3.95,7.83-10.27,13.85-16.58,20-6,5.85-11.08,13.25-18.46,17.56-10.53,6.16-29.39,3.76-41.1,2.28-2.06-13,17.85-18,19.25-29.39-11.18,7.7-23.75,10.21-37.57,9.71,0-3.09,4.48-6.49,6.66-8.36,7.95-6.8,17.79-9.85,26.29-15.49a233.45,233.45,0,0,1-29.91,1.75c-1.55,0-3.13,0-4.73.09l4.45,4.46-31.47,78.67a47.38,47.38,0,0,1,8.16-6.53h-1.18c-5.68-20,27.21,6.41,30.29,10.63.73,1,1.41,2,2,2.92,26.67-.39,53.65-5.16,76.22-9-28.48,10.22-52.52,14.57-72.62,15.33a26.9,26.9,0,0,1,1.59,4.17c21.88-1.47,48.28-7.34,80.81-19.33-15,20.81-20.81,23.7-20.81,23.7s100-8.1,124.88-74v30.64s7.36-1.84,14.72-11.19q-1.35-4-2.67-7.95A53.4,53.4,0,0,1,541.84,514.88Zm-113.58,47.3c23.22-8.75,86.21-28.75,106-90.13C534.26,472.05,532,542,428.26,562.18Z"/><path class="cls-17" d="M263.2,530.21c11.84,9.85,25.74,16,40.67,19.49.93-1,1.9-2,2.89-3L338.23,468l-4.45-4.46c-5.76.19-11.73.58-17.49.27a46.53,46.53,0,0,0-2.18,4.21c-.72,1.63-1.48,3.22-2.26,4.79l-.69,1.35c-.62,1.21-1.26,2.4-1.91,3.58-.21.37-.4.74-.61,1.11q-1.26,2.21-2.58,4.34c-.21.34-.43.67-.65,1-.7,1.12-1.43,2.22-2.16,3.3-.29.43-.57.85-.87,1.27q-1.28,1.83-2.6,3.62l-.32.43c-1,1.3-2,2.56-3,3.81l-1,1.19c-.76.92-1.53,1.82-2.31,2.71l-1,1.09c-1,1.16-2.08,2.29-3.14,3.41l-1,1c-.78.81-1.58,1.61-2.38,2.4l-1.3,1.26q-1.2,1.15-2.43,2.28l-1.36,1.25c-.95.85-1.9,1.69-2.86,2.51l-1.65,1.39-.94.79a137.65,137.65,0,0,0,14.67,8.42A79.21,79.21,0,0,1,266,525.05c-.79.56-1.57,1.13-2.36,1.68l-.69.47c-1.57,1.1-3.16,2.16-4.74,3.2,11,10.73,23.42,20.46,39.65,26.78.83-1.16,1.73-2.35,2.69-3.54C274.25,544.83,263.2,530.21,263.2,530.21Z"/><path class="cls-17" d="M570.12,420.13c-1.45-3.21-2.86-6.62-4.28-10.19-3.07-2.4-6.25-4.7-9.44-6.9-6.6,2.06-13.49,3.88-20.26,5.47,2.86,9.25,5.06,18.73,4.71,27.93-4.39-9.32-10.68-17.36-17.19-25.21-1.93.39-3.83.76-5.68,1.11,8,25.71,18,57.21,29,90.08h0c-4.65-14-9.14-27.66-13.37-40.79l7.36-5.93,15.58-12.55c-.08-7.59-.55-15.85-1.5-24.9a181.38,181.38,0,0,1,3.38,23.39l6.15-5c-.34-3.5-.75-7.12-1.26-10.9l5.3,7.64,7.65-6.16c-.36-2.9-.81-6.06-1.37-9.46-2.12-2.08-4.4-4.08-6.76-6C568.8,414.49,569.47,417.27,570.12,420.13Z"/><path class="cls-17" d="M548.19,506.07q1.32,4,2.67,7.95h0l-2.67-7.95Z"/><path class="cls-17" d="M564.73,438.38c-.05-.56-.11-1.14-.16-1.71l-6.15,5c1.55,18.77,1,45.09-10.23,64.44l2.67,7.95c6.62-8.4,13.24-22.88,14.54-47.54C558.19,460.48,558.39,446.14,564.73,438.38Z"/><path class="cls-17" d="M556.54,443.14,541,455.69l-7.36,5.93c4.23,13.13,8.72,26.84,13.37,40.79C552.51,487.51,556.84,469.32,556.54,443.14Z"/><path class="cls-17" d="M569.38,434.51a20.31,20.31,0,0,1,7.43-2.42c-.15-1.51-.34-3.13-.55-4.84l-7.65,6.16Z"/><path class="cls-17" d="M303.59,554.64,302,558.69c13.51,4.58,29.55,6.84,49.29,5.51a26.9,26.9,0,0,0-1.59-4.17C331,560.73,315.78,558.34,303.59,554.64Z"/><path class="cls-17" d="M346.07,553.73c-.63-1-1.31-1.93-2-2.92-3.08-4.22-36-30.65-30.29-10.63h1.18c5.45-3.31,10.77-4.2,14.54,0H314.92a47.38,47.38,0,0,0-8.16,6.53l-1.34,3.34A175,175,0,0,0,346.07,553.73Z"/><path class="cls-17" d="M314.92,540.18h14.54C325.69,536,320.37,536.87,314.92,540.18Z"/><path class="cls-17" d="M303.59,554.64c-1.06-.33-2.08-.66-3.09-1-1,1.19-1.86,2.38-2.69,3.54,1.36.53,2.74,1,4.16,1.51Z"/><path class="cls-17" d="M303.87,549.7l1.55.35,1.34-3.34C305.77,547.68,304.8,548.68,303.87,549.7Z"/><path class="cls-17" d="M564.73,438.38c-6.34,7.76-6.54,22.1.67,28.1A200.1,200.1,0,0,0,564.73,438.38Z"/><path class="cls-17" d="M577.75,446.58s0-5.42-.94-14.49a20.31,20.31,0,0,0-7.43,2.42Z"/><path class="cls-18" d="M499.15,318.05c1,.39,2,.8,3,1.24A6.81,6.81,0,0,0,499.15,318.05Z"/><path class="cls-18" d="M289.31,397c-3,1.63-9.43,3.95-15,6.82l9.34,9.37c10.19-.51,20.29-2.35,28.76-7.26-3,7.76-12.07,11.95-20.72,15.32L324,453.76c30.78-31.58,105.36-36.45,142.08-36.84-2.76-30.92-19.24-46.72-19.24-46.72C464.67,381.06,471,399,471.11,416.89c10,0,16.1.3,16.1.3h.13c1.17-.13,10.37-1.25,23-3.45-1.68-9.09-5.25-17.85-5.42-27.1A123.35,123.35,0,0,0,514,399.46c-9.14-29.61-14.8-48.83-14.8-48.83l1.6-.1-4.56-4c8.75-.05,17.53.82,26.28.46-.52-7.09-15.85-10.87-21.25-12.38-8.8-2.45-19.19-1.81-27.54-4.43,3.7-.29,34.19.78,30.25-8.38-9.76-2.16-26.22-6.12-41.46-7.82-1.22,0-2.45-.06-3.68-.07a113.8,113.8,0,0,1-15.14,7,90.29,90.29,0,0,1,.56,13.25c.48-.46,1-.93,1.42-1.4.4,1.33,7.24,24.93-8,41-14.27,15.07-39.77,16.54-53,5-2.11-1.84-8-14-8-14,.68,0,1.35,0,2,0a71.08,71.08,0,0,1-11.18-7.83s47-.14,76-35.92a129.15,129.15,0,0,1-35.34,7.67c-4.68,3.41-11.12,5.52-19.78,5.88l5,5a41.22,41.22,0,0,0-10.64-5q-3.71-.15-7.9-.67h0c-.82-.11-1.61-.24-2.38-.38l-.62-.11c-.68-.14-1.36-.29-2-.45l-.24-.06c-.7-.18-1.37-.38-2-.59l-.59-.21c-.52-.18-1-.37-1.52-.57l-.41-.17c-.57-.24-1.11-.5-1.64-.77l-.6-.32c-.37-.2-.73-.41-1.07-.63s-.37-.21-.55-.33-.42-.29-.63-.44c-3.45-.62-6.91-1.12-10.21-1.47-5.79-.63-11.93-.13-17.77-.08-14.51.09-25.21,8.07-39.65,8C301,336.5,316,341.92,327,341a18.37,18.37,0,0,1,7.18-1.95A17.86,17.86,0,0,1,327,341c-4.81,2.37-8.72,6.34-13.43,8.86,6.29,4.11,22.38.83,30.3,1-3.41,6.11-11.2,10.85-16.36,15.46-7.73,6.91-17,9.12-25.64,14.36s-17.49,10.25-27.11,13.09c-2.79.81-5.72,1.28-8.56,2l1.25,1.25C274.71,396.89,282,397,289.31,397Z"/><path class="cls-18" d="M327,341a17.86,17.86,0,0,0,7.18-1.95A18.37,18.37,0,0,0,327,341Z"/><path class="cls-18" d="M445.77,314.07c-2.22,0-4.38.1-6.53.25-3.27.66-5.15,1.19-5.15,1.19a23.38,23.38,0,0,1,3.22-1,94.82,94.82,0,0,0-21.43,4.61,25.3,25.3,0,0,1-4.53,6.75,23.58,23.58,0,0,1-3.21,2.81A129.15,129.15,0,0,0,443.48,321l.18-.22c0,.05,0,.1,0,.15a113.8,113.8,0,0,0,15.14-7C454.47,313.91,450.09,314.07,445.77,314.07Z"/><path class="cls-18" d="M264.34,413a189.45,189.45,0,0,0,19.27.23l-9.34-9.37C269.15,406.48,264.74,409.55,264.34,413Z"/><path class="cls-18" d="M291.65,421.29c-4,1.55-7.86,2.92-11,4.39-6.22,2.91-12.95,3.19-19.43,5.1,7,3.55,14.55,4.89,21.75,7.28-5.57-.08-13.22-1.32-18.29.53,3.29,4.66,11.9,7.86,16.94,10.76,8.38,4.85,19,12.3,28.79,13.89a57,57,0,0,0,5.89.61A51.25,51.25,0,0,1,324,453.76Z"/><path class="cls-18" d="M267.42,397l-1.25-1.25a30.76,30.76,0,0,0-4.21,1.34Q264.69,397,267.42,397Z"/><path class="cls-18" d="M514,399.46c3.14,4,6.43,7.85,9.67,11.76,4.05-.82,8.24-1.73,12.48-2.72-2-6.4-4.27-12.69-6.27-18.69-5.72-17.26-16.25-28-29.08-39.28l-1.6.1S504.84,369.85,514,399.46Z"/><path class="cls-18" d="M487.3,417.18h0Z"/><path class="cls-18" d="M487.21,417.19h0Z"/><path class="cls-18" d="M487.34,417.17c1.14-.13,10.35-1.25,23-3.44h0C497.71,415.92,488.51,417,487.34,417.17Z"/><path class="cls-18" d="M536.14,408.51h0c-4.24,1-8.43,1.9-12.48,2.72h0C527.7,410.41,531.89,409.5,536.14,408.51Z"/><path class="cls-18" d="M487.3,417.18h-.09s-6.13-.31-16.1-.3a92.88,92.88,0,0,1-8.64,38.68,113.05,113.05,0,0,0,3.61-38.65c-36.72.39-111.3,5.26-142.08,36.84l9.78,9.82c1.6-.05,3.18-.09,4.73-.09a233.45,233.45,0,0,0,29.91-1.75c-8.5,5.64-18.34,8.69-26.29,15.49-2.18,1.87-6.7,5.27-6.66,8.36,13.82.5,26.39-2,37.57-9.71-1.4,11.39-21.31,16.43-19.25,29.39,11.71,1.48,30.57,3.88,41.1-2.28,7.38-4.31,12.44-11.71,18.46-17.56,6.31-6.17,12.63-12.19,16.58-20,1,8.36-8.1,16.12-6.26,24,14.94,1.07,19-25.15,26.65-34.25,1.09,17.25-12.05,31.89-16.08,48,5.54-1,13.09-6.62,17.48-10.31,8.6-7.22,16-15.57,20.17-26,3.9-9.8,8.42-19.48,10.43-29.93.55-2.95.39-7.28,1.89-9.31,1.12,8.53,1,24.25,8.34,30.4,5.82-10.06,2.07-24.62,5.89-34.87,2.8,9.67,4.73,20.8,10,29.55,3.6-8.48,2.8-21.13,2.79-30.39a47.43,47.43,0,0,0-.87-8.52c-12.67,2.19-21.88,3.31-23,3.44Z"/><path class="cls-18" d="M316.29,463.85c5.76.31,11.73-.08,17.49-.27L324,453.76A51.25,51.25,0,0,0,316.29,463.85Z"/><path class="cls-18" d="M540.85,436.44c.35-9.2-1.85-18.68-4.71-27.93-4.25,1-8.44,1.9-12.48,2.72C530.17,419.08,536.46,427.12,540.85,436.44Z"/><path class="cls-19" d="M355.62,280.39c.55-1.68,1.14-3.37,1.76-5.05C356.76,277,356.17,278.71,355.62,280.39Z"/><path class="cls-19" d="M355.62,280.39c-3.11,9.44-5.1,18.79-4.93,27h0C350.52,299.18,352.51,289.83,355.62,280.39Z"/><path class="cls-19" d="M357.38,275.34c.92-2.52,1.92-5,2.95-7.52C359.3,270.31,358.3,272.82,357.38,275.34Z"/><path class="cls-19" d="M411.65,251h0c-5.87-26.12-14.1-31.49-19.93-31.42C397.55,219.54,405.78,224.91,411.65,251Z"/><path class="cls-19" d="M412,252.73h0c-.1-.49-.21-1-.31-1.43h0C411.81,251.78,411.92,252.25,412,252.73Z"/><path class="cls-19" d="M356.37,325h0c.22.26.43.52.66.77h0C356.8,325.51,356.59,325.25,356.37,325Z"/><path class="cls-19" d="M355.59,324h0c.15.2.31.38.46.56h0C355.9,324.41,355.74,324.23,355.59,324Z"/><path class="cls-19" d="M357.81,326.56c.11.11.22.23.34.34-.12-.11-.23-.23-.34-.34Z"/><path class="cls-19" d="M354.09,321.64h0a21.87,21.87,0,0,0,1.51,2.39h0A20.38,20.38,0,0,1,354.09,321.64Z"/><path class="cls-19" d="M353.7,321l.33.59h0Z"/><path class="cls-19" d="M350.69,307.38a31.37,31.37,0,0,0,2.92,13.4,31.37,31.37,0,0,1-2.92-13.4Z"/><path class="cls-19" d="M391.72,219.61a11.53,11.53,0,0,0-7.13,2.87,310.61,310.61,0,0,0-16.52,28.68,310.61,310.61,0,0,1,16.52-28.68A11.53,11.53,0,0,1,391.72,219.61Z"/><path class="cls-19" d="M362.46,262.9c1.45-3.25,3-6.43,4.47-9.48C365.42,256.47,363.91,259.65,362.46,262.9Z"/><path class="cls-19" d="M359.27,327.86h0c.2.17.41.34.63.5h0C359.68,328.2,359.47,328,359.27,327.86Z"/><path class="cls-19" d="M358.15,326.9c.14.14.3.26.45.39h0C358.45,327.16,358.29,327,358.15,326.9Z"/><path class="cls-19" d="M382.72,334.52h0c2,.08,3.85.07,5.64,0h0C386.57,334.59,384.7,334.6,382.72,334.52Z"/><path class="cls-19" d="M353.7,321a1.4,1.4,0,0,0-.09-.17A1.4,1.4,0,0,1,353.7,321Z"/><path class="cls-19" d="M371.82,333.36h0l.62.11h0Z"/><path class="cls-19" d="M388.36,334.52h0c8.66-.36,15.1-2.47,19.78-5.88h0C403.46,332.05,397,334.16,388.36,334.52Z"/><path class="cls-19" d="M374.82,333.85h0q4.2.52,7.9.67h0Q379,334.37,374.82,333.85Z"/><path class="cls-19" d="M361.17,329.26h0c.18.12.36.22.55.33h0Z"/><path class="cls-19" d="M369.57,332.85h0l.24.06h0Z"/><path class="cls-19" d="M365,331.31h0l.41.17h0Z"/><path class="cls-19" d="M362.79,330.22h0l.6.32h0Z"/><path class="cls-19" d="M367,332.06h0l.59.21h0Z"/><path class="cls-19" d="M411.35,325.83a23.58,23.58,0,0,1-3.21,2.81h0A23.58,23.58,0,0,0,411.35,325.83Z"/><path class="cls-19" d="M351,300.81c3.79,3.38,9.07,5.73,16.29,6.64,57.11,7.21,45.73-40.2,38.5-74.83A95,95,0,0,1,411.65,251c-5.87-26.12-14.1-31.49-19.93-31.42a11.53,11.53,0,0,0-7.13,2.87,310.61,310.61,0,0,0-16.52,28.68l-1.14,2.26c-1.51,3.05-3,6.23-4.47,9.48-.72,1.62-1.44,3.27-2.13,4.92-1,2.49-2,5-2.95,7.52-.62,1.68-1.21,3.37-1.76,5.05-3.11,9.44-5.1,18.79-4.93,27l0,0A55,55,0,0,1,351,300.81Z"/><path class="cls-19" d="M412,252.73c-.1-.48-.21-.95-.31-1.42C411.81,251.78,411.92,252.25,412,252.73Z"/><path class="cls-19" d="M357.81,326.56c.11.11.22.23.34.34s.3.26.45.39C358.33,327.05,358.06,326.81,357.81,326.56Z"/><path class="cls-19" d="M355.59,324c.15.2.31.38.46.56-.15-.18-.29-.36-.42-.55Z"/><path class="cls-19" d="M359.9,328.36c-.22-.16-.43-.33-.63-.5C359.47,328,359.68,328.2,359.9,328.36Z"/><path class="cls-19" d="M357,325.76c-.23-.25-.44-.51-.66-.76C356.59,325.25,356.8,325.51,357,325.76Z"/><path class="cls-19" d="M354.09,321.64a20.38,20.38,0,0,0,1.5,2.39h0A21.71,21.71,0,0,1,354.09,321.64Z"/><path class="cls-19" d="M350.71,307.4l0,0a31.37,31.37,0,0,0,2.92,13.4,1.4,1.4,0,0,1,.09.17l.33.59A30.82,30.82,0,0,1,350.71,307.4Z"/><path class="cls-19" d="M367.55,332.26l-.59-.2Z"/><path class="cls-19" d="M363.39,330.54l-.6-.32Z"/><path class="cls-19" d="M365.43,331.48l-.4-.17Z"/><path class="cls-19" d="M361.71,329.59l-.54-.33Z"/><path class="cls-19" d="M369.8,332.91l-.23-.06Z"/><path class="cls-19" d="M372.43,333.47l-.61-.11Z"/><path class="cls-20" d="M412,252.73c.13.63.27,1.26.4,1.91C412.29,254,412.15,253.36,412,252.73Z"/><path class="cls-20" d="M411.65,251l.06.27Z"/><path class="cls-20" d="M356.37,325c-.11-.13-.22-.26-.32-.4C356.15,324.73,356.26,324.86,356.37,325Z"/><path class="cls-20" d="M357.81,326.56c-.27-.26-.53-.53-.78-.8C357.28,326,357.54,326.3,357.81,326.56Z"/><path class="cls-20" d="M359.9,328.36c.2.16.42.31.64.46h0C360.33,328.67,360.11,328.52,359.9,328.36Z"/><path class="cls-20" d="M359.27,327.86l-.67-.57C358.81,327.48,359,327.67,359.27,327.86Z"/><path class="cls-20" d="M354.08,321.64a.31.31,0,0,0-.05-.1A.31.31,0,0,1,354.08,321.64Z"/><path class="cls-20" d="M371.81,333.36c-.68-.14-1.35-.29-2-.45C370.45,333.07,371.13,333.22,371.81,333.36Z"/><path class="cls-20" d="M367,332.05c-.52-.18-1-.37-1.52-.57C365.93,331.68,366.44,331.87,367,332.05Z"/><path class="cls-20" d="M369.57,332.85c-.7-.18-1.37-.38-2-.59C368.2,332.47,368.87,332.67,369.57,332.85Z"/><path class="cls-20" d="M365,331.31c-.57-.24-1.11-.5-1.64-.77C363.92,330.81,364.46,331.07,365,331.31Z"/><path class="cls-20" d="M360.55,328.82h0c.21.15.41.3.63.44Z"/><path class="cls-20" d="M362.79,330.22c-.37-.2-.73-.41-1.07-.63C362.06,329.81,362.42,330,362.79,330.22Z"/><path class="cls-20" d="M374.81,333.85c-.82-.11-1.61-.24-2.38-.38C373.2,333.61,374,333.74,374.81,333.85Z"/><path class="cls-20" d="M412.42,254.64c-.13-.65-.27-1.28-.4-1.91h0c.13.63.27,1.26.4,1.91,3.55,17.58,9.1,39.51,6.08,55.95h0C421.52,294.15,416,272.22,412.42,254.64Z"/><path class="cls-20" d="M411.71,251.31h0l-.06-.27h0Z"/><path class="cls-20" d="M356.05,324.59h0c.1.14.21.27.32.4h0C356.26,324.86,356.15,324.73,356.05,324.59Z"/><path class="cls-20" d="M357,325.76h0c.25.27.51.54.78.8h0C357.54,326.3,357.28,326,357,325.76Z"/><path class="cls-20" d="M354,321.54a.31.31,0,0,1,.05.1h0l-.06-.1Z"/><path class="cls-20" d="M415.88,319.08h0a34.74,34.74,0,0,0,2.62-8.49h0A34.74,34.74,0,0,1,415.88,319.08Z"/><path class="cls-20" d="M411.35,325.83a25.3,25.3,0,0,0,4.53-6.75h0A25.3,25.3,0,0,1,411.35,325.83Z"/><path class="cls-20" d="M360.55,328.82c-.22-.15-.44-.3-.65-.46h0c.21.16.43.31.65.46Z"/><path class="cls-20" d="M358.6,327.29h0l.67.57h0C359,327.67,358.81,327.48,358.6,327.29Z"/><path class="cls-20" d="M360.55,328.82h0l.62.44h0Z"/><path class="cls-20" d="M363.39,330.54h0c.53.27,1.07.53,1.64.77h0C364.46,331.07,363.92,330.81,363.39,330.54Z"/><path class="cls-20" d="M367.55,332.26h0c.65.21,1.32.41,2,.59h0C368.87,332.67,368.2,332.47,367.55,332.26Z"/><path class="cls-20" d="M361.71,329.59h0c.34.22.7.43,1.07.63h0Q362.24,329.92,361.71,329.59Z"/><path class="cls-20" d="M365.43,331.48h0c.49.2,1,.39,1.52.57h0C366.44,331.87,365.93,331.68,365.43,331.48Z"/><path class="cls-20" d="M369.8,332.91h0c.65.16,1.32.31,2,.45h0C371.13,333.22,370.45,333.07,369.8,332.91Z"/><path class="cls-20" d="M372.43,333.47h0c.77.14,1.56.27,2.38.38h0C374,333.74,373.21,333.61,372.43,333.47Z"/><path class="cls-20" d="M412.42,254.64c-.13-.65-.27-1.28-.4-1.91-.1-.48-.21-.95-.31-1.42l-.06-.28a95,95,0,0,0-5.87-18.41c7.23,34.63,18.61,82-38.5,74.83-7.22-.91-12.5-3.26-16.29-6.64a55,55,0,0,0-.28,6.59,46.77,46.77,0,0,1,6.78,7.37s-12.71,11,53.19-2.32c2.73-.55,5.33-1.18,7.82-1.86C421.52,294.15,416,272.22,412.42,254.64Z"/><path class="cls-20" d="M382.72,334.52c2,.08,3.85.07,5.64,0l-1.6-1.6q3.39-2,6.8-3.87a179.16,179.16,0,0,1-37.93-5c.13.19.27.37.42.55s.21.27.32.41.43.51.66.76.51.54.78.8.52.49.79.73.44.38.67.57.41.34.63.5.43.31.65.46c3.94.71,7.87,1.57,11.49,2.58C375.24,332.29,379,333.28,382.72,334.52Z"/><path class="cls-20" d="M393.56,329.05a139.05,139.05,0,0,1,22.32-10,34.74,34.74,0,0,0,2.62-8.49c-2.49.68-5.09,1.31-7.82,1.86-65.9,13.3-53.19,2.32-53.19,2.32a46.77,46.77,0,0,0-6.78-7.37A30.82,30.82,0,0,0,354,321.54l.06.1a21.71,21.71,0,0,0,1.54,2.4A179.16,179.16,0,0,0,393.56,329.05Z"/><path class="cls-20" d="M393.56,329.05q-3.4,1.86-6.8,3.87l1.6,1.6c8.66-.36,15.1-2.47,19.78-5.88C403.51,329,398.65,329.15,393.56,329.05Z"/><path class="cls-20" d="M361.71,329.59q.53.33,1.08.63l.6.32c.53.27,1.07.53,1.64.77l.4.17c.5.2,1,.39,1.53.58l.59.2c.65.21,1.32.41,2,.59l.23.06c.65.16,1.33.31,2,.45l.61.11c.78.14,1.57.27,2.39.38q4.2.52,7.9.67c-3.7-1.24-7.48-2.23-10.68-3.12-3.62-1-7.55-1.87-11.49-2.58l.62.44Z"/><path class="cls-20" d="M393.56,329.05c5.09.1,9.95-.05,14.58-.41a23.58,23.58,0,0,0,3.21-2.81,25.3,25.3,0,0,0,4.53-6.75A139.05,139.05,0,0,0,393.56,329.05Z"/><path d="M432.86,244.77c-4.35,0-7.9,6.28-7.9,14s3.55,14,7.9,14,7.9-6.28,7.9-14S437.23,244.77,432.86,244.77Zm-2.59,17.76a3.7,3.7,0,1,1,3.7-3.7A3.7,3.7,0,0,1,430.27,262.53Z"/><path d="M360.26,258.81c0-7.76-3.54-14-7.9-14s-7.89,6.28-7.89,14,3.53,14,7.89,14S360.26,266.55,360.26,258.81Zm-13.18,0a3.69,3.69,0,1,1,3.69,3.7A3.69,3.69,0,0,1,347.08,258.83Z"/><path class="cls-17" d="M423.06,222.8c22.27,3.76,40.11,6.22,40.1-13.85S409.9,192,409.9,192C406.71,206.55,400.78,219.06,423.06,222.8Zm-6-29.34a55.55,55.55,0,0,1,7.24.92c3.76.48,7.51.91,11.27,1.42,1.92.26,6.67.56,8.05,2.19-.29.66-1.25.81-2.24.81.3.07.63.09.94.17,3.59,1,7.59,1.69,10.65,4,1.05.78,1.23,1.3.3,2.27-2.06,2.15-6.43.87-9,1.31,1.25.75,9.64,1.52,8.86,3.85-.62,1.89-6.94.43-8.45.24-3.08-.38-6.14-1.13-9.26-1.4,1.25,1.61,3.7,2.46,5.28,3.68,1.27,1,4.28,3,3.76,4.85-.54,2-4.72.1-6.12-.38a49.24,49.24,0,0,1-9.49-5c.25,2.18,5,5,4.09,7-5-.13-7.72-5.2-11.07-8.08.08,1.67,5.32,6.73,1.63,6.49-4.12-.27-7.93-6-9.25-9.31-1.1-2.76-2.17-6.2-1.67-9.19C411.17,196.58,414,193.51,417,193.46Z"/><path class="cls-17" d="M371.51,192.24s-53.22-3.64-53.42,16.44,17.66,17.78,40,14.24S374.57,206.82,371.51,192.24Zm-21.64,22.3c-.52-2,2.23-5.06,3.46-6.35-2.76,2.35-7.17,4-10.64,4.8-1.41.33-7.4,2.07-8.48.94-1.57-1.65,2.05-5,3.19-5.8-1.25.85-9,2.54-8.92-.13,0-1.82,3.35-3.26,4.6-3.94a39.06,39.06,0,0,1,4.95-2.32c-1.86.3-3.76.34-4.67-.25.87-1.59,3.66-2.65,5.28-3.11,2.54-.72,5.33-.95,7.92-1.41,4-.71,8-1.61,12-2,.63-.07,7.12-.86,6.48.29l.36,1.38c.2,1,.73,2,.91,3.09.16.89.32,1.79.47,2.67s.82,3.28-.09,3.75c-1.08.56-1.26-1.26-1.82-1.8.12,2.09-1.53,7.84-4.28,7.87-.8-1.31,1.05-3.69,1.1-5.11-.22.83-1.42,1.55-2,2.06a41.12,41.12,0,0,1-3.86,3.12C354.22,213.34,352,215.05,349.87,214.54Z"/><path class="cls-23" d="M443.48,321l.2-.07s0-.1,0-.15Z"/><path class="cls-17" d="M296.78,215.09a143.21,143.21,0,0,0-1.89,31.43c.56,1.15,1.12,2.38,1.7,3.65A268.48,268.48,0,0,1,296.78,215.09Z"/><path class="cls-17" d="M487.28,213a284.68,284.68,0,0,1,1.18,30.15c1-1.47,2-2.83,2.87-4C489.68,228.83,488.25,219.45,487.28,213Z"/><path class="cls-17" d="M294.67,246.05c-5.74-21.58-5.26-40.73,6.54-57.21a66.09,66.09,0,0,1,5.39-13.41c4.81-8.71,15.91-16.3,30.33-22-1.12.3-2.24.61-3.39.95-5.47,1.63-11.34,2.75-16.62,4.88,2-3.31,8.26-4.94,11.74-6.28a1.1,1.1,0,0,0,0-.57c-11.06-1.75-23.16,10.06-31.94,15.62-.64-3.12,3.14-6,5.24-7.79,4.84-4.1,9.55-8,15.33-10.87,4.95-2.42,11.06-4.81,16.59-5.42,3-.33,6.28-.95,9.45-1.15-8.54.06-17.15.37-25.65-.06,4.83-4.44,14.73-5.32,21.09-5.45,8.42-.19,16.81,2.14,25.17,1.38a47.42,47.42,0,0,0-6.07-4.94c4.78-.36,9.45,2,14.18,1.83-1.72-6.33-10.8-9.47-15.52-13.18-1.52-1.21-3-2.74-4.68-4.11a57.7,57.7,0,0,1-4.93-3,15.51,15.51,0,0,1,4.93,3c2.89,1.59,5.89,3,8.88,4.3,3.15,1.4,7.56,2,10.32,4,0-4.1.11-10.15,1.82-13.91,1.82,1.14,2.56,4.11,3.41,6.12,1.06,2.49,2.82,5.11,3.4,7.77l-1.07,1.67a37.85,37.85,0,0,1,2.9-2.55,100.41,100.41,0,0,1,12-9,81.62,81.62,0,0,1,15.71-8,72.88,72.88,0,0,0-9.19,6.69c-2.48,2-3.22,4.18-5.17,6.4,4.48.86,8.81-3.61,13.56-3.32-1.45,3-5,4.67-7.38,6.68,10.89-1.17,23.24-3.37,33.42,1.76,9.32,4.69,17.89,13.86,29,14.53-3.39,1.05-8.25-1.59-11.83-2a35.43,35.43,0,0,0-5.82-.18c-1.89,5.12,28.46,8.45,27.39,17.57-2.37.42-4.94-1-7.12-1.7-2.54-.83-5.53-1.37-8.11-2.33,3,1.64,6.14,4.34,8.6,6.24a37.64,37.64,0,0,1,11.64,14.26l1.25,2.56a47,47,0,0,1,3.18,7.32c.49,1.28.93,2.54,1.31,3.77l-.34-.5a50.22,50.22,0,0,1,1.11,5.22c.72,4.76,1.32,9.35,1.83,13.79.62,1.3,5.31,11.45,9.07,28.32.43-.51.68-.79.68-.79s1.41-1.08,3.73-2.56c-.82-4.44-1.72-8.85-2.7-13.12,2.77,3.93,5.06,7.47,6.95,10.59a60.18,60.18,0,0,1,6.87-3.26c-2-14.59-6.69-34.91-18-53.41,14.41,7.07,19.39,23.56,19.39,23.56s-8.92-86.13-100.28-80.89c36.19-12.4,53.9-8.22,60-5.73-11-5.24-55-23.36-88,6C379,89,388.65,76.69,388.65,76.69s-19.9,4.69-19.63,46.84c-22-30.36-42.15-20.68-42.15-20.68l29.59,27.75s-47.63-14.92-71.2,22c18.33-3.66,24.34-2.09,24.34-2.09s-36.38,24.88-31.14,78.28l5-16.24s-1.1,7.62-1.71,18.88a58.06,58.06,0,0,1,7.49,4.18S291.65,239.77,294.67,246.05Z"/><path class="cls-17" d="M472.22,108.12c1.65.79,2.55,1.29,2.55,1.29A13.21,13.21,0,0,0,472.22,108.12Z"/><path class="cls-17" d="M301.78,297.24l0,0h0Z"/><path class="cls-17" d="M301.78,297.24c-.13-.82-.27-1.68-.42-2.61a15.57,15.57,0,0,1-6.69,1.91,54.45,54.45,0,0,1-5.88.19q1,2.65,2.23,5.13a69.87,69.87,0,0,1,10.73-4.58Z"/><path class="cls-17" d="M295.8,250.55s.34.58.89,1.59c0-.65-.07-1.31-.1-2-.58-1.27-1.14-2.5-1.7-3.65,0,.15,0,.29,0,.44l-.24-.91c-3-6.28-5.47-10.45-5.47-10.45a58.06,58.06,0,0,0-7.49-4.18c-.23,4.08-.39,8.64-.41,13.49C288.63,245.61,295.8,250.55,295.8,250.55Z"/><path class="cls-17" d="M294.67,296.54a15.57,15.57,0,0,0,6.69-1.91c-1.53-9.69-3.65-25.27-4.67-42.49-.55-1-.89-1.59-.89-1.59s-7.17-4.94-14.5-5.64c-.07,16.44,1.45,36.18,7.49,51.82A54.45,54.45,0,0,0,294.67,296.54Z"/><path class="cls-17" d="M505.4,287l1.69,1.4c0-.46-.07-.95-.11-1.46C506.47,286.94,505.94,287,505.4,287Z"/><path class="cls-17" d="M493,249.48c-.58-3.5-1.14-7-1.68-10.34-.9,1.21-1.87,2.57-2.87,4-.07,4.8-.28,9.28-.58,13.46A75.8,75.8,0,0,1,493,249.48Z"/><path class="cls-17" d="M511.16,241.18a11.38,11.38,0,0,1,1.31.11,152.09,152.09,0,0,0-1.35-16.7,60.18,60.18,0,0,0-6.87,3.26A103.58,103.58,0,0,1,511.16,241.18Z"/><path class="cls-17" d="M502.17,243.38c-.65-4.3-1.37-8.67-2.17-13-2.32,1.48-3.73,2.56-3.73,2.56s-.25.28-.68.79c.81,3.66,1.58,7.65,2.25,11.92A42,42,0,0,1,502.17,243.38Z"/><path class="cls-17" d="M497.84,245.65a208.92,208.92,0,0,1,2.47,37.59c1.62,1.06,3.31,2.3,5.09,3.73.54,0,1.07,0,1.58-.06-.66-8.92-2.12-25.67-4.81-43.53A42,42,0,0,0,497.84,245.65Z"/><path class="cls-17" d="M512.47,241.29a11.38,11.38,0,0,0-1.31-.11,34.14,34.14,0,0,1,1.31,3.6S512.51,243.53,512.47,241.29Z"/><path class="cls-17" d="M485.22,277.78c4.1.06,8.51,1.41,13.6,4.51-1.88-9.57-3.92-21.34-5.81-32.81a75.8,75.8,0,0,0-5.13,7.16A192,192,0,0,1,485.22,277.78Z"/><path class="cls-17" d="M304.64,291.64a16.78,16.78,0,0,1-2.86,5.6v0a55.63,55.63,0,0,1,6-1.63c-.46-1.64-1.06-4.05-1.68-7.11A11.65,11.65,0,0,1,304.64,291.64Z"/><path class="cls-17" d="M479.43,175.81c1.13,2.37,2.24,4.86,3.18,7.32A47,47,0,0,0,479.43,175.81Z"/><path class="cls-17" d="M477,276c-.17,1.15-.35,2.34-.54,3.55.45-.18.89-.35,1.35-.51A16.61,16.61,0,0,1,477,276Z"/><path class="cls-17" d="M303.68,267.54a132,132,0,0,1,7.49-50c-8.38,6.27-8.9,11.27-8.9,11.27s7.59-63.88,52.62-70.16c0,0,30.36,6.28,71.73,0a19.35,19.35,0,0,1-10.48,6.28s13.1,7.19,35.61,5.23l-3.92,6s24.6-1,28.25,35.34c2.5,24.8,3.38,37.75,2.47,50.81,2.27-6.92,6.28-13.77,9.91-19.12A284.68,284.68,0,0,0,487.28,213c-.81-5.38-1.29-8.68-1.29-8.68l.45.9.08.16c-.51-4.44-1.11-9-1.83-13.79a50.22,50.22,0,0,0-1.11-5.22,72,72,0,0,0-8.22-10.58c-5.6-5.76-12.43-9.76-18.74-14.62a93.11,93.11,0,0,0-17.09-10.93c3.9,1.94,6.51,4.73,9.79,7.38a35.66,35.66,0,0,1-9.54-2.06c-3.38-1.32-7.19-.66-10.69-1,1.36,1,2.73,1.92,4.16,2.8s3.05,1.56,4.47,2.32a30.06,30.06,0,0,1-4.47-2.32c-9.29-4.62-20.71-8.8-30.61-5.79a83,83,0,0,1-23.88,3.55c-3.31,0-7.27.65-10.44-.55,4.12-1.09,10.9.58,14.06-3-10.69-.7-21.69,0-32.42,0a49.63,49.63,0,0,0-13,1.82c-14.42,5.73-25.52,13.32-30.33,22a66.09,66.09,0,0,0-5.39,13.41,65.62,65.62,0,0,1,10.51-11.4s-10.43,12.17-14.94,37.65a268.48,268.48,0,0,0-.19,35.08c1.33,3,2.69,6.24,3.94,9.65C301.59,262.15,302.69,264.78,303.68,267.54Z"/><path class="cls-17" d="M296.59,250.17c0,.66.07,1.32.1,2,.89,1.61,2.32,4.34,3.84,7.68C299.28,256.41,297.92,253.14,296.59,250.17Z"/><path class="cls-17" d="M301.36,294.63c.15.93.29,1.79.42,2.61a16.78,16.78,0,0,0,2.86-5.6A10.19,10.19,0,0,1,301.36,294.63Z"/><path class="cls-17" d="M305.63,285.76a25,25,0,0,1-1,5.88,11.65,11.65,0,0,0,1.51-3.11C306,287.66,305.8,286.74,305.63,285.76Z"/><path class="cls-17" d="M300.53,259.82a104.12,104.12,0,0,1,3.29,10.56c-.06-.93-.1-1.88-.14-2.84C302.69,264.78,301.59,262.15,300.53,259.82Z"/><path class="cls-17" d="M304.64,291.64a25,25,0,0,0,1-5.88,135.66,135.66,0,0,1-1.81-15.38,104.12,104.12,0,0,0-3.29-10.56c-1.52-3.34-2.95-6.07-3.84-7.68,1,17.22,3.14,32.8,4.67,42.49A10.19,10.19,0,0,0,304.64,291.64Z"/><path class="cls-17" d="M477.82,279.05a22.64,22.64,0,0,1,4.75-1.13c-2.65-6.36,1.31-14.95,5.31-21.28.3-4.18.51-8.66.58-13.46-3.63,5.35-7.64,12.2-9.91,19.12-.31,4.4-.82,8.82-1.54,13.71A16.61,16.61,0,0,0,477.82,279.05Z"/><path class="cls-17" d="M485.22,277.78a192,192,0,0,0,2.66-21.14c-4,6.33-8,14.92-5.31,21.28A21.09,21.09,0,0,1,485.22,277.78Z"/><path class="cls-17" d="M291.67,303.15c.21.43.44.85.67,1.27,3.29-.7,5.92-1.39,8-2.05-2.51.11-5.12.31-7.81.58Z"/><path class="cls-17" d="M301.75,297.28a15.27,15.27,0,0,1-5,4.06c1.54-.46,3.38-.95,5.48-1.4-.14-.8-.29-1.7-.45-2.67Z"/><path class="cls-17" d="M507.43,293.62v0h-.13Z"/><path class="cls-17" d="M291.94,303s1.81-.76,4.82-1.66a15.27,15.27,0,0,0,5-4.06A69.87,69.87,0,0,0,291,301.86c.21.43.43.86.65,1.29l.87-.2Z"/><path class="cls-17" d="M500.2,286.66c0,.67,0,1.34-.08,2-.14-.68-.29-1.37-.43-2.08-1.71-.21-3.54-.51-5.5-.92-4.57-.95-7.65-2.59-9.61-4.67-.26,1.27-.52,2.44-.79,3.56,12.34,4.38,22.33,8.51,23.51,9h.13c0-.28-.12-2.14-.34-5.21L505.4,287A40.55,40.55,0,0,1,500.2,286.66Z"/><path class="cls-17" d="M505.4,287c-1.78-1.43-3.47-2.67-5.09-3.73,0,1.13-.07,2.27-.11,3.42A40.55,40.55,0,0,0,505.4,287Z"/><path class="cls-17" d="M485.22,277.78c-.21,1.12-.42,2.2-.64,3.23,2,2.08,5,3.72,9.61,4.67,2,.41,3.79.71,5.5.92-.29-1.37-.58-2.81-.87-4.31C493.73,279.19,489.32,277.84,485.22,277.78Z"/><path class="cls-17" d="M476.47,279.56c-.13.77-.25,1.56-.39,2.36l4.09,1.38a15.33,15.33,0,0,1-2.35-4.25C477.36,279.21,476.92,279.38,476.47,279.56Z"/><path class="cls-17" d="M302.24,299.94c1.71-.37,3.58-.71,5.57-1a2.74,2.74,0,0,0,.76-.82s-.3-.88-.74-2.5a55.63,55.63,0,0,0-6,1.63C302,298.24,302.1,299.14,302.24,299.94Z"/><path class="cls-17" d="M477.82,279.05a15.33,15.33,0,0,0,2.35,4.25l3.62,1.27c.27-1.12.53-2.29.79-3.56a10.2,10.2,0,0,1-2-3.09A22.64,22.64,0,0,0,477.82,279.05Z"/><path class="cls-17" d="M482.57,277.92a10.2,10.2,0,0,0,2,3.09c.22-1,.43-2.11.64-3.23A21.09,21.09,0,0,0,482.57,277.92Z"/><path class="cls-23" d="M430.27,255.14a3.7,3.7,0,1,0,3.7,3.69A3.69,3.69,0,0,0,430.27,255.14Z"/><path class="cls-23" d="M354.46,258.83a3.69,3.69,0,1,0-3.69,3.7A3.69,3.69,0,0,0,354.46,258.83Z"/><path class="cls-24" d="M414.2,208.55c1.32,3.3,5.13,9,9.25,9.31,3.69.24-1.55-4.82-1.63-6.49,3.35,2.88,6.11,7.95,11.07,8.08.9-2-3.84-4.85-4.09-7a49.24,49.24,0,0,0,9.49,5c1.4.48,5.58,2.41,6.12.38.52-1.88-2.49-3.85-3.76-4.85-1.58-1.22-4-2.07-5.28-3.68,3.12.27,6.18,1,9.26,1.4,1.51.19,7.83,1.65,8.45-.24.78-2.33-7.61-3.1-8.86-3.85,2.6-.44,7,.84,9-1.31.93-1,.75-1.49-.3-2.27-3.06-2.29-7.06-3-10.65-4-.31-.08-.64-.1-.94-.17,1,0,1.95-.15,2.24-.81-1.38-1.63-6.13-1.93-8.05-2.19-3.76-.51-7.51-.94-11.27-1.42a55.55,55.55,0,0,0-7.24-.92c-3,0-5.87,3.12-4.51,5.9C412,202.35,413.1,205.79,414.2,208.55Z"/><path class="cls-24" d="M338,201.74a18.41,18.41,0,0,0,4.21-1.14A20,20,0,0,0,338,201.74Z"/><path class="cls-24" d="M361.67,207.07c-.05,1.42-1.9,3.8-1.1,5.11,2.75,0,4.4-5.78,4.28-7.87.56.54.74,2.36,1.82,1.8.91-.47.24-2.94.09-3.75s-.31-1.78-.47-2.67c-.18-1.09-.71-2.05-.91-3.09l-.36-1.38c.64-1.15-5.85-.36-6.48-.29-4,.43-8,1.33-12,2-2.59.46-5.38.69-7.92,1.41-1.62.46-4.41,1.52-5.28,3.11.91.59,2.81.55,4.67.25a20,20,0,0,1,4.21-1.14,18.41,18.41,0,0,1-4.21,1.14,39.06,39.06,0,0,0-4.95,2.32c-1.25.68-4.56,2.12-4.6,3.94-.05,2.67,7.67,1,8.92.13-1.14.82-4.76,4.15-3.19,5.8,1.08,1.13,7.07-.61,8.48-.94,3.47-.8,7.88-2.45,10.64-4.8-1.23,1.29-4,4.33-3.46,6.35,2.11.51,4.35-1.2,5.94-2.29a41.12,41.12,0,0,0,3.86-3.12C360.25,208.62,361.45,207.9,361.67,207.07Z"/><path class="cls-25" d="M510.26,306.53a197.19,197.19,0,0,1,32.4,47.17q3,.58,6.11,1.3C529.53,313.85,510.26,306.53,510.26,306.53Z"/><path class="cls-25" d="M565.07,400.13A291.13,291.13,0,0,0,548.77,355q-3.09-.72-6.11-1.3c8.4,16.71,14.32,33,19.75,47.37Z"/><path class="cls-25" d="M565.84,409.94c.77.6,1.54,1.22,2.29,1.84q-1.5-6.06-3.06-11.65l-2.66.94Q564.15,405.65,565.84,409.94Z"/><path class="cls-25" d="M568.13,411.78c-.75-.62-1.52-1.24-2.29-1.84,1.42,3.57,2.83,7,4.28,10.19C569.47,417.27,568.8,414.49,568.13,411.78Z"/><path class="cls-25" d="M541.84,514.88a53.4,53.4,0,0,0,6.35-8.81c-.41-1.22-.82-2.44-1.22-3.65C545.33,506.81,543.6,510.93,541.84,514.88Z"/><path class="cls-25" d="M556.54,443.14l1.88-1.51A181.38,181.38,0,0,0,555,418.24C556,427.29,556.46,435.55,556.54,443.14Z"/><path class="cls-25" d="M547,502.42c.4,1.21.81,2.43,1.22,3.65h0c-.41-1.22-.81-2.44-1.22-3.66Z"/><path class="cls-25" d="M547,502.41c.41,1.22.81,2.44,1.22,3.66,11.24-19.35,11.78-45.67,10.23-64.44l-1.88,1.51C556.84,469.32,552.51,487.51,547,502.41Z"/><path class="cls-25" d="M428.26,562.18c103.7-20.23,106-90.13,106-90.13C514.47,533.43,451.48,553.43,428.26,562.18Z"/><path class="cls-25" d="M422.29,544.7c-22.57,3.87-49.55,8.64-76.22,9a48.75,48.75,0,0,1,3.6,6.3C369.77,559.27,393.81,554.92,422.29,544.7Z"/><path class="cls-25" d="M263.2,530.21s11.05,14.62,37.3,23.43c1.06-1.32,2.19-2.65,3.37-3.94C288.94,546.18,275,540.06,263.2,530.21Z"/><path class="cls-25" d="M305.42,550.05l-1.83,4.59c12.19,3.7,27.44,6.09,46.08,5.39a48.75,48.75,0,0,0-3.6-6.3A175,175,0,0,1,305.42,550.05Z"/><path class="cls-25" d="M303.87,549.7c-1.18,1.29-2.31,2.62-3.37,3.94,1,.34,2,.67,3.09,1l1.83-4.59Z"/><path class="cls-25" d="M237,461.52a47.64,47.64,0,0,0-.73-8.24c-16.83-16.91-32.17-33-32.17-33S213.51,441.87,237,461.52Z"/><path class="cls-25" d="M237,461.52a132.38,132.38,0,0,0,24.11,16.05c-7.48-7-16.35-15.76-24.84-24.29A47.64,47.64,0,0,1,237,461.52Z"/><path class="cls-25" d="M300.35,302.37l2.3-.06c0-.22-.07-.44-.12-.68C301.88,301.87,301.16,302.12,300.35,302.37Z"/><path class="cls-25" d="M346,310c-11.34-11.68-26.7-12.55-38.14-11a18.81,18.81,0,0,1-5.28,2.67c.05.24.09.46.12.68A107,107,0,0,1,346,310Z"/><path class="cls-25" d="M302.24,299.94c-2.1.45-3.94.94-5.48,1.4a20.14,20.14,0,0,1-4.22,1.61c2.69-.27,5.3-.47,7.81-.58.81-.25,1.53-.5,2.18-.74C302.44,301.12,302.34,300.56,302.24,299.94Z"/><path class="cls-25" d="M292.54,303a20.14,20.14,0,0,0,4.22-1.61c-3,.9-4.82,1.66-4.82,1.66Z"/><path class="cls-25" d="M302.53,301.63a18.81,18.81,0,0,0,5.28-2.67c-2,.27-3.86.61-5.57,1C302.34,300.56,302.44,301.12,302.53,301.63Z"/><path class="cls-25" d="M249.59,352.52c31.66-32.47,60.48-33.14,81.11-35.94l-.78-.28C277.15,307.84,249.59,352.52,249.59,352.52Z"/><path class="cls-25" d="M329.92,316.3l.78.28.51-.07Z"/><path class="cls-24" d="M351.85,118.24a15.51,15.51,0,0,0-4.93-3A57.7,57.7,0,0,0,351.85,118.24Z"/><path class="cls-24" d="M483.92,186.9c-.38-1.23-.82-2.49-1.31-3.77.36,1.07.68,2.16,1,3.27Z"/><path class="cls-24" d="M343.33,142.77c1.2,0,2.4,0,3.6,0A24.05,24.05,0,0,0,343.33,142.77Z"/><path class="cls-24" d="M377.55,129.87l1.06-1.66A3.9,3.9,0,0,0,377.55,129.87Z"/><path class="cls-24" d="M479.43,175.81l-1.25-2.56A37.64,37.64,0,0,0,466.54,159c-2.46-1.9-5.57-4.6-8.6-6.24a15.39,15.39,0,0,1-2.17-1,13.83,13.83,0,0,1,2.17,1c2.58,1,5.57,1.5,8.11,2.33,2.18.71,4.75,2.12,7.12,1.7,1.07-9.12-29.28-12.45-27.39-17.57a35.43,35.43,0,0,1,5.82.18c3.58.4,8.44,3,11.83,2-11.08-.67-19.65-9.84-29-14.53-10.18-5.13-22.53-2.93-33.42-1.76,2.42-2,5.93-3.73,7.38-6.68-4.75-.29-9.08,4.18-13.56,3.32,1.95-2.22,2.69-4.4,5.17-6.4a72.88,72.88,0,0,1,9.19-6.69,81.62,81.62,0,0,0-15.71,8,100.41,100.41,0,0,0-12,9,37.85,37.85,0,0,0-2.9,2.55l-1.06,1.66a3.9,3.9,0,0,1,1.06-1.66l1.07-1.67c-.58-2.66-2.34-5.28-3.4-7.77-.85-2-1.59-5-3.41-6.12-1.71,3.76-1.8,9.81-1.82,13.91-2.76-2-7.17-2.62-10.32-4-3-1.32-6-2.71-8.88-4.3,1.63,1.37,3.16,2.9,4.68,4.11,4.72,3.71,13.8,6.85,15.52,13.18-4.73.16-9.4-2.19-14.18-1.83a47.42,47.42,0,0,1,6.07,4.94c-8.36.76-16.75-1.57-25.17-1.38-6.36.13-16.26,1-21.09,5.45,8.5.43,17.11.12,25.65.06a24.05,24.05,0,0,1,3.6,0c-1.2,0-2.4,0-3.6,0-3.17.2-6.49.82-9.45,1.15-5.53.61-11.64,3-16.59,5.42-5.78,2.83-10.49,6.77-15.33,10.87-2.1,1.77-5.88,4.67-5.24,7.79,8.78-5.56,20.88-17.37,31.94-15.62a1.1,1.1,0,0,1,0,.57c-3.48,1.34-9.75,3-11.74,6.28,5.28-2.13,11.15-3.25,16.62-4.88,1.15-.34,2.27-.65,3.39-.95C381.45,135.71,457.76,135.79,479.43,175.81Z"/><path class="cls-24" d="M457.94,152.75a13.83,13.83,0,0,0-2.17-1A15.39,15.39,0,0,0,457.94,152.75Z"/><path class="cls-24" d="M433.25,157.4a30.06,30.06,0,0,0,4.47,2.32C436.3,159,434.8,158.17,433.25,157.4Z"/><path class="cls-24" d="M382.38,151.61c-3.16,3.58-9.94,1.91-14.06,3,3.17,1.2,7.13.56,10.44.55a83,83,0,0,0,23.88-3.55c9.9-3,21.32,1.17,30.61,5.79-1.43-.88-2.8-1.84-4.16-2.8,3.5.33,7.31-.33,10.69,1a35.66,35.66,0,0,0,9.54,2.06c-3.28-2.65-5.89-5.44-9.79-7.38a93.11,93.11,0,0,1,17.09,10.93c6.31,4.86,13.14,8.86,18.74,14.62a72,72,0,0,1,8.22,10.58c-.29-1.11-.61-2.2-1-3.27-.94-2.46-2.05-4.95-3.18-7.32-21.67-40-98-40.1-142.5-22.41a49.63,49.63,0,0,1,13-1.82C360.69,151.59,371.69,150.91,382.38,151.61Z"/><path class="cls-24" d="M296.78,215.09a132.11,132.11,0,0,1,4.43-26.25c-11.8,16.48-12.28,35.63-6.54,57.21.07.15.15.31.22.47A143.21,143.21,0,0,1,296.78,215.09Z"/><path class="cls-24" d="M294.91,247c0-.15,0-.29,0-.44s-.15-.32-.22-.47Z"/><path class="cls-24" d="M311.72,177.44a65.62,65.62,0,0,0-10.51,11.4,132.11,132.11,0,0,0-4.43,26.25C301.29,189.61,311.72,177.44,311.72,177.44Z"/><path class="cls-24" d="M491.33,239.14c1.87-2.52,3.42-4.41,4.26-5.41-3.76-16.87-8.45-27-9.07-28.32.29,2.6.54,5.13.76,7.62C488.25,219.45,489.68,228.83,491.33,239.14Z"/><path class="cls-24" d="M493,249.48c.73-.9,1.18-1.41,1.18-1.41a42.6,42.6,0,0,1,3.65-2.42c-.67-4.27-1.44-8.26-2.25-11.92-.84,1-2.39,2.89-4.26,5.41C491.87,242.51,492.43,246,493,249.48Z"/><path class="cls-24" d="M500.31,283.24a208.92,208.92,0,0,0-2.47-37.59,42.6,42.6,0,0,0-3.65,2.42s-.45.51-1.18,1.41c1.89,11.47,3.93,23.24,5.81,32.81C499.31,282.59,499.81,282.9,500.31,283.24Z"/><path class="cls-24" d="M486,204.35s.48,3.3,1.29,8.68c-.22-2.49-.47-5-.76-7.62l-.08-.16Z"/><path class="cls-24" d="M500.12,288.68c0-.68.05-1.35.08-2l-.51-.06C499.83,287.31,500,288,500.12,288.68Z"/><path class="cls-24" d="M499.69,286.6l.51.06c0-1.15.09-2.29.11-3.42-.5-.34-1-.65-1.49-.95C499.11,283.79,499.4,285.23,499.69,286.6Z"/><path class="cls-25" d="M446.84,370.2s16.48,15.8,19.24,46.72l5,0C471,399,464.67,381.06,446.84,370.2Z"/><path class="cls-25" d="M462.47,455.57a92.88,92.88,0,0,0,8.64-38.68l-5,0A113.05,113.05,0,0,1,462.47,455.57Z"/><path class="cls-25" d="M504,321.82c2.24.49,4.14.9,5.58,1.15a78,78,0,0,0-7.38-3.68c.11.1.23.2.33.31A8.55,8.55,0,0,1,504,321.82Z"/><path class="cls-25" d="M462.5,314c.85,0,1.7.07,2.55.13,8.66.57,17.25,2.59,25.93,3.36,1.72.15,5.33,0,8.17.56-12.7-4.9-25.78-6.26-36.85-6.12-1,.58-2,1.16-3,1.75C460.35,313.78,461.42,313.88,462.5,314Z"/><path class="cls-25" d="M444.83,313.34a42.05,42.05,0,0,0-7.52,1.13c.64-.06,1.29-.1,1.93-.15C440.81,314,442.68,313.67,444.83,313.34Z"/><path class="cls-25" d="M459.28,313.68c1.05-.59,2.05-1.17,3-1.75a128.64,128.64,0,0,0-17.47,1.41A95,95,0,0,1,459.28,313.68Z"/><path class="cls-25" d="M465.05,314.13c-.85-.06-1.7-.1-2.55-.13,15.24,1.7,31.7,5.66,41.46,7.82a8.55,8.55,0,0,0-1.47-2.22c-.1-.11-.22-.21-.33-.31-1-.44-2-.85-3-1.24-2.84-.57-6.45-.41-8.17-.56C482.3,316.72,473.71,314.7,465.05,314.13Z"/><path class="cls-25" d="M439.24,314.32c-.64.05-1.29.09-1.93.15a23.38,23.38,0,0,0-3.22,1S436,315,439.24,314.32Z"/><path class="cls-26" d="M532.63,279.14c-.31,1.48-.65,3-1,4.54A31.27,31.27,0,0,0,532.63,279.14Z"/><path class="cls-26" d="M532.63,279.14c9.48-45-5-53.83-5-53.83C532.81,244.79,534.5,267,532.63,279.14Z"/><path class="cls-26" d="M248.33,246.67s-12,49.33,22.58,55.06C257.7,291.83,250.76,279.85,248.33,246.67Z"/><path class="cls-27" d="M132.27,463.18q3.91,6.46,8.14,12.72,15.71-28.86,34.94-60S156.75,432.85,132.27,463.18Z"/><polygon class="cls-18" points="358.66 383.75 417.66 412.75 440.66 382.75 450.66 360.75 450.66 325.75 444.66 317.75 401.66 335.75 358.66 383.75"/><path class="cls-23" d="M354.48,346.68a71.58,71.58,0,0,0,9.84,9.47c13.05,1.7,25,.09,36.93-3.32,11.25-3.23,22.65-9.72,32.56-16.79a90.28,90.28,0,0,0,1.48-13.18l-.2,0C400.91,353.78,354.48,346.68,354.48,346.68Z"/><path class="cls-18" d="M364.32,356.15c-.66-.09-1.33-.18-2-.29,0,0,3.94,12.92,5.75,15.07,11.29,13.44,36.7,15.91,53.13,3.23,17.53-13.53,14.42-37.9,14.23-39.28L433.81,336C425.79,377.71,389.27,375.92,364.32,356.15Z"/><path class="cls-20" d="M364.32,356.15c24.95,19.77,61.47,21.56,69.49-20.11-9.91,7.07-21.31,13.56-32.56,16.79C389.35,356.24,377.37,357.85,364.32,356.15Z"/></g></g></svg>