<svg xmlns="http://www.w3.org/2000/svg" viewBox="0 0 44.11 41.5"><defs><style>.cls-1{fill:#207775;}</style></defs><title>Asset 2knjižnjica</title><g id="Layer_2" data-name="Layer 2"><g id="KNOFI_ZA_POMIK_IN_KNJIŽNICO" data-name="KNOFI ZA POMIK IN KNJIŽNICO"><path class="cls-1" d="M42.06,1.71A6.33,6.33,0,0,0,37.82,0l-.51,0H37a39.7,39.7,0,0,0-14.95,5l0,0L21.87,5A39,39,0,0,0,6.94,0L6.35,0A6.34,6.34,0,0,0,0,6.4V30a6.56,6.56,0,0,0,5.57,6.35l.57.08A47.77,47.77,0,0,1,19.88,41a4.54,4.54,0,0,0,2.18.54A4.19,4.19,0,0,0,24.18,41a47.1,47.1,0,0,1,13.68-4.51l.64-.08A6.55,6.55,0,0,0,44.11,30V6.44A6.32,6.32,0,0,0,42.06,1.71ZM19.55,35.24A53,53,0,0,0,6.81,31.48l-.58-.07A1.56,1.56,0,0,1,5,30V6.4a1.4,1.4,0,0,1,.42-1A1.37,1.37,0,0,1,6.38,5h.19A35,35,0,0,1,19.28,9.24l.27.16ZM39.09,30A1.53,1.53,0,0,1,37.9,31.4l-.68.08a52.23,52.23,0,0,0-12.65,3.75V9.41l.23-.16A35.2,35.2,0,0,1,37.31,5h.35a1.53,1.53,0,0,1,1,.35,1.42,1.42,0,0,1,.42,1Z"/><path class="cls-1" d="M16.46,16.47a1.4,1.4,0,0,1-1-.41A11.45,11.45,0,0,0,8.11,13a1.4,1.4,0,0,1,0-2.79,14.29,14.29,0,0,1,9.34,3.89,1.4,1.4,0,0,1,0,2A1.42,1.42,0,0,1,16.46,16.47Z"/><path class="cls-1" d="M12.28,19.78a1.21,1.21,0,0,1-.86-.36,5,5,0,0,0-3.31-1,1.22,1.22,0,1,1,0-2.43,7.39,7.39,0,0,1,5,1.75,1.22,1.22,0,0,1-.87,2.08Z"/></g></g></svg>