<svg xmlns="http://www.w3.org/2000/svg" viewBox="0 0 77.9 61.11"><defs><style>.cls-1{fill:#fff;}</style></defs><title>gore</title><g id="Layer_2" data-name="Layer 2"><g id="LEVELI"><g id="_6._SLOVENSKA_PRAZGODOVINA" data-name="6. SLOVENSKA PRAZGODOVINA"><path class="cls-1" d="M9.19,43.24a9.09,9.09,0,0,1-3.84-.72L16.89,18.21c1.84-3.86,6.42-3.86,8.25,0l.65,1.36a1.28,1.28,0,0,0,2.45-.18L33.78,3.53c1.65-4.71,7.13-4.71,8.77,0l6.2,17.75a1.28,1.28,0,0,0,2.46.18l1.54-3.25c1.84-3.86,6.42-3.86,8.25,0l11.89,25h-.51A9.67,9.67,0,0,1,66,41a15.49,15.49,0,0,0-18.86,0,10.23,10.23,0,0,1-12.73,0A15,15,0,0,0,25,37.82,15,15,0,0,0,15.56,41,9.67,9.67,0,0,1,9.19,43.24Z"/><path class="cls-1" d="M73.13,61.11H4.77c-3.67,0-6-4.82-4.12-8.68L2.2,49.15a14.17,14.17,0,0,0,7,1.67,15,15,0,0,0,9.43-3.2A9.72,9.72,0,0,1,25,45.41a9.72,9.72,0,0,1,6.37,2.21,15.49,15.49,0,0,0,18.86,0,10.27,10.27,0,0,1,12.73,0,15,15,0,0,0,9.43,3.2,15.37,15.37,0,0,0,3.89-.46l1,2.07C79.09,56.29,76.79,61.11,73.13,61.11Z"/></g></g></g></svg>