<svg xmlns="http://www.w3.org/2000/svg" viewBox="0 0 101.53 130.33"><defs><style>.cls-1{fill:#fbba4a;}.cls-2{fill:#fdca5a;}.cls-3{fill:#e75353;}.cls-4{fill:#eb6261;}.cls-5{fill:#eb9922;}.cls-6{fill:#ec9a24;}.cls-7{fill:#ec9b25;}</style></defs><title>medalja</title><g id="Layer_2" data-name="Layer 2"><g id="LEVELI"><g id="PREIZKUS_ZNANJA" data-name="PREIZKUS ZNANJA"><path class="cls-1" d="M16.93,78.27a13.32,13.32,0,0,0-2.13-2.72C3.37,60.52.92,44.1,8.82,27s22-26,41-27c.34,0,.67,0,1,.05V25.52c-1,.21-1.37,1-1.75,1.78-1.46,3-2.91,6-4.39,9a2.39,2.39,0,0,1-2.06,1.52c-3.36.37-6.69.91-10,1.41-.81.12-1.69.21-2,1.15s.25,1.63.91,2.26c2.13,2,4.16,4.18,6.41,6.06a4.13,4.13,0,0,1,1.44,4.66c-.68,3-1.16,6.07-1.56,9.13-.22,1.74.9,2.48,2.43,1.72,2.46-1.24,4.88-2.56,7.31-3.84a9.93,9.93,0,0,1,3.29-1.46q0,16.84,0,33.69a44.68,44.68,0,0,1-28.26-9.54C20.58,81.57,18.79,79.87,16.93,78.27Zm3.95-40.4c.05-1.51-.39-2-1.42-1.87s-1.25.82-1.45,1.6A34,34,0,0,0,30.43,73.49a33.07,33.07,0,0,0,10.73,5.32A1.45,1.45,0,0,0,43.07,78c.38-.85-.19-1.39-.85-1.75a9.46,9.46,0,0,0-1.64-.6,30.56,30.56,0,0,1-11.26-6.94,30.05,30.05,0,0,1-8.15-13.18,29.6,29.6,0,0,1-1.25-11.58A51,51,0,0,1,20.88,37.87Z"/><path class="cls-2" d="M50.79,25.52V.05A44.48,44.48,0,0,1,78.86,9.48a46.31,46.31,0,0,1,7.15,67c-.48.57-1.28.91-1.37,1.78a3.83,3.83,0,0,0-1.33,1.1A46.47,46.47,0,0,1,65.7,90.22a49.33,49.33,0,0,1-14.64,2.51l-.27-.14q0-16.84,0-33.69a3.66,3.66,0,0,1,1.75.62c2.91,1.53,5.8,3.08,8.71,4.6.63.32,1.29.74,2,.28s.6-1.25.59-2a4.92,4.92,0,0,0-.09-.86C63.21,58.4,62.69,55.2,62,52a2.28,2.28,0,0,1,.78-2.41c2.43-2.28,4.67-4.76,7.2-6.92.71-.61,1.41-1.28,1-2.35s-1.37-1-2.19-1.13c-3.38-.52-6.77-1-10.16-1.47a1.86,1.86,0,0,1-1.6-1.23c-1.53-3.17-3.12-6.32-4.68-9.48A2.39,2.39,0,0,0,50.79,25.52Zm34,20.77a19.67,19.67,0,0,0-.39-5c-1.8-10-6.71-18-15.34-23.54a36.56,36.56,0,0,0-8.39-3.89,1.51,1.51,0,0,0-2.09.71c-.47,1,.22,1.54,1,1.95a8.64,8.64,0,0,0,1.49.57A29,29,0,0,1,72.48,24.2c6.81,7,10,15.31,9.12,25.13-.17,1.83-.67,3.6-.91,5.42-.12.92,0,1.84,1.11,2s1.48-.67,1.72-1.57A33.29,33.29,0,0,0,84.75,46.29Z"/><path class="cls-3" d="M50.79,92.59l.27.14c0,.37,0,.74,0,1.11-.81,0-.78.79-1,1.26q-8,17-15.9,34c-.7,1.5-.7,1.51-1.9.4C28.14,125.78,24,122,20,118.24a3.69,3.69,0,0,0-2.17-1c-5.57-.7-11.13-1.46-16.69-2.17-1-.12-1.4-.28-.88-1.39q8.19-17.4,16.32-34.82a5.58,5.58,0,0,1,.39-.6c1.86,1.6,3.65,3.3,5.6,4.78A44.68,44.68,0,0,0,50.79,92.59Z"/><path class="cls-4" d="M51,93.84c0-.37,0-.74,0-1.11A49.33,49.33,0,0,0,65.7,90.22,46.47,46.47,0,0,0,83.31,79.37a3.83,3.83,0,0,1,1.33-1.1c.23.42.5.82.7,1.25,5.29,11.3,10.55,22.61,15.88,33.88.64,1.34.28,1.58-1,1.73-5.47.67-10.93,1.43-16.4,2.11a3.94,3.94,0,0,0-2.29,1.07c-4.07,3.78-8.19,7.52-12.25,11.31-.83.77-1.22.95-1.79-.28-5.44-11.75-10.95-23.48-16.43-35.21A.69.69,0,0,1,51,93.84Z"/><path class="cls-5" d="M50.79,25.52a2.39,2.39,0,0,1,1.62,1.53c1.56,3.16,3.15,6.31,4.68,9.48a1.86,1.86,0,0,0,1.6,1.23c3.39.45,6.78,1,10.16,1.47.82.13,1.82.1,2.19,1.13s-.32,1.74-1,2.35c-2.53,2.16-4.77,4.64-7.2,6.92A2.28,2.28,0,0,0,62,52c.66,3.16,1.18,6.36,1.74,9.54a4.92,4.92,0,0,1,.09.86c0,.71.18,1.49-.59,2s-1.41,0-2-.28c-2.91-1.52-5.8-3.07-8.71-4.6a3.66,3.66,0,0,0-1.75-.62,9.93,9.93,0,0,0-3.29,1.46c-2.43,1.28-4.85,2.6-7.31,3.84-1.53.76-2.65,0-2.43-1.72.4-3.06.88-6.12,1.56-9.13a4.13,4.13,0,0,0-1.44-4.66c-2.25-1.88-4.28-4-6.41-6.06-.66-.63-1.26-1.28-.91-2.26s1.21-1,2-1.15c3.34-.5,6.67-1,10-1.41a2.39,2.39,0,0,0,2.06-1.52c1.48-3,2.93-6,4.39-9C49.42,26.51,49.82,25.73,50.79,25.52Z"/><path class="cls-6" d="M20.88,37.87a51,51,0,0,0-1,6,29.6,29.6,0,0,0,1.25,11.58,30.05,30.05,0,0,0,8.15,13.18,30.56,30.56,0,0,0,11.26,6.94,9.46,9.46,0,0,1,1.64.6c.66.36,1.23.9.85,1.75a1.45,1.45,0,0,1-1.91.85,33.07,33.07,0,0,1-10.73-5.32A34,34,0,0,1,18,37.6c.2-.78.51-1.48,1.45-1.6S20.93,36.36,20.88,37.87Z"/><path class="cls-7" d="M84.75,46.29a33.29,33.29,0,0,1-1.23,8.91c-.24.9-.61,1.74-1.72,1.57s-1.23-1.1-1.11-2c.24-1.82.74-3.59.91-5.42.91-9.82-2.31-18.16-9.12-25.13A29,29,0,0,0,61,17.09a8.64,8.64,0,0,1-1.49-.57c-.75-.41-1.44-1-1-1.95a1.51,1.51,0,0,1,2.09-.71A36.56,36.56,0,0,1,69,17.75c8.63,5.56,13.54,13.55,15.34,23.54A19.67,19.67,0,0,1,84.75,46.29Z"/></g></g></g></svg>